<svg xmlns="http://www.w3.org/2000/svg" xmlns:xlink="http://www.w3.org/1999/xlink" viewBox="0 0 311.29 340.74">
    <defs>
        <style>
          .sp-distribution-1 {
            fill: #383838;
          }
          .sp-distribution-2 {
            fill: #232526;
          }
          .sp-distribution-3 {
            fill: #2d2c2c;
          }
          .sp-distribution-4 {
            fill: #4f4f4f;
          }
          .sp-distribution-5 {
            fill: #0e1116;
          }
          .sp-distribution-6 {
            fill: #252525;
          }
          .sp-distribution-7 {
            fill: #1e1e1e;
          }
          .sp-distribution-8 {
            fill: #5c5c5c;
          }
          .sp-distribution-9 {
            fill: #212121;
          }
          .sp-distribution-10 {
            fill: #121212;
          }
          .sp-distribution-11 {
            fill: url(#Безымянный_градиент_2);
          }
          .sp-distribution-12 {
            fill: #f2f2f2;
          }
          .sp-distribution-13 {
            fill: #fcfcfc;
            opacity: 0.3;
            isolation: isolate;
          }
          .sp-distribution-14 {
            fill: #535353;
          }
          .sp-distribution-15 {
            fill: #3a3a3a;
          }
          .sp-distribution-16 {
            fill: #353535;
          }
          .sp-distribution-17 {
            fill: url(#Безымянный_градиент_2-2);
          }
          .sp-distribution-18 {
            fill: #969696;
          }
          .sp-distribution-19 {
            fill: #e1e1e1;
          }
          .sp-distribution-20 {
            fill: #ababab;
          }
          .sp-distribution-21 {
            fill: #292929;
          }
        </style>
        <linearGradient id="Безымянный_градиент_2" x1="293.13" y1="174.32" x2="288.22" y2="184.44" gradientTransform="matrix(1, 0, 0, -1, 0, 342)" gradientUnits="userSpaceOnUse">
            <stop offset="0" stop-color="#fff" />
            <stop offset="1" stop-color="#dddddb" />
        </linearGradient>
        <linearGradient id="Безымянный_градиент_2-2" x1="96.41" y1="282.65" x2="91.5" y2="292.77" xlink:href="#Безымянный_градиент_2" />
    </defs>
    <path d="M149.41,161.37c-4.38,2.7-4.38,6.74,0,9.43l66.44,38.07c4.38,2.69,11.8,2.69,16.19,0s4.38-6.74,0-9.43L165.6,161C160.87,158.68,153.79,158.68,149.41,161.37Z" />
    <path class="sp-distribution-1" d="M149.41,159.69c-4.38,2.7-4.38,6.74,0,9.43l66.44,38.07c4.38,2.69,11.8,2.69,16.19,0s4.38-6.74,0-9.43L165.6,159.35C160.87,157,153.79,157,149.41,159.69Z" />
    <path d="M219.22,190.68,207.75,193,199,178.89Z" />
    <path class="sp-distribution-2" d="M174,170.81,207.75,193l2.36-1.35V148.91L174,128Z" />
    <path class="sp-distribution-3" d="M171.67,172.15,207.75,193V149.92l-36.09-20.55Z" />
    <path class="sp-distribution-4" d="M117.37,125.32,280.6,202.81V93.66L121.07,1.35,117.37,0Z" />
    <path class="sp-distribution-5" d="M278.24,93V218.31s2.36-3.37,2.36-13.81V93.66Z" />
    <path class="sp-distribution-1" d="M278.24,218,117.37,125.32V0L278.24,93Z" />
    <path class="sp-distribution-6" d="M268.12,201.46l-142-81.87V17.18L268.12,99Z" />
    <path class="sp-distribution-7" d="M127.48,119.26V17.85L268.12,99V200.12Z" />
    <path d="M290.32,246.72c-3.71,2-3.71,5.73,0,7.75l4,2.36a15.77,15.77,0,0,0,13.49,0c3.71-2,3.71-5.73,0-7.75l-4-2.36A13.75,13.75,0,0,0,290.32,246.72Z" />
    <path class="sp-distribution-1" d="M290,245.93c-3.71,2-3.71,5.73,0,7.75l4,2.36a15.76,15.76,0,0,0,13.49,0c3.71-2,3.71-5.73,0-7.75l-4-2.36A15.76,15.76,0,0,0,290,245.93Z" />
    <path class="sp-distribution-3" d="M298.81,251.66a.72.72,0,0,0,.68-.67V226.39a.72.72,0,0,0-.68-.67c-.67-.34-1,0-1,.34v24.59A.89.89,0,0,0,298.81,251.66Z" />
    <path class="sp-distribution-8" d="M299.49,248.29V156.66l-16.86-9.77v91.64Z" />
    <path class="sp-distribution-1" d="M298.81,157l-15.51-8.76v89.62l15.51,9.1Z" />
    <path class="sp-distribution-9" d="M311.29,149.58v91.63l-11.8,7.08V156.66Z" />
    <path class="sp-distribution-10" d="M284.65,159.35a13.63,13.63,0,0,0,6.07,10.44c3.37,2,6.07.34,6.07-3.37A13.63,13.63,0,0,0,290.72,156C287.35,154,284.65,155.65,284.65,159.35Z" />
    <path class="sp-distribution-9" d="M285,159.69a12.61,12.61,0,0,0,5.4,9.77c3,1.68,5.73.34,5.73-3.37a12.08,12.08,0,0,0-5.73-9.77C287.68,154.64,285,156,285,159.69Z" />
    <path class="sp-distribution-10" d="M285.66,160c0,3.37,2.36,7.41,5.06,8.76,2.7,1.68,5.06.34,5.06-3s-2.36-7.41-5.06-8.76C287.68,155.31,285.66,156.66,285.66,160Z" />
    <path class="sp-distribution-9" d="M286,160c0,3,2,6.74,4.72,8.09s4.72.34,4.72-2.69-2-6.74-4.72-8.09S286,157,286,160Z" />
    <path class="sp-distribution-10" d="M286.34,160.36a9.6,9.6,0,0,0,4.38,7.41c2.36,1.35,4.38.34,4.38-2.36a9.6,9.6,0,0,0-4.38-7.41C288.36,156.66,286.34,157.67,286.34,160.36Z" />
    <path class="sp-distribution-11" d="M286.67,160.36a8.66,8.66,0,0,0,4,7.07c2.36,1.35,4,.34,4-2.36a8.66,8.66,0,0,0-4-7.07C288.36,157,286.67,158,286.67,160.36Z" />
    <path class="sp-distribution-12" d="M288.7,165.75A8,8,0,0,1,287,161c0-2.7,1.69-3.71,4-2.36a8.94,8.94,0,0,1,2,1.69,7.88,7.88,0,0,0-2.36-2.36c-2.36-1.35-4-.34-4,2.36A7.64,7.64,0,0,0,288.7,165.75Z" />
    <path class="sp-distribution-10" d="M289,162a4.16,4.16,0,0,0,1.35,2.7c.68.34,1.35,0,1.35-1a4.15,4.15,0,0,0-1.35-2.69C289.71,160.7,289,161,289,162Z" />
    <path class="sp-distribution-9" d="M289.37,162a2.84,2.84,0,0,0,1.35,2.36c.67.34,1.35,0,1.35-.67a3.41,3.41,0,0,0-1.35-2.36C290,160.7,289.37,161,289.37,162Z" />
    <path class="sp-distribution-10" d="M289.37,162a2.4,2.4,0,0,0,1,2c.68.34,1,0,1-.67a2.4,2.4,0,0,0-1-2C290,161,289.37,161.37,289.37,162Z" />
    <path class="sp-distribution-13" d="M289.71,162c0,.34.34,1,.67,1,.34.34.67,0,.67-.34a2.55,2.55,0,0,0-.67-1.35C290,161.71,289.71,161.71,289.71,162Z" />
    <path class="sp-distribution-14" d="M311.29,149.58l-11.8,7.07-16.86-9.77,11.8-7.07Z" />
    <path class="sp-distribution-15" d="M309.61,150.59l-9.78,6.06-.67,90.29V156.66l-14.84-8.76,15.18,8.42Z" />
    <path d="M93.7,139.15c-3.71,2-3.71,5.73,0,7.75l4,2.36a15.77,15.77,0,0,0,13.49,0c3.71-2,3.71-5.73,0-7.75l-4-2.36A15.76,15.76,0,0,0,93.7,139.15Z" />
    <path class="sp-distribution-1" d="M93.42,138.13c-3.71,2-3.71,5.73,0,7.75l4,2.36a15.76,15.76,0,0,0,13.49,0c3.71-2,3.71-5.73,0-7.75l-4-2.36A15.76,15.76,0,0,0,93.42,138.13Z" />
    <path class="sp-distribution-3" d="M102.19,143.85a.72.72,0,0,0,.67-.67V118.59a.67.67,0,0,0-1.35,0v24.59C101.18,143.52,101.51,143.85,102.19,143.85Z" />
    <path class="sp-distribution-8" d="M102.86,139.81V48.18L86,38.41V130Z" />
    <path class="sp-distribution-1" d="M102.19,48.51,86.67,39.75v90l15.51,8.76Z" />
    <path class="sp-distribution-9" d="M114.67,41.44v91.64l-11.8,6.74V48.18Z" />
    <path class="sp-distribution-16" d="M93.76,131.05Z" />
    <path class="sp-distribution-10" d="M88,50.87a13.63,13.63,0,0,0,6.07,10.44c3.37,2,6.07.34,6.07-3.37A13.63,13.63,0,0,0,94.09,47.5C90.72,45.48,88,47.17,88,50.87Z" />
    <path class="sp-distribution-9" d="M88.36,51.21A12.61,12.61,0,0,0,93.76,61c3,1.68,5.73.34,5.73-3.37a12.07,12.07,0,0,0-5.73-9.77C91.06,46.16,88.36,47.84,88.36,51.21Z" />
    <path class="sp-distribution-10" d="M89,51.55c0,3.37,2.36,7.41,5.06,8.76,2.7,1.68,5.06.34,5.06-3a11.32,11.32,0,0,0-5.06-8.76C91.06,46.83,89,48.18,89,51.55Z" />
    <path class="sp-distribution-9" d="M89.37,51.88c0,3,2,6.74,4.72,8.09,2.36,1.35,4.72.34,4.72-2.7s-2-6.74-4.72-8.09C91.4,47.5,89.37,48.85,89.37,51.88Z" />
    <path class="sp-distribution-10" d="M89.71,51.88a9.6,9.6,0,0,0,4.38,7.41c2.36,1.35,4.38.34,4.38-2.36a9.6,9.6,0,0,0-4.38-7.41C91.73,48.18,89.71,49.19,89.71,51.88Z" />
    <path class="sp-distribution-17" d="M90,52.22a8.66,8.66,0,0,0,4,7.07c2.36,1.35,4,.34,4-2.36a8.66,8.66,0,0,0-4-7.07C91.73,48.51,90,49.52,90,52.22Z" />
    <path class="sp-distribution-12" d="M92.07,57.61a8,8,0,0,1-1.69-4.72c0-2.7,1.69-3.71,4-2.36a8.94,8.94,0,0,1,2,1.68,7.87,7.87,0,0,0-2.36-2.36c-2.36-1.35-4-.34-4,2.36A9,9,0,0,0,92.07,57.61Z" />
    <path class="sp-distribution-10" d="M92.41,53.57a4.16,4.16,0,0,0,1.35,2.7c.67.34,1.35,0,1.35-1a4.16,4.16,0,0,0-1.35-2.7C93.08,52.22,92.41,52.56,92.41,53.57Z" />
    <path class="sp-distribution-9" d="M92.75,53.57a2.84,2.84,0,0,0,1.35,2.36c.67.34,1.35,0,1.35-.67a2.84,2.84,0,0,0-1.35-2.36C93.42,52.56,92.75,52.89,92.75,53.57Z" />
    <path class="sp-distribution-10" d="M92.74,53.9a2.4,2.4,0,0,0,1,2c.67.34,1,0,1-.67a2.4,2.4,0,0,0-1-2C93.42,52.89,92.74,53.23,92.74,53.9Z" />
    <path class="sp-distribution-13" d="M93.08,53.9a2.55,2.55,0,0,0,.67,1.35c.34.34.67,0,.67-.34a2.55,2.55,0,0,0-.67-1.35C93.42,53.23,93.08,53.23,93.08,53.9Z" />
    <path class="sp-distribution-14" d="M114.67,41.44l-11.8,6.74L86,38.41l11.8-6.74Z" />
    <path class="sp-distribution-15" d="M113,42.45l-9.78,5.73-.67,90.29v-90l-14.84-9.1,15.18,8.42Z" />
    <path d="M121,210.47,61.52,253l87,50,62.38-44.57a6,6,0,0,0-.5-10.08L142.64,209.4A20,20,0,0,0,121,210.47Z" />
    <path class="sp-distribution-18" d="M150.6,175.44l-81.51-47c-2.31-1.35-7.71.58-7.71,3.85l2.12,117.9a3.18,3.18,0,0,0,1.73,2.89l80,49.12c4.43,2.51,6.94-1.16,6.55-5l.38-118.67A3.3,3.3,0,0,0,150.6,175.44Z" />
    <path class="sp-distribution-19" d="M148.1,177,66.59,130a3.49,3.49,0,0,0-5.2,3.08L61,251.73a3.18,3.18,0,0,0,1.73,2.89l81.51,47a3.47,3.47,0,0,0,5.2-2.89l.38-118.67A4.24,4.24,0,0,0,148.1,177Z" />
    <path class="sp-distribution-7" d="M145.4,181.61,65.82,135.76l-.39,107.5L145,289.11Z" />
    <path class="sp-distribution-18" d="M100.89,266.37c-1.73-1-3.08-.19-3.08,1.73a6.86,6.86,0,0,0,3.08,5.39c1.73,1,3.08.19,3.08-1.73A7.17,7.17,0,0,0,100.89,266.37Z" />
    <path d="M58,290.54,2,321.83l30.5,17.5,53.83-30.05a4,4,0,0,0,0-7L65.93,290.59A8,8,0,0,0,58,290.54Z" />
    <path class="sp-distribution-20" d="M31.24,258.94,8.56,245.89c-3.3-2-8.26-.6-8.26,3.15L2.4,315.2a13.14,13.14,0,0,0,5.86,10.2l21.48,14.7c3.3,1.95,7.36-.9,7.21-5l.15-66C37.1,265.39,34.54,260.74,31.24,258.94Z" />
    <path class="sp-distribution-21" d="M31.24,258.94,8.56,245.89c-3.3-2-8.26-.6-8.26,3.15L2.4,315.2a13.14,13.14,0,0,0,5.86,10.2l21.48,14.7c3.3,1.95,7.36-.9,7.21-5l.15-66C37.1,265.39,34.54,260.74,31.24,258.94Z" />
    <path class="sp-distribution-1" d="M28.84,259.84,6.16,246.79c-3.3-1.8-6-.3-6,3.45l-.15,66a13.14,13.14,0,0,0,5.86,10.2l22.68,13.05c3.3,2,6,.3,6-3.45l.15-66C34.7,266.29,32,261.79,28.84,259.84Z" />
    <path class="sp-distribution-7" d="M28.39,261.79l-1.2-.75c-.45-.3-.75,0-.75.45v.3c0,.75-.45.9-1.05.6l-15.92-9a2.34,2.34,0,0,1-1.05-2V251a1.26,1.26,0,0,0-.6-1.05l-1.35-.75c-2.7-1.5-4.81-.3-4.81,2.7L1.5,316.1a10.41,10.41,0,0,0,4.81,8.25l21.93,12.75c2.7,1.5,4.81.3,4.81-2.7l.15-64.21A10.68,10.68,0,0,0,28.39,261.79Z" />
</svg>