<svg xmlns="http://www.w3.org/2000/svg" viewBox="0 0 432.43 255.07">
  <defs>
    <style>
      .sp-digital-bg-1 {
        fill: #ababab;
      }
      .sp-digital-bg-2 {
        fill: #afafaf;
      }
      .sp-digital-bg-3 {
        fill: #f2f2f2;
      }
      .sp-digital-bg-4 {
        fill: #1e1e1e;
      }
      .sp-digital-bg-5 {
        fill: #292929;
      }
      .sp-digital-bg-6 {
        fill: #cdd1d3;
      }
      .sp-digital-bg-7 {
        fill: #383838;
      }
      .sp-digital-bg-8 {
        fill: #242424;
      }
    </style>
  </defs>
  <path d="M114.63,85.09,3.83,147l58.34,33.47L170.75,119.8a4,4,0,0,0,0-7l-48.28-27.7A8,8,0,0,0,114.63,85.09Z" />
  <path class="sp-digital-bg-1" d="M59.75,26.67,16.37,1.7C10.05-2,.57.55.57,7.73l4,126.55c0,7.17,5.17,16.07,11.2,19.51l41.08,28.12c6.32,3.73,14.08-1.72,13.79-9.47L71,46.18C71,39,66.07,30.11,59.75,26.67Z" />
  <path class="sp-digital-bg-2" d="M59.75,26.67,16.37,1.7C10.05-2,.57.55.57,7.73l4,126.55c0,7.17,5.17,16.07,11.2,19.51l41.08,28.12c6.32,3.73,14.08-1.72,13.79-9.47L71,46.18C71,39,66.07,30.11,59.75,26.67Z" />
  <path class="sp-digital-bg-3" d="M55.16,28.39l-43.38-25C5.46,0,.29,2.85.29,10L0,136.28c0,7.17,5.17,16.07,11.2,19.51l43.38,25c6.32,3.73,11.49.57,11.49-6.6L66.36,47.9C66.36,40.73,61.19,32.12,55.16,28.39Z" />
  <path class="sp-digital-bg-4" d="M54.29,32.12,52,30.68c-.86-.57-1.44,0-1.44.86v.57c0,1.43-.86,1.72-2,1.15L18.1,16a4.48,4.48,0,0,1-2-3.73v-.86a2.42,2.42,0,0,0-1.15-2L12.35,8c-5.17-2.87-9.19-.57-9.19,5.17L2.87,136c0,5.74,4,12.91,9.19,15.78L54,176.17c5.17,2.87,9.19.57,9.19-5.17l.29-122.82C63.49,42.16,59.47,35.27,54.29,32.12Z" />
  <path d="M289.76,88l-141,79.94,144.91-3.76,10.4,90.88,120.24-68.17a16,16,0,0,0-.07-27.87L297.62,88A8,8,0,0,0,289.76,88Z" />
  <path class="sp-digital-bg-5" d="M188.09,162.14l-14.2,8.11L182,158.09Z" />
  <path class="sp-digital-bg-5" d="M190.11,22.69,175.41,30.8l11.16,1.52Z" />
  <path class="sp-digital-bg-5" d="M320.95,244.8l-13.69,8.11,4.06-10.65Z" />
  <path class="sp-digital-bg-6" d="M169.32,162.65c9.63,5.58,23.33,0,30.43-12.17l9.13-15.72c7.1-12.68,20.79-18.26,30.43-12.17,9.64,5.58,21.3,21.3,25.86,34.48l18.26,52.23c4.56,13.69,10.14,27.38,25.86,34.48,11.66,5.58,17.75-1.52,17.75-15.72V117.52c0-14.2-10.14-31.95-22.31-39L209.38,23.19c-12.17-7.1-25.36-1.52-28.91,12.17l-22.82,91.79C154.62,141.35,159.69,157.07,169.32,162.65Z" />
  <path class="sp-digital-bg-5" d="M169.32,162.65c9.63,5.58,23.33,0,30.43-12.17l9.13-15.72c7.1-12.68,20.79-18.26,30.43-12.17,9.64,5.58,21.3,21.3,25.86,34.48l18.26,52.23c4.56,13.69,10.14,27.38,25.86,34.48,11.66,5.58,17.75-1.52,17.75-15.72V117.52c0-14.2-10.14-31.95-22.31-39L209.38,23.19c-12.17-7.1-25.36-1.52-28.91,12.17l-22.82,91.79C154.62,141.35,159.69,157.07,169.32,162.65Z" />
  <path class="sp-digital-bg-7" d="M154.62,171.27c9.64,5.58,23.33,0,30.43-12.17l9.13-15.72c7.1-12.68,20.79-18.26,30.43-12.17,9.63,5.58,21.3,21.3,25.86,34.48l18.26,52.23c4.56,13.69,10.14,27.38,25.86,34.48,11.66,5.58,17.75-1.52,17.75-15.72V126.14c0-14.2-10.14-31.95-22.31-39L194.68,31.82c-12.17-7.1-25.36-1.52-28.91,12.17L143,135.77C139.91,150,145,165.69,154.62,171.27Z" />
  <path class="sp-digital-bg-8" d="M191.63,63.76,189.1,77.46l-10.65-7.1-2,13.69,10.14,6.59-2,13.69,10.14,6.59,2.54-13.19,10.65,6.59,2.53-13.69L199.75,84l2.54-13.69Z" />
  <path class="sp-digital-bg-3" d="M188.59,65.29,186.06,79l-10.65-7.1-2,13.69,10.14,6.59-2,13.69,10.14,6.59,2.54-13.18,10.65,6.59,2.54-13.69-10.65-6.59,2.54-13.69Z" />
  <path class="sp-digital-bg-8" d="M191.63,63.76l-3,1.52,10.65,6.59,3-1.52Z" />
  <path class="sp-digital-bg-8" d="M199.75,84l-3,1.52,10.65,6.59,3-1.52Z" />
  <path class="sp-digital-bg-8" d="M186.06,79l.51-3.55-8.11-5.07-3,1.52Z" />
  <path class="sp-digital-bg-8" d="M210.4,90.64l-3,1.52-2.54,13.69,3-1.52Z" />
  <path class="sp-digital-bg-8" d="M194.68,110.92l-3,1.52,2.54-13.18,2.53,1.52Z" />
  <path class="sp-digital-bg-8" d="M256.67,118.62c-.51,3.55,1,9.36,4,11.39s7.52-.83,8.54-4.89c.51-3.55-1-8.11-4.06-10.14S257.17,114.56,256.67,118.62Z" />
  <path class="sp-digital-bg-3" d="M256,120.05c-.51,3.55,1,8.11,4.06,10.14s5.58.51,6.59-3.55c.51-3.55-1-8.11-4.06-10.14S256.55,116,256,120.05Z" />
  <path class="sp-digital-bg-8" d="M270.07,111.25c-.51,3.55,1,10,4,12.06s6.8-1.22,7.81-5.28c.51-3.55-1-8.11-4.06-10.14A5.4,5.4,0,0,0,270.07,111.25Z" />
  <path class="sp-digital-bg-3" d="M269.22,113c-.51,3.55,1,8.11,4.06,10.14s5.58.51,6.59-3.55c.51-3.55-1-8.11-4.06-10.14C272.77,107.88,269.73,109.4,269.22,113Z" />
  <path class="sp-digital-bg-8" d="M264.71,138.72c-.51,3.55,1.65,10,4.69,12.06s6.92-1.32,7.94-5.37c.51-3.55-1-8.11-4.06-10.14S265.22,134.66,264.71,138.72Z" />
  <path class="sp-digital-bg-3" d="M264.15,140.34c-.51,3.55,1,8.11,4.06,10.14s5.58.51,6.59-3.55c.51-3.55-1-8.11-4.06-10.14S264.66,136.28,264.15,140.34Z" />
  <path class="sp-digital-bg-8" d="M278.11,132c-.55,3.76,1.36,9.24,4.69,11.39s6.64-.41,7.75-4.71A10.07,10.07,0,0,0,286.11,128C282.78,126.34,279.22,128.26,278.11,132Z" />
  <path class="sp-digital-bg-3" d="M277.34,133.24c-.51,3.55,1,8.11,4.06,10.14s5.58.51,6.59-3.55c.51-3.55-1-8.11-4.06-10.14C280.89,128.17,277.84,129.69,277.34,133.24Z" />
</svg>