<svg xmlns="http://www.w3.org/2000/svg" viewBox="0 0 327.04 254.29">
  <defs>
    <style>
      .sp-digital-fg-1-1 {
        fill: #ababab;
      }
      .sp-digital-fg-1-2 {
        fill: #7b2900;
      }
      .sp-digital-fg-1-3 {
        fill: #ff5400;
      }
      .sp-digital-fg-1-4 {
        fill: #1e1e1e;
      }
      .sp-digital-fg-1-5 {
        fill: #292929;
      }
      .sp-digital-fg-1-6 {
        fill: #cdd1d3;
      }
      .sp-digital-fg-1-7 {
        fill: #242424;
      }
      .sp-digital-fg-1-8 {
        fill: #fff;
      }
      .sp-digital-fg-1-9 {
        fill: #f2f2f2;
      }
    </style>
  </defs>
  <path class="sp-digital-fg-1-1" d="M59.75,26.66l-43.38-25C10.05-2,.57.54.57,7.72l4,126.55c0,7.17,5.17,16.07,11.2,19.51L56.85,181.9c6.32,3.73,14.08-1.72,13.79-9.47L71,46.17C71,39,66.07,30.1,59.75,26.66Z" />
  <path class="sp-digital-fg-1-2" d="M59.75,26.66l-43.38-25C10.05-2,.57.54.57,7.72l4,126.55c0,7.17,5.17,16.07,11.2,19.51L56.85,181.9c6.32,3.73,14.08-1.72,13.79-9.47L71,46.17C71,39,66.07,30.1,59.75,26.66Z" />
  <path class="sp-digital-fg-1-3" d="M55.16,28.38l-43.38-25C5.46,0,.29,2.84.29,10L0,136.27c0,7.17,5.17,16.07,11.2,19.51l43.38,25c6.32,3.73,11.49.57,11.49-6.6l.29-126.29C66.36,40.72,61.19,32.11,55.16,28.38Z" />
  <path class="sp-digital-fg-1-4" d="M54.29,32.11,52,30.67c-.86-.57-1.44,0-1.44.86v.57c0,1.44-.86,1.72-2,1.15L18.1,16a4.48,4.48,0,0,1-2-3.73V11.4A2.42,2.42,0,0,0,15,9.4L12.35,8c-5.17-2.87-9.19-.57-9.19,5.17L2.87,136c0,5.74,4,12.91,9.19,15.78L54,176.16c5.17,2.87,9.19.57,9.19-5.17l.29-122.82C63.49,42.15,59.46,35.26,54.29,32.11Z" />
  <path class="sp-digital-fg-1-2" d="M188.08,162.13l-14.2,8.11L182,158.08Z" />
  <path class="sp-digital-fg-1-5" d="M190.11,22.68l-14.7,8.11,11.16,1.52Z" />
  <path class="sp-digital-fg-1-2" d="M321,244.79l-13.69,8.11,4.06-10.65Z" />
  <path class="sp-digital-fg-1-6" d="M169.32,162.64c9.64,5.58,23.33,0,30.43-12.17l9.13-15.72c7.1-12.68,20.79-18.26,30.43-12.17,9.63,5.58,21.3,21.3,25.86,34.48l18.26,52.23c4.56,13.69,10.14,27.38,25.86,34.48C320.95,249.35,327,242.25,327,228V117.51c0-14.2-10.14-32-22.31-39L209.38,23.18c-12.17-7.1-25.36-1.52-28.91,12.17l-22.82,91.79C154.62,141.34,159.69,157.06,169.32,162.64Z" />
  <path class="sp-digital-fg-1-2" d="M169.32,162.64c9.64,5.58,23.33,0,30.43-12.17l9.13-15.72c7.1-12.68,20.79-18.26,30.43-12.17,9.63,5.58,21.3,21.3,25.86,34.48l18.26,52.23c4.56,13.69,10.14,27.38,25.86,34.48C320.95,249.35,327,242.25,327,228V117.51c0-14.2-10.14-32-22.31-39L209.38,23.18c-12.17-7.1-25.36-1.52-28.91,12.17l-22.82,91.79C154.62,141.34,159.69,157.06,169.32,162.64Z" />
  <path class="sp-digital-fg-1-3" d="M154.62,171.26c9.64,5.58,23.33,0,30.43-12.17l9.13-15.72c7.1-12.68,20.79-18.26,30.43-12.17,9.64,5.58,21.3,21.3,25.86,34.48l18.26,52.23c4.56,13.69,10.14,27.38,25.86,34.48,11.66,5.58,17.75-1.52,17.75-15.72V126.13c0-14.2-10.14-31.95-22.31-39L194.68,31.81c-12.17-7.1-25.36-1.52-28.91,12.17L143,135.76C139.91,150,145,165.68,154.62,171.26Z" />
  <path class="sp-digital-fg-1-7" d="M191.64,63.75l-2.54,13.7-10.65-7.1-2,13.69,10.14,6.59-2,13.69,10.14,6.59,2.54-13.18,10.65,6.59,2.54-13.69L199.75,84l2.54-13.69Z" />
  <path class="sp-digital-fg-1-8" d="M188.21,65l-2.54,13.69L175,71.58l-2,13.69,10.14,6.59-2,13.69,10.14,6.59L193.79,99l10.65,6.59L207,91.87l-10.65-6.59,2.54-13.69Z" />
  <path class="sp-digital-fg-1-7" d="M191.64,63.75l-3,1.52,10.65,6.59,3-1.52Z" />
  <path class="sp-digital-fg-1-7" d="M199.75,84l-3,1.52L207.4,92.1l3-1.52Z" />
  <path class="sp-digital-fg-1-7" d="M186.06,79l.51-3.55-8.11-5.07-3,1.52Z" />
  <path class="sp-digital-fg-1-7" d="M210.4,90.63l-3,1.52-2.54,13.69,3-1.52Z" />
  <path class="sp-digital-fg-1-7" d="M194.68,110.91l-3,1.52,2.54-13.18,2.54,1.52Z" />
  <path class="sp-digital-fg-1-7" d="M256.67,118.61c-.51,3.55,1,9.36,4,11.39s7.52-.83,8.54-4.89c.51-3.55-1-8.11-4.06-10.14S257.17,114.55,256.67,118.61Z" />
  <path class="sp-digital-fg-1-9" d="M256,120c-.51,3.55,1,8.11,4.06,10.14s5.58.51,6.59-3.55c.51-3.55-1-8.11-4.06-10.14S256.55,116,256,120Z" />
  <path class="sp-digital-fg-1-7" d="M270.07,111.23c-.51,3.55,1,10,4,12.06s6.8-1.23,7.81-5.28c.51-3.55-1-8.11-4.06-10.14a5.4,5.4,0,0,0-7.75,3.36Z" />
  <path class="sp-digital-fg-1-9" d="M269.22,113c-.51,3.55,1,8.11,4.06,10.14s5.58.51,6.59-3.55c.51-3.55-1-8.11-4.06-10.14C272.77,107.87,269.73,109.39,269.22,113Z" />
  <path class="sp-digital-fg-1-7" d="M264.71,138.71c-.51,3.55,1.65,10,4.69,12.06s6.92-1.32,7.94-5.37c.51-3.55-1-8.11-4.06-10.14S265.22,134.65,264.71,138.71Z" />
  <path class="sp-digital-fg-1-9" d="M264.15,140.32c-.51,3.55,1,8.11,4.06,10.14s5.58.51,6.59-3.55c.51-3.55-1-8.11-4.06-10.14S264.66,136.27,264.15,140.32Z" />
  <path class="sp-digital-fg-1-7" d="M278.11,132c-.55,3.76,1.36,9.24,4.69,11.39s6.64-.41,7.75-4.71A10.07,10.07,0,0,0,286.11,128C282.78,126.33,279.22,128.25,278.11,132Z" />
  <path class="sp-digital-fg-1-9" d="M277.34,133.23c-.51,3.55,1,8.11,4.06,10.14s5.58.51,6.59-3.55c.51-3.55-1-8.11-4.06-10.14C280.89,128.16,277.84,129.68,277.34,133.23Z" />
</svg>