<svg xmlns="http://www.w3.org/2000/svg" viewBox="0 0 298.98 236">
  <defs>
    <style>        
      .sp-rights-bg-1 {
        fill: #252525;
      }
      .sp-rights-bg-2 {
        fill: #383838;
      }
      .sp-rights-bg-3 {
        fill: #fff;
      }
      .sp-rights-bg-4 {
        fill: #1a1a1a;
      }
      .sp-rights-bg-5 {
        fill: #292929;
      }
      .sp-rights-bg-6 {
        fill: #282828;
      }
    </style>
  </defs>
  <path d="M204.37,65.69a2,2,0,0,1,2,0L298,116.81a2,2,0,0,1,0,3.48L95.7,235.41,0,182Z" />
  <path class="sp-rights-bg-1" d="M88.89,0,1.53,50.45V181.56l2.66,1.33,84.7-51.78L91.55,1.66Z" />
  <path class="sp-rights-bg-2" d="M91.55,1.66,4.19,51.78V182.89l87.36-50.45Z" />
  <path class="sp-rights-bg-3" d="M5.52,175.59V53.77L24.45,65.06V186.54Z" />
  <path class="sp-rights-bg-3" d="M5.52,53.77,86.9,7l19.6,11.29L25.12,65.39Z" />
  <path class="sp-rights-bg-1" d="M108.82,11.29,21.13,61.74V192.85l2.66,1.33,85-51.78,2.33-129.45Z" />
  <path class="sp-rights-bg-4" d="M111.15,12.95,23.79,63.4V194.18l87.36-50.12Z" />
  <path class="sp-rights-bg-2" d="M1.53,50.45V181.56l22.26,12.95V63.4Z" />
  <path class="sp-rights-bg-2" d="M94.21,15.93,12.83,74l13,121.15,2.66,1.66,83.38-59.41L96.87,17.26Z" />
  <path class="sp-rights-bg-5" d="M96.87,17.26,15.48,75.35l13,121.48,86-58.09Z" />
  <path class="sp-rights-bg-3" d="M29.44,189.53l-13-112.19,19.27,11,13,112.19Z" />
  <path class="sp-rights-bg-3" d="M16.48,77.34,92.22,22.9l19.6,11.29L36.41,88.63Z" />
  <path class="sp-rights-bg-2" d="M113.81,27.22,32.42,85.31l13,121.48L48,208.12l83.71-59.41L116.46,28.88Z" />
  <path class="sp-rights-bg-4" d="M116.46,28.88,35.08,86.63,48,208.12,134.4,150Z" />
  <path class="sp-rights-bg-6" d="M12.83,74l13,121.49L48,208.45,35.08,87Z" />
  <path class="sp-rights-bg-1" d="M137.39,27.88,50,78.33V209.11l2.66,1.66,84.7-52.11L140,29.21Z" />
  <path class="sp-rights-bg-2" d="M140,29.21,52.36,79.66l.33,131.11L140,160.32Z" />
  <path class="sp-rights-bg-3" d="M53.68,203.47V81.65L73,92.61V214.43Z" />
  <path class="sp-rights-bg-3" d="M53.68,81.65l81.71-46.8L155,46.14,73.61,92.94Z" />
  <path class="sp-rights-bg-1" d="M157,39.17,69.63,89.62V220.73l2.66,1.33L157,170.28l2.66-129.45Z" />
  <path class="sp-rights-bg-4" d="M159.65,40.83,72.29,90.95V222.06l87.36-50.45Z" />
  <path class="sp-rights-bg-2" d="M50,78.34V209.45c4,2.65,0,0,22.26,12.94V91.28Z" />
  <path class="sp-rights-bg-1" d="M161.64,41.82,73.95,91.94V223.05l2.66,1.66,85-52.11L164,43.15Z" />
  <path class="sp-rights-bg-2" d="M164,43.15,76.6,93.6V224.71L164,174.26Z" />
  <path class="sp-rights-bg-3" d="M77.93,217.41V95.6l19.27,11V228.37Z" />
  <path class="sp-rights-bg-3" d="M77.93,95.6l81.71-47.13,19.6,11.62-81.71,46.8Z" />
  <path class="sp-rights-bg-1" d="M181.24,53.11,93.88,103.56V234.34L96.53,236l84.7-51.78L183.9,54.44Z" />
  <path class="sp-rights-bg-2" d="M183.9,54.44,96.53,104.89V236l87.36-50.45Z" />
  <path class="sp-rights-bg-2" d="M73.95,91.94V223.05c4,2.66,0,0,22.26,12.95V104.89Z" />
  <path class="sp-rights-bg-1" d="M26.45,61.74,23.79,63.4,1.53,50.45l2.66-1.66Z" />
  <path class="sp-rights-bg-1" d="M74.94,89.62,72,91.18,49.7,78.34l2.66-1.66Z" />
  <path class="sp-rights-bg-2" d="M37.4,85l-2.92,1.56L12.26,74l2.66-1.66Z" />
  <path class="sp-rights-bg-1" d="M99.19,103.56,95.78,105l-21.83-13,2.66-1.33Z" />
</svg>