<svg xmlns="http://www.w3.org/2000/svg" xmlns:xlink="http://www.w3.org/1999/xlink" viewBox="0 0 277.25 267.89">
    <defs>
        <style>
          .sp-specials-bg-1 {
              fill: none;
          }
          .sp-specials-bg-2 {
              clip-path: url(#sp-specials-bg-clip-path);
          }
          .sp-specials-bg-3 {
              fill: #2a2a2a;
          }
          .sp-specials-bg-4 {
              fill: #222;
          }
          .sp-specials-bg-5 {
              fill: #383838;
          }
          .sp-specials-bg-6 {
              fill: #3a3a3a;
          }
          .sp-specials-bg-7 {
              fill: #1e1e1e;
          }
          .sp-specials-bg-8 {
              fill: #828282;
          }
          .sp-specials-bg-9 {
              fill: #bcbcbc;
          }
        </style>
        <clipPath id="sp-specials-bg-clip-path">
            <rect class="sp-specials-bg-1" x="0.9" width="164.87" height="266.07" />
        </clipPath>
    </defs>
    <g id="Слой_2" data-name="Слой 2">
        <g id="Слой_1-2" data-name="Слой 1">
            <path d="M186.79,106.68a2,2,0,0,1,2,0L276.27,159a2,2,0,0,1,0,3.45L91.41,267.89,0,213.2Z" />
            <g class="sp-specials-bg-2">
                <path class="sp-specials-bg-3" d="M91.12,266.07l74-43,.64-170.91-74,43.28Z" />
                <path class="sp-specials-bg-4" d="M91.75,95.48l74-43.28L75.55,0,1.22,43.28Z" />
                <path class="sp-specials-bg-5" d="M1.22,43.28.9,213.87l90.21,52.2.64-170.59Z" />
                <path class="sp-specials-bg-6" d="M88.89,97.07l-84.81-49L3.76,212.28l84.5,49Z" />
                <path class="sp-specials-bg-7" d="M47,163.59c15.57,8.91,28.27,30.87,28.27,48.69S62.53,237.42,47,228.51s-28.27-30.87-28-48.69C18.69,161.68,31.4,154.36,47,163.59Z" />
                <path class="sp-specials-bg-8" d="M50.14,181.09c6,3.5,10.8,11.78,10.8,18.78,0,6.68-4.76,9.55-10.8,6s-10.8-11.78-10.8-18.46C39.34,180.14,44.1,177.59,50.14,181.09Z" />
                <path class="sp-specials-bg-9" d="M50.14,205.6c-6-3.5-10.8-11.78-10.8-18.46a6.21,6.21,0,0,1,.32-2.55c1.59-2.23,4.45-2.55,7.94-.64,5.08,2.86,9.21,10.18,9.21,16.23,0,3.82-1.59,6-4.45,6.68A8,8,0,0,1,50.14,205.6Z" />
                <path class="sp-specials-bg-7" d="M47,81.79c15.57,8.91,28.27,30.87,28.27,48.69S62.53,155.63,47,146.72,18.69,115.85,19,98C18.69,79.88,31.4,72.56,47,81.79Z" />
                <path class="sp-specials-bg-8" d="M50.14,99.3c6,3.18,10.8,11.78,10.8,18.46s-4.76,9.55-10.8,6S39.34,112,39.34,105.34,44.1,95.8,50.14,99.3Z" />
                <path class="sp-specials-bg-9" d="M50.14,124.12c-6-3.5-10.8-11.78-10.8-18.46a6.21,6.21,0,0,1,.32-2.55c1.59-2.23,4.45-2.55,7.94-.64,5.08,2.86,9.21,10.18,9.21,16.23,0,3.82-1.59,6-4.45,6.68A8,8,0,0,0,50.14,124.12Z" />
            </g>
        </g>
    </g>
</svg>