<svg xmlns="http://www.w3.org/2000/svg" viewBox="0 0 191.84 234.61">
    <defs>
        <style>
          .sp-specials-fg-2-1 {
            fill: #fff500;
          }
          .sp-specials-fg-2-2 {
            fill: none;
            stroke: #00fff0;
            stroke-width: 2px;
          }
        </style>
    </defs>
    <g id="Слой_2" data-name="Слой 2">
        <g id="Слой_1-2" data-name="Слой 1">
            <path class="sp-specials-fg-2-1" d="M83.63,73.88c-.34-.86-1.18-1.3-1.45-.76-2.24,4.38-3.48,10-3.48,16.59a67.08,67.08,0,0,0,3,19.23c.26.87,1.11,1.42,1.46.95a1,1,0,0,0,.05-.86,64.18,64.18,0,0,1-2.9-18.35,34.9,34.9,0,0,1,3.31-15.84A1.2,1.2,0,0,0,83.63,73.88Z" />
            <path class="sp-specials-fg-2-1" d="M152,114.24a1,1,0,0,1,0-.89c.34-.46,1.18.06,1.45.92a68.05,68.05,0,0,1,3.48,20.6,37.3,37.3,0,0,1-3.05,15.7c-.26.57-1.12.13-1.46-.74a1.22,1.22,0,0,1-.05-.93,35.77,35.77,0,0,0,2.9-15A65.13,65.13,0,0,0,152,114.24Z" />
            <path class="sp-specials-fg-2-2" d="M151.56,148.05l.8.85-.8-.85a2.47,2.47,0,0,0,.11,1.86c.7,1.74,2.45,2.7,3,1.51a38.13,38.13,0,0,0,3.12-16.05,69.58,69.58,0,0,0-3.56-21.06c-.58-1.8-2.3-2.83-3-1.9l.74.94-.74-.94a2.06,2.06,0,0,0-.09,1.8,63.61,63.61,0,0,1,3.23,19.21A34.91,34.91,0,0,1,151.56,148.05ZM84.37,73.79c-.69-1.71-2.41-2.68-3-1.54-2.29,4.48-3.56,10.18-3.56,17a68.57,68.57,0,0,0,3.12,19.65c.55,1.83,2.31,2.9,3,2a2,2,0,0,0,.11-1.74,62.69,62.69,0,0,1-2.83-17.92,34.09,34.09,0,0,1,3.24-15.47A2.41,2.41,0,0,0,84.37,73.79Z" />
            <path class="sp-specials-fg-2-1" d="M31.35,3.11c-.27-.69-.9-1.15-1.29-.94-17.4,9.61-28.2,30.75-28.2,61,0,29.91,10.53,63.06,27.55,92.48.38.66,1,.93,1.29.56a1.25,1.25,0,0,0-.13-1.26C13.87,126.08,3.53,93.52,3.53,64.15c0-29.73,10.6-50.49,27.69-59.93C31.49,4.07,31.55,3.61,31.35,3.11Z" />
            <path class="sp-specials-fg-2-1" d="M161.11,231.5c-.2-.49-.14-1,.13-1.11,16.72-9.6,27.06-30.21,27.07-59.58,0-29.73-10.59-62.73-27.67-91.88a1.26,1.26,0,0,1-.13-1.27c.28-.37.9-.1,1.29.55,17.4,29.69,28.19,63.29,28.18,93.57,0,29.9-10.54,50.9-27.57,60.67C162,232.65,161.39,232.19,161.11,231.5Z" />
            <path class="sp-specials-fg-2-2" d="M32.09,3c-.56-1.4-1.85-2.35-2.63-1.92C11.9,10.8,1,32.14,1,62.69,1,92.87,11.63,126.34,28.81,156c.78,1.35,2.08,1.9,2.65,1.14a2.54,2.54,0,0,0-.26-2.56C14.63,126,4.39,93.74,4.4,64.65c0-29.45,10.5-50,27.43-59.37C32.38,5,32.5,4,32.09,3l-.74.09ZM160.63,229.33c-.55.32-.67,1.24-.26,2.26.56,1.41,1.86,2.36,2.65,1.91,17.19-9.86,27.82-31,27.82-61.23,0-30.55-10.89-64.47-28.44-94.43-.79-1.34-2.07-1.88-2.63-1.13a2.55,2.55,0,0,0,.27,2.58c16.92,28.89,27.41,61.57,27.41,91C187.44,199.4,177.19,219.82,160.63,229.33Z" />
            <path class="sp-specials-fg-2-1" d="M59.44,39.21c-.3-.74-1-1.2-1.35-.89-8.9,7.53-14.23,20.58-14.23,38.14,0,17.17,5.09,35.92,13.64,53.39.36.73,1.06,1.08,1.35.68a1.18,1.18,0,0,0-.06-1.14c-8.31-17-13.27-35.25-13.27-52,0-17.09,5.18-29.79,13.84-37.13A1,1,0,0,0,59.44,39.21Z" />
            <path class="sp-specials-fg-2-1" d="M156.54,96.37a1.18,1.18,0,0,1-.07-1.15c.29-.4,1-.06,1.35.66,8.89,17.8,14.22,37,14.22,54.56,0,17.17-5.1,30-13.65,37.64-.36.32-1.06-.14-1.36-.89a1,1,0,0,1,.06-1.07c8.32-7.41,13.28-19.93,13.28-36.64C170.38,132.39,165.2,113.7,156.54,96.37Z" />
            <path class="sp-specials-fg-2-2" d="M60.18,39.12c-.6-1.5-2-2.46-2.76-1.83l.67,1-.67-1C48.4,44.93,43,58.16,43,76c0,17.41,5.16,36.41,13.83,54.12.74,1.51,2.17,2.21,2.78,1.39l-.74-.94.74.94a2.38,2.38,0,0,0-.12-2.31c-8.2-16.77-13.09-34.76-13.08-51.24C46.4,61.06,51.51,48.53,60,41.3A2,2,0,0,0,60.18,39.12Zm95.55,55.15a2.41,2.41,0,0,0,.14,2.34c8.53,17.09,13.64,35.51,13.64,52.36,0,16.48-4.89,28.83-13.09,36.13a2,2,0,0,0-.12,2.16c.6,1.51,2,2.47,2.78,1.81,8.67-7.71,13.84-20.74,13.84-38.15,0-17.79-5.4-37.26-14.41-55.3C157.75,94.14,156.33,93.47,155.73,94.27Z" />
        </g>
    </g>
</svg>