<svg xmlns="http://www.w3.org/2000/svg" viewBox="0 0 164.86 266.07">
    <defs>
        <style>        
          .sp-specials-fg-1-1 {
            fill: #96732e;
          }
          .sp-specials-fg-1-2 {
            fill: #ddaa43;
          }
          .sp-specials-fg-1-3 {
            fill: #ffc145;
          }
          .sp-specials-fg-1-4 {
            fill: #1a1307;
          }
          .sp-specials-fg-1-5 {
            fill: #828282;
          }
          .sp-specials-fg-1-6 {
            fill: #c3c3c3;
          }
        </style>
    </defs>
    <g id="Слой_2" data-name="Слой 2">
        <g id="Слой_1-2" data-name="Слой 1">
            <path class="sp-specials-fg-1-1" d="M90.21,266.07l74-43,.63-170.91-74,43.28Z" />
            <path class="sp-specials-fg-1-2" d="M90.85,95.48l74-43.28L74.65,0,.32,43.28Z" />
            <path class="sp-specials-fg-1-3" d="M.32,43.28,0,213.87l90.21,52.2.64-170.59Z" />
            <path class="sp-specials-fg-1-3" d="M88,97.07l-84.82-49L2.86,212.28l84.5,49Z" />
            <path class="sp-specials-fg-1-4" d="M46.06,163.59c15.56,8.91,28.27,30.87,28.27,48.69s-12.71,25.14-28.27,16.23-28.27-30.87-28-48.69C17.79,161.68,30.5,154.36,46.06,163.59Z" />
            <path class="sp-specials-fg-1-5" d="M49.24,181.09c6,3.5,10.8,11.78,10.8,18.78,0,6.68-4.76,9.55-10.8,6s-10.8-11.78-10.8-18.46C38.44,180.14,43.2,177.59,49.24,181.09Z" />
            <path class="sp-specials-fg-1-6" d="M38.44,187.14c-.44,6.68,5.89,17.61,13,19.73,2.86-.64,4.45-2.86,4.45-6.68,0-6-4.13-13.37-9.21-16.23-3.49-1.91-6.35-1.59-7.94.64a6.21,6.21,0,0,0-.32,2.55Z" />
            <path class="sp-specials-fg-1-4" d="M46.06,81.79c15.56,8.91,28.27,30.87,28.27,48.69s-12.71,25.14-28.27,16.23S17.79,115.85,18.11,98C17.79,79.88,30.5,72.56,46.06,81.79Z" />
            <path class="sp-specials-fg-1-5" d="M49.24,99.3c6,3.18,10.8,11.78,10.8,18.46s-4.76,9.55-10.8,6S38.44,112,38.44,105.34,43.2,95.8,49.24,99.3Z" />
            <path class="sp-specials-fg-1-6" d="M38.44,105.66c-.18,7.79,7.32,17.93,13.68,19.37,2.86-.64,3.79-2.5,3.79-6.32,0-6-4.13-13.37-9.21-16.23-3.49-1.91-6.35-1.59-7.94.64a6.21,6.21,0,0,0-.32,2.55Z" />
        </g>
    </g>
</svg>