<?xml version="1.0" standalone="no"?>
<!DOCTYPE svg PUBLIC "-//W3C//DTD SVG 20010904//EN"
 "http://www.w3.org/TR/2001/REC-SVG-20010904/DTD/svg10.dtd">
<svg version="1.0" xmlns="http://www.w3.org/2000/svg"
 width="317.000000pt" height="317.000000pt" viewBox="0 0 317.000000 317.000000"
 preserveAspectRatio="xMidYMid meet">
<metadata>
Created by potrace 1.11, written by Peter Selinger 2001-2013
</metadata>
<g transform="translate(0.000000,317.000000) scale(0.100000,-0.100000)"
fill="#000000" stroke="none">
<path d="M1468 3165 c-2 -2 -28 -5 -58 -9 -30 -3 -64 -8 -75 -10 -373 -79
-682 -292 -872 -601 -77 -125 -136 -265 -162 -385 -5 -25 -13 -58 -17 -75 -4
-16 -8 -113 -10 -215 -2 -153 1 -200 17 -275 28 -131 54 -206 115 -330 152
-308 422 -545 747 -655 l82 -28 36 -98 c42 -115 75 -183 134 -274 51 -80 139
-186 164 -200 16 -8 84 56 518 489 515 516 570 578 657 741 52 99 110 261 126
352 6 35 13 74 16 88 2 14 4 93 4 175 1 143 -11 242 -42 350 -6 22 -12 45 -13
50 -5 23 -71 174 -98 225 -106 195 -286 384 -475 499 -121 73 -287 136 -437
166 -64 13 -347 29 -357 20z"/>
</g>
</svg>
