<svg xmlns="http://www.w3.org/2000/svg" viewBox="0 0 11 13"><g id="Слой_2" data-name="Слой 2"><path d="M5.07,5.8a.48.48,0,0,0,0-.65.41.41,0,0,0-.61,0L2.19,7.58a2.27,2.27,0,0,0,0,3.06,1.93,1.93,0,0,0,2.86,0l5.12-5.48A3.11,3.11,0,0,0,11,3,3.11,3.11,0,0,0,10.17.89a2.7,2.7,0,0,0-4,0L1.07,6.36a4.08,4.08,0,0,0,0,5.5,3.47,3.47,0,0,0,5.14,0L8.47,9.43a.48.48,0,0,0,0-.65.41.41,0,0,0-.61,0L5.6,11.21a2.65,2.65,0,0,1-3.93,0,3.12,3.12,0,0,1,0-4.2L6.78,1.54A1.88,1.88,0,0,1,8.17.92a1.91,1.91,0,0,1,1.39.62A2.16,2.16,0,0,1,10.13,3a2.19,2.19,0,0,1-.57,1.49L4.44,10a1.12,1.12,0,0,1-1.65,0,1.3,1.3,0,0,1,0-1.77Z" fill="#adb3b8" id="Слой_1-2" data-name="Слой 1"/></g></svg>