<svg xmlns="http://www.w3.org/2000/svg" viewBox="0 0 18 16.5"><g id="Слой_2" data-name="Слой 2"><g id="Слой_1-2" data-name="Слой 1"><path d="M7,12.5a2,2,0,1,0,2,2A2,2,0,0,0,7,12.5Z"/><path d="M14,12.5a2,2,0,1,0,2,2A2,2,0,0,0,14,12.5Z"/><path d="M17.87,4.75a.64.64,0,0,0-.48-.23h-13L4,2.87A1.81,1.81,0,0,0,2.19,1.5H.6a.58.58,0,1,0,0,1.15H2.19a.59.59,0,0,1,.58.46L4.31,9.83A2.22,2.22,0,0,0,6.48,11.5h8.15a2.18,2.18,0,0,0,2.15-1.62L18,5.27A.77.77,0,0,0,17.87,4.75Z"/><circle class="svg-icon__cart-circle" cx="11" cy="4.5" r="4"/><path class="svg-icon__cart-bar" d="M11,2.5v4" stroke="red"/><path class="svg-icon__cart-bar" d="M9,4.5h4" stroke="red"/></g></g></svg>