<svg width="11" height="11" viewBox="0 0 11 11" xmlns="http://www.w3.org/2000/svg"><path fill-rule="evenodd" clip-rule="evenodd" d="M1.70726 0.292893C1.31673 -0.0976311 0.683569 -0.0976311 0.293044 0.292893C-0.09748 0.683417 -0.0974802 1.31658 0.293044 1.70711L3.12142 4.53548C3.51194 4.926 3.51194 5.55917 3.12142 5.94969L0.292893 8.77822C-0.0976311 9.16874 -0.097631 9.8019 0.292893 10.1924C0.683418 10.583 1.31658 10.583 1.70711 10.1924L4.53563 7.36391C4.92615 6.97338 5.55932 6.97338 5.94984 7.36391L8.77833 10.1924C9.16885 10.5829 9.80201 10.5829 10.1925 10.1924C10.5831 9.80186 10.5831 9.1687 10.1925 8.77817L7.36406 5.94969C6.97353 5.55917 6.97353 4.926 7.36406 4.53548L10.1924 1.70715C10.5829 1.31662 10.5829 0.683458 10.1924 0.292934C9.80186 -0.0975908 9.1687 -0.0975905 8.77817 0.292934L5.94984 3.12127C5.55932 3.51179 4.92615 3.51179 4.53563 3.12127L1.70726 0.292893Z"/></svg>