<svg xmlns="http://www.w3.org/2000/svg" viewBox="0 0 480.35 484.3"><defs><style>.cls-1{fill:#ee531c}.cls-3{fill:#fff}.cls-4{fill:#f91}.cls-5{fill:#ffd78a}.cls-6{fill:#f18700}.cls-7{fill:#fec377}.cls-8{fill:#ff9a3d}.cls-9{fill:#cd2a01}.cls-10{fill:#ff5023}</style></defs><g id="Слой_2" data-name="Слой 2"><g id="Слой_1-2" data-name="Слой 1"><path class="cls-1" d="M480.35,325.76C373.43,503.67,268.91,369.3,244.08,302.12l5.21-20.84C279.72,375.53,398.26,382.26,480.35,325.76Z"/><path class="cls-1" d="M224.7,403.33c-17.8-90.61-10-102.56,8.91-98,7.49-17.85,28,7.58,30.56,100.4,2.59,92.33-17.14,79.48-30.56,75.88C224.7,479.23,229.15,426,224.7,403.33Z"/><path class="cls-1" d="M155.48,399.7c-15.77-87-20.72-101.18-5.5-101.18,7.69,4.35,41.71,13.62,43,103,1.29,88.9-15.8,84.63-30,73.48C153.52,467.59,159.42,421.46,155.48,399.7Z"/><path class="cls-1" d="M112.72,224.68c30.55-77,43-81.6,55.49-76.89,4.1,4.27,17.73,2.57-25.79,80.74-43.29,77.75-55.1,73-61.15,62.39C77.25,283.89,105.08,243.93,112.72,224.68Z"/><path class="cls-1" d="M187.22,354.21C114.74,351,135,221,152,146.25c28-42.47,62-12.47,69.68,1.6,9.61,17.63,17.62,60.9,21.62,92.56C253.43,276.48,260.5,357.42,187.22,354.21Z"/><path class="cls-1" d="M136.14,7.21c14,9.62,28.4,18.66,38.26,24.84-1.25,11-22.49,14.3-24.25,11.91C137,26,135.31,12,136.14,7.21Z"/><path class="cls-1" d="M180.81,0C228,19.19,233.27,48.48,236.07,69.32c-7.77,3-26.78-2.44-37.65-9.53C186,51.68,181.68,12.39,180.81,0Z"/><path class="cls-1" d="M123.15,155.07c-29.47,2.57-40.31-7.48-42-12.82l44-26c4.8-18.43-10-88.55,66.48-85.75C260.07,33,231,113.33,226.86,120.21,210,148.26,160,151.86,123.15,155.07Z"/><path d="M103.49,139.52a1.2,1.2,0,0,1,1-.48,2.66,2.66,0,0,1,.39,0,1.52,1.52,0,0,1,.33.09,1.24,1.24,0,0,1,.66.65,1.22,1.22,0,0,1-.13,1.19,1.34,1.34,0,0,1-.32.32,1.87,1.87,0,0,1-.31.17l-.4.15h0l-.27.1a33,33,0,0,1-10.1,2.64,33.53,33.53,0,0,1-5,.23,11.77,11.77,0,0,1-5.13-1.26,1.2,1.2,0,0,1,1.16-2.11,9.43,9.43,0,0,0,4.08,1A31.44,31.44,0,0,0,94,142a30.66,30.66,0,0,0,9.36-2.44Z"/><path d="M160.44,91.44a7.75,7.75,0,0,0-2.19,7.62,1.2,1.2,0,1,1-2.32.61,10.16,10.16,0,0,1,2.81-9.92,11.46,11.46,0,0,1,8.17-3.59,19.36,19.36,0,0,1,5.15,1,10.22,10.22,0,0,1,4.9,3.31A1.2,1.2,0,0,1,175,91.9a7.84,7.84,0,0,0-3.77-2.49,17,17,0,0,0-4.5-.85A9.11,9.11,0,0,0,160.44,91.44Z"/><path d="M91.92,142.87a1.2,1.2,0,0,1,1.67.29c1.44,2,5.89,6.33,19.28,7.91a1.2,1.2,0,0,1-.28,2.39c-13.84-1.63-19-6.15-21-8.91A1.2,1.2,0,0,1,91.92,142.87Z"/><path d="M417.32,363.88a1.2,1.2,0,0,1-.67,1.56,75.63,75.63,0,0,1-26.1,5,1.2,1.2,0,0,1-.06-2.4,73.23,73.23,0,0,0,25.27-4.86A1.2,1.2,0,0,1,417.32,363.88Z"/><path d="M447.4,357.31a1.2,1.2,0,0,1-.47,1.63l-2.29,1.27c-5.18,2.89-10.44,5.82-15.81,8.4a1.2,1.2,0,0,1-1-2.17c5.3-2.54,10.49-5.43,15.67-8.33l2.3-1.28A1.2,1.2,0,0,1,447.4,357.31Z"/><path d="M417.28,379.85a1.2,1.2,0,0,1-.54,1.61,21.11,21.11,0,0,1-3.74,1.31l-.51.14c-3.78,1.08-7.64,2-11.47,3-2.68.67-5.34,1.34-8,2a1.2,1.2,0,0,1-.62-2.32c2.71-.73,5.4-1.4,8.07-2.08,3.79-1,7.55-1.9,11.33-3l.54-.15a18.85,18.85,0,0,0,3.3-1.14A1.2,1.2,0,0,1,417.28,379.85Z"/><path d="M359.68,374.81a1.2,1.2,0,0,1,1.34-1c1.25.15,2.49.32,3.72.48,5.34.71,10.53,1.41,15.75.76a1.2,1.2,0,0,1,.3,2.39c-5.56.7-11.13-.05-16.49-.77-1.2-.16-2.39-.32-3.57-.46A1.2,1.2,0,0,1,359.68,374.81Z"/><path d="M183.59,3.32a1.2,1.2,0,0,1,1.55.71c3.65,9.84,7.18,19.12,14.79,26.19,4.68,4.35,10.06,8.14,16.1,7.63a1.2,1.2,0,0,1,.2,2.4c-7.16.6-13.23-3.89-17.93-8.27-8.09-7.52-11.78-17.35-15.4-27.12A1.2,1.2,0,0,1,183.59,3.32Z"/><path d="M138.2,10.92A1.2,1.2,0,0,1,139.51,12a29.91,29.91,0,0,0,9.43,19A24.16,24.16,0,0,0,161,36.64a1.2,1.2,0,0,1-.45,2.36,26.55,26.55,0,0,1-13.22-6.16,32.31,32.31,0,0,1-10.22-20.61A1.2,1.2,0,0,1,138.2,10.92Z"/><path d="M130.14,90.2a4.57,4.57,0,0,0-3.6-1.25,2.71,2.71,0,0,0-2.37,2.4,1.2,1.2,0,1,1-2.4-.09,5.11,5.11,0,0,1,4.45-4.69,7,7,0,0,1,5.49,1.82,9.65,9.65,0,0,1,3,4.75,11.55,11.55,0,0,1,.25,2c0,.75.05,1.55,0,2.24s0,1.26,0,1.58c0,.07,0,.15,0,.22h0a1.36,1.36,0,0,1,0,.22,1.24,1.24,0,0,1-.08.2,1.2,1.2,0,0,1-.6.58,1.2,1.2,0,0,1-1.64-.75h0a1.22,1.22,0,0,1,0-.21h0s0-.06,0-.08,0-.08,0-.12,0-.17,0-.29a1.22,1.22,0,0,1,.05-.35c0-.27,0-.62,0-1,0-.66,0-1.41,0-2.1a9.57,9.57,0,0,0-.18-1.58A7.24,7.24,0,0,0,130.14,90.2Z"/><path d="M125.55,336.58c4-78.14,9.61-121.54,20-151.46h72.48c-12.49,36.86,5.21,112.33,15.62,145.45Z" fill="#f0f0f0"/><path class="cls-3" d="M149.21,153.11a2,2,0,0,1,1.59,2.34,90.56,90.56,0,0,0-1.27,16.35c0,1.6,0,3.22,0,4.85,0,4,0,8.06-.19,12.07a2,2,0,1,1-4-.22c.21-3.89.2-7.77.19-11.72,0-1.66,0-3.33,0-5a94.6,94.6,0,0,1,1.34-17.07A2,2,0,0,1,149.21,153.11Z"/><path class="cls-3" d="M236.92,145.22a2,2,0,0,1,1.75,2.23,3.73,3.73,0,0,1-.79,1.88l-.07.09-.85,1.17c-1,1.34-1.91,2.64-2.8,4a163.36,163.36,0,0,0-11.57,20.25c-2.24,4.76-4.32,9.61-6.42,14.49l-1.49,3.47a2,2,0,1,1-3.68-1.59l1.48-3.44c2.1-4.88,4.21-9.81,6.48-14.64a167.39,167.39,0,0,1,11.85-20.75c.95-1.44,2-2.84,2.94-4.19l.81-1.12.08-.11,0,0,0-.07A2,2,0,0,1,236.92,145.22ZM234.7,147Z"/><path class="cls-3" d="M245.63,244.16a2,2,0,0,1,1.12,2.6,2.81,2.81,0,0,1-1.7,1.62,5,5,0,0,1-1.09.23h0a34.31,34.31,0,0,0-4.77,1.06c-.8.22-1.64.44-2.52.66l-4.88,1.17c-5.89,1.41-11.73,2.8-17.55,4.45a2,2,0,0,1-1.09-3.85c5.9-1.67,11.85-3.09,17.76-4.5l4.82-1.16c.64-.16,1.34-.35,2.08-.54a42.44,42.44,0,0,1,5.65-1.26h0A2,2,0,0,1,245.63,244.16Z"/><path class="cls-1" d="M151,221.52c47.63-73.07,61.33-74.19,73.16-65.34,3.3,5.82,17.63,8.16-43.54,78.5-60.85,70-71.94,61.28-75.9,48.1C102.13,274,139.12,239.79,151,221.52Z"/><path class="cls-4" d="M155,250.17c0-.23-.05-.46-.08-.69l-.26-2.24a29.27,29.27,0,0,0-7.83-16.54l-.29.11-.06-.49c-4.56-4.93-10.73-9.1-18.33-12.39a94.26,94.26,0,0,0-25.83-6.71l-.61,1.11-.13-1.2a130.44,130.44,0,0,0-58.36,6.77l.13,1.17-.83-.91a93.84,93.84,0,0,0-23.17,12.19c-6.77,5-11.87,10.53-15.19,16.48l.06.49-.3,0A29.27,29.27,0,0,0,.15,264.53l1.25,10.89a29.28,29.28,0,0,0,7.82,16.52v0h0l.28-.1.06.49c4.56,4.93,10.74,9.1,18.35,12.39a94.34,94.34,0,0,0,25.82,6.71h0v0l.61-1.11.14,1.21a130.41,130.41,0,0,0,58.36-6.77l-.13-1.15.82.9-.83-7.32.84,7.31a93.91,93.91,0,0,0,23.17-12.19c6.76-5,11.87-10.53,15.19-16.48l-.06-.49.29,0a29.25,29.25,0,0,0,3.73-17.24l-.87-7.7C155,250.35,155,250.26,155,250.17Z"/><path class="cls-5" d="M101.89,214.06,77.67,258.22,43.53,220.83a130.38,130.38,0,0,1,58.36-6.77Z"/><path class="cls-6" d="M101.89,214.06l.9,8L78.57,266.19l-.9-8Z"/><path class="cls-6" d="M77.66,258.22l.9,8L44.43,228.8l-.9-8Z"/><path class="cls-6" d="M146.79,233.25l.9,8L79.31,266.28l-.9-8Z"/><path class="cls-5" d="M128.46,220.87c7.61,3.29,13.77,7.46,18.34,12.39L78.41,258.31l24.22-44.16A94.26,94.26,0,0,1,128.46,220.87Z"/><path class="cls-6" d="M77,258.48l.9,8L5.37,257.72l-.9-8Z"/><path class="cls-5" d="M42.83,221.09,77,258.48,4.47,249.76c3.32-5.95,8.42-11.49,15.19-16.48A93.84,93.84,0,0,1,42.83,221.09Z"/><path class="cls-5" d="M147.15,233.64a27.9,27.9,0,0,1,4.11,33.78L78.76,258.7Z"/><path class="cls-6" d="M151.25,267.42l.9,8-72.49-8.72-.9-8Z"/><path class="cls-5" d="M76.72,258.93,8.33,284a27.91,27.91,0,0,1-4.11-33.78Z"/><path class="cls-6" d="M76.72,258.93l.9,8L9.23,292l-.9-8Z"/><path class="cls-5" d="M151,267.87c-3.32,6-8.42,11.49-15.19,16.48a93.87,93.87,0,0,1-23.17,12.19L78.51,259.15Z"/><path class="cls-6" d="M112.64,296.54l.9,8L79.41,267.11l-.9-8Z"/><path class="cls-6" d="M77.06,259.32l.9,8L53.74,311.44l-.9-8Z"/><path class="cls-5" d="M77.07,259.31,52.84,303.47A94.32,94.32,0,0,1,27,296.76c-7.61-3.29-13.78-7.46-18.34-12.39Z"/><path class="cls-5" d="M77.81,259.4l34.13,37.39a130.4,130.4,0,0,1-58.36,6.77Z"/><path class="cls-6" d="M101.55,211.14l.36,3.19-3,5.51-.36-3.19Z"/><path class="cls-4" d="M98.53,216.65l.36,3.19a115.1,115.1,0,0,0-51.07,5.92l-.36-3.19A115.1,115.1,0,0,1,98.53,216.65Z"/><path class="cls-6" d="M47.46,222.57l.36,3.19-4.26-4.67-.36-3.19Z"/><path class="cls-7" d="M101.55,211.14l-3,5.51a115.1,115.1,0,0,0-51.07,5.92L43.2,217.9a130.42,130.42,0,0,1,58.36-6.77Z"/><path class="cls-4" d="M137.92,233.46l.36,3.19a47.08,47.08,0,0,0-16.06-10.81,82.79,82.79,0,0,0-22.59-5.91l-.36-3.19a82.8,82.8,0,0,1,22.59,5.91A47.09,47.09,0,0,1,137.92,233.46Z"/><path class="cls-6" d="M146.46,230.33l.36,3.19-8.54,3.13-.36-3.18Z"/><path class="cls-7" d="M128.13,217.94c7.6,3.29,13.77,7.46,18.33,12.39l-8.54,3.13a47.1,47.1,0,0,0-16.06-10.81,82.8,82.8,0,0,0-22.59-5.91l3-5.51A94.32,94.32,0,0,1,128.13,217.94Z"/><path class="cls-7" d="M42.5,218.16l4.26,4.67A81.89,81.89,0,0,0,26.2,233.74a46.34,46.34,0,0,0-13,14.18l-9.06-1.09c3.32-5.95,8.42-11.49,15.19-16.48A93.83,93.83,0,0,1,42.5,218.16Z"/><path class="cls-4" d="M46.76,222.83l.36,3.19a81.9,81.9,0,0,0-20.56,10.91,46.34,46.34,0,0,0-13,14.18l-.36-3.19a46.34,46.34,0,0,1,13-14.18A81.9,81.9,0,0,1,46.76,222.83Z"/><path class="cls-6" d="M13.19,247.92l.36,3.19L4.49,250l-.36-3.19Z"/><path class="cls-4" d="M10.1,266.72l-.36-3.19a25.69,25.69,0,0,1,3.21-15.16l.36,3.19A25.69,25.69,0,0,0,10.1,266.72Z"/><path class="cls-4" d="M145.06,248.23l.36,3.19a25.83,25.83,0,0,0-6.8-14.38l-.36-3.19A25.84,25.84,0,0,1,145.06,248.23Z"/><path class="cls-7" d="M146.81,230.71a27.91,27.91,0,0,1,4.11,33.78l-9.07-1.09c5.5-10.22,4.21-20.88-3.58-29.56Z"/><path class="cls-6" d="M150.92,264.49l.36,3.19-9.07-1.09-.36-3.19Z"/><path class="cls-8" d="M154.64,247.25l1.24,10.89a29.25,29.25,0,0,1-3.73,17.24l-1.24-10.89A29.25,29.25,0,0,0,154.64,247.25Z"/><path class="cls-6" d="M16.54,277.93l.36,3.19-8.55,3.13L8,281.07Z"/><path class="cls-8" d="M8,281.07,9.24,292a29.29,29.29,0,0,1-7.84-16.54L.15,264.53A29.28,29.28,0,0,0,8,281.07Z"/><path class="cls-7" d="M12.94,248.38c-5.49,10.22-4.2,20.87,3.6,29.55L8,281.07a27.91,27.91,0,0,1-4.11-33.78Z"/><path class="cls-6" d="M112.31,293.62l.36,3.19-4.27-4.68-.36-3.19Z"/><path class="cls-8" d="M150.67,264.95l1.25,10.89c-3.31,5.95-8.42,11.49-15.19,16.48a93.91,93.91,0,0,1-23.17,12.19l-1.25-10.89a93.91,93.91,0,0,0,23.17-12.19C142.24,276.44,147.35,270.89,150.67,264.95Z"/><path class="cls-7" d="M150.67,264.95c-3.31,5.95-8.42,11.49-15.19,16.48a93.94,93.94,0,0,1-23.17,12.19L108,288.94A81.85,81.85,0,0,0,128.6,278a46.34,46.34,0,0,0,13-14.16Z"/><path class="cls-6" d="M55.54,295l.36,3.19-3,5.53-.36-3.19Z"/><path class="cls-7" d="M55.54,295l-3,5.53a94.28,94.28,0,0,1-25.83-6.71c-7.61-3.29-13.78-7.46-18.34-12.39l8.55-3.13a47.12,47.12,0,0,0,16,10.8A82.85,82.85,0,0,0,55.54,295Z"/><path class="cls-8" d="M52.51,300.55l1.25,10.89a94.32,94.32,0,0,1-25.83-6.71c-7.61-3.29-13.79-7.46-18.35-12.39L8.34,281.45c4.56,4.93,10.73,9.1,18.34,12.39A94.32,94.32,0,0,0,52.51,300.55Z"/><path class="cls-7" d="M107.33,289.19l4.27,4.68a130.4,130.4,0,0,1-58.36,6.77l3-5.53A115.1,115.1,0,0,0,107.33,289.19Z"/><path class="cls-8" d="M111.6,293.87l1.25,10.89a130.4,130.4,0,0,1-58.36,6.77l-1.25-10.89a130.44,130.44,0,0,0,58.36-6.77Z"/><path class="cls-9" d="M68.85,235.07a12.92,12.92,0,0,0,11.65-1.35c1.48-1.11,2.14-2.41,2-3.63l-.18-1.59s0,.07,0,.11c-.1-1.27-1.05-2.45-2.83-3.22a12.92,12.92,0,0,0-11.64,1.35c-1.49,1.11-2.15,2.42-2,3.64h0L66,232C66.17,233.18,67.12,234.32,68.85,235.07Zm28.71-1.69A12.92,12.92,0,0,0,109.21,232c1.49-1.11,2.14-2.42,2-3.63L111,226.8s0,.07,0,.11c-.1-1.27-1.05-2.45-2.83-3.22A12.92,12.92,0,0,0,96.56,225c-1.49,1.11-2.15,2.42-2,3.64h0l.18,1.59C94.88,231.49,95.83,232.63,97.56,233.37Zm41,15.54c-.09-1.27-1.05-2.45-2.83-3.22A12.91,12.91,0,0,0,124.09,247c-1.49,1.11-2.14,2.42-2,3.64h0l.18,1.59c.14,1.23,1.09,2.37,2.82,3.11A12.92,12.92,0,0,0,136.74,254c1.49-1.11,2.14-2.41,2-3.63l-.18-1.59S138.57,248.88,138.57,248.91Zm-35.13,10.8-.18-1.59s0,.07,0,.11c-.09-1.27-1-2.45-2.83-3.22a12.92,12.92,0,0,0-11.64,1.35c-1.49,1.11-2.15,2.42-2,3.64h0l.18,1.59c.14,1.23,1.09,2.36,2.82,3.11a12.92,12.92,0,0,0,11.65-1.35C102.92,262.23,103.58,260.93,103.44,259.71Zm17.86.83a12.92,12.92,0,0,0-11.64,1.35c-1.49,1.11-2.14,2.42-2,3.64h0l.18,1.59c.14,1.23,1.09,2.37,2.82,3.11a12.92,12.92,0,0,0,11.64-1.35c1.49-1.11,2.14-2.41,2-3.63l-.18-1.59s0,.07,0,.11C124,262.49,123.08,261.31,121.3,260.54ZM114,274.63A12.92,12.92,0,0,0,102.36,276c-1.49,1.11-2.15,2.42-2,3.64h0l.18,1.59c.14,1.23,1.09,2.37,2.83,3.12A12.92,12.92,0,0,0,115,283c1.49-1.11,2.14-2.41,2-3.63l-.18-1.59s0,.07,0,.11C116.74,276.58,115.78,275.4,114,274.63ZM88.1,250.12a12.92,12.92,0,0,0,11.64-1.35c1.49-1.11,2.14-2.41,2-3.63l-.18-1.59s0,.07,0,.11c-.1-1.27-1.05-2.45-2.83-3.22a12.92,12.92,0,0,0-11.64,1.35c-1.49,1.11-2.15,2.42-2,3.64h0l.18,1.59C85.42,248.24,86.37,249.37,88.1,250.12Zm-43.79,2.52L44.13,251s0,.07,0,.11c-.09-1.27-1.05-2.45-2.83-3.22a12.92,12.92,0,0,0-11.65,1.35c-1.49,1.11-2.15,2.42-2,3.64h0l.18,1.59c.14,1.23,1.09,2.37,2.83,3.11a12.92,12.92,0,0,0,11.64-1.35C43.79,255.15,44.45,253.85,44.31,252.64ZM31.84,263.85A12.92,12.92,0,0,0,20.2,265.2c-1.49,1.11-2.15,2.42-2,3.64h0l.18,1.59c.14,1.23,1.09,2.36,2.82,3.11a12.92,12.92,0,0,0,11.64-1.35c1.48-1.11,2.14-2.41,2-3.63L34.67,267s0,.07,0,.11C34.58,265.8,33.63,264.62,31.84,263.85Zm35.85,2.22-.18-1.59s0,.07,0,.11c-.1-1.27-1.05-2.45-2.83-3.22A12.92,12.92,0,0,0,53,262.71c-1.49,1.11-2.14,2.42-2,3.64h0l.18,1.59c.14,1.23,1.09,2.37,2.82,3.11a12.92,12.92,0,0,0,11.65-1.35C67.17,268.58,67.83,267.28,67.69,266.07ZM80.46,278l-.18-1.59s0,.07,0,.11c-.09-1.27-1.05-2.45-2.83-3.22a12.92,12.92,0,0,0-11.64,1.35c-1.49,1.11-2.15,2.42-2,3.64h0l.18,1.59c.14,1.23,1.09,2.36,2.82,3.11a12.92,12.92,0,0,0,11.64-1.35C79.94,280.49,80.6,279.19,80.46,278Zm12.88,4.75a12.92,12.92,0,0,0-11.65,1.35c-1.49,1.11-2.14,2.42-2,3.64h0l.18,1.59c.14,1.23,1.09,2.36,2.82,3.11a12.92,12.92,0,0,0,11.65-1.35c1.49-1.11,2.14-2.41,2-3.63l-.18-1.59s0,.07,0,.1C96.07,284.67,95.12,283.49,93.34,282.72Zm-39.45-3a12.92,12.92,0,0,0-11.64,1.35c-1.49,1.11-2.15,2.42-2,3.64h0l.18,1.59c.14,1.23,1.09,2.37,2.82,3.11a12.92,12.92,0,0,0,11.64-1.35c1.48-1.11,2.14-2.41,2-3.63l-.18-1.59s0,.07,0,.11C56.62,281.71,55.66,280.54,53.88,279.76ZM37.34,239.15A12.92,12.92,0,0,0,49,237.8c1.49-1.11,2.14-2.41,2-3.63l-.18-1.59s0,.07,0,.11c-.09-1.27-1.05-2.45-2.83-3.22a12.92,12.92,0,0,0-11.65,1.35c-1.49,1.11-2.14,2.42-2,3.64h0l.18,1.59C34.65,237.26,35.6,238.4,37.34,239.15ZM59.18,252.5a12.92,12.92,0,0,0,11.64-1.35c1.48-1.11,2.14-2.41,2-3.63l-.18-1.59s0,.07,0,.11c-.09-1.27-1-2.45-2.83-3.22a12.92,12.92,0,0,0-11.64,1.35c-1.49,1.11-2.15,2.42-2,3.64h0l.18,1.59C56.49,250.61,57.45,251.75,59.18,252.5Z"/><path class="cls-9" d="M82.32,228.5l.18,1.59c.14,1.21-.52,2.52-2,3.63a12.92,12.92,0,0,1-11.65,1.35c-1.73-.75-2.69-1.88-2.82-3.11l-.18-1.59c.14,1.23,1.09,2.37,2.82,3.11a12.92,12.92,0,0,0,11.65-1.35C81.8,231,82.46,229.71,82.32,228.5Z"/><path class="cls-10" d="M79.5,225.38c3.44,1.49,3.81,4.51.82,6.74a12.92,12.92,0,0,1-11.65,1.35c-3.44-1.49-3.81-4.51-.82-6.74A12.92,12.92,0,0,1,79.5,225.38Z"/><path class="cls-9" d="M111,226.8l.18,1.59c.14,1.21-.52,2.52-2,3.63a12.92,12.92,0,0,1-11.65,1.35c-1.73-.75-2.69-1.89-2.82-3.11l-.18-1.59c.14,1.23,1.09,2.37,2.82,3.11A12.92,12.92,0,0,0,109,230.43C110.51,229.32,111.17,228,111,226.8Z"/><path class="cls-10" d="M108.21,223.69c3.44,1.49,3.81,4.51.82,6.74a12.92,12.92,0,0,1-11.65,1.35c-3.44-1.49-3.81-4.51-.82-6.74A12.92,12.92,0,0,1,108.21,223.69Z"/><path class="cls-9" d="M117.63,239.71a12.92,12.92,0,0,0,11.65-1.35c1.49-1.11,2.14-2.41,2-3.63l-.18-1.59s0,.07,0,.11c-.1-1.27-1.05-2.45-2.83-3.22a12.92,12.92,0,0,0-11.65,1.35c-1.49,1.11-2.14,2.42-2,3.64h0l.18,1.59C114.94,237.82,115.9,239,117.63,239.71Z"/><path class="cls-9" d="M131.1,233.14l.18,1.59c.14,1.21-.52,2.52-2,3.63a12.92,12.92,0,0,1-11.65,1.35c-1.73-.75-2.68-1.88-2.82-3.11l-.18-1.59c.14,1.23,1.09,2.37,2.82,3.11a12.92,12.92,0,0,0,11.65-1.35C130.58,235.66,131.24,234.35,131.1,233.14Z"/><path class="cls-10" d="M128.27,230c3.44,1.49,3.81,4.51.82,6.74a12.92,12.92,0,0,1-11.65,1.35c-3.44-1.49-3.81-4.51-.82-6.74A12.92,12.92,0,0,1,128.27,230Z"/><path class="cls-9" d="M138.56,248.8l.18,1.59c.14,1.21-.52,2.52-2,3.63a12.92,12.92,0,0,1-11.64,1.35c-1.73-.75-2.68-1.88-2.82-3.11l-.18-1.59c.14,1.23,1.09,2.36,2.82,3.11a12.92,12.92,0,0,0,11.65-1.35C138,251.32,138.7,250,138.56,248.8Z"/><path class="cls-10" d="M135.73,245.69c3.44,1.49,3.81,4.51.82,6.74a12.92,12.92,0,0,1-11.64,1.35c-3.44-1.49-3.81-4.51-.82-6.74A12.91,12.91,0,0,1,135.73,245.69Z"/><path class="cls-9" d="M103.26,258.12l.18,1.59c.14,1.21-.52,2.52-2,3.63a12.91,12.91,0,0,1-11.64,1.35c-1.73-.75-2.68-1.89-2.82-3.11L86.79,260c.14,1.23,1.09,2.37,2.82,3.11a12.92,12.92,0,0,0,11.65-1.35C102.74,260.64,103.4,259.33,103.26,258.12Z"/><path class="cls-10" d="M100.44,255c3.44,1.49,3.81,4.51.82,6.74a12.92,12.92,0,0,1-11.65,1.35c-3.44-1.49-3.81-4.51-.82-6.74A12.92,12.92,0,0,1,100.44,255Z"/><path class="cls-9" d="M124.12,263.65l.18,1.59c.14,1.21-.52,2.52-2,3.63a12.92,12.92,0,0,1-11.64,1.35c-1.73-.75-2.69-1.89-2.82-3.11l-.18-1.59c.14,1.23,1.09,2.36,2.82,3.11a12.92,12.92,0,0,0,11.64-1.35C123.61,266.17,124.26,264.87,124.12,263.65Z"/><path class="cls-10" d="M121.3,260.54c3.44,1.49,3.81,4.51.82,6.74a12.92,12.92,0,0,1-11.64,1.35c-3.44-1.49-3.81-4.51-.82-6.74A12.92,12.92,0,0,1,121.3,260.54Z"/><path class="cls-9" d="M116.82,277.74l.18,1.59c.14,1.21-.52,2.52-2,3.63a12.92,12.92,0,0,1-11.64,1.35c-1.73-.75-2.69-1.89-2.83-3.12l-.18-1.59c.14,1.23,1.09,2.36,2.83,3.11a12.92,12.92,0,0,0,11.64-1.35C116.3,280.26,117,279,116.82,277.74Z"/><path class="cls-10" d="M114,274.63c3.44,1.49,3.81,4.51.82,6.74a12.92,12.92,0,0,1-11.64,1.35c-3.44-1.49-3.81-4.51-.82-6.74A12.92,12.92,0,0,1,114,274.63Z"/><path class="cls-9" d="M101.57,243.55l.18,1.59c.14,1.21-.52,2.52-2,3.63a12.92,12.92,0,0,1-11.64,1.35c-1.73-.75-2.69-1.88-2.82-3.11l-.18-1.59c.14,1.23,1.09,2.36,2.82,3.11a12.92,12.92,0,0,0,11.65-1.35C101.05,246.07,101.71,244.76,101.57,243.55Z"/><path class="cls-10" d="M98.75,240.44c3.44,1.49,3.81,4.51.82,6.74a12.92,12.92,0,0,1-11.64,1.35c-3.44-1.49-3.81-4.51-.82-6.74A12.92,12.92,0,0,1,98.75,240.44Z"/><path class="cls-9" d="M44.13,251l.18,1.59c.14,1.21-.52,2.52-2,3.63a12.92,12.92,0,0,1-11.64,1.35c-1.73-.75-2.69-1.89-2.83-3.11l-.18-1.59c.14,1.23,1.09,2.36,2.83,3.11a12.92,12.92,0,0,0,11.64-1.35C43.61,253.56,44.27,252.26,44.13,251Z"/><path class="cls-10" d="M41.31,247.93c3.44,1.49,3.81,4.51.82,6.74A12.92,12.92,0,0,1,30.48,256c-3.44-1.49-3.81-4.51-.82-6.74A12.92,12.92,0,0,1,41.31,247.93Z"/><path class="cls-9" d="M34.67,267l.18,1.59c.14,1.21-.52,2.52-2,3.63a12.92,12.92,0,0,1-11.64,1.35c-1.73-.75-2.69-1.89-2.82-3.11l-.18-1.59c.14,1.23,1.09,2.36,2.82,3.11a12.92,12.92,0,0,0,11.64-1.35C34.15,269.48,34.8,268.18,34.67,267Z"/><path class="cls-10" d="M31.84,263.85c3.44,1.49,3.81,4.51.82,6.74A12.92,12.92,0,0,1,21,271.94c-3.44-1.49-3.81-4.51-.82-6.74A12.92,12.92,0,0,1,31.84,263.85Z"/><path class="cls-9" d="M67.51,264.48l.18,1.59c.14,1.21-.52,2.52-2,3.63A12.92,12.92,0,0,1,54,271c-1.73-.75-2.69-1.89-2.82-3.11L51,266.34c.14,1.23,1.09,2.36,2.82,3.11a12.92,12.92,0,0,0,11.65-1.35C67,267,67.65,265.69,67.51,264.48Z"/><path class="cls-10" d="M64.69,261.36c3.44,1.49,3.81,4.51.82,6.74a12.92,12.92,0,0,1-11.65,1.35c-3.44-1.49-3.81-4.51-.82-6.74A12.92,12.92,0,0,1,64.69,261.36Z"/><path class="cls-9" d="M80.28,276.38l.18,1.59c.14,1.21-.52,2.52-2,3.63A12.92,12.92,0,0,1,66.81,283c-1.73-.75-2.69-1.89-2.82-3.11l-.18-1.59c.14,1.23,1.09,2.36,2.82,3.11A12.92,12.92,0,0,0,78.27,280C79.76,278.9,80.41,277.6,80.28,276.38Z"/><path class="cls-10" d="M77.45,273.27c3.44,1.49,3.81,4.51.82,6.74a12.92,12.92,0,0,1-11.64,1.35c-3.44-1.49-3.81-4.51-.82-6.74A12.92,12.92,0,0,1,77.45,273.27Z"/><path class="cls-9" d="M96.16,285.84l.18,1.59c.14,1.21-.52,2.52-2,3.63a12.92,12.92,0,0,1-11.65,1.35c-1.73-.75-2.69-1.89-2.82-3.11l-.18-1.59c.14,1.23,1.09,2.36,2.82,3.11a12.92,12.92,0,0,0,11.65-1.35C95.64,288.36,96.3,287.05,96.16,285.84Z"/><path class="cls-10" d="M93.34,282.72c3.44,1.49,3.81,4.51.82,6.74a12.92,12.92,0,0,1-11.65,1.35c-3.44-1.49-3.81-4.51-.82-6.74A12.92,12.92,0,0,1,93.34,282.72Z"/><path class="cls-9" d="M56.71,282.88l.18,1.59c.14,1.21-.52,2.52-2,3.63a12.92,12.92,0,0,1-11.64,1.35c-1.73-.75-2.69-1.89-2.82-3.11l-.18-1.59c.14,1.23,1.09,2.36,2.82,3.11a12.92,12.92,0,0,0,11.64-1.35C56.19,285.4,56.84,284.09,56.71,282.88Z"/><path class="cls-10" d="M53.88,279.76c3.44,1.49,3.81,4.51.82,6.74a12.92,12.92,0,0,1-11.64,1.35c-3.44-1.49-3.81-4.51-.82-6.74A12.92,12.92,0,0,1,53.88,279.76Z"/><path class="cls-9" d="M50.8,232.58l.18,1.59c.14,1.21-.52,2.52-2,3.63a12.92,12.92,0,0,1-11.64,1.35c-1.73-.75-2.69-1.89-2.83-3.12l-.18-1.59c.14,1.23,1.09,2.37,2.83,3.12a12.92,12.92,0,0,0,11.64-1.35C50.28,235.1,50.94,233.79,50.8,232.58Z"/><path class="cls-10" d="M48,229.47c3.44,1.49,3.81,4.51.82,6.74a12.92,12.92,0,0,1-11.64,1.35c-3.44-1.49-3.81-4.51-.82-6.74A12.92,12.92,0,0,1,48,229.47Z"/><path class="cls-9" d="M72.65,245.93l.18,1.59c.14,1.21-.52,2.52-2,3.63a12.92,12.92,0,0,1-11.64,1.35c-1.73-.75-2.69-1.88-2.82-3.11l-.18-1.59c.14,1.23,1.09,2.37,2.82,3.11a12.91,12.91,0,0,0,11.64-1.35C72.13,248.44,72.78,247.14,72.65,245.93Z"/><path class="cls-10" d="M69.82,242.81c3.44,1.49,3.81,4.51.82,6.74A12.92,12.92,0,0,1,59,250.9c-3.44-1.49-3.81-4.51-.82-6.74A12.92,12.92,0,0,1,69.82,242.81Z"/></g></g></svg>