<svg xmlns="http://www.w3.org/2000/svg" viewBox="0 0 353.22 362.48"><defs><style>.cls-1{fill:#ee531c}.cls-2{fill:#fff}.cls-3{fill:none;stroke:#000;stroke-linecap:round;stroke-linejoin:round;stroke-width:2px}.cls-4{fill:#282828}.cls-6{fill:#f91}.cls-7{fill:#ffd78a}.cls-8{fill:#f18700}.cls-9{fill:#fec377}.cls-10{fill:#ff9a3d}.cls-11{fill:#cd2a01}.cls-12{fill:#ff5023}</style></defs><g id="Слой_2" data-name="Слой 2"><g id="Слой_1-2" data-name="Слой 1"><path class="cls-1" d="M353.22,270.28c-113.65,90.78-149.58-23-149.52-73.17l8.5-12.42C209.23,254,285.49,287.37,353.22,270.28Z"/><path d="M302.51,279.95a.84.84,0,0,1-.82.86,53.06,53.06,0,0,1-18.38-3.07.84.84,0,1,1,.54-1.59,51.39,51.39,0,0,0,17.8,3A.84.84,0,0,1,302.51,279.95Z"/><path d="M323.87,283a.84.84,0,0,1-.71,1l-1.81.28c-4.11.63-8.28,1.28-12.44,1.66a.84.84,0,0,1-.15-1.68c4.1-.38,8.22-1,12.33-1.65l1.82-.28A.84.84,0,0,1,323.87,283Z"/><path d="M298.58,290.43a.84.84,0,0,1-.75.93,14.82,14.82,0,0,1-2.78-.05l-.37,0c-2.75-.22-5.52-.52-8.27-.82-1.92-.21-3.84-.42-5.73-.6a.84.84,0,0,1,.16-1.68c2,.18,3.89.4,5.81.61,2.72.3,5.43.6,8.17.81l.39,0a13.1,13.1,0,0,0,2.45.06A.84.84,0,0,1,298.58,290.43Z"/><path d="M262,273.06a.84.84,0,0,1,1.14-.36l2.33,1.22a42.91,42.91,0,0,0,10.17,4.34.84.84,0,0,1-.39,1.64,44.94,44.94,0,0,1-10.65-4.53l-2.23-1.17A.84.84,0,0,1,262,273.06Z"/><path class="cls-1" d="M185.05,280.3c.76-60.2,7.37-66.78,18.8-61.35,7.17-10.39,16.83,8.58,6.07,68.16-10.7,59.27-21.58,48.43-29.67,44.34C174.89,328.73,184.86,295.35,185.05,280.3Z"/><path class="cls-1" d="M147.7,276.64c-5.1-57.46-7.47-66.93,2.41-66,4.74,3.28,26.29,11.31,21.84,69.42-4.43,57.8-15.27,54-23.85,45.94C142.41,320.61,149,291,147.7,276.64Z"/><path class="cls-1" d="M110.38,151.29c32.09-43.45,40.69-44.27,47.8-39.21,1.88,3.38,10.76,4.58-29.71,46.6-40.25,41.79-46.91,36.81-49,29.12C78.16,182.7,102.36,162.16,110.38,151.29Z"/><path class="cls-1" d="M177,242.81c-47.3,1.55-40.58-84-33.28-133.44,16.12-29,39.71-11.2,45.4-2.43,7.13,11,14.5,38.72,18.68,59.1C216.22,189,224.85,241.25,177,242.81Z"/><path d="M153,111.22c-15.08-9-18.45-5.89-18.3,2.95s7,11.73,10.13,9.95,9.21-6.42,9.21-6.42Z"/><path d="M159.15,117.5c16.65,5.57,19.14-.76,18.47-6-2.07-14.4-8.38-10.69-10.63-9.82s-10.23,9.68-10.23,9.68Z"/><ellipse cx="155.65" cy="114.31" rx="7.16" ry="5.46" transform="rotate(-9.13 155.673 114.336)"/><path class="cls-1" d="M98.37,24.18C110,27.3,121.8,30,129.87,31.76c1.76,7.64-11.69,14.89-13.43,13.71C103.36,36.59,98.94,27.58,98.37,24.18Z"/><path class="cls-1" d="M134.86,0c32.92,15.08,35.72,36,37.07,50.88C166.33,52.8,153,48.32,145.51,43,136.94,36.81,135.09,8.81,134.86,0Z"/><path class="cls-1" d="M124.62,126.21c-19.13,8.68-28.77,4.52-31.19,1.36l23.35-27.85C115.63,86.25,89.13,42.82,141,26.62c46.44-14.5,46,46.17,44.82,51.75C181.21,101.11,148.54,115.36,124.62,126.21Z"/><path d="M107.78,120.45a.85.85,0,0,1,.53-.55l.27-.07a1,1,0,0,1,.24,0,.88.88,0,0,1,.6.28.87.87,0,0,1,.2.83.91.91,0,0,1-.14.29,1.35,1.35,0,0,1-.17.19l-.23.2h0l-.16.13a23.48,23.48,0,0,1-6.14,4.16,24,24,0,0,1-3.31,1.34,8.36,8.36,0,0,1-3.73.37.85.85,0,1,1,.28-1.68,6.69,6.69,0,0,0,3-.32,22.34,22.34,0,0,0,3.07-1.25,21.79,21.79,0,0,0,5.7-3.85Z"/><path d="M100.82,125.43a.85.85,0,0,1,1.19-.2c1.45,1,5.44,2.85,14.78.74a.85.85,0,0,1,.38,1.66c-9.65,2.18-14.18.38-16.14-1A.85.85,0,0,1,100.82,125.43Z"/><path d="M136.73,2.44a.85.85,0,0,1,1.07.55c2.28,7.09,4.5,13.78,9.68,19,3.18,3.23,6.89,6.08,11.19,5.91a.85.85,0,0,1,.07,1.71c-5.1.2-9.27-3.17-12.47-6.42-5.51-5.58-7.82-12.67-10.09-19.71A.85.85,0,0,1,136.73,2.44Z"/><path d="M100.62,26.17a.85.85,0,0,1,1.13.42,21.23,21.23,0,0,0,10.82,10.52A17.17,17.17,0,0,0,122,38a.85.85,0,1,1,.25,1.69,18.86,18.86,0,0,1-10.31-1A22.94,22.94,0,0,1,100.21,27.3.85.85,0,0,1,100.62,26.17Z"/><path class="cls-2" d="M157.55,84.91a13.59,13.59,0,0,0,.33-3c0-5.8-3.58-10.5-8-10.5s-8,4.7-8,10.5a13.51,13.51,0,0,0,.43,3.4,38.63,38.63,0,0,1,8.57-.9A41.16,41.16,0,0,1,157.55,84.91Z"/><path class="cls-3" d="M138.39,55.9c2.67,2.83,10.1,8.7,18.5,9.5"/><path class="cls-3" d="M106.48,77.63c3.17-1.18,10-4.91,12.08-10.41"/><path class="cls-4" d="M151.12,84.4a4.28,4.28,0,0,0,.75-2.5c0-1.93-1.12-3.5-2.5-3.5s-2.5,1.57-2.5,3.5a4.21,4.21,0,0,0,.84,2.61c1-.07,2.09-.11,3.18-.11Z"/><path class="cls-2" d="M126.13,87.26c0-.51-.07-1-.14-1.55-.67-5-3.34-8.68-6-8.32S115.82,82,116.49,87A15.25,15.25,0,0,0,118,91.86a13.31,13.31,0,0,1,5.39-3.77A15.67,15.67,0,0,1,126.13,87.26Z"/><path class="cls-4" d="M123.58,88a4.14,4.14,0,0,0,.31-1.61c0-1.66-.89-3-2-3s-2,1.34-2,3a3.25,3.25,0,0,0,1.26,2.78,15.91,15.91,0,0,1,2.2-1.09Z"/><path d="M147.09,160.79C178,113,186.9,112.26,194.65,118c2.17,3.78,11.54,5.25-28.18,51.29-39.51,45.79-46.78,40.16-49.4,31.59C115.33,195.17,139.37,172.73,147.09,160.79Z" fill="#d43701"/><path class="cls-6" d="M129.16,318.57q0-.29,0-.58v-1.87a24.32,24.32,0,0,0-4.91-14.39l-.25.06v-.41a44.56,44.56,0,0,0-14-12,78.33,78.33,0,0,0-20.69-8l-.61.86v-1a108.34,108.34,0,0,0-48.81.08v1l-.6-.83A78,78,0,0,0,19,289.41,44,44,0,0,0,5,301.58V302l-.25-.06A24.32,24.32,0,0,0,0,315.82v9.11a24.32,24.32,0,0,0,4.9,14.37v0h0l.24-.06v.41a44.65,44.65,0,0,0,14,12,78.36,78.36,0,0,0,20.68,8h0v0l.6-.86v1a108.36,108.36,0,0,0,48.81-.08v-1l.59.82v0a78.05,78.05,0,0,0,20.28-7.88,44,44,0,0,0,14.09-12.17v-.41l.24.06a24.3,24.3,0,0,0,4.7-13.88v-6.44C129.16,318.72,129.16,318.64,129.16,318.57Z"/><path class="cls-7" d="M88.74,283.75,64.58,317.92,39.93,283.83a108.34,108.34,0,0,1,48.81-.08Z"/><path class="cls-8" d="M88.74,283.75v6.66L64.57,324.58v-6.66Z"/><path class="cls-8" d="M64.58,317.92v6.66L39.92,290.49v-6.66Z"/><path class="cls-8" d="M124,303.83v6.66L65.17,324.72v-6.66Z"/><path class="cls-7" d="M110,291.87a44.56,44.56,0,0,1,14,12L65.18,318.07,89.34,283.9A78.29,78.29,0,0,1,110,291.87Z"/><path class="cls-8" d="M64,318.07v6.66l-59-14V304Z"/><path class="cls-7" d="M39.33,284,64,318.07,5,304A44,44,0,0,1,19,291.86,78,78,0,0,1,39.33,284Z"/><path class="cls-7" d="M124.25,304.18a23.18,23.18,0,0,1,.2,28.27l-59-14Z"/><path class="cls-8" d="M124.46,332.45v6.66l-59-14v-6.66Z"/><path class="cls-7" d="M63.73,318.42,4.91,332.65a23.19,23.19,0,0,1-.2-28.27Z"/><path class="cls-8" d="M63.73,318.42v6.66L4.91,339.31v-6.66Z"/><path class="cls-7" d="M124.21,332.8A44,44,0,0,1,110.12,345a77.93,77.93,0,0,1-20.28,7.88L65.19,318.76Z"/><path class="cls-8" d="M89.84,352.85v6.66L65.18,325.42v-6.66Z"/><path class="cls-8" d="M64,318.77v6.66L39.82,359.6v-6.66Z"/><path class="cls-7" d="M64,318.77,39.82,352.93a78.35,78.35,0,0,1-20.69-8,44.56,44.56,0,0,1-14-12Z"/><path class="cls-7" d="M64.59,318.91,89.24,353a108.34,108.34,0,0,1-48.81.08Z"/><path class="cls-8" d="M88.74,281.31V284l-3,4.27v-2.66Z"/><path class="cls-6" d="M85.72,285.57v2.66a95.63,95.63,0,0,0-42.71.07v-2.66A95.63,95.63,0,0,1,85.72,285.57Z"/><path class="cls-8" d="M43,285.65v2.66l-3.08-4.26v-2.66Z"/><path class="cls-9" d="M88.74,281.31l-3,4.27a95.63,95.63,0,0,0-42.71.07l-3.08-4.26a108.34,108.34,0,0,1,48.81-.08Z"/><path class="cls-6" d="M116.65,303.16v2.66a39.14,39.14,0,0,0-12.24-10.44,68.8,68.8,0,0,0-18.09-7v-2.66a68.8,68.8,0,0,1,18.09,7A39.11,39.11,0,0,1,116.65,303.16Z"/><path class="cls-8" d="M124,301.38V304l-7.35,1.78v-2.66Z"/><path class="cls-9" d="M110,289.43a44.57,44.57,0,0,1,14,12l-7.35,1.78a39.13,39.13,0,0,0-12.23-10.44,68.8,68.8,0,0,0-18.09-7l3-4.27A78.35,78.35,0,0,1,110,289.43Z"/><path class="cls-9" d="M39.32,281.53l3.08,4.26a68,68,0,0,0-18,7.07,38.51,38.51,0,0,0-12.07,10.48L5,301.58A44,44,0,0,1,19,289.41,78,78,0,0,1,39.32,281.53Z"/><path class="cls-6" d="M42.4,285.79v2.66a68,68,0,0,0-18,7.07A38.51,38.51,0,0,0,12.33,306v-2.66A38.5,38.5,0,0,1,24.4,292.86,68,68,0,0,1,42.4,285.79Z"/><path class="cls-8" d="M12.33,303.34V306l-7.38-1.75v-2.66Z"/><path class="cls-6" d="M8,318.57V315.9a21.35,21.35,0,0,1,4.08-12.21v2.66A21.34,21.34,0,0,0,8,318.57Z"/><path class="cls-6" d="M121.16,316v2.66a21.46,21.46,0,0,0-4.26-12.51v-2.66A21.47,21.47,0,0,1,121.16,316Z"/><path class="cls-9" d="M124.25,301.73a23.19,23.19,0,0,1,.2,28.27l-7.38-1.76c5.5-7.92,5.44-16.84-.17-24.74Z"/><path class="cls-8" d="M124.45,330v2.66l-7.38-1.76v-2.66Z"/><path class="cls-10" d="M129.16,316.12v9.11a24.31,24.31,0,0,1-4.71,13.88V330A24.3,24.3,0,0,0,129.16,316.12Z"/><path class="cls-8" d="M12.27,328.43v2.66l-7.36,1.78v-2.66Z"/><path class="cls-10" d="M4.91,330.21v9.11A24.33,24.33,0,0,1,0,324.92v-9.11A24.33,24.33,0,0,0,4.91,330.21Z"/><path class="cls-9" d="M12.08,303.69c-5.5,7.92-5.43,16.84.18,24.74l-7.36,1.78a23.19,23.19,0,0,1-.2-28.27Z"/><path class="cls-8" d="M89.84,350.4v2.66l-3.08-4.26v-2.67Z"/><path class="cls-10" d="M124.21,330.35v9.11a44,44,0,0,1-14.09,12.17,78,78,0,0,1-20.28,7.88V350.4a78,78,0,0,0,20.28-7.88A44,44,0,0,0,124.21,330.35Z"/><path class="cls-9" d="M124.21,330.35a44,44,0,0,1-14.09,12.17,78,78,0,0,1-20.28,7.88l-3.08-4.27a68,68,0,0,0,18-7.07,38.49,38.49,0,0,0,12.07-10.47Z"/><path class="cls-8" d="M42.84,346.21v2.66l-3,4.28v-2.66Z"/><path class="cls-9" d="M42.84,346.21l-3,4.28a78.32,78.32,0,0,1-20.69-8,44.61,44.61,0,0,1-14-12l7.36-1.78a39.14,39.14,0,0,0,12.23,10.43A68.8,68.8,0,0,0,42.84,346.21Z"/><path class="cls-10" d="M39.82,350.49v9.11a78.36,78.36,0,0,1-20.69-8,44.65,44.65,0,0,1-14-12v-9.11a44.59,44.59,0,0,0,14,12A78.39,78.39,0,0,0,39.82,350.49Z"/><path class="cls-9" d="M86.15,346.28l3.08,4.27a108.37,108.37,0,0,1-48.81.08l3-4.28A95.61,95.61,0,0,0,86.15,346.28Z"/><path class="cls-10" d="M89.23,350.55v9.1a108.37,108.37,0,0,1-48.81.08v-9.11a108.37,108.37,0,0,0,48.81-.08Z"/><path class="cls-11" d="M59.49,298a10.73,10.73,0,0,0,9.74,0,3.42,3.42,0,0,0,2-2.81v-1.33s0,.06,0,.09a3.39,3.39,0,0,0-2-2.93,10.73,10.73,0,0,0-9.74,0,3.41,3.41,0,0,0-2,2.81s0,0,0,0v1.33A3.45,3.45,0,0,0,59.49,298Zm23.86,1.31a10.74,10.74,0,0,0,9.74,0,3.42,3.42,0,0,0,2-2.8v-1.33s0,.06,0,.09a3.39,3.39,0,0,0-2-2.92,10.73,10.73,0,0,0-9.74,0,3.41,3.41,0,0,0-2,2.82h0v1.33A3.45,3.45,0,0,0,83.35,299.29ZM115.73,316a3.39,3.39,0,0,0-2-2.93,10.73,10.73,0,0,0-9.74,0,3.41,3.41,0,0,0-2,2.81h0v1.33a3.45,3.45,0,0,0,2,2.84,10.74,10.74,0,0,0,9.74,0,3.42,3.42,0,0,0,2-2.81v-1.33S115.73,315.95,115.73,316Zm-30,5.61v-1.33s0,.06,0,.09a3.39,3.39,0,0,0-2-2.92,10.73,10.73,0,0,0-9.74,0,3.41,3.41,0,0,0-2,2.82h0v1.33a3.45,3.45,0,0,0,2,2.84,10.73,10.73,0,0,0,9.74,0A3.42,3.42,0,0,0,85.72,321.58Zm14.66,2.37a10.73,10.73,0,0,0-9.74,0,3.41,3.41,0,0,0-2,2.81h0v1.33a3.45,3.45,0,0,0,2,2.84,10.73,10.73,0,0,0,9.74,0,3.42,3.42,0,0,0,2-2.8v-1.33s0,.06,0,.09A3.39,3.39,0,0,0,100.38,323.95ZM93,334.89a10.73,10.73,0,0,0-9.74,0,3.41,3.41,0,0,0-2,2.81h0V339a3.45,3.45,0,0,0,2,2.84,10.74,10.74,0,0,0,9.74,0,3.42,3.42,0,0,0,2-2.8v-1.33s0,.06,0,.09A3.39,3.39,0,0,0,93,334.89ZM74,312.22a10.73,10.73,0,0,0,9.74,0,3.42,3.42,0,0,0,2-2.8v-1.33s0,.06,0,.09a3.39,3.39,0,0,0-2-2.92,10.73,10.73,0,0,0-9.74,0,3.41,3.41,0,0,0-2,2.81h0v1.33A3.45,3.45,0,0,0,74,312.22Zm-36.38-2v-1.33s0,.06,0,.09a3.39,3.39,0,0,0-2-2.93,10.73,10.73,0,0,0-9.74,0,3.41,3.41,0,0,0-2,2.81h0v1.33a3.45,3.45,0,0,0,2,2.84,10.73,10.73,0,0,0,9.74,0A3.42,3.42,0,0,0,37.58,310.17Zm-11.35,8.08a10.73,10.73,0,0,0-9.74,0,3.41,3.41,0,0,0-2,2.81.08.08,0,0,1,0,0v1.33a3.45,3.45,0,0,0,2,2.84,10.73,10.73,0,0,0,9.74,0,3.42,3.42,0,0,0,2-2.8v-1.33s0,.06,0,.09A3.39,3.39,0,0,0,26.23,318.24Zm29.38,5.21v-1.33s0,.06,0,.09a3.4,3.4,0,0,0-2-2.93,10.73,10.73,0,0,0-9.74,0,3.41,3.41,0,0,0-2,2.81h0v1.33a3.45,3.45,0,0,0,2,2.84,10.73,10.73,0,0,0,9.74,0A3.42,3.42,0,0,0,55.61,323.46Zm9.42,11v-1.33s0,.06,0,.09a3.39,3.39,0,0,0-2-2.92,10.73,10.73,0,0,0-9.74,0,3.42,3.42,0,0,0-2,2.81h0v1.33a3.44,3.44,0,0,0,2,2.84,10.73,10.73,0,0,0,9.74,0A3.42,3.42,0,0,0,65,334.49Zm10.18,5.14a10.74,10.74,0,0,0-9.74,0,3.41,3.41,0,0,0-2,2.82h0v1.33a3.45,3.45,0,0,0,2,2.84,10.74,10.74,0,0,0,9.74,0,3.42,3.42,0,0,0,2-2.8v-1.33s0,.06,0,.09A3.39,3.39,0,0,0,75.21,339.62Zm-32.29-6.16a10.73,10.73,0,0,0-9.74,0,3.41,3.41,0,0,0-2,2.82h0v1.33a3.45,3.45,0,0,0,2,2.84,10.73,10.73,0,0,0,9.74,0,3.42,3.42,0,0,0,2-2.8V336.3s0,.06,0,.09A3.39,3.39,0,0,0,42.92,333.46Zm-9.83-35.09a10.73,10.73,0,0,0,9.74,0,3.42,3.42,0,0,0,2-2.8v-1.33s0,.06,0,.09a3.39,3.39,0,0,0-2-2.93,10.74,10.74,0,0,0-9.74,0,3.41,3.41,0,0,0-2,2.82h0v1.33A3.45,3.45,0,0,0,33.09,298.37Zm16.77,13.08a10.73,10.73,0,0,0,9.74,0,3.42,3.42,0,0,0,2-2.8V307.3s0,.06,0,.09a3.39,3.39,0,0,0-2-2.93,10.73,10.73,0,0,0-9.74,0,3.41,3.41,0,0,0-2,2.82h0v1.33A3.45,3.45,0,0,0,49.86,311.45Z"/><path class="cls-11" d="M71.23,293.82v1.33a3.42,3.42,0,0,1-2,2.81,10.73,10.73,0,0,1-9.74,0,3.45,3.45,0,0,1-2-2.84v-1.33a3.45,3.45,0,0,0,2,2.84,10.73,10.73,0,0,0,9.74,0A3.42,3.42,0,0,0,71.23,293.82Z"/><path class="cls-12" d="M69.19,291c2.7,1.55,2.72,4.08,0,5.64a10.73,10.73,0,0,1-9.74,0c-2.7-1.55-2.72-4.08,0-5.64A10.73,10.73,0,0,1,69.19,291Z"/><path class="cls-11" d="M95.09,295.13v1.33a3.42,3.42,0,0,1-2,2.8,10.73,10.73,0,0,1-9.74,0,3.45,3.45,0,0,1-2-2.84v-1.33a3.45,3.45,0,0,0,2,2.84,10.74,10.74,0,0,0,9.74,0A3.42,3.42,0,0,0,95.09,295.13Z"/><path class="cls-12" d="M93,292.29c2.7,1.55,2.72,4.08,0,5.64a10.74,10.74,0,0,1-9.74,0c-2.7-1.55-2.72-4.08,0-5.64A10.73,10.73,0,0,1,93,292.29Z"/><path class="cls-11" d="M99.31,306.41a10.74,10.74,0,0,0,9.74,0,3.42,3.42,0,0,0,2-2.8v-1.33s0,.06,0,.09a3.4,3.4,0,0,0-2-2.92,10.73,10.73,0,0,0-9.74,0,3.41,3.41,0,0,0-2,2.81h0v1.33A3.45,3.45,0,0,0,99.31,306.41Z"/><path class="cls-11" d="M111.05,302.25v1.33a3.42,3.42,0,0,1-2,2.81,10.73,10.73,0,0,1-9.74,0,3.45,3.45,0,0,1-2-2.84v-1.33a3.45,3.45,0,0,0,2,2.84,10.73,10.73,0,0,0,9.74,0A3.42,3.42,0,0,0,111.05,302.25Z"/><path class="cls-12" d="M109,299.42c2.7,1.55,2.72,4.08,0,5.64a10.73,10.73,0,0,1-9.74,0c-2.7-1.55-2.72-4.08,0-5.64A10.73,10.73,0,0,1,109,299.42Z"/><path class="cls-11" d="M115.73,315.89v1.33a3.42,3.42,0,0,1-2,2.81,10.74,10.74,0,0,1-9.74,0,3.45,3.45,0,0,1-2-2.84v-1.33a3.45,3.45,0,0,0,2,2.84,10.73,10.73,0,0,0,9.74,0A3.42,3.42,0,0,0,115.73,315.89Z"/><path class="cls-12" d="M113.7,313.05c2.7,1.55,2.72,4.08,0,5.64a10.73,10.73,0,0,1-9.74,0c-2.7-1.55-2.72-4.08,0-5.64A10.73,10.73,0,0,1,113.7,313.05Z"/><path class="cls-11" d="M85.72,320.25v1.33a3.42,3.42,0,0,1-2,2.8,10.73,10.73,0,0,1-9.74,0,3.45,3.45,0,0,1-2-2.84v-1.33a3.45,3.45,0,0,0,2,2.84,10.73,10.73,0,0,0,9.74,0A3.42,3.42,0,0,0,85.72,320.25Z"/><path class="cls-12" d="M83.68,317.41c2.7,1.55,2.72,4.08,0,5.64a10.73,10.73,0,0,1-9.74,0c-2.7-1.55-2.72-4.08,0-5.64A10.74,10.74,0,0,1,83.68,317.41Z"/><path class="cls-11" d="M102.42,326.79v1.33a3.42,3.42,0,0,1-2,2.8,10.73,10.73,0,0,1-9.74,0,3.45,3.45,0,0,1-2-2.84v-1.33a3.45,3.45,0,0,0,2,2.84,10.73,10.73,0,0,0,9.74,0A3.42,3.42,0,0,0,102.42,326.79Z"/><path class="cls-12" d="M100.38,323.95c2.7,1.55,2.72,4.08,0,5.64a10.73,10.73,0,0,1-9.74,0c-2.7-1.55-2.72-4.08,0-5.64A10.73,10.73,0,0,1,100.38,323.95Z"/><path class="cls-11" d="M95.06,337.73v1.33a3.42,3.42,0,0,1-2,2.8,10.73,10.73,0,0,1-9.74,0,3.45,3.45,0,0,1-2-2.84v-1.33a3.45,3.45,0,0,0,2,2.84,10.73,10.73,0,0,0,9.74,0A3.42,3.42,0,0,0,95.06,337.73Z"/><path class="cls-12" d="M93,334.89c2.7,1.55,2.72,4.08,0,5.64a10.73,10.73,0,0,1-9.74,0c-2.7-1.55-2.72-4.08,0-5.64A10.74,10.74,0,0,1,93,334.89Z"/><path class="cls-11" d="M85.7,308.06v1.33a3.42,3.42,0,0,1-2,2.8,10.73,10.73,0,0,1-9.74,0,3.45,3.45,0,0,1-2-2.84V308a3.45,3.45,0,0,0,2,2.84,10.73,10.73,0,0,0,9.74,0A3.42,3.42,0,0,0,85.7,308.06Z"/><path class="cls-12" d="M83.66,305.23c2.7,1.55,2.72,4.08,0,5.64a10.73,10.73,0,0,1-9.74,0c-2.7-1.55-2.72-4.08,0-5.64A10.73,10.73,0,0,1,83.66,305.23Z"/><path class="cls-11" d="M37.57,308.83v1.33a3.42,3.42,0,0,1-2,2.8,10.73,10.73,0,0,1-9.74,0,3.45,3.45,0,0,1-2-2.84v-1.33a3.45,3.45,0,0,0,2,2.84,10.73,10.73,0,0,0,9.74,0A3.42,3.42,0,0,0,37.57,308.83Z"/><path class="cls-12" d="M35.54,306c2.7,1.55,2.72,4.08,0,5.64a10.73,10.73,0,0,1-9.74,0c-2.7-1.55-2.72-4.08,0-5.64A10.73,10.73,0,0,1,35.54,306Z"/><path class="cls-11" d="M28.26,321.08v1.33a3.42,3.42,0,0,1-2,2.81,10.73,10.73,0,0,1-9.74,0,3.45,3.45,0,0,1-2-2.84v-1.33a3.45,3.45,0,0,0,2,2.84,10.73,10.73,0,0,0,9.74,0A3.42,3.42,0,0,0,28.26,321.08Z"/><path class="cls-12" d="M26.22,318.24c2.7,1.55,2.72,4.08,0,5.64a10.73,10.73,0,0,1-9.74,0c-2.7-1.55-2.72-4.08,0-5.64A10.73,10.73,0,0,1,26.22,318.24Z"/><path class="cls-11" d="M55.61,322.13v1.33a3.42,3.42,0,0,1-2,2.8,10.74,10.74,0,0,1-9.74,0,3.45,3.45,0,0,1-2-2.84v-1.33a3.45,3.45,0,0,0,2,2.84,10.74,10.74,0,0,0,9.74,0A3.42,3.42,0,0,0,55.61,322.13Z"/><path class="cls-12" d="M53.57,319.29c2.7,1.55,2.72,4.08,0,5.64a10.73,10.73,0,0,1-9.74,0c-2.7-1.55-2.72-4.08,0-5.64A10.73,10.73,0,0,1,53.57,319.29Z"/><path class="cls-11" d="M65,333.16v1.33a3.42,3.42,0,0,1-2,2.8,10.73,10.73,0,0,1-9.74,0,3.45,3.45,0,0,1-2-2.84v-1.33a3.45,3.45,0,0,0,2,2.84A10.73,10.73,0,0,0,63,336,3.42,3.42,0,0,0,65,333.16Z"/><path class="cls-12" d="M63,330.32c2.7,1.55,2.72,4.08,0,5.64a10.73,10.73,0,0,1-9.74,0c-2.7-1.55-2.72-4.08,0-5.64A10.73,10.73,0,0,1,63,330.32Z"/><path class="cls-11" d="M77.24,342.46v1.33a3.42,3.42,0,0,1-2,2.8,10.73,10.73,0,0,1-9.74,0,3.44,3.44,0,0,1-2-2.84v-1.33a3.45,3.45,0,0,0,2,2.84,10.73,10.73,0,0,0,9.74,0A3.42,3.42,0,0,0,77.24,342.46Z"/><path class="cls-12" d="M75.2,339.62c2.7,1.55,2.72,4.08,0,5.64a10.73,10.73,0,0,1-9.74,0c-2.7-1.55-2.72-4.08,0-5.64A10.73,10.73,0,0,1,75.2,339.62Z"/><path class="cls-11" d="M45,336.3v1.33a3.42,3.42,0,0,1-2,2.8,10.73,10.73,0,0,1-9.74,0,3.45,3.45,0,0,1-2-2.84v-1.33a3.45,3.45,0,0,0,2,2.84,10.73,10.73,0,0,0,9.74,0A3.42,3.42,0,0,0,45,336.3Z"/><path class="cls-12" d="M42.92,333.46c2.7,1.55,2.72,4.08,0,5.64a10.73,10.73,0,0,1-9.74,0c-2.7-1.55-2.72-4.08,0-5.64A10.73,10.73,0,0,1,42.92,333.46Z"/><path class="cls-11" d="M44.82,294.22v1.33a3.42,3.42,0,0,1-2,2.81,10.73,10.73,0,0,1-9.74,0,3.45,3.45,0,0,1-2-2.84V294.2a3.45,3.45,0,0,0,2,2.84,10.73,10.73,0,0,0,9.74,0A3.42,3.42,0,0,0,44.82,294.22Z"/><path class="cls-12" d="M42.79,291.38c2.7,1.55,2.72,4.08,0,5.64a10.73,10.73,0,0,1-9.74,0c-2.7-1.55-2.72-4.08,0-5.64A10.74,10.74,0,0,1,42.79,291.38Z"/><path class="cls-11" d="M61.6,307.3v1.33a3.42,3.42,0,0,1-2,2.8,10.73,10.73,0,0,1-9.74,0,3.45,3.45,0,0,1-2-2.84v-1.33a3.45,3.45,0,0,0,2,2.84,10.73,10.73,0,0,0,9.74,0A3.42,3.42,0,0,0,61.6,307.3Z"/><path class="cls-12" d="M59.56,304.46c2.7,1.55,2.72,4.08,0,5.64a10.73,10.73,0,0,1-9.74,0c-2.7-1.55-2.72-4.08,0-5.64A10.73,10.73,0,0,1,59.56,304.46Z"/></g></g></svg>