<svg xmlns="http://www.w3.org/2000/svg" viewBox="0 0 375.27 407.13"><defs><style>.cls-1{fill:#ee531c}</style></defs><g id="Слой_2" data-name="Слой 2"><g id="Слой_1-2" data-name="Слой 1"><path class="cls-1" d="M374.88,179.88C383.48,357.56,245,311.7,195.27,275.69L189,258.37C255.64,311,343.31,259.26,374.88,179.88Z"/><path d="M348.14,237.07a1,1,0,0,1,.27,1.43,64.89,64.89,0,0,1-16.2,16,1,1,0,0,1-1.19-1.68,62.81,62.81,0,0,0,15.69-15.51A1,1,0,0,1,348.14,237.07Z"/><path d="M366.44,218.06a1,1,0,0,1,.45,1.39l-1,2c-2.32,4.53-4.66,9.12-7.26,13.52a1,1,0,1,1-1.77-1c2.57-4.34,4.88-8.87,7.2-13.4l1-2A1,1,0,0,1,366.44,218.06Z"/><path d="M355.72,248.47a1,1,0,0,1,.39,1.4,18.19,18.19,0,0,1-2,2.72l-.3.35c-2.18,2.57-4.47,5.1-6.74,7.61-1.58,1.76-3.16,3.5-4.7,5.26a1,1,0,1,1-1.55-1.36c1.58-1.81,3.18-3.57,4.76-5.33,2.24-2.48,4.48-5,6.65-7.52l.31-.37a16,16,0,0,0,1.81-2.38A1,1,0,0,1,355.72,248.47Z"/><path d="M312.28,272.34a1,1,0,0,1,.45-1.38c1-.49,1.92-1,2.88-1.43,4.15-2,8.18-4,11.58-7a1,1,0,0,1,1.35,1.56c-3.63,3.15-8,5.27-12.12,7.31-.93.46-1.86.91-2.76,1.37A1,1,0,0,1,312.28,272.34Z"/><path class="cls-1" d="M179.78,339.85c-7.48-74.8-.2-83.89,14.75-78.75,7.44-13.9,22.09,8.29,17.07,83.72-5,75-20,63.1-30.6,59.16C174,401.37,181.65,358.55,179.78,339.85Z"/><path class="cls-1" d="M124,331.61c-6.36-71.74-9.33-83.57,3-82.44,5.92,4.1,32.83,14.12,27.27,86.68-5.53,72.17-19.07,67.45-29.79,57.36C117.35,386.52,125.55,349.55,124,331.61Z"/><path class="cls-1" d="M58.21,150.9c63.51-22.68,73-17.54,76.85-7.35-.41,4.81,8,12.24-63.24,27.6C1,186.43-2.43,176.64.8,167.24,2.94,161,42.34,156.57,58.21,150.9Z"/><path class="cls-1" d="M114.44,183.87c48-52.32,59.17-51.41,67.51-42.73,1.88,5.11,13.1,8.88-45.43,57.23C78.31,246.45,70.53,238,69.1,226.9,68.15,219.53,102.44,196.95,114.44,183.87Z"/><path class="cls-1" d="M161.81,297.86C102.75,299.8,111.14,193,120.25,131.24c20.12-36.22,49.59-14,56.69-3,8.9,13.71,18.1,48.34,23.32,73.79C210.75,230.64,221.53,295.9,161.81,297.86Z"/><path class="cls-1" d="M136.37,0c7.91,11.36,16.27,22.4,22,29.95-4.11,8-21.25,4.41-21.9,2.08C131.56,14.58,134.36,3.4,136.37,0Z"/><path class="cls-1" d="M186.24,5.81c17.7,37.57,4.67,58-5.15,72-6.33-2.47-14.69-16.24-17.29-26.5C160.83,39.61,179.92,13.7,186.24,5.81Z"/><path class="cls-1" d="M83.9,108.85C60.71,102.31,55.34,91.53,55.56,87l41.06-7.14c9-12.65,17.87-70.32,75.33-46.14,51.43,21.64,6.13,74.46,1,78.51C152.07,128.71,112.89,117,83.9,108.85Z"/><path d="M73.4,91.34a1,1,0,0,1,.87-.09,2.13,2.13,0,0,1,.29.13,1.19,1.19,0,0,1,.22.17,1,1,0,0,1,.32.69,1,1,0,0,1-.44.87,1.07,1.07,0,0,1-.34.15,1.53,1.53,0,0,1-.29,0h-.61A26.93,26.93,0,0,1,65,92.4a27.26,27.26,0,0,1-3.89-1.27,9.59,9.59,0,0,1-3.54-2.44A1,1,0,1,1,59,87.42a7.68,7.68,0,0,0,2.83,1.92,25.58,25.58,0,0,0,3.61,1.17,25,25,0,0,0,7.84.84Z"/><path d="M130.64,71.15a6.31,6.31,0,0,0-3.87,5.17,1,1,0,0,1-1.95-.2,8.26,8.26,0,0,1,5-6.75,9.33,9.33,0,0,1,7.26-.38,15.77,15.77,0,0,1,3.65,2.23,8.32,8.32,0,0,1,2.78,3.94,1,1,0,1,1-1.88.55,6.39,6.39,0,0,0-2.16-3,13.82,13.82,0,0,0-3.18-1.94A7.42,7.42,0,0,0,130.64,71.15Z"/><path d="M63.62,90.56a1,1,0,0,1,1.19.7c.51,2,2.66,6.52,12.41,11.58a1,1,0,1,1-.9,1.74c-10.07-5.23-12.71-10.16-13.4-12.83A1,1,0,0,1,63.62,90.56Z"/><path d="M186.07,9.33a1,1,0,0,1,.53,1.28c-3.24,7.9-6.25,15.41-5.59,23.84.4,5.18,1.54,10.43,5.43,13.46a1,1,0,0,1-1.2,1.54c-4.61-3.59-5.77-9.64-6.18-14.85-.69-9,2.51-16.89,5.73-24.74A1,1,0,0,1,186.07,9.33Z"/><path d="M136.87,3.41a1,1,0,0,1,.68,1.2,24.35,24.35,0,0,0,1.7,17.22,19.69,19.69,0,0,0,7.59,7.74,1,1,0,1,1-1,1.67,21.64,21.64,0,0,1-8.3-8.5A26.3,26.3,0,0,1,135.67,4.1,1,1,0,0,1,136.87,3.41Z"/><path d="M107.9,61.47a3.73,3.73,0,0,0-2.38-2,2.2,2.2,0,0,0-2.5,1.15,1,1,0,1,1-1.8-.76A4.16,4.16,0,0,1,106,57.57a5.68,5.68,0,0,1,3.66,3,7.85,7.85,0,0,1,.89,4.47,9.39,9.39,0,0,1-.4,1.63c-.18.58-.41,1.2-.61,1.72s-.38,1-.48,1.19l-.08.16h0a1.23,1.23,0,0,1-.09.15,1,1,0,0,1-.28.26,1,1,0,0,1-1.19-.13,1,1,0,0,1-.26-.44,1,1,0,0,1,0-.33h0a1,1,0,0,1,0-.17h0l0-.07,0-.09.08-.22a1,1,0,0,1,.14-.25c.08-.2.19-.47.3-.76.19-.5.4-1.08.57-1.61a7.75,7.75,0,0,0,.32-1.25A5.9,5.9,0,0,0,107.9,61.47Z"/><path d="M137.23,131.63c-15.4-12.95-19.78-10.11-21.26-.08s5.74,14.58,9.61,13.15,11.62-5.55,11.62-5.55Z"/><path d="M143,139.88c17.8,9.41,21.81,2.71,22-3.31.34-16.68-7.49-13.67-10.2-13.09s-13.38,9-13.38,9Z"/><ellipse cx="139.63" cy="135.61" rx="6.26" ry="8.21" transform="rotate(-89.78 139.618 135.613)"/></g></g></svg>