<svg xmlns="http://www.w3.org/2000/svg" viewBox="0 0 275.27 317.5"><defs><style>.cls-1{fill:#ee531c}</style></defs><g id="Слой_2" data-name="Слой 2"><g id="Слой_1-2" data-name="Слой 1"><path class="cls-1" d="M.31,142.69c-6.88,142.3,104,105.57,143.85,76.74l5-13.87C95.8,247.68,25.59,206.26.31,142.69Z"/><path d="M21.73,188.49a.83.83,0,0,0-.21,1.15,52,52,0,0,0,13,12.84.83.83,0,0,0,1-1.35,50.31,50.31,0,0,1-12.57-12.42A.83.83,0,0,0,21.73,188.49Z"/><path d="M7.07,173.27a.83.83,0,0,0-.36,1.11l.82,1.6c1.85,3.63,3.73,7.3,5.82,10.83a.83.83,0,0,0,1.42-.84c-2.05-3.48-3.91-7.1-5.77-10.74l-.82-1.61A.83.83,0,0,0,7.07,173.27Z"/><path d="M15.65,197.62a.82.82,0,0,0-.31,1.13A14.54,14.54,0,0,0,17,200.92l.24.28c1.75,2.06,3.58,4.08,5.4,6.1,1.27,1.41,2.53,2.81,3.76,4.21a.83.83,0,0,0,1.24-1.09c-1.27-1.45-2.54-2.86-3.82-4.27-1.8-2-3.59-4-5.33-6l-.25-.29a12.92,12.92,0,0,1-1.45-1.91A.82.82,0,0,0,15.65,197.62Z"/><path d="M50.45,216.74a.82.82,0,0,0-.36-1.11l-2.3-1.14a42,42,0,0,1-9.28-5.58.83.83,0,1,0-1.08,1.25,44,44,0,0,0,9.7,5.86l2.21,1.1A.82.82,0,0,0,50.45,216.74Z"/><path class="cls-1" d="M219.26,266.16c-31.26-51.46-29.14-60.54-16.56-62,.57-12.61,18.82-1.64,41.27,54.59,22.33,55.93,7.36,52.5-1.66,53.32C236.31,312.62,227.07,279,219.26,266.16Z"/><path class="cls-1" d="M144.36,263.59c-5.1-57.46-7.47-66.93,2.41-66,4.74,3.28,26.29,11.31,21.84,69.42-4.43,57.8-15.27,54-23.85,45.94C139.07,307.57,145.64,278,144.36,263.59Z"/><path class="cls-1" d="M102.12,85.72c47.2,26.26,49.11,34.69,45,42.39-3.11,2.29-3.17,11.25-50-23.5C50.51,70,54.59,62.8,62,59.78,66.84,57.78,90.32,79.16,102.12,85.72Z"/><path class="cls-1" d="M237.57,85c-40.12,40.29-49,39.19-55.43,32-1.34-4.15-10.19-7.54,38.23-44.3,48.17-36.57,54.11-29.55,54.89-20.62C275.78,58,247.6,74.94,237.57,85Z"/><path class="cls-1" d="M174.68,236.56c-47.3,1.55-40.58-84-33.28-133.44,16.12-29,39.71-11.2,45.4-2.43,7.13,11,14.5,38.72,18.68,59.1C213.88,182.72,222.51,235,174.68,236.56Z"/><path class="cls-1" d="M137.94,0c-4,10.35-8.35,20.54-11.35,27.51,4.73,5.43,17.37-.66,17.43-2.59C144.47,10.41,140.15,2.26,137.94,0Z"/><path class="cls-1" d="M100.28,14.09c-6.54,32.61,7.51,46,17.84,55,4.45-3.14,8.3-15.45,8.35-23.92C126.53,35.49,106.7,19,100.28,14.09Z"/><path class="cls-1" d="M199.64,74.55C216.41,65,218.52,55.6,217.47,52.09l-33.29,2.34c-9.4-8.11-27.4-51.24-67.43-21.4C80.92,59.74,126.29,92.1,131,94.26,150.45,103.09,178.67,86.48,199.64,74.55Z"/><path d="M204.44,58.92a.78.78,0,0,0-.69.1,1.72,1.72,0,0,0-.2.16,1,1,0,0,0-.14.17.81.81,0,0,0-.11.59.8.8,0,0,0,.51.59.89.89,0,0,0,.29.05,1.24,1.24,0,0,0,.23,0l.27-.06h0l.18,0a21.56,21.56,0,0,0,6.4-2.33A21.91,21.91,0,0,0,214,56.39a7.68,7.68,0,0,0,2.29-2.58.78.78,0,1,0-1.4-.7,6.15,6.15,0,0,1-1.83,2,20.49,20.49,0,0,1-2.58,1.61,20,20,0,0,1-5.93,2.16Z"/><path d="M156.06,54.22a5.05,5.05,0,0,1,4,3.28.78.78,0,0,0,1.47-.53,6.62,6.62,0,0,0-5.18-4.29,7.48,7.48,0,0,0-5.72,1.1,12.65,12.65,0,0,0-2.41,2.43,6.66,6.66,0,0,0-1.4,3.59.78.78,0,1,0,1.57.07,5.12,5.12,0,0,1,1.1-2.73A11.07,11.07,0,0,1,151.6,55,5.94,5.94,0,0,1,156.06,54.22Z"/><path d="M211.89,56.44a.78.78,0,0,0-.79.77c0,1.63-.82,5.58-7.42,11.39a.78.78,0,1,0,1,1.18c6.83-6,7.93-10.34,8-12.55A.78.78,0,0,0,211.89,56.44Z"/><path d="M101.08,16.8a.78.78,0,0,0-.17,1.1c4,5.52,7.82,10.78,8.93,17.46.68,4.11.81,8.4-1.64,11.51a.78.78,0,0,0,1.23,1c2.9-3.68,2.64-8.6,1.95-12.73-1.18-7.1-5.2-12.65-9.21-18.13A.78.78,0,0,0,101.08,16.8Z"/><path d="M138.2,2.75a.78.78,0,0,0-.3,1.07,19.51,19.51,0,0,1,2,13.72A15.78,15.78,0,0,1,135.47,25a.78.78,0,1,0,1.12,1.1,17.32,17.32,0,0,0,4.82-8.21,21.07,21.07,0,0,0-2.14-14.85A.78.78,0,0,0,138.2,2.75Z"/><path d="M171.88,42.33a3,3,0,0,1,1.47-2,1.77,1.77,0,0,1,2.16.41.78.78,0,1,0,1.26-.94,3.33,3.33,0,0,0-4.12-.87,4.55,4.55,0,0,0-2.28,3,6.28,6.28,0,0,0,.17,3.65,7.43,7.43,0,0,0,.62,1.19c.26.42.55.85.8,1.22s.48.67.6.83l.09.11h0l.1.1.11.08.15.07a.78.78,0,0,0,1-.72.77.77,0,0,0,0-.27h0a.76.76,0,0,0-.05-.13h0l0,0,0-.07-.1-.16a.78.78,0,0,0-.16-.17l-.38-.54c-.24-.35-.52-.76-.75-1.14A6.25,6.25,0,0,1,172,45,4.73,4.73,0,0,1,171.88,42.33Z"/><path d="M162.56,102.51c9.49-13,13.44-11.66,16.51-4.15s-1.66,12.44-4.95,12.07-10.1-2.09-10.1-2.09Z"/><path d="M159.66,110c-12,10.74-16.43,6.3-17.75,1.65-3.47-12.9,3.2-12.06,5.42-12.14S159.47,104,159.47,104Z"/><ellipse cx="161.46" cy="106.07" rx="6.58" ry="5.01" transform="rotate(-14.1 161.459 106.087)"/></g></g></svg>