<svg xmlns="http://www.w3.org/2000/svg" viewBox="0 0 35.43 36.6"><defs><linearGradient id="Безымянный_градиент" x1=".93" y1="24.68" x2="19.93" y2="26.73" gradientTransform="matrix(1 0 0 -1 0 36.07)" gradientUnits="userSpaceOnUse"><stop offset="0" stop-color="#779d01"/><stop offset="1" stop-color="#bde01e"/></linearGradient></defs><g id="Слой_2" data-name="Слой 2"><g id="Слой_1-2" data-name="Слой 1"><path class="cls-1" d="M2.13,1.53l9,7V4c1.67,1.33,5.3,4.9,6.5,8.5A15.83,15.83,0,0,0,19,16.12l.08-.08c0,.09,0,.14-.08.08l-3.42,3.42c-1.67-.17-5.6-1.1-8-3.5a54.87,54.87,0,0,1-4.5-5l5.5,1C6.46,9.7,2.13,4.33,2.13,1.53Z"/><path class="cls-2" d="M25.13,19c-2,.4-4.5-.83-5.5-1.5l-4,1.5c.67,1,1.9,3.5,1.5,5.5-.5,2.5-1.5,7,2.5,10s11-1,12.5-3,3-8,1-10.5S27.63,18.53,25.13,19Z"/><path class="cls-3" d="M33.18,19.68c-2.42-2.53-5-2.37-8.37-1.95a6.26,6.26,0,0,1-4.56-1.58.1.1,0,0,1,0-.14A29,29,0,0,0,11,2.72a1.06,1.06,0,0,0-.92-.09.83.83,0,0,0-.37.77,37.91,37.91,0,0,0,.91,3.84A44.36,44.36,0,0,0,1.13.11.86.86,0,0,0,.21.16a.73.73,0,0,0-.09.92,41,41,0,0,0,6.65,9.83A37.91,37.91,0,0,0,3,9.84a.67.67,0,0,0-.79.34.86.86,0,0,0,.05.92,28.16,28.16,0,0,0,12.87,9.82.1.1,0,0,0,.14,0l.07.07a4.75,4.75,0,0,1,1.39,4.63c-.62,2.67-1,5.85,1.52,8.52,1,1,6.1,5.65,13.32-1.27l.22-.21.07-.07.14-.14C38.35,25.8,34.14,20.69,33.18,19.68Zm-21.48-14a25.79,25.79,0,0,1,6.78,10.54,9.25,9.25,0,0,0-1.07.33,34,34,0,0,0-4-5.88l-.2-.5A41.37,41.37,0,0,1,11.69,5.64ZM2.83,3.19a41.63,41.63,0,0,1,12.94,13.5A41.55,41.55,0,0,1,2.83,3.19Zm2.07,9a24.82,24.82,0,0,1,4.49,1.79c.14,0,.28.15.42.15a34,34,0,0,0,5.71,4.22,10.4,10.4,0,0,0-.45,1A25.35,25.35,0,0,1,4.9,12.14ZM32.7,28.72A9.2,9.2,0,0,0,30,23.64,9.47,9.47,0,0,0,24.6,20.7a.78.78,0,0,0-.17,1.55,7.94,7.94,0,0,1,4.47,2.5c2.21,2.31,2.86,5.29,1.63,6.61l-.14.14c-1.44,1.24-4.4.47-6.61-1.84a7.93,7.93,0,0,1-2.24-4.36.79.79,0,0,0-1.56.25,10,10,0,0,0,2.65,5.22,9.88,9.88,0,0,0,5.17,2.94c-4.66,2.94-7.79.4-8.76-.61C17.16,31.15,17.28,29,17.91,26a6.22,6.22,0,0,0-1.57-5.83,3.23,3.23,0,0,1,2.89-2.63,7.47,7.47,0,0,0,5.62,1.82c3.05-.43,5.17-.53,7,1.42C32.92,21.72,35.12,24.6,32.7,28.72Z"/><path class="cls-3" d="M30.88,3.27,4.34,29.33a1,1,0,1,0,1.4,1.43L32.28,4.69a1,1,0,1,0-1.4-1.43Z"/></g></g></svg>