<svg xmlns="http://www.w3.org/2000/svg" viewBox="0 0 44.98 32.29"><g id="Слой_2" data-name="Слой 2"><g id="Слой_1-2" data-name="Слой 1"><path class="cls-1" d="M18.5,4.5c0-2-5-3.5-7.5-4-4,1-8,3-10,8-1.6,4,2.33,6.33,4.5,7C6.67,14.83,9,13.8,9,15c0,1.5,1,5,6,3.5,4-1.2,2.67-4.5,1.5-6-.5-.5-1.1-1.8.5-3C19,8,18.5,7,18.5,4.5Z"/><path class="cls-2" d="M7,11c-1.6-1.2-3.67,1.5-4.5,3,.8,1.6,4.33,1,6,.5A3.53,3.53,0,0,0,7,11Z"/><path class="cls-2" d="M17.5,9A5.41,5.41,0,0,1,15,11a3.36,3.36,0,0,1-1-4c.8-1.6,3.33-1.33,4.5-1A6,6,0,0,1,17.5,9Z"/><path class="cls-1" d="M43.5,21c1.28-2.14.86-7.17-2-9.66-5-4.34-9.61-4.61-15.84-2.1-5,2-3.69,7.57-2.42,10.1,1.61.47,4.55,1.68,3.47,2.72-1.35,1.3-4.38,5.23,1.29,8.44,4.53,2.57,6.66-2.15,7-4.5,0-3.15,1.11-1.89,3.57-1.49C41.65,25,42,23.5,43.5,21Z"/><path class="cls-2" d="M28.59,16.8c-.3-2.48-4.52-2-6.59-1.46-.75,2.1,2.84,4.77,4.73,5.83A4.4,4.4,0,0,0,28.59,16.8Z"/><path class="cls-2" d="M39.45,24.53a6.74,6.74,0,0,1-4-.52c0-.88.07-3.53,2.74-4.35C40.36,19,42.31,21.5,43,22.84A7.51,7.51,0,0,1,39.45,24.53Z"/><path class="cls-3" d="M16.34,11.25a5.43,5.43,0,0,0,3.1-3.2c.1-.2.1-.5.2-.7v-.2a5,5,0,0,0-.7-3.3,7.45,7.45,0,0,0-5-3.6,12.37,12.37,0,0,0-8,1.1,11.61,11.61,0,0,0-5.4,5.9,7.87,7.87,0,0,0,.2,6.2,4.82,4.82,0,0,0,3.1,2.7,5.49,5.49,0,0,0,3.9-.4,2.09,2.09,0,0,0,.6-.4c.5,1.8,1.4,3.9,3.1,4.6a4.48,4.48,0,0,0,4-.4c.1,0,.1-.1.2-.1a5.1,5.1,0,0,0,2.8-3.2C18.74,14.55,17.54,12.65,16.34,11.25ZM15,9.85a2.65,2.65,0,0,1-.5-.6,1,1,0,0,1-.3-.9,2.7,2.7,0,0,1,2-1.4c.8-.2,1.3-.1,1.4.1v.1c0,.1-.1.3-.1.4A3.35,3.35,0,0,1,15,9.85Zm-10.6,4.5-.4-.2a.1.1,0,0,0-.1-.1,2.38,2.38,0,0,1,.8-1.3A2.86,2.86,0,0,1,7,12c.2,0,.5.2.7.7.1.2.1.5.2.7A3.38,3.38,0,0,1,4.44,14.35Zm12.1,1.8a2.87,2.87,0,0,1-1.8,1.8c-1.1.5-1.9.7-2.5.4-1.5-.7-2.2-3.5-2.5-5.2a3.09,3.09,0,0,1-.2-.8,2.59,2.59,0,0,0-1.9-2,5,5,0,0,0-4.1,1.3,4.36,4.36,0,0,0-.9,1.1.35.35,0,0,0-.1-.2,5.9,5.9,0,0,1-.1-4.7A10.29,10.29,0,0,1,6.94,3a9.88,9.88,0,0,1,6.6-.9,6.25,6.25,0,0,1,3.9,2.8.35.35,0,0,0,.1.2,7.08,7.08,0,0,0-1.4.1,4.51,4.51,0,0,0-3.4,2.6,2.49,2.49,0,0,0,.5,2.7l.6.6C14.84,12.35,16.84,14.45,16.54,16.15Z"/><path class="cls-3" d="M43.74,13.35a13.58,13.58,0,0,0-7.4-6.2,13.42,13.42,0,0,0-9.6.5,10,10,0,0,0-5.3,5.6,6.53,6.53,0,0,0-.3,4.1c.1.1,0,.2.1.3a2.12,2.12,0,0,0,.3.7,5.91,5.91,0,0,0,4.4,3.3c-1.2,2.1-2.4,4.8-1.6,7,.5,1.5,1.8,2.5,3.7,3.2a5.14,5.14,0,0,0,4.4-.1,1.38,1.38,0,0,0,.4-.3c2-1.4,2.6-4.2,2.9-6.6a6.17,6.17,0,0,0,5.5,0h.1c.2-.1.5-.3.7-.4s.1,0,.1-.1h.1a6.21,6.21,0,0,0,2.3-3.5A9.47,9.47,0,0,0,43.74,13.35Zm-20.5,4.2c-.1-.2-.2-.3-.2-.5,0,0-.1-.1.1-.3s.5-.5,1.9-.5a3.82,3.82,0,0,1,2.8,1.4,1.42,1.42,0,0,1-.1,1.4c-.1.3-.4.5-.5.9A4.36,4.36,0,0,1,23.24,17.55Zm12.9,5.5a3.75,3.75,0,0,1,.1-1.1c.1-.8.4-1.1.7-1.2a3.25,3.25,0,0,1,3,.6,2.51,2.51,0,0,1,1.2,1.5.37.37,0,0,1-.1.3c-.2.1-.3.2-.5.3A4.81,4.81,0,0,1,36.14,23.05Zm6.4-1.9a6.09,6.09,0,0,0-1.4-1.4,5.35,5.35,0,0,0-4.9-.8,3.11,3.11,0,0,0-1.9,2.8,3.75,3.75,0,0,0-.1,1.1c-.2,2.2-.5,6-2.2,7.3a3.68,3.68,0,0,1-3.3.1c-1.4-.5-2.2-1.1-2.5-2-.7-2.1,1.3-5.2,2.6-7.1a3.47,3.47,0,0,0,.6-.9,3.22,3.22,0,0,0,.2-3.4,5.38,5.38,0,0,0-4.4-2.4,5.62,5.62,0,0,0-2,.3,1.42,1.42,0,0,1,.2-.6,8.41,8.41,0,0,1,4.2-4.5,11,11,0,0,1,8.2-.3,12.16,12.16,0,0,1,6.4,5.2,8.07,8.07,0,0,1,.6,6.1C42.74,20.65,42.64,20.85,42.54,21.15Z"/><path class="cls-3" d="M35.25,2.7,8.71,28.77a1,1,0,1,0,1.4,1.43L36.65,4.13a1,1,0,1,0-1.4-1.43Z"/></g></g></svg>