<svg xmlns="http://www.w3.org/2000/svg" viewBox="0 0 40.24 37.75"><defs><linearGradient id="Безымянный_градиент" x1="-.31" y1="32.01" x2="19.19" y2="34.38" gradientTransform="matrix(1 0 0 -1 0 42.69)" gradientUnits="userSpaceOnUse"><stop offset="0" stop-color="#779d01"/><stop offset="1" stop-color="#bde01e"/></linearGradient></defs><g id="Слой_2" data-name="Слой 2"><g id="Слой_1-2" data-name="Слой 1"><path class="cls-1" d="M11.89,1.85l6.5,9.5c-2.4,1.2-5.17,5-6.5,6.5l-10-6,2.5-3.5L.89,5.85l1.5-3.5,3-1,3,2.5Z"/><path class="cls-2" d="M16.71,28c-7.6-4.4-6.17-8.5-4.5-10,2.5-3,7-8.5,11-7.5S33.21,22,37.71,31c3.6,7.2-1.5,7-4.5,6C30.88,35.8,24.31,32.37,16.71,28Z"/><path class="cls-3" d="M38.57,28.62a71.09,71.09,0,0,0-9.67-14.4c-2.27-2.52-4.24-4.32-5.66-4.48a8.09,8.09,0,0,0-4.3.7L12.74,1.51A1.79,1.79,0,0,0,11,.85,7,7,0,0,0,8.16,2.53c-.09,0-.09,0-.14.16L6.24.6A1.82,1.82,0,0,0,4.55,0a6.67,6.67,0,0,0-2.72,2A9.29,9.29,0,0,0,.06,4.87,1.44,1.44,0,0,0,.71,6.48l2.21,1.6c-.09,0-.09,0-.14.16a8.33,8.33,0,0,0-1.49,3A1.62,1.62,0,0,0,2,12.81l9.42,5.55A7.85,7.85,0,0,0,11,22.7c.45,1.9,4.39,5.2,9.13,8.17,0,.09,0,.09.13.05a58.9,58.9,0,0,0,12.92,6.22c3.17.9,5.21.81,6.3-.36s1-3.21-.15-6.29ZM9.31,3.83A4.9,4.9,0,0,1,11.4,2.57l6,8.79a8.17,8.17,0,0,0-1.38,1l-7-8.21C9.22,3.87,9.22,3.87,9.31,3.83ZM3.13,3.21a6.12,6.12,0,0,1,2-1.53L15,13.2l-.43.49a1.49,1.49,0,0,0-.43.49l-12.26-9A4.91,4.91,0,0,1,3.13,3.21ZM3,11.59A6.33,6.33,0,0,1,4.07,9.39a.34.34,0,0,0,.14-.16l8.71,6.36c-.25.41-.59.86-.89,1.4ZM38.17,35.86c-.29.32-1.32.85-4.62-.11A42.6,42.6,0,0,1,25.06,32c.41-.79.73-1.54,1.17-2.24a1,1,0,0,0-.29-1.23.8.8,0,0,0-1.15.25,16.2,16.2,0,0,0-1.23,2.37A12.83,12.83,0,0,1,21.64,30a29.08,29.08,0,0,1,1.94-3.7.79.79,0,0,0-.25-1.15.92.92,0,0,0-1.18.17,22.15,22.15,0,0,0-2,3.73c-4.11-2.71-7.27-5.38-7.53-6.53-.8-3.53,2.95-7.64,2.95-7.64s3.78-4,7.42-3.52c.77.1,2.06,1.25,3.74,3.07a18,18,0,0,0-3.77,2.77A.82.82,0,1,0,24,18.38a13.19,13.19,0,0,1,3.81-2.68A10.53,10.53,0,0,1,28.9,17c-.5.31-1.18.68-1.91,1.19a.91.91,0,0,0-.14,1.2A.71.71,0,0,0,28,19.6a9.31,9.31,0,0,1,2-1.23,64.32,64.32,0,0,1,6.38,10.11,10.62,10.62,0,0,0-2.23,1.94.86.86,0,1,0,1.29,1.14,8.31,8.31,0,0,1,1.68-1.51l.43,1.07C39,34.5,38.46,35.54,38.17,35.86Z"/><path class="cls-3" d="M33.14,6,6.6,32.11A1,1,0,1,0,8,33.54L34.54,7.47A1,1,0,1,0,33.14,6Z"/></g></g></svg>