<svg xmlns="http://www.w3.org/2000/svg" viewBox="0 0 37.55 30.03"><defs><linearGradient id="Безымянный_градиент" x1="19.34" y1="22.42" x2="37.33" y2="24.06" gradientTransform="matrix(1 0 0 -1 0 34)" gradientUnits="userSpaceOnUse"><stop offset="0" stop-color="#779d01"/><stop offset="1" stop-color="#bde01e"/></linearGradient></defs><g id="Слой_2" data-name="Слой 2"><g id="Слой_1-2" data-name="Слой 1"><path class="cls-1" d="M20.5,5.5,24,1c.8-.8,2.67,2.67,3.5,4.5,1.17-1.5,3.8-4.1,5-2.5S31.33,8.67,30,10.5c2-.67,6.1-1.3,6.5,1.5s-2.5,3.5-4,3.5L34,20l-5.5,1c.17-1.5-.8.1-2-5.5S22.33,5.83,20.5,5.5Z"/><path class="cls-2" d="M4.5,12c2.4-4,8.33-7.33,11-8.5,6-1.5,19.5,18,10,23S8,29.5,3,26.5,1.5,17,4.5,12Z"/><path class="cls-3" d="M5.9,22.74a1.38,1.38,0,0,0,2,.3,1.56,1.56,0,0,0,.9-1.9,1.38,1.38,0,0,0-2-.3A1.56,1.56,0,0,0,5.9,22.74Z"/><path class="cls-3" d="M29.2,21.34a8.44,8.44,0,0,0,5.2-.5c.1-.1.2-.1.3-.2s.1-.2.2-.3a5.87,5.87,0,0,0,.4-2.3,5.68,5.68,0,0,0-.7-2.2,5.22,5.22,0,0,0,1.9-1.4,5.12,5.12,0,0,0,1-2.1c0-.1.1-.2,0-.4a.76.76,0,0,0-.1-.4A5.73,5.73,0,0,0,31.7,9a5.42,5.42,0,0,0,1.5-2.9,5.79,5.79,0,0,0-.3-3.2c-.1-.1-.1-.2-.2-.3s-.2-.1-.3-.2a4.45,4.45,0,0,0-2.3-.3,5.68,5.68,0,0,0-2.2.7A4.89,4.89,0,0,0,26.5,1a5.12,5.12,0,0,0-2.1-1c-.1,0-.2-.1-.4,0a.6.6,0,0,0-.4.1,7.42,7.42,0,0,0-3.4,4,6,6,0,0,0-3.4-1.3,7.41,7.41,0,0,0-3.6.6C4.1,8.24-2,20.34.6,25.24s16,6.8,25.2,2a6.51,6.51,0,0,0,2.6-2.6A4.94,4.94,0,0,0,29.2,21.34Zm-5-19.1a3.13,3.13,0,0,1,1,.5,5.49,5.49,0,0,1,.7.9,2.54,2.54,0,0,1,.2,1.2,2,2,0,0,1-.3,1.1c0,.1-.1.2,0,.4a.76.76,0,0,0,.1.4.77.77,0,0,0,.2.3c.1.1.2.1.3.2s.2.1.4,0a.6.6,0,0,0,.4-.1c.1-.1.2-.1.3-.2s.1-.2.2-.3a3,3,0,0,1,1.5-2,2.57,2.57,0,0,1,2.1-.1c.4,1.4-.7,3.5-2.8,5.4a1,1,0,0,0-.5.6.62.62,0,0,0,.1.7,1,1,0,0,0,.6.5.59.59,0,0,0,.7-.1c2.8-.7,5.2-.4,6.1.8a3.15,3.15,0,0,1-1.3,1.7,3.58,3.58,0,0,1-2.5,0c-.1,0-.2-.1-.4,0a.6.6,0,0,0-.4.1c-.1.1-.2.1-.3.2s-.1.2-.2.3-.1.2,0,.4a.76.76,0,0,0,.1.4.77.77,0,0,0,.2.3c.1.1.2.1.3.2a2.1,2.1,0,0,1,1.1.4,3,3,0,0,1,.8.8,3.58,3.58,0,0,1,.4,1.1,2.46,2.46,0,0,1-.1,1.2,5.79,5.79,0,0,1-4.1,0,26.47,26.47,0,0,0-2.6-7.3A25.8,25.8,0,0,0,22,5.94,5.58,5.58,0,0,1,24.2,2.24ZM2.4,24.54C.5,20.84,5.6,9.84,14.2,5.34c4.8-2.5,9.3,5.1,10.5,7.5s5,10.4.2,12.9C16.3,30.24,4.3,28.24,2.4,24.54Z"/><path class="cls-3" d="M9.2,16.14a1.63,1.63,0,1,0,.7-2.2A1.64,1.64,0,0,0,9.2,16.14Z"/><path class="cls-3" d="M13.4,24.24c.3.5,1.1.6,1.9.2s1.2-1.2.9-1.7-1.1-.6-1.9-.2A1.6,1.6,0,0,0,13.4,24.24Z"/><path class="cls-3" d="M21.1,22.64c.3.5,1.1.6,1.9.2s1.2-1.2.9-1.7-1.1-.6-1.9-.2S20.8,22.14,21.1,22.64Z"/><path class="cls-3" d="M14.9,10.74a1.63,1.63,0,1,0,.7-2.2A1.49,1.49,0,0,0,14.9,10.74Z"/><path class="cls-3" d="M16,17.44a1.63,1.63,0,1,0,.7-2.2A1.49,1.49,0,0,0,16,17.44Z"/></g></g></svg>