<svg xmlns="http://www.w3.org/2000/svg" viewBox="0 0 50.94 33.91"><g id="Слой_2" data-name="Слой 2"><g id="Слой_1-2" data-name="Слой 1"><path class="cls-1" d="M8,23.5l3.5-2H13l1,4-2.5,1c-.67.17-1.6,1.1,0,3.5,2,3,6.5,3,11,2.5,3.6-.4,8.83-4.83,11-7l8-4A18,18,0,0,0,41.5,9C39,2,33.5,1.5,31,1s-8,6.5-9.5,8-5.5.5-12,3C4.3,14,6.33,20.5,8,23.5Z"/><path class="cls-2" d="M46.41,4.23c.1-1.8-.6-3.9-2.6-4.2a3.22,3.22,0,0,0-2.9,1.3,4,4,0,0,0-.8,3.1H40c-3.5-3.7-8.9-5.7-13-2.2-1.8,1.5-3.2,3.3-4.9,4.8-2.4,2.1-4.9,2.2-8,2.7a9.67,9.67,0,0,0-8,6.1,10.76,10.76,0,0,0-.4,5.9,4.27,4.27,0,0,0-2.5.1A3.38,3.38,0,0,0,1,23.13c-2.4,2.7-.1,4.3,2.4,4.9-1,2.8.5,6.2,4.2,5.5,1.6-.3,2.3-1.9,2.7-3.3a15.19,15.19,0,0,0,8.3,3.6c4.5.5,8.7-1.5,11.9-4.4a22.75,22.75,0,0,1,6.8-4.2,12.46,12.46,0,0,0,4.4-2.7c2.7-2.9,2.4-8.5,1.6-12v-.1a2,2,0,0,1,1.1-.3,2,2,0,0,1,1.1.2,5.33,5.33,0,0,0,2.8.4,3.16,3.16,0,0,0,2.6-2.9C51.21,5.13,48.71,3.73,46.41,4.23Zm-41.1,27c-1-.9-.4-2.5.2-3.4.1-.1.1-.2.1-.4a.6.6,0,0,0-.1-.4c-.1-.1-.1-.2-.2-.3a.52.52,0,0,0-.4-.2c-1-.1-3.4-.2-3-1.8.5-2.2,4.1-1.7,5.1-.3l.3.3c.1.1.2.1.4.1h.4c.1,0,.2-.1.3-.2a38.74,38.74,0,0,1,3.1-2.6,7.45,7.45,0,0,0,1.2.7,7.49,7.49,0,0,0,.2,2.1c-1.2.6-3.6,1.5-4,2.5-.6,1.2.2,2.9-1,3.9a2,2,0,0,1-1.3.4A2.2,2.2,0,0,1,5.31,31.23Zm34.6-9.4c-2.4,2.1-5.8,2.4-8.3,4.3-3,2.3-5.2,4.9-9.2,5.8-3.8.8-9.2-.6-11.6-3.7a3.45,3.45,0,0,1,.9-.8,16.17,16.17,0,0,1,1.8-1,3.61,3.61,0,0,0,1.5,1.5.87.87,0,1,0,.9-1.5,3.52,3.52,0,0,1-1.3-3.2c.2,0,.3.1.5.1,1.1.2,1.6-1.5.5-1.7a6.72,6.72,0,0,1-2.8-1,5.3,5.3,0,0,1-2.1-2.1c-.6-.9-2.1-.1-1.5.9a7.55,7.55,0,0,0,1.1,1.4c-.8.6-1.5,1.2-2.2,1.8-1.1-2.1-.8-4.2-.2-6.5,1.4-4.3,5.7-4.6,9.5-5.2A12,12,0,0,0,24,7.53c2.7-2.4,5.1-6.5,9.3-5.1,4,1.3,7.1,3.5,8.3,7.6C42.41,13.33,42.71,19.43,39.91,21.83Zm9.3-14.1c-.2,2-2.4,1.1-3.6.7a3.33,3.33,0,0,0-1.4-.1,3.71,3.71,0,0,0-1.4.4,16.41,16.41,0,0,0-1.6-2.9c.5-.3.7-.7.7-1.6,0-1.1.2-2.2,1.5-2.1,1.6.1,1.6,2.1,1,3.2a1.27,1.27,0,0,0-.1.6.85.85,0,0,0,.3.5,1,1,0,0,0,1.2,0C46.91,5.33,49.41,6,49.21,7.73Z"/></g></g></svg>