<svg xmlns="http://www.w3.org/2000/svg" viewBox="0 0 35.2 35"><defs><linearGradient id="Безымянный_градиент" x1="-1.53" y1="16.16" x2="36" y2="20.45" gradientTransform="matrix(1 0 0 -1 0 36)" gradientUnits="userSpaceOnUse"><stop offset="0" stop-color="#779d01"/><stop offset="1" stop-color="#bde01e"/></linearGradient></defs><g id="Слой_2" data-name="Слой 2"><g id="Слой_1-2" data-name="Слой 1"><path class="cls-1" d="M22,24c-1.2,2.8-1.17,7.83-1,10-1.6.8-5,.33-6.5,0V28.5c0-2.4-1.67-5.83-2.5-7-1.33,1.83-6,3-9,.5-4.57-3.81-1-8.5,1-10A39.65,39.65,0,0,1,5.5,7.5c.8-2,4-2.17,5.5-2-.17-.5.3-2,3.5-4S22.17,2.33,24,4c.17-.5,1.1-1.2,3.5,0s2.67,4.5,2.5,6c2,.33,5.6,2.4,4,8s-8,5-11,4C23.17,21.5,23.2,21.2,22,24Z"/><path class="cls-2" d="M30.8,9V8.7a6,6,0,0,0-6.1-5.9,3.08,3.08,0,0,0-.9.1h-.1A8,8,0,0,0,10.3,4.5h-.1a7.43,7.43,0,0,0-7.3,7c0,.1,0,.2.1.2a6.88,6.88,0,0,0-3,5.5,7,7,0,0,0,7.1,6.9,7.07,7.07,0,0,0,4.6-1.7c1.1,2.1,2,5.3,2,10a2.93,2.93,0,0,0,.8,1.9,2.49,2.49,0,0,0,1.9.7h2.7a3.16,3.16,0,0,0,1.9-.7,2.56,2.56,0,0,0,.8-1.9,22.93,22.93,0,0,1,1.6-9.5,9.16,9.16,0,0,0,3.7.9,8,8,0,0,0,8.1-7.9A8.13,8.13,0,0,0,30.8,9ZM27,22.3a6.39,6.39,0,0,1-2.8-.6,8.72,8.72,0,0,1,3.3-3,1,1,0,0,0,.4-1.1,1,1,0,0,0-1.1-.4,9.49,9.49,0,0,0-2.1,1.4,6,6,0,0,0-2.5-4.5.78.78,0,1,0-1,1.2,4.64,4.64,0,0,1,1.3,6c-1.4,2.4-2.6,6-2.5,11.3a1,1,0,0,1-1,1H16.3a1,1,0,0,1-1-1V31a7.48,7.48,0,0,1,2.1-5.1.78.78,0,1,0-1.2-1,22,22,0,0,0-1.4,1.8,14.52,14.52,0,0,0-2.9-6.6,1.49,1.49,0,0,1-.2-.9,2.13,2.13,0,0,1,1.4-2c.4-.2.7-.6.5-1a.93.93,0,0,0-1-.5,3.66,3.66,0,0,0-2.4,2.7c-.5-.4-1.1-.7-1.5-1A.83.83,0,0,0,8,18.9,7.94,7.94,0,0,1,10.7,21a1.38,1.38,0,0,0,.3.4.1.1,0,0,0-.1.1,5.49,5.49,0,0,1-3.7,1.4,5.29,5.29,0,0,1-5.4-5.3,5.36,5.36,0,0,1,5.1-5.3,1,1,0,0,0,.8-.9.8.8,0,0,0-.9-.7,11.8,11.8,0,0,0-2,.4A5.74,5.74,0,0,1,10,6.4,7.77,7.77,0,0,0,9.8,8a8.57,8.57,0,0,0,.5,2.7.79.79,0,0,0,.8.5.37.37,0,0,0,.3-.1c.4-.2.7-.6.5-1A5.22,5.22,0,0,1,11.5,8a6.17,6.17,0,0,1,6.3-6.1A6.23,6.23,0,0,1,24.1,8a.8.8,0,0,0,1.6,0,7.31,7.31,0,0,0-.8-3.3A4.49,4.49,0,0,1,29.3,9a4.55,4.55,0,0,1-.5,2,.8.8,0,0,0,.3,1.1.6.6,0,0,0,.4.1.84.84,0,0,0,.7-.4,4.88,4.88,0,0,1,.3-.7,6.16,6.16,0,0,1,3,5.3C33.5,19.5,30.6,22.3,27,22.3Z"/></g></g></svg>