<svg xmlns="http://www.w3.org/2000/svg" viewBox="0 0 48 36.01"><defs><linearGradient id="lg-fp-hot" x1="36.35" y1="25.76" x2="46.99" y2="26.82" gradientTransform="matrix(1 0 0 -1 0 42.01)" gradientUnits="userSpaceOnUse"><stop offset="0" stop-color="#779d01"/><stop offset="1" stop-color="#bde01e"/></linearGradient></defs><g id="Слой_2" data-name="Слой 2"><g id="Слой_1-2" data-name="Слой 1"><path class="cls-1" d="M18.39,28.94C11.06,32.7,3.7,29.46.93,27.36c3.7,9.13,13.73,8.46,24.82,5.82,8.87-2.11,14-8.54,15.39-11.5l-2.43-2.08a3.23,3.23,0,0,0-2.9-3.1C32.83,15.91,27.55,24.24,18.39,28.94Z"/><path class="svg-icon__layer svg-icon__layer--colored svg-icon__layer--fp-hot" d="M43.5,13l3-3v2c0,1.2-3.33,4.5-5,6a6.48,6.48,0,0,0,.5,2.5c.5,1-1,0-2.5-1A8.59,8.59,0,0,1,37,16h3Z"/><path class="cls-3" d="M42.37,3H42.1a.64.64,0,0,0-.65.72l.09,1a.5.5,0,0,0,.28.45,1.33,1.33,0,0,0,.55.18h.18c1.11,0,2.86.36,2.86,3,0,3.25-4.33,6.24-5.25,6.87H39.7c-2.21,0-3,.09-3.41.45-2,.27-3.5,1.18-6.36,3.62-.74.63-1.57,1.45-2.49,2.35-3.32,3.16-7.84,7.59-12.63,8.59-4,.81-8.3-.18-12.72-2.89H2a1.49,1.49,0,0,0-1.66-.18c-.46.36-.46,1,.09,2C.61,29.41,4.48,36,14.72,36a22.08,22.08,0,0,0,2.4-.09c12.45-1.18,21.94-8.5,24.43-13,0-.09.28-.72.46-1.36l.09-.09a1.61,1.61,0,0,0,.37-1.27c0-1-.09-1.63-.09-2,1.29-1,5.62-5,5.62-9.67C48.09,4.36,45.14,3,42.37,3ZM17,34.38c-9.5.9-13.83-3.71-14.93-5.24A19.21,19.21,0,0,0,15.5,31.51c5.25-1.08,9.59-5.15,13-8.5a41.22,41.22,0,0,1,3-3c2.27-2.07,3.75-2.81,4.5-2.9a2.06,2.06,0,0,1,1.4.27.91.91,0,0,0-.55,1c0,.09.09.54.74.72.18,0,.37.09.55.09a2.46,2.46,0,0,0,.09.81,1,1,0,0,0,.74.63,1.92,1.92,0,0,0,1,0,4.21,4.21,0,0,0,.65.63,3.87,3.87,0,0,1-.37,1C37.86,26.6,28.45,33.29,17,34.38ZM41.18,17.11a.6.6,0,0,0-.28.72A12.34,12.34,0,0,1,41,19.64c-.09-.18-.28-.27-.37-.45a.72.72,0,0,0-.65-.27.71.71,0,0,0-.46.18.68.68,0,0,1,.18-.36.67.67,0,0,0-.09-.72,1.06,1.06,0,0,0-.74-.27,1.71,1.71,0,0,0-.37-1.18h1.75c.18,0,.28,0,.37-.09a15.49,15.49,0,0,0,5.25-5.33A14.64,14.64,0,0,1,41.18,17.11Z"/><path class="cls-3" d="M10.17,17.2c-2.2,4.66,1.23,7.44,3,10.63.86-1.31-3.43-5.78-1.92-9.17A19,19,0,0,0,12.84,11a1.88,1.88,0,0,1,2,1.28,25.62,25.62,0,0,1,1.11,2.58c2.49-1.65,4.82-9.45,1.21-13.2,6.85.25,9.59,2.5,10,9.74C28.83,11,30.37,9,31,8.34A10.53,10.53,0,0,1,32.32,12c1-.77.18-4.54-1.35-6.47a8.26,8.26,0,0,1-2.58,3.92C28.72,1,20.45-.56,13.64.15,17.89,2.64,17.93,8.26,16.12,12c-.72-3.45-4.62-2.22-5.79-3.29C11.14,9.87,12.52,12.2,10.17,17.2Z"/></g></g></svg>