<svg xmlns="http://www.w3.org/2000/svg" viewBox="0 0 42 32.3"><g id="Слой_2" data-name="Слой 2"><g id="Слой_1-2" data-name="Слой 1"><path class="cls-1" d="M33.5,4c-2.8-2.4-9.83-3-13-3L10,9.5c.33.83.8,2.7,0,3.5s-3.33.33-4.5,0L1,17.5v5s2.5,0,2.5,1.5S1,26.5,1,26.5v5L41,25V10.5C39.67,9.33,36.3,6.4,33.5,4Z"/><circle class="cls-2" cx="13" cy="22" r="3"/><circle class="cls-2" cx="25.5" cy="14.5" r="2.5"/><circle class="cls-2" cx="19.5" cy="7.5" r="2.5"/><path class="cls-3" d="M13.4,25.9a3.85,3.85,0,1,1,0-7.7,3.84,3.84,0,0,1,3.9,3.9A4,4,0,0,1,13.4,25.9Zm0-6a2.14,2.14,0,0,0-2.1,2.2,2.11,2.11,0,0,0,2.1,2.1,2.18,2.18,0,0,0,2.1-2.1A2,2,0,0,0,13.4,19.9Z"/><path class="cls-3" d="M19.1,11.5a3.4,3.4,0,1,1,3.4-3.4A3.37,3.37,0,0,1,19.1,11.5Zm0-5a1.6,1.6,0,1,0,1.6,1.6A1.58,1.58,0,0,0,19.1,6.5Z"/><path class="cls-3" d="M13.4,25.9a3.85,3.85,0,1,1,0-7.7,3.84,3.84,0,0,1,3.9,3.9A4,4,0,0,1,13.4,25.9Zm0-6a2.14,2.14,0,0,0-2.1,2.2,2.11,2.11,0,0,0,2.1,2.1,2.18,2.18,0,0,0,2.1-2.1A2,2,0,0,0,13.4,19.9Z"/><path class="cls-3" d="M.1,32.3,0,25.2H1.3a1.2,1.2,0,0,0,0-2.4H0V18.2a2.18,2.18,0,0,1,.5-1.4l.3-.3,4.2-4a1.63,1.63,0,0,1,.6-.3h.5a.76.76,0,0,1,.4.1h.1a3.3,3.3,0,0,0,2.2-.1c.4-.2.8-.5.8-.7v-.2c0-.1-.2-.4-.3-.4a1.27,1.27,0,0,1-.4-.6,1.39,1.39,0,0,1,0-.9,1.61,1.61,0,0,1,.4-.7l.1-.1c1.4-1.2,4.6-3.9,6.9-5.8l1.3-1.1C18.4,1,19,.5,19,.5A2.39,2.39,0,0,1,20.4,0,28.37,28.37,0,0,1,33.2,3a25,25,0,0,1,8.4,7.2,1.14,1.14,0,0,1,.3.8L42,25.2,30.4,27.1C18.9,29,3.3,31.6,1.7,31.9Zm1.7-5.4v3.5c2.9-.5,17.4-2.9,28.3-4.7L40.3,24l-.1-12.3L29,13.4a2.2,2.2,0,0,1,.1.8,3.37,3.37,0,0,1-3.4,3.4,3.3,3.3,0,0,1-3.4-3L2,18H1.8v3.4a2.8,2.8,0,0,1,2.4,2.8A2.87,2.87,0,0,1,1.8,26.9Zm23.9-14h-.3a5.31,5.31,0,0,0-1.1.3c-.2.1-.2.2-.3.4s0,.1-.1.2v.3a1.75,1.75,0,0,0,1.7,1.7,1.63,1.63,0,0,0,1.7-1.7.91.91,0,0,0-.4-.8l-.1-.1A2.43,2.43,0,0,0,25.7,12.9ZM6,13.9c-.3.2-1.1,1.1-2,1.9l18.6-3.1a3.24,3.24,0,0,1,.8-.9,4.25,4.25,0,0,1,1.9-.6,4.19,4.19,0,0,1,2.5.5h.1l.1.1.8-.1,10.6-1.6a23.29,23.29,0,0,0-6.7-5.4,27.19,27.19,0,0,0-12-2.8c-.2,0-.3,0-.3.1a13.3,13.3,0,0,1-1.3,1.1L17.7,4.3c-2.2,1.9-5.3,4.5-6.8,5.7a2.09,2.09,0,0,1,.6,1.5c0,1.3-1.5,2.1-1.8,2.3A6.71,6.71,0,0,1,6,13.9Z"/></g></g></svg>