<svg xmlns="http://www.w3.org/2000/svg" viewBox="0 0 42.5 39.58"><defs><linearGradient id="Безымянный_градиент" x1="8.48" y1="29.68" x2="23.94" y2="30.81" gradientTransform="matrix(1 0 0 -1 0 42)" gradientUnits="userSpaceOnUse"><stop offset="0" stop-color="#779d01"/><stop offset="1" stop-color="#bde01e"/></linearGradient></defs><g id="Слой_2" data-name="Слой 2"><g id="Слой_1-2" data-name="Слой 1"><path class="cls-1" d="M17.5,4.5c-6.8,5.6-8.17,14.33-8,18a31.17,31.17,0,0,0,10-7.5c4-4.4,4-11.17,3.5-14C22,1.5,21.75,1,17.5,4.5Z"/><path class="cls-2" d="M32,17c-4-2-7.33.83-8.5,2.5h-5c-4,0-6,4.5-5,9.5s5.5,8.5,10,9.5c3.6.8,5.5-4.67,6-7.5,3,2,9.4,4.5,11-1.5C42.5,22,37,19.5,32,17Z"/><path class="cls-3" d="M20.5,36c0-1.6,2.5-2.17,3.5-2a3,3,0,0,1,2.5,1.5c1,1.5-1.5,3-2.5,3S20.5,38,20.5,36Z"/><path class="cls-3" d="M40,30.5c1.2-.8.17-3-.5-4-2-1-4.5,1.5-3.5,3.5S38.5,31.5,40,30.5Z"/><path class="cls-4" d="M23.62,39.58c-3.4,0-7.2-2.6-9.4-6.8-2.1-4-2.2-8.4-.4-11.3a42.44,42.44,0,0,0-12.4,8,.91.91,0,0,1-1.2,0,.91.91,0,0,1,0-1.2,44.53,44.53,0,0,1,8.4-6.2c0-2.1.6-15.7,14.2-22a.85.85,0,0,1,.7,0,1,1,0,0,1,.5.6c0,.1,2.2,10-7,18a23.2,23.2,0,0,1,7-.9,6.66,6.66,0,0,1,3.8-2,13,13,0,0,1,9.2,2.5c4.9,3.6,6.9,9.4,4.4,13a6.46,6.46,0,0,1-4.4,2.6,11.55,11.55,0,0,1-7.1-1.3c-.1,2.9-1.4,5.3-3.6,6.4A6,6,0,0,1,23.62,39.58Zm-2.2-3.2c.1.8,1.2,1.4,2.3,1.2a2.6,2.6,0,0,0,1.6-.9,1.9,1.9,0,0,0,.3-.9c-.1-.8-1.2-1.4-2.3-1.2a2.36,2.36,0,0,0-1.6.9A.92.92,0,0,0,21.42,36.37Zm-2.5-16a4.55,4.55,0,0,0-2,.5c-3,1.6-3.6,6.6-1.2,11.2a12.15,12.15,0,0,0,4,4.6,2.74,2.74,0,0,1,.6-2.1,3.88,3.88,0,0,1,2.7-1.5,3.67,3.67,0,0,1,4.3,2.6V36a7.38,7.38,0,0,0,1-4.4c-.1-.1-.2-.1-.3-.2-3.7-2.6-5.7-6.5-5.5-9.8A5.77,5.77,0,0,0,18.92,20.37Zm10.7,10a10.56,10.56,0,0,0,7,1.8c-.2-.1-.5-.2-.7-.3-1.4-.9-1.7-3-.8-4.7,0-.1.1-.1.1-.2a4.18,4.18,0,0,1,2.6-1.9,2.78,2.78,0,0,1,2.2.4c.2.2.5.3.6.6a11.93,11.93,0,0,0-4.6-6.4c-2.5-1.8-5.5-2.7-7.9-2.2a4.8,4.8,0,0,0-2.9,1.5c-.1.1-.1.2-.2.3a.1.1,0,0,1-.1.1,3.63,3.63,0,0,0-.7,1.7v.3c-.3,2.8,1.5,6.2,4.8,8.6.2.1.3.2.5.3Zm7.2-2.7a.1.1,0,0,1-.1.1c-.6,1-.5,2.2.2,2.6a1,1,0,0,0,.9.1,2.13,2.13,0,0,0,1.4-1.1c.6-1,.5-2.2-.2-2.6a1,1,0,0,0-.9-.1A3.79,3.79,0,0,0,36.83,27.67ZM22.52,2.17c-10.4,5.4-11.9,15.3-12.2,18.9C22.62,14.77,22.83,5.37,22.52,2.17Zm-.2,17.3c.2.1.3.2.5.3,0-.1.1-.2.1-.3A.64.64,0,0,0,22.33,19.48Z"/><path class="cls-4" d="M33.25,8.7,6.71,34.77a1,1,0,1,0,1.4,1.43L34.65,10.13a1,1,0,1,0-1.4-1.43Z"/></g></g></svg>