<svg xmlns="http://www.w3.org/2000/svg" viewBox="0 0 42.56 44.56"><g id="Слой_2" data-name="Слой 2"><g id="Слой_1-2" data-name="Слой 1"><path class="cls-1" d="M26.5,34.5c-1.2-1.6-5.83-1.67-8-1.5,0,3.5,1,3.5,4.5,5a5.7,5.7,0,0,0-3.5,5c-.33.33,0,.7,4-.5s4.67-3.83,4.5-5a15.14,15.14,0,0,0,5-1c2.5-1,10.5-6,8.5-15.5-1.6-7.6-9.33-9.5-13-9.5H8.5c-.17.33.1,2,2.5,6s7.33,4,9.5,3.5a16.46,16.46,0,0,1,8,3c3.6,2.4,2.17,9.33,1,12.5A4.38,4.38,0,0,1,26.5,34.5Z"/><path class="cls-2" d="M42.16,23.26a13.49,13.49,0,0,0-12.9-12.4H9.06a4.6,4.6,0,0,1-2.9-2.7,6.16,6.16,0,0,1,.5-4.5.61.61,0,0,0-.3-.9.61.61,0,0,0-.9.3A7.19,7.19,0,0,0,5,8.56a5,5,0,0,0,1.3,1.9,6.21,6.21,0,0,1-3.4-2.1c-2.2-2.8-1.1-7.2-1.1-7.3a.66.66,0,0,0-.5-.8.66.66,0,0,0-.8.5c-.1.2-1.3,5,1.3,8.4,1.4,1.8,3.7,2.8,6.7,2.9a10.41,10.41,0,0,0,10,9.8c.1,0,.2.1.3.1q8.1,0,10.5,3.9c2.1,3.5,0,8.6-.8,10.3-.8-1.6-3.2-4.1-10.7-4.1a.58.58,0,0,0-.6.6c0,3.1,2.9,4.8,4.8,5.5a6.46,6.46,0,0,0-3.3,5.4.58.58,0,0,0,.6.6c5.8,0,9.4-3.4,9.6-6.6a13.55,13.55,0,0,0,13.4-13.5C42.16,24,42.16,23.66,42.16,23.26ZM20,43.06c.4-2.9,3.7-4.3,3.8-4.3a.62.62,0,0,0,.4-.6.63.63,0,0,0-.5-.6s-4.6-1.2-5.2-4.1c8.7.2,9.1,4,9.1,4.2C27.56,39.76,24.86,42.76,20,43.06ZM9.76,12.16H28a9.12,9.12,0,0,1-18.2,0Zm18.9,11.2a12.47,12.47,0,0,0-5.6-2.3,10.41,10.41,0,0,0,6.2-8.8,12.35,12.35,0,0,1,7.2,2.8v.2c.3,2.2-.4,4-2.2,5.9A11.2,11.2,0,0,1,28.66,23.36Zm1.1,13.1a18.22,18.22,0,0,0,1.7-6.9,11.76,11.76,0,0,0,2.7.3,7.29,7.29,0,0,0,3-.5,8.19,8.19,0,0,0,3.5-2.9A12.22,12.22,0,0,1,29.76,36.46Zm6.9-8.3a9,9,0,0,1-5.4,0,6.3,6.3,0,0,0-1-2.9c-.2-.3-.3-.5-.5-.8a10.2,10.2,0,0,0,5.3-2.6,7.86,7.86,0,0,0,2.7-5.7,12,12,0,0,1,3,7.1A7.35,7.35,0,0,1,36.66,28.16Z"/><path class="cls-2" d="M19.26,44.56a.9.9,0,0,1-.9-.9,6.63,6.63,0,0,1,3-5.4c-1.9-.8-4.5-2.6-4.5-5.6a.9.9,0,0,1,.9-.9c7,0,9.7,2.2,10.7,3.8.8-1.9,2.5-6.5.6-9.6-1.5-2.5-4.9-3.8-10.2-3.8a.37.37,0,0,1-.3-.1,10.6,10.6,0,0,1-10.2-9.8c-3-.2-5.3-1.2-6.7-3C-.94,5.86.26.86.36.66a.8.8,0,0,1,1.1-.6.8.8,0,0,1,.6,1.1s-1.1,4.3,1,7A5.24,5.24,0,0,0,5.56,10a8.27,8.27,0,0,1-.7-1.3A7.24,7.24,0,0,1,5.46,3a1,1,0,0,1,1.2-.4.66.66,0,0,1,.4.5.88.88,0,0,1-.1.7c0,.1-1.2,2.3-.4,4.3a4.48,4.48,0,0,0,2.7,2.5h20.4a13.83,13.83,0,0,1,12.9,12.6v1a13.79,13.79,0,0,1-13.4,13.7C28.76,41.26,25.06,44.56,19.26,44.56Zm-1.5-12.2a.43.43,0,0,0-.4.4c0,2.9,2.9,4.6,4.6,5.3l.4.2-.4.3a6.24,6.24,0,0,0-3.1,5.2.43.43,0,0,0,.4.4c5.7,0,9.2-3.2,9.3-6.4v-.2h.2a13.3,13.3,0,0,0,13.1-13.2v-1a13.26,13.26,0,0,0-12.6-12.2H9.06a4.92,4.92,0,0,1-3-2.8,6.25,6.25,0,0,1,.5-4.7.19.19,0,0,0,0-.3.22.22,0,0,0-.2-.2.37.37,0,0,0-.5.2,6.71,6.71,0,0,0-.5,5.3,4.39,4.39,0,0,0,1.2,1.8l.7.6-.9-.2a6.69,6.69,0,0,1-3.6-2.2c-2.3-2.9-1.1-7.4-1.1-7.5s-.1-.4-.3-.5S1,.76.86,1s-1.3,4.9,1.2,8.1c1.4,1.8,3.5,2.7,6.5,2.8h.2v.2a10.11,10.11,0,0,0,9.8,9.5h.3c5.5,0,9.1,1.4,10.7,4.1,2.1,3.6.2,8.6-.8,10.6l-.2.5-.2-.5C27.46,34.86,25.16,32.36,17.76,32.36Zm1.9,11v-.3c.5-3.1,3.9-4.5,3.9-4.5.2-.1.3-.2.2-.4s-.1-.3-.3-.4c-.5-.1-4.7-1.4-5.3-4.3l-.1-.3h.3c8.9.2,9.3,4.2,9.3,4.4,0,2.2-2.5,5.5-7.8,5.7Zm-.9-9.7c.8,2.5,4.7,3.6,4.9,3.6a1,1,0,0,1,.7.8c.1.4-.2.7-.6.9,0,0-2.9,1.2-3.5,3.8,4.8-.4,7-3.3,7-5.2C27.26,37.56,27,34,18.76,33.66Zm10.6,3.1.2-.4a16.57,16.57,0,0,0,1.6-6.8v-.3l.3.1a11.76,11.76,0,0,0,2.7.3,8.36,8.36,0,0,0,2.9-.5,8.14,8.14,0,0,0,3.4-2.8l.4.2a12.43,12.43,0,0,1-11.2,10.2Zm2.3-6.9a18.77,18.77,0,0,1-1.5,6.3,12.14,12.14,0,0,0,10.1-8.7,8.94,8.94,0,0,1-3,2.2,9.14,9.14,0,0,1-3.1.5Zm2.5-1.1a11.93,11.93,0,0,1-2.9-.4h-.2v-.2a6.72,6.72,0,0,0-1-2.8,3,3,0,0,0-.5-.7l-.3-.3.4-.1a10.57,10.57,0,0,0,5.2-2.5,7.49,7.49,0,0,0,2.6-5.5v-.6l.4.5a12.06,12.06,0,0,1,3.1,7.2,7.87,7.87,0,0,1-4.3,5A6,6,0,0,1,34.16,28.76Zm-2.6-.8a9.8,9.8,0,0,0,5.1,0,7.55,7.55,0,0,0,4-4.6,11.39,11.39,0,0,0-2.6-6.4,8.53,8.53,0,0,1-2.7,5.2,10.85,10.85,0,0,1-5,2.6c.1.2.2.3.3.5A8.54,8.54,0,0,1,31.56,28Zm-3-4.4a11.45,11.45,0,0,0-5.6-2.3l-.8-.1.8-.3a9.87,9.87,0,0,0,6-8.6v-.2h.2a12.53,12.53,0,0,1,7.4,2.8l.1.1v.2a6.84,6.84,0,0,1-2.3,6.1A9.82,9.82,0,0,1,28.56,23.56Zm-4.7-2.7a11.11,11.11,0,0,1,4.9,2.2,9.47,9.47,0,0,0,5.3-2.2,6.39,6.39,0,0,0,2.2-5.7v-.1a11,11,0,0,0-6.7-2.6A10.79,10.79,0,0,1,23.86,20.86Zm-5,0a9.3,9.3,0,0,1-9.3-8.7v-.3h18.7v.3A9.47,9.47,0,0,1,18.86,20.86Zm-8.8-8.5a8.84,8.84,0,0,0,17.6,0Z"/><path class="cls-2" d="M18.66,17.36c.8,0,1.5-.9,1.5-2s-.7-2-1.5-2-1.5.9-1.5,2S17.86,17.36,18.66,17.36Z"/><path class="cls-2" d="M18.66,17.56a2.07,2.07,0,0,1-1.8-2.3,2.07,2.07,0,0,1,1.8-2.3,2.07,2.07,0,0,1,1.8,2.3A2.07,2.07,0,0,1,18.66,17.56Zm0-4c-.7,0-1.3.8-1.3,1.8s.6,1.8,1.3,1.8,1.3-.8,1.3-1.8S19.36,13.56,18.66,13.56Z"/></g></g></svg>