<svg xmlns="http://www.w3.org/2000/svg" viewBox="0 0 42 42"><defs><linearGradient id="lg-fp-new" x1="-1.75" y1="20.4" x2="42.91" y2="25.5" gradientTransform="matrix(1 0 0 -1 0 44)" gradientUnits="userSpaceOnUse"><stop offset="0" stop-color="#779d01"/><stop offset="1" stop-color="#bde01e"/></linearGradient></defs><g id="Слой_2" data-name="Слой 2"><g id="Слой_1-2" data-name="Слой 1"><circle class="cls-1" cx="21" cy="21" r="20"/><path class="cls-2" d="M21,42A21,21,0,1,1,42,21,21,21,0,0,1,21,42ZM21,2A19,19,0,1,0,40,21,19,19,0,0,0,21,2Z"/><path class="cls-2" d="M7,25.2H8.7V19.9c0-.5-.1-1.4-.1-1.4a8,8,0,0,0,.8,1.4l3.5,5.3h1.7V16H12.9v5.3c0,.5.1,1.4.1,1.4a8,8,0,0,0-.8-1.4L8.7,16H7Zm9.8,0h5.7V23.8H18.4V21.3h3.1V19.9H18.4V17.5h3.8V16.1H16.7v9.1Zm8.9,0h1.9L29,19.7a4.28,4.28,0,0,0,.2-1.2l.2,1.2,1.4,5.5h1.9L35.1,16H33.4l-1.5,6.4a5.81,5.81,0,0,0-.1,1s-.1-.4-.2-1L30,16H28.6l-1.7,6.4a3,3,0,0,0-.2,1,3,3,0,0,0-.2-1L25.1,16H23.3Z"/></g></g></svg>