<svg width="490" height="491" viewBox="0 0 490 491" fill="none" xmlns="http://www.w3.org/2000/svg"><path d="M489.316 325.76C382.396 503.666 277.879 369.302 253.051 302.12L258.257 281.284C288.691 375.526 407.224 382.257 489.316 325.76Z" fill="#EE531C"/><path d="M233.665 403.326C215.864 312.721 223.71 300.768 242.575 305.325C250.061 287.472 270.531 312.905 273.133 405.725C275.722 498.052 255.996 485.205 242.575 481.611C233.665 479.224 238.116 425.977 233.665 403.326Z" fill="#EE531C"/><path d="M164.448 399.695C148.675 312.65 143.728 298.514 158.945 298.514C166.634 302.867 200.654 312.13 201.947 401.502C203.233 490.4 186.149 486.132 171.924 474.986C162.489 467.594 168.392 421.456 164.448 399.695Z" fill="#EE531C"/><path d="M121.687 224.674C152.233 147.66 164.655 143.073 177.176 147.782C181.28 152.052 194.909 150.357 151.386 228.527C108.094 306.282 96.2813 301.517 90.2321 290.916C86.2201 283.885 114.05 243.928 121.687 224.674Z" fill="#EE531C"/><path d="M196.188 354.21C123.707 351.039 143.996 221.047 160.949 146.252C188.98 103.779 222.957 133.784 230.627 147.855C240.238 165.485 248.247 208.759 252.251 240.414C262.396 276.476 269.47 357.415 196.188 354.21Z" fill="#EE531C"/><path d="M145.111 7.2124C159.126 16.8289 173.512 25.8707 183.375 32.0551C182.129 43.0238 160.883 46.3537 159.126 43.9691C145.921 26.0454 144.28 11.9966 145.111 7.2124Z" fill="#EE531C"/><path d="M189.781 0C237.013 19.1869 242.24 48.4834 245.043 69.3193C237.275 72.3594 218.265 66.8839 207.39 59.7902C194.96 51.683 190.644 12.3859 189.781 0Z" fill="#EE531C"/><path d="M132.116 155.067C102.642 157.631 91.8036 147.587 90.0684 142.245L134.118 116.2C138.923 97.7682 124.107 27.6473 200.592 30.4524C269.042 32.9628 239.952 113.335 235.832 120.207C219.013 148.255 168.957 151.861 132.116 155.067Z" fill="#EE531C"/><path fill-rule="evenodd" clip-rule="evenodd" d="M112.459 139.518C112.678 139.227 113.026 139.04 113.418 139.04C113.529 139.04 113.67 139.043 113.808 139.065C113.873 139.075 113.998 139.098 114.138 139.157C114.236 139.198 114.608 139.363 114.799 139.807C115.033 140.352 114.803 140.813 114.67 141C114.545 141.176 114.402 141.279 114.348 141.316C114.224 141.402 114.098 141.459 114.038 141.486C113.91 141.542 113.751 141.6 113.639 141.641C113.63 141.644 113.622 141.647 113.613 141.65C113.471 141.702 113.389 141.733 113.343 141.754C110.187 143.179 106.711 144.03 103.241 144.394C101.735 144.552 99.9701 144.708 98.2233 144.627C96.4823 144.546 94.6658 144.225 93.0958 143.362C92.5143 143.043 92.3018 142.312 92.6213 141.73C92.9407 141.148 93.6711 140.936 94.2526 141.255C95.3722 141.871 96.7775 142.153 98.3353 142.225C99.8872 142.298 101.498 142.16 102.99 142.003C106.248 141.662 109.469 140.866 112.355 139.562C112.388 139.547 112.423 139.532 112.459 139.518Z" fill="#000"/><path fill-rule="evenodd" clip-rule="evenodd" d="M169.413 91.4409C167.528 93.3509 166.415 95.9954 167.221 99.0654C167.389 99.7075 167.006 100.365 166.364 100.533C165.722 100.702 165.066 100.318 164.897 99.6761C163.83 95.6101 165.361 92.1253 167.704 89.7515C170.002 87.4236 173.227 86.012 175.878 86.1583C177.342 86.2392 179.219 86.504 181.032 87.1336C182.837 87.7601 184.677 88.7832 185.933 90.4474C186.333 90.9772 186.228 91.731 185.699 92.131C185.169 92.5311 184.416 92.4259 184.016 91.8961C183.152 90.7513 181.798 89.9444 180.245 89.4048C178.7 88.8685 177.056 88.6312 175.745 88.5588C173.932 88.4587 171.344 89.4851 169.413 91.4409Z" fill="#000"/><path fill-rule="evenodd" clip-rule="evenodd" d="M100.892 142.87C101.434 142.486 102.184 142.615 102.567 143.157C104.01 145.198 108.454 149.492 121.845 151.068C122.504 151.146 122.976 151.743 122.898 152.402C122.82 153.062 122.223 153.533 121.565 153.456C107.725 151.827 102.558 147.306 100.606 144.546C100.222 144.004 100.351 143.253 100.892 142.87Z" fill="#000"/><path fill-rule="evenodd" clip-rule="evenodd" d="M426.292 363.875C426.538 364.491 426.238 365.191 425.622 365.438C417.309 368.765 408.371 370.232 399.518 370.466C398.855 370.484 398.303 369.96 398.286 369.297C398.268 368.633 398.791 368.081 399.455 368.063C408.093 367.834 416.739 366.404 424.73 363.205C425.346 362.959 426.045 363.259 426.292 363.875Z" fill="#000"/><path fill-rule="evenodd" clip-rule="evenodd" d="M456.364 357.311C456.686 357.892 456.477 358.624 455.897 358.946C455.137 359.369 454.375 359.794 453.611 360.22C448.428 363.11 443.174 366.04 437.801 368.618C437.203 368.906 436.485 368.653 436.199 368.054C435.912 367.456 436.164 366.738 436.762 366.451C442.063 363.906 447.248 361.015 452.436 358.122C453.201 357.696 453.965 357.27 454.73 356.844C455.31 356.522 456.042 356.731 456.364 357.311Z" fill="#000"/><path fill-rule="evenodd" clip-rule="evenodd" d="M426.252 379.849C426.549 380.443 426.309 381.165 425.715 381.462C424.519 382.061 423.152 382.442 421.971 382.772C421.795 382.821 421.624 382.869 421.458 382.916C417.675 383.992 413.82 384.963 409.986 385.928C407.311 386.601 404.645 387.272 402.022 387.974C401.381 388.146 400.722 387.765 400.551 387.124C400.379 386.483 400.76 385.824 401.401 385.652C404.108 384.927 406.796 384.251 409.474 383.577C413.261 382.625 417.028 381.677 420.801 380.604C420.984 380.552 421.165 380.501 421.344 380.451C422.546 380.113 423.667 379.799 424.641 379.312C425.234 379.015 425.956 379.256 426.252 379.849Z" fill="#000"/><path fill-rule="evenodd" clip-rule="evenodd" d="M368.651 374.806C368.731 374.147 369.329 373.677 369.988 373.756C371.236 373.907 372.474 374.072 373.704 374.237C379.045 374.951 384.235 375.646 389.456 374.993C390.115 374.91 390.715 375.378 390.797 376.036C390.88 376.695 390.413 377.296 389.754 377.378C384.194 378.074 378.624 377.326 373.266 376.606C372.066 376.445 370.877 376.285 369.7 376.143C369.042 376.064 368.572 375.465 368.651 374.806Z" fill="#000"/><path fill-rule="evenodd" clip-rule="evenodd" d="M192.563 3.32338C193.185 3.09254 193.877 3.41 194.107 4.03246C197.754 13.8707 201.288 23.1502 208.894 30.2224C213.569 34.5695 218.956 38.3589 224.993 37.8555C225.654 37.8004 226.235 38.292 226.29 38.9536C226.345 39.6152 225.854 40.1962 225.193 40.2514C218.037 40.848 211.962 36.3565 207.259 31.9836C199.172 24.4647 195.475 14.6353 191.855 4.86842C191.624 4.24597 191.941 3.55423 192.563 3.32338Z" fill="#000"/><path fill-rule="evenodd" clip-rule="evenodd" d="M147.169 10.9155C147.83 10.8533 148.415 11.3387 148.478 11.9997C149.145 19.1 152.609 26.3166 157.907 31.0432C161.397 34.1574 165.369 35.7484 169.987 36.6369C170.638 36.7623 171.065 37.3925 170.94 38.0444C170.814 38.6963 170.185 39.1232 169.533 38.9978C164.624 38.0532 160.211 36.3198 156.308 32.8376C150.528 27.6807 146.806 19.8893 146.085 12.2249C146.023 11.564 146.508 10.9777 147.169 10.9155Z" fill="#000"/><path fill-rule="evenodd" clip-rule="evenodd" d="M139.112 90.2038C138.032 89.2645 136.774 88.7798 135.515 88.9494C134.22 89.1238 133.192 90.2128 133.148 91.3504C133.122 92.0138 132.564 92.5309 131.901 92.5054C131.238 92.4799 130.721 91.9214 130.747 91.258C130.842 88.7961 132.905 86.8753 135.195 86.5667C137.315 86.2812 139.239 87.1283 140.688 88.3894C142.133 89.646 143.206 91.3915 143.653 93.1438C143.794 93.6984 143.865 94.4608 143.904 95.1862C143.944 95.9369 143.955 96.7412 143.951 97.4251C143.948 98.1065 143.931 98.6897 143.913 99.0003C143.909 99.0743 143.903 99.1549 143.895 99.2225C143.895 99.223 143.895 99.2237 143.895 99.2246C143.893 99.2419 143.883 99.3378 143.854 99.4418C143.846 99.4723 143.823 99.5504 143.779 99.6433C143.757 99.6899 143.714 99.7725 143.643 99.8639C143.579 99.9459 143.434 100.113 143.183 100.225C142.886 100.357 142.536 100.368 142.217 100.231C141.948 100.115 141.795 99.9328 141.728 99.8421C141.602 99.6722 141.553 99.5095 141.542 99.4727L141.541 99.4702C141.511 99.3694 141.5 99.2843 141.498 99.2635L141.497 99.2619C141.493 99.2276 141.491 99.1977 141.489 99.1777C141.486 99.137 141.485 99.0954 141.484 99.059C141.481 98.9841 141.48 98.8875 141.48 98.7717C141.48 98.6503 141.498 98.5331 141.532 98.4226C141.54 98.1513 141.547 97.8035 141.549 97.4132C141.552 96.7577 141.542 96.0036 141.505 95.3154C141.466 94.602 141.403 94.0451 141.325 93.7383C141.002 92.4711 140.197 91.1476 139.112 90.2038Z" fill="#000"/><path d="M134.52 336.579C138.524 258.444 144.13 215.036 154.542 185.118H227.023C214.529 221.982 232.229 297.445 242.641 330.568L134.52 336.579Z" fill="#F0F0F0"/><path fill-rule="evenodd" clip-rule="evenodd" d="M158.178 153.109C159.265 153.315 159.978 154.364 159.771 155.451C158.761 160.769 158.538 166.216 158.5 171.797C158.49 173.396 158.495 175.016 158.499 176.646C158.511 180.644 158.524 184.709 158.307 188.716C158.248 189.821 157.304 190.668 156.2 190.608C155.096 190.549 154.249 189.605 154.309 188.5C154.518 184.613 154.507 180.73 154.495 176.781C154.49 175.124 154.485 173.455 154.496 171.77C154.534 166.125 154.758 160.386 155.837 154.703C156.044 153.616 157.092 152.902 158.178 153.109Z" fill="#fff"/><path fill-rule="evenodd" clip-rule="evenodd" d="M245.888 145.221C246.986 145.351 247.771 146.347 247.642 147.446C247.528 148.412 247.081 149.012 246.847 149.327C246.823 149.359 246.801 149.389 246.782 149.415C246.497 149.811 246.215 150.201 245.936 150.587C244.965 151.928 244.027 153.223 243.133 154.584C238.844 161.11 234.898 167.745 231.565 174.836C229.325 179.602 227.245 184.446 225.15 189.325C224.653 190.481 224.156 191.639 223.656 192.799C223.217 193.814 222.039 194.282 221.024 193.844C220.009 193.405 219.541 192.226 219.979 191.21C220.473 190.066 220.966 188.919 221.459 187.769C223.556 182.885 225.669 177.964 227.941 173.131C231.382 165.811 235.435 159.004 239.787 152.382C240.736 150.938 241.744 149.547 242.724 148.193C242.996 147.818 243.265 147.446 243.531 147.076C243.56 147.036 243.589 146.995 243.613 146.962C243.62 146.953 243.626 146.945 243.632 146.937C243.651 146.91 243.667 146.888 243.68 146.87C243.859 145.827 244.826 145.096 245.888 145.221ZM243.665 146.977C243.665 146.977 243.665 146.977 243.665 146.976L243.665 146.977Z" fill="#fff"/><path fill-rule="evenodd" clip-rule="evenodd" d="M254.595 244.162C255.622 244.572 256.122 245.738 255.713 246.765C255.345 247.687 254.633 248.167 254.012 248.39C253.575 248.547 253.084 248.599 252.922 248.616C252.903 248.618 252.889 248.62 252.88 248.621C251.29 248.82 249.764 249.236 248.114 249.686C247.311 249.904 246.479 250.131 245.595 250.345C243.963 250.74 242.336 251.128 240.713 251.515C234.82 252.921 228.979 254.315 223.164 255.964C222.1 256.266 220.993 255.648 220.692 254.583C220.39 253.519 221.008 252.411 222.072 252.109C227.976 250.435 233.925 249.015 239.83 247.607C241.441 247.222 243.05 246.838 244.653 246.45C245.298 246.294 245.997 246.104 246.731 245.905C248.517 245.42 250.505 244.881 252.381 244.645C252.388 244.644 252.394 244.644 252.401 244.643C252.948 244.067 253.812 243.85 254.595 244.162Z" fill="#fff"/><path d="M159.997 221.521C207.621 148.456 221.325 147.334 233.16 156.185C236.462 162.002 250.789 164.341 189.618 234.689C128.773 304.663 117.676 295.968 113.723 282.787C111.101 274.044 148.09 239.787 159.997 221.521Z" fill="#EE531C"/><path d="M163.953 250.174C163.928 249.944 163.899 249.716 163.867 249.487L163.613 247.25C162.973 241.335 160.336 235.773 155.778 230.713L155.483 230.821L155.427 230.329C150.868 225.398 144.7 221.231 137.094 217.942C129.522 214.668 120.833 212.41 111.261 211.228L110.653 212.336L110.518 211.138C101.102 210.036 91.3314 210.034 81.4767 211.134C71.269 212.273 61.4077 214.55 52.1623 217.905L52.2943 219.075L51.4609 218.162C42.6138 221.436 34.819 225.535 28.289 230.351C21.524 235.339 16.4157 240.883 13.0999 246.833L13.1555 247.322L12.8514 247.286C9.75785 253.018 8.50224 258.819 9.12153 264.529L10.3761 275.416C11.0171 281.324 13.6484 286.881 18.1957 291.936L18.198 291.955L18.2091 291.951C18.2098 291.952 18.2105 291.953 18.2113 291.953L18.2109 291.95L18.4912 291.848L18.5472 292.338C23.1077 297.269 29.2906 301.434 36.8979 304.725C44.4639 307.996 53.1493 310.253 62.7134 311.437L62.7139 311.44L62.7156 311.437C62.7197 311.438 62.7234 311.438 62.7274 311.439L62.7252 311.42L63.331 310.315L63.4708 311.528C72.8895 312.631 82.6576 312.632 92.5119 311.533C102.72 310.394 112.582 308.115 121.826 304.761L121.694 303.61L122.513 304.507L121.686 297.192L122.528 304.504C131.375 301.23 139.171 297.13 145.702 292.315C152.464 287.328 157.574 281.783 160.888 275.834L160.832 275.349L161.121 275.384C164.217 269.651 165.471 263.85 164.851 258.141L163.976 250.441C163.968 250.352 163.962 250.263 163.953 250.174Z" fill="#F91"/><path d="M110.857 214.063L86.6341 258.223L52.5014 220.829C61.7471 217.475 71.6069 215.197 81.8157 214.057C91.6714 212.958 101.439 212.96 110.857 214.063Z" fill="#FFD78A"/><path d="M110.854 214.062L111.755 222.027L87.532 266.186L86.6309 258.221L110.854 214.062Z" fill="#F18700"/><path d="M86.6299 258.222L87.531 266.187L53.3984 228.794L52.4969 220.829L86.6299 258.222Z" fill="#F18700"/><path d="M155.763 233.253L156.664 241.218L88.2747 266.277L87.3735 258.312L155.763 233.253Z" fill="#F18700"/><path d="M137.43 220.867C145.037 224.156 151.204 228.322 155.766 233.254L87.3759 258.313L111.597 214.153C121.169 215.335 129.858 217.593 137.43 220.867Z" fill="#FFD78A"/><path d="M85.9337 258.478L86.8346 266.444L14.3398 257.722L13.4386 249.757L85.9337 258.478Z" fill="#F18700"/><path d="M51.7992 221.086L85.9335 258.479L13.4386 249.757C16.7539 243.807 21.8615 238.263 28.6261 233.275C35.1564 228.459 42.9513 224.36 51.7992 221.086Z" fill="#FFD78A"/><path d="M156.112 233.637C160.671 238.697 163.307 244.259 163.95 250.174C164.57 255.884 163.314 261.684 160.218 267.417L87.7238 258.695L156.112 233.637Z" fill="#FFD78A"/><path d="M160.22 267.418L161.121 275.383L88.6269 266.66L87.7257 258.695L160.22 267.418Z" fill="#F18700"/><path d="M85.6832 258.932L17.2949 283.989C12.7363 278.93 10.0998 273.368 9.45833 267.453C8.83886 261.742 10.0933 255.942 13.1896 250.209L85.6832 258.932Z" fill="#FFD78A"/><path d="M85.6839 258.931L86.585 266.896L18.1964 291.954L17.2956 283.989L85.6839 258.931Z" fill="#F18700"/><path d="M159.972 267.87C156.657 273.82 151.549 279.364 144.785 284.352C138.255 289.168 130.46 293.267 121.612 296.542L87.4785 259.147L159.972 267.87Z" fill="#FFD78A"/><path d="M121.611 296.542L122.512 304.507L88.3788 267.113L87.4777 259.147L121.611 296.542Z" fill="#F18700"/><path d="M86.032 259.315L86.9331 267.28L62.7118 311.44L61.8103 303.474L86.032 259.315Z" fill="#F18700"/><path d="M86.0343 259.314L61.8126 303.474C52.2417 302.292 43.5521 300.033 35.982 296.761C28.3735 293.471 22.2064 289.304 17.6457 284.372L86.0343 259.314Z" fill="#FFD78A"/><path d="M86.7768 259.404L120.909 296.797C111.664 300.152 101.804 302.43 91.5963 303.569C81.7405 304.669 71.9717 304.667 62.5536 303.564L86.7768 259.404Z" fill="#FFD78A"/><path d="M110.517 211.138L110.877 214.324L107.853 219.839L107.493 216.653L110.517 211.138Z" fill="#F18700"/><path d="M107.495 216.652L107.855 219.839C91.0552 217.884 72.6507 220.019 56.7864 225.761L56.426 222.575C72.2903 216.833 90.6942 214.698 107.495 216.652Z" fill="#F91"/><path d="M56.4258 222.575L56.7866 225.761L52.5238 221.091L52.1633 217.905L56.4258 222.575Z" fill="#F18700"/><path d="M110.519 211.138L107.495 216.652C90.6946 214.698 72.2901 216.832 56.4258 222.574L52.1633 217.904C61.4091 214.55 71.2701 212.272 81.4778 211.133C91.3319 210.034 101.102 210.035 110.519 211.138Z" fill="#FEC377"/><path d="M146.885 233.46L147.245 236.646C143.394 232.486 138.031 228.792 131.189 225.834C124.354 222.879 116.67 220.928 108.6 219.929L108.24 216.743C116.309 217.742 123.993 219.692 130.829 222.648C137.67 225.606 143.033 229.3 146.885 233.46Z" fill="#F91"/><path d="M155.427 230.33L155.788 233.516L147.243 236.646L146.883 233.461L155.427 230.33Z" fill="#F18700"/><path d="M137.095 217.941C144.701 221.23 150.87 225.397 155.429 230.329L146.885 233.459C143.033 229.298 137.67 225.605 130.829 222.647C123.993 219.691 116.309 217.741 108.24 216.741L111.264 211.227C120.834 212.409 129.524 214.668 137.095 217.941Z" fill="#FEC377"/><path d="M51.4613 218.161L55.7249 222.83C48.1135 225.649 41.1057 229.305 35.1681 233.744C29.2305 238.182 24.9054 242.999 22.1599 247.921L13.1006 246.831C16.416 240.882 21.5247 235.337 28.2896 230.35C34.8194 225.534 42.6142 221.435 51.4613 218.161Z" fill="#FEC377"/><path d="M55.7251 222.831L56.0856 226.017C48.4742 228.837 41.4664 232.492 35.5288 236.931C29.5912 241.37 25.2661 246.186 22.5206 251.109L22.1602 247.923C24.9056 243 29.2307 238.184 35.1683 233.745C41.1059 229.306 48.1138 225.651 55.7251 222.831Z" fill="#F91"/><path d="M22.1585 247.923L22.5186 251.109L13.4593 250.019L13.0992 246.833L22.1585 247.923Z" fill="#F18700"/><path d="M19.0663 266.723L18.7059 263.537C18.1442 258.572 19.2013 253.422 21.9127 248.376L22.2732 251.562C19.5617 256.607 18.5043 261.757 19.0663 266.723Z" fill="#F91"/><path d="M154.031 248.23L154.392 251.416C153.816 246.324 151.537 241.425 147.594 237.031L147.234 233.845C151.176 238.239 153.455 243.138 154.031 248.23Z" fill="#F91"/><path d="M155.777 230.714C160.335 235.773 162.972 241.335 163.612 247.251C164.232 252.961 162.979 258.761 159.882 264.494L150.815 263.403C156.315 253.18 155.022 242.528 147.231 233.845L155.777 230.714Z" fill="#FEC377"/><path d="M159.882 264.494L160.243 267.68L151.176 266.589L150.815 263.403L159.882 264.494Z" fill="#F18700"/><path d="M163.613 247.25L164.851 258.14C165.47 263.85 164.217 269.65 161.121 275.383L159.883 264.493C162.979 258.76 164.232 252.96 163.613 247.25Z" fill="#FF9A3D"/><path d="M25.5096 277.932L25.8698 281.118L17.3159 284.252L16.9557 281.066L25.5096 277.932Z" fill="#F18700"/><path d="M16.9566 281.065L18.2105 291.953C13.6534 286.894 11.0168 281.33 10.375 275.416L9.12109 264.528C9.76263 270.443 12.3992 276.006 16.9566 281.065Z" fill="#FF9A3D"/><path d="M21.9114 248.376C16.4181 258.599 17.7143 269.25 25.5114 277.931L16.9575 281.065C12.4004 276.007 9.76384 270.443 9.1223 264.529C8.50297 258.818 9.75857 253.018 12.8524 247.285L21.9114 248.376Z" fill="#FEC377"/><path d="M121.275 293.616L121.635 296.803L117.364 292.124L117.003 288.937L121.275 293.616Z" fill="#F18700"/><path d="M159.634 264.946L160.888 275.833C157.574 281.782 152.464 287.326 145.702 292.314C139.171 297.129 131.375 301.229 122.528 304.503L121.274 293.616C130.121 290.342 137.917 286.242 144.448 281.427C151.21 276.439 156.32 270.895 159.634 264.946Z" fill="#FF9A3D"/><path d="M159.635 264.946C156.321 270.895 151.211 276.44 144.449 281.427C137.918 286.242 130.122 290.342 121.275 293.616L117.004 288.937C124.618 286.117 131.627 282.46 137.568 278.019C143.501 273.584 147.824 268.772 150.569 263.854L159.635 264.946Z" fill="#FEC377"/><path d="M64.5044 295.024L64.8645 298.21L61.833 303.737L61.4725 300.551L64.5044 295.024Z" fill="#F18700"/><path d="M64.5068 295.024L61.4752 300.551C51.9054 299.368 43.216 297.111 35.6458 293.838C28.0385 290.547 21.8704 286.38 17.3096 281.449L25.8624 278.316C29.7134 282.472 35.0734 286.163 41.9101 289.119C48.7452 292.074 56.4331 294.025 64.5068 295.024Z" fill="#FEC377"/><path d="M61.4743 300.551L62.7282 311.438C53.1584 310.256 44.4689 307.997 36.8988 304.725C29.2914 301.434 23.1086 297.269 18.548 292.338L17.3087 281.449C21.8692 286.38 28.0373 290.547 35.645 293.838C43.2151 297.11 51.9045 299.368 61.4743 300.551Z" fill="#FF9A3D"/><path d="M116.302 289.193L120.573 293.874C111.328 297.228 101.466 299.506 91.2585 300.645C81.4039 301.745 71.6364 301.743 62.2174 300.641L65.2504 295.114C82.0435 297.066 100.442 294.933 116.302 289.193Z" fill="#FEC377"/><path d="M120.572 293.873L121.826 304.76C112.581 308.114 102.719 310.392 92.511 311.531C82.6564 312.631 72.8889 312.629 63.4699 311.527L62.2161 300.64C71.6351 301.743 81.4029 301.744 91.2572 300.645C101.465 299.506 111.327 297.227 120.572 293.873Z" fill="#FF9A3D"/><path d="M77.8228 235.068C81.2659 236.557 86.4789 235.953 89.4686 233.718C90.9532 232.608 91.6097 231.305 91.4723 230.092L91.292 228.499C91.2961 228.534 91.2972 228.569 91.2995 228.605C91.2045 227.336 90.2489 226.155 88.4663 225.384C85.0245 223.896 79.8104 224.501 76.8221 226.735C75.3318 227.848 74.6766 229.157 74.8196 230.373C74.8191 230.369 74.818 230.365 74.8179 230.361L74.9981 231.954C75.137 233.183 76.0908 234.32 77.8228 235.068ZM106.533 233.375C109.976 234.863 115.19 234.259 118.178 232.025C119.663 230.914 120.32 229.61 120.183 228.397L120.003 226.804C120.007 226.839 120.008 226.875 120.01 226.91C119.915 225.641 118.959 224.46 117.177 223.69C113.735 222.202 108.521 222.807 105.531 225.042C104.042 226.155 103.387 227.464 103.529 228.68C103.529 228.676 103.528 228.672 103.528 228.668L103.708 230.261C103.848 231.49 104.801 232.626 106.533 233.375ZM147.536 248.911C147.441 247.642 146.485 246.461 144.704 245.691C141.26 244.202 136.049 244.807 133.059 247.042C131.57 248.155 130.914 249.464 131.057 250.68C131.056 250.676 131.056 250.672 131.055 250.668L131.235 252.261C131.374 253.49 132.328 254.626 134.06 255.375C137.502 256.863 142.716 256.258 145.704 254.024C147.189 252.914 147.846 251.611 147.708 250.398L147.528 248.805C147.532 248.84 147.534 248.876 147.536 248.911ZM112.41 259.715L112.23 258.122C112.234 258.158 112.235 258.194 112.237 258.229C112.142 256.96 111.187 255.779 109.405 255.008C105.963 253.52 100.749 254.125 97.7604 256.359C96.2701 257.473 95.6147 258.782 95.7573 259.998C95.7569 259.994 95.7561 259.991 95.7557 259.987L95.9359 261.58C96.0751 262.809 97.0282 263.945 98.76 264.693C102.203 266.182 107.416 265.576 110.405 263.342C111.891 262.232 112.547 260.929 112.41 259.715ZM130.27 260.542C126.826 259.053 121.615 259.658 118.625 261.892C117.136 263.006 116.48 264.314 116.623 265.531C116.622 265.527 116.622 265.523 116.621 265.519L116.801 267.112C116.94 268.341 117.894 269.477 119.626 270.226C123.068 271.714 128.282 271.109 131.27 268.875C132.755 267.765 133.412 266.462 133.274 265.249L133.094 263.655C133.098 263.691 133.099 263.726 133.102 263.762C133.007 262.493 132.051 261.312 130.27 260.542ZM122.97 274.633C119.526 273.144 114.312 273.749 111.324 275.983C109.834 277.096 109.179 278.404 109.322 279.621C109.321 279.617 109.321 279.613 109.32 279.609L109.5 281.202C109.64 282.431 110.593 283.568 112.326 284.317C115.768 285.805 120.982 285.2 123.97 282.966C125.455 281.856 126.111 280.553 125.974 279.34L125.794 277.747C125.798 277.782 125.799 277.818 125.801 277.853C125.707 276.584 124.751 275.403 122.97 274.633ZM97.071 250.121C100.513 251.609 105.726 251.005 108.715 248.771C110.2 247.661 110.856 246.357 110.719 245.144L110.539 243.551C110.543 243.586 110.544 243.622 110.546 243.658C110.452 242.388 109.496 241.207 107.714 240.437C104.271 238.949 99.0583 239.554 96.07 241.788C94.5797 242.902 93.9242 244.21 94.0671 245.426C94.0667 245.422 94.0659 245.418 94.0654 245.415L94.2457 247.008C94.3848 248.236 95.3383 249.372 97.071 250.121ZM53.2823 252.639L53.102 251.046C53.1061 251.081 53.1072 251.117 53.1095 251.152C53.0148 249.883 52.0589 248.702 50.277 247.932C46.8339 246.443 41.6209 247.047 38.6315 249.282C37.1418 250.396 36.4865 251.703 36.6295 252.92C36.629 252.916 36.628 252.912 36.6275 252.908L36.8078 254.501C36.947 255.73 37.9005 256.867 39.6332 257.616C43.075 259.104 48.2891 258.499 51.2774 256.265C52.7629 255.155 53.4193 253.852 53.2823 252.639ZM40.8119 263.85C37.37 262.362 32.156 262.967 29.1676 265.201C27.6776 266.315 27.0224 267.623 27.1651 268.84C27.1646 268.835 27.1636 268.832 27.1634 268.828L27.3436 270.421C27.4828 271.65 28.4363 272.786 30.1683 273.535C33.6102 275.023 38.8228 274.419 41.8126 272.184C43.2972 271.074 43.9536 269.771 43.8165 268.558L43.6363 266.965C43.6404 267 43.6415 267.036 43.6438 267.071C43.549 265.801 42.5935 264.621 40.8119 263.85ZM76.6599 266.069L76.4796 264.476C76.4837 264.511 76.4848 264.547 76.4871 264.582C76.392 263.313 75.4361 262.132 73.6533 261.361C70.2114 259.873 64.9988 260.477 62.009 262.712C60.5193 263.825 59.8641 265.134 60.0068 266.35C60.0063 266.346 60.0053 266.342 60.0051 266.338L60.1853 267.931C60.3242 269.16 61.2777 270.297 63.0094 271.045C66.4525 272.534 71.6666 271.929 74.6553 269.695C76.1404 268.585 76.7969 267.282 76.6599 266.069ZM89.4256 277.974L89.2454 276.381C89.2495 276.417 89.2506 276.453 89.2529 276.488C89.1582 275.219 88.2026 274.038 86.4207 273.267C82.9776 271.779 77.7648 272.384 74.7764 274.618C73.2867 275.732 72.6313 277.04 72.7739 278.256C72.7734 278.253 72.7724 278.249 72.7722 278.245L72.9524 279.838C73.0913 281.066 74.0448 282.203 75.7771 282.952C79.219 284.44 84.433 283.835 87.4214 281.601C88.9063 280.491 89.563 279.188 89.4256 277.974ZM102.305 282.725C98.8631 281.237 93.6491 281.842 90.6593 284.076C89.1696 285.19 88.5144 286.498 88.657 287.715C88.6566 287.71 88.6555 287.707 88.655 287.703L88.8353 289.296C88.9742 290.525 89.9277 291.661 91.6594 292.41C95.1025 293.898 100.317 293.293 103.305 291.059C104.79 289.949 105.447 288.645 105.31 287.432L105.13 285.839C105.134 285.874 105.135 285.909 105.137 285.944C105.042 284.675 104.087 283.495 102.305 282.725ZM62.8505 279.765C59.409 278.277 54.1946 278.882 51.2063 281.116C49.7163 282.23 49.0608 283.538 49.2038 284.754C49.2033 284.75 49.2023 284.747 49.2018 284.742L49.382 286.335C49.5212 287.564 50.4747 288.701 52.2067 289.45C55.6498 290.938 60.8612 290.333 63.851 288.099C65.3359 286.989 65.9929 285.685 65.8552 284.472L65.675 282.879C65.6791 282.915 65.6802 282.95 65.6825 282.986C65.5884 281.716 64.6328 280.536 62.8505 279.765ZM46.3053 239.152C49.7468 240.64 54.9612 240.035 57.9496 237.801C59.435 236.691 60.0917 235.387 59.9543 234.174L59.7741 232.58C59.7781 232.616 59.7792 232.651 59.7815 232.687C59.6865 231.417 58.7309 230.237 56.9497 229.467C53.5066 227.978 48.2925 228.583 45.3027 230.818C43.8133 231.931 43.1578 233.239 43.3008 234.456C43.3003 234.452 43.2993 234.448 43.2988 234.444L43.479 236.037C43.6188 237.266 44.5726 238.403 46.3053 239.152ZM68.1468 252.498C71.59 253.986 76.8013 253.381 79.7911 251.147C81.276 250.037 81.933 248.733 81.7953 247.52L81.6151 245.927C81.6193 245.963 81.6204 245.999 81.6227 246.035C81.5283 244.765 80.573 243.584 78.7901 242.813C75.3483 241.325 70.1342 241.93 67.1458 244.164C65.6559 245.278 65.0007 246.586 65.1433 247.803C65.1428 247.798 65.1418 247.795 65.1416 247.791L65.3218 249.384C65.461 250.613 66.4148 251.749 68.1468 252.498Z" fill="#CD2A01"/><path d="M91.2916 228.498L91.4718 230.092C91.6092 231.305 90.9525 232.608 89.4681 233.718C86.4783 235.953 81.265 236.557 77.8221 235.068C76.09 234.319 75.1362 233.183 74.9973 231.954L74.817 230.361C74.9562 231.59 75.9097 232.726 77.6418 233.475C81.085 234.964 86.298 234.36 89.2878 232.124C90.7725 231.015 91.4286 229.712 91.2916 228.498Z" fill="#CD2A01"/><path d="M88.465 225.383C91.9081 226.872 92.2755 229.891 89.2868 232.124C86.297 234.359 81.0838 234.963 77.6409 233.475C74.1991 231.987 73.831 228.969 76.8208 226.735C79.8094 224.5 85.0238 223.895 88.465 225.383Z" fill="#FF5023"/><path d="M120.002 226.804L120.183 228.397C120.32 229.61 119.663 230.914 118.178 232.024C115.189 234.258 109.975 234.863 106.532 233.375C104.801 232.626 103.847 231.489 103.708 230.261L103.528 228.667C103.667 229.896 104.62 231.033 106.352 231.781C109.795 233.27 115.009 232.665 117.998 230.431C119.483 229.321 120.14 228.017 120.002 226.804Z" fill="#CD2A01"/><path d="M117.175 223.689C120.618 225.178 120.986 228.196 117.995 230.431C115.007 232.665 109.792 233.27 106.35 231.782C102.908 230.294 102.541 227.275 105.529 225.041C108.519 222.806 113.734 222.201 117.175 223.689Z" fill="#FF5023"/><path d="M126.595 239.709C130.038 241.197 135.252 240.592 138.241 238.359C139.726 237.248 140.383 235.945 140.245 234.732L140.065 233.139C140.069 233.174 140.07 233.209 140.073 233.244C139.977 231.975 139.021 230.795 137.24 230.025C133.798 228.537 128.584 229.142 125.594 231.377C124.105 232.49 123.449 233.798 123.592 235.014C123.592 235.011 123.591 235.007 123.59 235.003L123.77 236.596C123.91 237.824 124.864 238.961 126.595 239.709Z" fill="#CD2A01"/><path d="M140.067 233.139L140.248 234.732C140.385 235.946 139.728 237.249 138.243 238.359C135.254 240.593 130.04 241.198 126.597 239.71C124.865 238.961 123.912 237.825 123.773 236.596L123.592 235.002C123.732 236.231 124.685 237.368 126.417 238.117C129.86 239.605 135.074 239 138.062 236.766C139.548 235.656 140.205 234.352 140.067 233.139Z" fill="#CD2A01"/><path d="M137.24 230.026C140.683 231.514 141.05 234.533 138.06 236.768C135.071 239.002 129.857 239.606 126.414 238.118C122.972 236.63 122.605 233.612 125.594 231.378C128.584 229.143 133.798 228.538 137.24 230.026Z" fill="#FF5023"/><path d="M147.527 248.804L147.707 250.397C147.844 251.61 147.188 252.913 145.703 254.024C142.714 256.258 137.5 256.862 134.058 255.374C132.326 254.625 131.372 253.489 131.234 252.261L131.053 250.667C131.193 251.896 132.146 253.032 133.878 253.781C137.32 255.269 142.534 254.664 145.522 252.43C147.007 251.32 147.664 250.017 147.527 248.804Z" fill="#CD2A01"/><path d="M144.702 245.69C148.143 247.178 148.512 250.196 145.522 252.431C142.533 254.665 137.319 255.27 133.877 253.782C130.434 252.293 130.068 249.275 133.057 247.041C136.047 244.806 141.258 244.201 144.702 245.69Z" fill="#FF5023"/><path d="M112.228 258.122L112.408 259.715C112.546 260.928 111.889 262.231 110.404 263.341C107.414 265.576 102.201 266.182 98.7589 264.693C97.0271 263.944 96.0736 262.808 95.9348 261.579L95.7545 259.986C95.8937 261.215 96.8469 262.351 98.5786 263.1C102.022 264.588 107.235 263.983 110.224 261.748C111.709 260.639 112.365 259.336 112.228 258.122Z" fill="#CD2A01"/><path d="M109.404 255.008C112.847 256.497 113.213 259.514 110.224 261.748C107.234 263.983 102.021 264.589 98.578 263.1C95.1362 261.612 94.7689 258.594 97.7586 256.359C100.748 254.125 105.962 253.52 109.404 255.008Z" fill="#FF5023"/><path d="M133.093 263.655L133.273 265.248C133.411 266.461 132.754 267.764 131.269 268.875C128.28 271.109 123.066 271.714 119.625 270.226C117.892 269.476 116.939 268.34 116.8 267.112L116.62 265.519C116.759 266.747 117.712 267.883 119.444 268.632C122.886 270.12 128.1 269.516 131.089 267.282C132.574 266.172 133.23 264.868 133.093 263.655Z" fill="#CD2A01"/><path d="M130.268 260.541C133.71 262.029 134.078 265.047 131.088 267.281C128.099 269.515 122.885 270.12 119.444 268.632C116.001 267.144 115.635 264.126 118.624 261.892C121.613 259.657 126.825 259.053 130.268 260.541Z" fill="#FF5023"/><path d="M125.793 277.746L125.973 279.339C126.11 280.552 125.453 281.855 123.969 282.965C120.98 285.199 115.766 285.804 112.325 284.316C110.592 283.567 109.638 282.43 109.499 281.201L109.319 279.608C109.458 280.838 110.412 281.974 112.144 282.723C115.586 284.211 120.8 283.606 123.789 281.372C125.273 280.262 125.93 278.959 125.793 277.746Z" fill="#CD2A01"/><path d="M122.968 274.632C126.41 276.12 126.777 279.139 123.788 281.373C120.799 283.607 115.585 284.211 112.144 282.723C108.701 281.235 108.333 278.216 111.322 275.982C114.311 273.748 119.525 273.143 122.968 274.632Z" fill="#FF5023"/><path d="M110.538 243.55L110.719 245.143C110.856 246.356 110.199 247.659 108.715 248.769C105.725 251.004 100.512 251.608 97.0703 250.12C95.3379 249.371 94.3842 248.235 94.2453 247.006L94.0651 245.413C94.2042 246.642 95.1577 247.778 96.8901 248.527C100.332 250.015 105.545 249.411 108.534 247.176C110.019 246.067 110.675 244.763 110.538 243.55Z" fill="#CD2A01"/><path d="M107.714 240.437C111.155 241.924 111.523 244.943 108.534 247.177C105.544 249.412 100.331 250.016 96.8895 248.528C93.4463 247.039 93.0795 244.022 96.0693 241.787C99.0579 239.553 104.271 238.948 107.714 240.437Z" fill="#FF5023"/><path d="M53.0995 251.045L53.2798 252.638C53.4168 253.851 52.7604 255.154 51.2755 256.265C48.2869 258.499 43.0725 259.104 39.6313 257.616C37.8986 256.866 36.9448 255.73 36.8059 254.501L36.6256 252.908C36.7649 254.137 37.7184 255.273 39.451 256.022C42.8929 257.51 48.107 256.906 51.0953 254.672C52.5805 253.561 53.2369 252.258 53.0995 251.045Z" fill="#CD2A01"/><path d="M50.2764 247.931C53.7182 249.419 54.0864 252.437 51.0966 254.672C48.1079 256.906 42.8936 257.511 39.4523 256.023C36.0092 254.534 35.6419 251.516 38.6305 249.282C41.62 247.047 46.8333 246.443 50.2764 247.931Z" fill="#FF5023"/><path d="M43.6357 266.964L43.8159 268.557C43.9533 269.77 43.2966 271.073 41.812 272.183C38.8222 274.418 33.6089 275.022 30.1677 273.534C28.4356 272.785 27.4819 271.649 27.343 270.42L27.1627 268.827C27.3019 270.055 28.2554 271.192 29.9874 271.941C33.4293 273.429 38.6419 272.824 41.6317 270.59C43.1164 269.48 43.7728 268.177 43.6357 266.964Z" fill="#CD2A01"/><path d="M40.8107 263.85C44.2525 265.338 44.6198 268.356 41.6309 270.59C38.6411 272.825 33.4279 273.429 29.9866 271.941C26.5448 270.453 26.1766 267.435 29.1664 265.201C32.1548 262.967 37.3692 262.362 40.8107 263.85Z" fill="#FF5023"/><path d="M76.4768 264.476L76.657 266.069C76.7941 267.282 76.1377 268.585 74.6528 269.695C71.6641 271.929 66.4497 272.534 63.0069 271.046C61.2752 270.297 60.3217 269.161 60.1828 267.932L60.0026 266.339C60.1418 267.568 61.095 268.704 62.8267 269.453C66.2698 270.941 71.4839 270.336 74.4722 268.102C75.9577 266.992 76.6141 265.689 76.4768 264.476Z" fill="#CD2A01"/><path d="M73.6538 261.361C77.097 262.849 77.4651 265.867 74.4756 268.102C71.487 270.336 66.2726 270.941 62.8301 269.452C59.3882 267.964 59.0209 264.946 62.0099 262.712C64.9991 260.477 70.212 259.873 73.6538 261.361Z" fill="#FF5023"/><path d="M89.2431 276.381L89.4233 277.974C89.5607 279.188 88.904 280.491 87.4194 281.601C84.4307 283.835 79.2163 284.44 75.7751 282.952C74.0427 282.203 73.0893 281.066 72.9504 279.838L72.7702 278.245C72.909 279.473 73.8625 280.609 75.5949 281.359C79.0367 282.846 84.2508 282.242 87.2391 280.008C88.7238 278.898 89.3805 277.594 89.2431 276.381Z" fill="#CD2A01"/><path d="M86.4183 273.267C89.8601 274.754 90.2274 277.773 87.2384 280.007C84.2498 282.241 79.0354 282.846 75.5942 281.358C72.1511 279.869 71.7851 276.851 74.774 274.617C77.7621 272.383 82.9751 271.778 86.4183 273.267Z" fill="#FF5023"/><path d="M105.13 285.839L105.31 287.432C105.447 288.646 104.791 289.949 103.305 291.059C100.316 293.293 95.1021 293.898 91.6593 292.41C89.9275 291.661 88.9741 290.525 88.8352 289.296L88.6549 287.703C88.7938 288.932 89.7473 290.068 91.479 290.817C94.9221 292.305 100.136 291.7 103.125 289.466C104.61 288.356 105.267 287.053 105.13 285.839Z" fill="#CD2A01"/><path d="M102.304 282.724C105.747 284.212 106.115 287.231 103.124 289.466C100.136 291.7 94.9214 292.305 91.4786 290.816C88.0367 289.328 87.6694 286.31 90.6584 284.076C93.6481 281.841 98.8622 281.236 102.304 282.724Z" fill="#FF5023"/><path d="M65.6731 282.879L65.8533 284.472C65.9904 285.685 65.334 286.988 63.8491 288.098C60.8593 290.333 55.6473 290.937 52.2048 289.449C50.4728 288.7 49.519 287.564 49.3801 286.335L49.1998 284.742C49.339 285.971 50.2925 287.107 52.0245 287.856C55.4677 289.344 60.679 288.739 63.6688 286.505C65.1538 285.396 65.8105 284.092 65.6731 282.879Z" fill="#CD2A01"/><path d="M62.8498 279.764C66.2929 281.253 66.6589 284.271 63.67 286.505C60.6802 288.74 55.4682 289.344 52.0257 287.856C48.5839 286.368 48.2157 283.35 51.2055 281.115C54.1935 278.881 59.4079 278.276 62.8498 279.764Z" fill="#FF5023"/><path d="M59.7719 232.579L59.9521 234.172C60.0895 235.386 59.4329 236.689 57.9474 237.8C54.9587 240.034 49.7444 240.639 46.3031 239.151C44.5704 238.401 43.6166 237.265 43.4777 236.036L43.2975 234.443C43.4367 235.672 44.3902 236.808 46.1229 237.558C49.5647 239.046 54.7788 238.441 57.7672 236.207C59.2527 235.097 59.909 233.793 59.7719 232.579Z" fill="#CD2A01"/><path d="M56.9492 229.466C60.391 230.954 60.7583 233.973 57.7686 236.208C54.7799 238.442 49.5655 239.047 46.1243 237.559C42.6812 236.07 42.3138 233.052 45.3025 230.818C48.2922 228.583 53.5066 227.978 56.9492 229.466Z" fill="#FF5023"/><path d="M81.6125 245.927L81.7927 247.52C81.9301 248.733 81.2734 250.036 79.7885 251.146C76.7987 253.381 71.5867 253.985 68.1442 252.497C66.4122 251.748 65.4584 250.612 65.3195 249.383L65.1393 247.79C65.2782 249.019 66.232 250.155 67.964 250.904C71.4071 252.392 76.6185 251.788 79.6083 249.553C81.0929 248.443 81.7499 247.14 81.6125 245.927Z" fill="#CD2A01"/><path d="M78.7909 242.813C82.234 244.301 82.6 247.319 79.6114 249.553C76.6216 251.788 71.4096 252.393 67.9671 250.904C64.5253 249.416 64.1571 246.398 67.1469 244.164C70.135 241.929 75.349 241.325 78.7909 242.813Z" fill="#FF5023"/></svg>