<svg xmlns="http://www.w3.org/2000/svg" viewBox="0 0 72 106"><defs><style/></defs><g id="Слой_2" data-name="Слой 2"><g id="Слой_1-2" data-name="Слой 1"><path d="M0,49.3c-.56,26.38,22,48,35.81,56.7l.18-.13.18.13C50,97.28,72.55,75.68,72,49.3a33.64,33.64,0,0,0-2.74-14.67q-.63-1.77-1.42-3.56c4.34-13.16,0-26.2-2.71-31.07-2.11,1-8,5.49-14.47,15.64a37.22,37.22,0,0,0-14.47-2.85h-.35a37.22,37.22,0,0,0-14.47,2.85C14.84,5.49,9,1,6.88,0,4.17,4.87-.17,17.91,4.17,31.07q-.79,1.79-1.42,3.56A33.64,33.64,0,0,0,0,49.3Z" fill="#ee531c"/><path class="svg-icon__layer svg-icon__layer--fox-glasses" d="M19,35h0A11,11,0,0,1,30,46h0A11,11,0,0,1,19,57h0A11,11,0,0,1,8,46H8A11,11,0,0,1,19,35Z"/><path class="svg-icon__layer svg-icon__layer--fox-glasses" d="M53,35h0A11,11,0,0,1,64,46h0A11,11,0,0,1,53,57h0A11,11,0,0,1,42,46h0A11,11,0,0,1,53,35Z"/><path class="svg-icon__layer svg-icon__layer--fox-glasses" d="M28,43a37.84,37.84,0,0,1,8-1,37.84,37.84,0,0,1,8,1v3a20.69,20.69,0,0,0-8-2,20.69,20.69,0,0,0-8,2Z"/><path class="svg-icon__layer svg-icon__layer--fox-light" d="M21,43.5A2.5,2.5,0,1,1,23.5,46,2.5,2.5,0,0,1,21,43.5Z"/><path class="svg-icon__layer svg-icon__layer--fox-light" d="M55,43.5A2.5,2.5,0,1,1,57.5,46,2.5,2.5,0,0,1,55,43.5Z"/></g></g></svg>