<svg xmlns="http://www.w3.org/2000/svg" viewBox="0 0 399.33 339.92"><defs><style>.cls-1,.cls-13,.cls-17{fill:none}.cls-2{fill:#ee531c}.cls-4{fill:#fff}.cls-6{fill:#ff5e00}.cls-8{fill:#ffd78a}.cls-9{fill:#ff9a3d}.cls-11{fill:#f03f35}.cls-12{fill:#fefefc}.cls-13{stroke:#48c008;stroke-width:3px}.cls-13,.cls-17{stroke-linecap:round;stroke-linejoin:round}.cls-16{fill:#020202}.cls-17{stroke:#ffd78a;stroke-width:4px}.cls-19{fill:#28282b}.cls-20{fill:#717280}.cls-28{fill:#779d01}.cls-29{fill:#f91}.cls-30{fill:#f18700}.cls-31{fill:#fec377}.cls-32{fill:#cd2a01}.cls-33{fill:#ff5023}</style><clipPath id="clip-path" transform="translate(0 -1.63)"><path class="cls-1" transform="rotate(-13.59 328.443 83.396)" d="M240.54 18.85H416.36V147.91H240.54z"/></clipPath><clipPath id="clip-path-2" transform="translate(0 -1.63)"><path class="cls-1" d="M119.44 244.23H158.44V287.23H119.44z"/></clipPath><linearGradient id="fox-rocket-lg" x1="127.68" y1="453.24" x2="152.4" y2="512.46" gradientTransform="translate(0 -215.87)" gradientUnits="userSpaceOnUse"><stop offset="0" stop-color="#484952"/><stop offset="1" stop-color="#303136"/></linearGradient><linearGradient id="fox-rocket-lg_2" x1="121.94" y1="480.1" x2="156.09" y2="480.1" gradientTransform="translate(0 -215.87)" gradientUnits="userSpaceOnUse"><stop offset="0" stop-color="#f5f7ff"/><stop offset=".36" stop-color="#eff4fd"/><stop offset=".85" stop-color="#deebf9"/><stop offset="1" stop-color="#d7e7f7"/></linearGradient><linearGradient id="fox-rocket-lg_3" x1="144.3" y1="462.49" x2="144.61" y2="462.49" gradientTransform="translate(0 -215.87)" gradientUnits="userSpaceOnUse"><stop offset="0" stop-color="#3699f5"/><stop offset="1" stop-color="#45fcff"/></linearGradient></defs><g id="Слой_2" data-name="Слой 2"><g id="Слой_1-2" data-name="Слой 1"><g id="Слой_2-2" data-name="Слой 2"><g id="Слой_1-2-2" data-name="Слой 1-2"><path class="cls-2" d="M86.75,314.07c6-30.75,3.38-34.8-3-33.26-2.54-6.06-9.49,2.57-10.37,34.07-.88,31.33,5.82,27,10.37,25.75C86.75,339.83,85.24,321.76,86.75,314.07Z" transform="translate(0 -1.63)"/><path class="cls-2" d="M110.24,312.84c5.35-29.54,7-34.34,1.87-34.34-2.61,1.5-14.11,4.63-14.59,35-.44,30.17,5.36,28.72,10.19,24.94C110.91,335.88,108.9,320.23,110.24,312.84Z" transform="translate(0 -1.63)"/><path class="cls-2" d="M124.75,253.45c-10.37-26.13-14.58-27.69-18.83-26.09-1.39,1.45-6,.87,8.75,27.4s18.7,24.77,20.75,21.17C136.79,273.54,127.35,260,124.75,253.45Z" transform="translate(0 -1.63)"/><path class="cls-2" d="M99.47,297.41c24.6-1.08,17.71-45.19,12-70.57-9.51-14.41-21-4.23-23.64.54-3.26,6-6,20.67-7.34,31.41C77,271,74.6,298.49,99.47,297.41Z" transform="translate(0 -1.63)"/><path class="cls-2" d="M116.81,179.65c-4.76,3.26-9.64,6.33-13,8.43.42,3.72,7.63,4.85,8.23,4C116.53,186,117.09,181.28,116.81,179.65Z" transform="translate(0 -1.63)"/><path class="cls-2" d="M101.65,177.21c-16,6.51-17.8,16.45-18.75,23.52,2.64,1,9.09-.83,12.78-3.23C99.89,194.75,101.35,181.41,101.65,177.21Z" transform="translate(0 -1.63)"/><path class="cls-2" d="M121.21,229.83c10,.87,13.68-2.54,14.27-4.35l-14.95-8.84c-1.63-6.25,3.4-30.05-22.56-29.1-23.23.85-13.36,28.13-12,30.46C91.73,227.52,108.71,228.74,121.21,229.83Z" transform="translate(0 -1.63)"/><path d="M127.89,224.55a.4.4,0,0,0-.33-.16h-.24a.42.42,0,0,0-.22.22.41.41,0,0,0,0,.4.46.46,0,0,0,.11.11l.1.06.14.05h.09a12.57,12.57,0,0,0,5.13,1,4,4,0,0,0,1.74-.43.41.41,0,0,0-.39-.72,3.19,3.19,0,0,1-1.38.33,10.59,10.59,0,0,1-1.58-.07,10.43,10.43,0,0,1-3.18-.83Z" transform="translate(0 -1.63)"/><path d="M108.56,208.24a2.63,2.63,0,0,1,.74,2.59.41.41,0,0,0,.77.27l0-.06a3.45,3.45,0,0,0-1-3.37,3.89,3.89,0,0,0-2.77-1.22,6.61,6.61,0,0,0-1.75.33A3.47,3.47,0,0,0,103,207.9a.41.41,0,0,0,.59.57l.06-.08a2.67,2.67,0,0,1,1.28-.85,5.73,5.73,0,0,1,1.53-.29A3.09,3.09,0,0,1,108.56,208.24Z" transform="translate(0 -1.63)"/><path d="M131.81,225.69a.41.41,0,0,0-.57.1c-.49.69-2,2.15-6.54,2.68a.41.41,0,0,0,.1.81c4.7-.55,6.45-2.09,7.11-3a.41.41,0,0,0-.08-.57Z" transform="translate(0 -1.63)"/><path class="cls-2" d="M0,287.75c36.28,60.37,71.75,14.78,80.18-8l-1.77-7.07C68.08,304.64,27.86,306.93,0,287.75Z" transform="translate(0 -1.63)"/><path d="M21.39,300.69a.41.41,0,0,0,.23.53,25.65,25.65,0,0,0,8.86,1.71.41.41,0,1,0,0-.82,24.85,24.85,0,0,1-8.58-1.65A.41.41,0,0,0,21.39,300.69Z" transform="translate(0 -1.63)"/><path d="M11.18,298.46a.41.41,0,0,0,.16.55l.78.43c1.76,1,3.54,2,5.36,2.85a.41.41,0,1,0,.39-.72l0,0c-1.8-.86-3.56-1.85-5.32-2.83l-.78-.43A.41.41,0,0,0,11.18,298.46Z" transform="translate(0 -1.63)"/><path d="M21.4,306.11a.41.41,0,0,0,.18.55,7.19,7.19,0,0,0,1.27.44H23c1.28.36,2.59.7,3.89,1l2.7.7a.41.41,0,0,0,.21-.79l-2.74-.7c-1.29-.32-2.56-.64-3.84-1l-.18,0a6.36,6.36,0,0,1-1.12-.39.41.41,0,0,0-.53.23Z" transform="translate(0 -1.63)"/><path d="M41,304.4a.41.41,0,0,0-.45-.36l-1.26.16a20.77,20.77,0,0,1-5.35.26.41.41,0,0,0-.1.81,21.76,21.76,0,0,0,5.6-.26l1.21-.16A.41.41,0,0,0,41,304.4Z" transform="translate(0 -1.63)"/><path d="M100.7,178.33a.41.41,0,0,0-.52.24c-1.24,3.34-2.44,6.49-5,8.89-1.59,1.48-3.41,2.76-5.46,2.59a.41.41,0,0,0-.07.81c2.43.2,4.49-1.32,6.09-2.81,2.74-2.55,4-5.89,5.23-9.2a.41.41,0,0,0-.26-.52Z" transform="translate(0 -1.63)"/><path d="M116.11,180.91a.41.41,0,0,0-.44.37,10.15,10.15,0,0,1-3.2,6.46,8.19,8.19,0,0,1-4.1,1.9.41.41,0,1,0,.05.82l.1,0a9,9,0,0,0,4.49-2.09,11,11,0,0,0,3.47-7A.41.41,0,0,0,116.11,180.91Z" transform="translate(0 -1.63)"/><path d="M118.84,207.82a1.55,1.55,0,0,1,1.22-.43.92.92,0,0,1,.8.82.41.41,0,0,0,.81,0,1.73,1.73,0,0,0-1.51-1.59,2.36,2.36,0,0,0-1.86.62,3.26,3.26,0,0,0-1,1.61,4,4,0,0,0-.09.69v1.37h0a.5.5,0,0,0,0,.07v.14A.41.41,0,0,0,118,211h0a.53.53,0,0,0,0-.07h0v-.17a.39.39,0,0,0,0-.12v-1.05a3.19,3.19,0,0,1,.06-.54A2.44,2.44,0,0,1,118.84,207.82Z" transform="translate(0 -1.63)"/><path d="M120.4,291.42c-1.36-26.51-3.26-41.24-6.79-51.4H89c4.24,12.51-1.77,38.12-5.3,49.36Z" transform="translate(0 -1.63)" fill="#f0f0f0"/><path class="cls-4" d="M112.37,229.16a.68.68,0,0,0-.54.79,30.86,30.86,0,0,1,.43,5.55v1.65c0,1.36,0,2.74.07,4.1a.68.68,0,1,0,1.36-.07c-.07-1.32-.07-2.64-.06-4v-1.7a32.12,32.12,0,0,0-.46-5.79A.68.68,0,0,0,112.37,229.16Z" transform="translate(0 -1.63)"/><path class="cls-4" d="M79.65,260.06a.68.68,0,0,0-.38.88,1,1,0,0,0,.58.55,1.69,1.69,0,0,0,.37.08h0a11.68,11.68,0,0,1,1.62.36l.85.22,1.66.4c2,.48,4,1,6,1.51a.68.68,0,0,0,.37-1.31c-2-.57-4-1-6-1.53L83,260.84l-.71-.18a14.36,14.36,0,0,0-1.92-.43h0A.68.68,0,0,0,79.65,260.06Z" transform="translate(0 -1.63)"/><path class="cls-2" d="M74.28,257.52c-3-5.23,12.82-14,14.26-24-2.22-6.38-13.71,4.25-20.71,15.27-2.95,4.65-5.35,10.06-1.25,13,17.15,12.11,25.88,14.47,27.17,9.44S76.09,260.7,74.28,257.52Z" transform="translate(0 -1.63)"/><path class="cls-4" d="M82.61,226.49a.68.68,0,0,0-.6.75,1.26,1.26,0,0,0,.27.64h0l.29.4c.33.46.65.89,1,1.36a55.46,55.46,0,0,1,3.93,6.87c.76,1.62,1.47,3.26,2.18,4.92l.51,1.18a.68.68,0,0,0,1.25-.54l-.5-1.17c-.71-1.66-1.43-3.33-2.2-5a56.81,56.81,0,0,0-4-7c-.32-.49-.66-1-1-1.42l-.27-.38h0a.68.68,0,0,0-.72-.63Z" transform="translate(0 -1.63)"/><g clip-path="url(#clip-path)"><path class="cls-6" d="M293.07,88.26a51.49,51.49,0,0,0,17.45,15.17,52.83,52.83,0,0,0,17.34,15.36s3,23.75-11.65,33.94a44.5,44.5,0,0,1-1-6.88s-17.75,20.32-50.6,10.35c-14.22-31.44,3.45-51.74,3.45-51.74a53.17,53.17,0,0,1-6.94,0C269.2,88.4,293.07,88.26,293.07,88.26Z" transform="translate(0 -1.63)"/><path d="M292,102.05a33.42,33.42,0,0,0,11.33,9.85,34,34,0,0,0,11.21,10s1.93,15.41-7.53,22a24.32,24.32,0,0,1-.61-4.47s-11.45,13.17-32.78,6.75c-9.21-20.37,2.25-33.54,2.25-33.54a31.11,31.11,0,0,1-4.52,0C276.49,102.12,292,102.05,292,102.05Z" transform="translate(0 -1.63)" fill="#e8e8e8"/><path class="cls-6" d="M362.39,134.37c-8.72-2.58-19.25-12-31.88-23-11.17-9.81-13.5-20.74-2.23-26.28,26.25-12.84,33.18-3.49,38.16,10.32C371.71,110.14,371.62,137.14,362.39,134.37Z" transform="translate(0 -1.63)"/><path class="cls-6" d="M273,55.88c3.73,8.33,14.37,17.56,27,28.66,11.17,9.81,22.27,10.65,26.25-1.26,9.15-27.86-.93-33.48-15.23-36.59C295.78,43.42,269.1,47.06,273,55.88Z" transform="translate(0 -1.63)"/><path class="cls-8" d="M399.13,1.63c4,72.15-53.93,122.2-59,124.53-2.2-.41-14.72-15.13-27-25.76C301,89.63,284.8,79.15,284.12,77,285.79,71.64,327.39,7.32,399.13,1.63Z" transform="translate(0 -1.63)"/><path class="cls-9" d="M377.87,26.08a28.93,28.93,0,0,1-9.64-18.31,130.72,130.72,0,0,1,30.83-6.12,131.14,131.14,0,0,1-1.87,31.57A28.49,28.49,0,0,1,377.87,26.08Z" transform="translate(0 -1.63)"/><path d="M287.46,70.84c.88,2.37,11.44,16.71,25.62,29.31,14.37,12.4,30,21.13,32.5,21.7-.77,2-8.56,11-11.1,12.07-2.48-.57-17.84-9.06-32.13-21.48-14.18-12.6-24.61-26.74-25.49-29.1C277.61,80.66,285.94,71.29,287.46,70.84Z" transform="translate(0 -1.63)" fill="#e18e4b"/><path class="cls-11" d="M371.57,80.23A3.76,3.76,0,0,0,370,75.15a3.72,3.72,0,0,0-5,1.55l0,.06a3.76,3.76,0,0,0,6.68,3.47h0Z" transform="translate(0 -1.63)"/><path class="cls-11" d="M351.48,102.76a3.76,3.76,0,1,0-5.07,1.61h0A3.76,3.76,0,0,0,351.48,102.76Z" transform="translate(0 -1.63)"/><path class="cls-11" d="M329.5,45a3.76,3.76,0,1,0,0,.08Z" transform="translate(0 -1.63)"/><path class="cls-11" d="M368.44,26.72a3.76,3.76,0,1,0-5.07,1.61h0a3.72,3.72,0,0,0,5-1.55Z" transform="translate(0 -1.63)"/><path class="cls-12" d="M341,84a10.59,10.59,0,0,1-.31-3.52,9.93,9.93,0,0,1,3-6.13c.07,0,.07,0,.13-.11a.07.07,0,0,0,.06-.08h0a9.88,9.88,0,0,1,6.35-2.4,11.24,11.24,0,0,1,3.5.64c1.37.53,5.27,2.17,2.93,4.06-1.11.89-2.2,1.86-3.29,2.83.13-.11.93.95,1,1,1.18,1.36,2.35,2.64,3.46,4,1.33,1.63-.48,2.85-1.59,3.75s-2.46,2.71-3.92,1.18c-1.24-1.26-2.48-2.53-3.66-3.88,0-.07-1-1-.89-1.11-1,.95-2.09,2-3.1,2.94C342.59,89.5,341.38,85.49,341,84Z" transform="translate(0 -1.63)"/><path class="cls-13" d="M329.23,87.41c-1,2.76-.07,6.82,2.37,8.5,3.27,2.26,6.52-1,7.94-3.87" transform="translate(0 -1.63)"/><path class="cls-13" d="M352.7,32.79c-1.41-2.63-5.13-4.47-8-3.7-3.81,1-3.47,5.61-2.21,8.59" transform="translate(0 -1.63)"/><path d="M313,82.9a15.1,15.1,0,1,0-.1-.06Zm.87-9.59a2,2,0,0,1,.79,2.71l0,.08a2,2,0,0,1-2.72.79l-.06,0a2,2,0,0,1-.79-2.71l0-.08a2,2,0,0,1,2.72-.76h.06Zm13.62-7.12a2.42,2.42,0,0,1-.88-3.31h0a2.41,2.41,0,1,1,.88,3.31Zm-9.37-4.3a1.93,1.93,0,1,1,2.63-.72h0a1.85,1.85,0,0,1-2.49.81l-.18-.11Zm10.19,13.8a1.7,1.7,0,0,1-.66-2.31l0,0A1.76,1.76,0,0,1,330,72.7a1.71,1.71,0,0,1,.59,2.3,1.69,1.69,0,0,1-2.28.71l0,0Zm-9.12-3.58a2.42,2.42,0,0,1-.88-3.31h0a2.41,2.41,0,1,1,.88,3.31Zm-8.44-4.29a1.7,1.7,0,0,1-.67-2.31l0,0a1.76,1.76,0,0,1,2.34-.64,1.7,1.7,0,0,1,.67,2.31l0,0a1.63,1.63,0,0,1-2.18.75l-.2-.12Zm8.72,13.53a2.81,2.81,0,0,1-1-3.84l0-.06a2.85,2.85,0,0,1,3.88-1,2.81,2.81,0,0,1,1,3.84l0,.06a2.85,2.85,0,0,1-3.9,1h0Z" transform="translate(0 -1.63)" fill="#ee4238"/><path d="M342.78,63.57c1.36-2.75,2.94-5.56,5.58-7.21,4.19-2.65,9.55-2.7,14.18-1.55,2.4.59,5.33,1.45,6.9,3.41a5.91,5.91,0,0,1,1.44,4c-.32,3.83-5.45,1.94-7.54,1A31,31,0,0,0,354,60.7a24,24,0,0,0-6.61.35,14.35,14.35,0,0,0-4.61,2.52Z" transform="translate(0 -1.63)" fill="#ed4137"/><path class="cls-16" d="M384.8,51.85c3.83-1.24,6.27-4.33,5.43-6.86s-4.6-3.58-8.5-2.32-6.27,4.33-5.43,6.86S381,53.09,384.8,51.85Z" transform="translate(0 -1.63)"/><path class="cls-16" d="M340.73,51.56c2-3.47,1.87-7.41-.42-8.81s-5.82.39-7.87,3.86-1.87,7.41.42,8.81S338.69,55,340.73,51.56Z" transform="translate(0 -1.63)"/><path class="cls-12" d="M365.94,49.22a6.91,6.91,0,0,1-2.76.51,7.94,7.94,0,0,1-5-1.91.07.07,0,0,0-.08-.06h0L358,47.7a8.13,8.13,0,0,1-2.48-4.8,6.81,6.81,0,0,1,.18-2.78c.26-1.16,1.15-4.27,3-2.59.82.82,1.62,1.56,2.5,2.29-.09-.06.65-.86.72-.88a40.39,40.39,0,0,1,2.78-3c1.13-1.13,2.2.09,3.11,1s2.36,1.7,1.34,3c-.91,1.08-1.74,2.14-2.67,3.15-.07,0-.72.88-.81.82L368.2,46C370,47.54,367,48.87,365.94,49.22Z" transform="translate(0 -1.63)"/></g><path class="cls-17" d="M254.79 168.44L231.9 196.23"/><path class="cls-17" d="M227.98 201.06L224.17 205.69"/><path class="cls-17" d="M285.9 169.8L275.73 182.15"/><path class="cls-17" d="M271.27 187.19L267.45 191.82"/><path class="cls-17" d="M232.54 157.34L228.72 161.97"/><path class="cls-17" d="M248.27 137.81L238.1 150.16"/><g clip-path="url(#clip-path-2)"><path class="cls-19" d="M158.41,248.69a.88.88,0,0,0-.06-.21l-.36-.93a1.12,1.12,0,0,1,.06.21,1.19,1.19,0,0,1,0,.23,1.25,1.25,0,0,1,0,.24v.24L147.36,285a2.3,2.3,0,0,1-1,1.31,2.19,2.19,0,0,1-.76.29,2.1,2.1,0,0,1-.82,0l-24.2-5.5h-.17l-.15-.06-.14-.08-.12-.09.77.61.12.09.14.08.15.06h.15l24,5.49a2,2,0,0,0,.8,0,2.22,2.22,0,0,0,.74-.29,2.09,2.09,0,0,0,.61-.55,2.2,2.2,0,0,0,.38-.75l10.5-36.2a.7.7,0,0,0,0-.24,1.33,1.33,0,0,0,0-.24A.55.55,0,0,0,158.41,248.69Z" transform="translate(0 -1.63)"/><path class="cls-20" d="M147.39,285.1l10.5-36.2v-.17L147.36,285a2.3,2.3,0,0,1-1,1.31,2.19,2.19,0,0,1-.76.29,2.1,2.1,0,0,1-.82,0l-24.18-5.49h.27l24,5.49a2,2,0,0,0,.8,0,2.22,2.22,0,0,0,.74-.29,2.08,2.08,0,0,0,.61-.55A2.37,2.37,0,0,0,147.39,285.1Z" transform="translate(0 -1.63)"/><path d="M158,247.8a1.32,1.32,0,0,0-.24-.58,1.67,1.67,0,0,0-.48-.43,1.61,1.61,0,0,0-.68-.2l-22.81-2.35a1.62,1.62,0,0,0-.67.06,2.23,2.23,0,0,0-.62.28,1.85,1.85,0,0,0-.51.46,2,2,0,0,0-.35.6L119.58,278.9a1.75,1.75,0,0,0,0,1.39,1.47,1.47,0,0,0,.39.52,1.32,1.32,0,0,0,.61.29l24.2,5.5a2.1,2.1,0,0,0,.82,0,2.18,2.18,0,0,0,.76-.29,2.64,2.64,0,0,0,.62-.55,2.4,2.4,0,0,0,.39-.76L158,248.49A1.74,1.74,0,0,0,158,247.8Z" transform="translate(0 -1.63)" fill="url(#fox-rocket-lg)"/><path d="M133,246.27,121.94,277l24.27,5.18,9.88-33.36Z" transform="translate(0 -1.63)" fill="url(#fox-rocket-lg_2)"/><path d="M133.21,246.73,156,249.25l.12-.43L133,246.27,121.94,277l.35.08Z" transform="translate(0 -1.63)" fill="#c9d9ed"/><path class="cls-19" d="M144.12,246.81l.09.09h.29l.14-.06.11-.09a.54.54,0,0,0,.08-.12.42.42,0,0,0,0-.14.2.2,0,0,0,0-.12l-.09-.09h-.29l-.14.06-.11.09a.56.56,0,0,0-.07.12.43.43,0,0,0,0,.14A1,1,0,0,0,144.12,246.81Z" transform="translate(0 -1.63)"/><path d="M144.32,246.69h.18a.08.08,0,0,0,0-.06v-.06h-.18a.08.08,0,0,0,0,.06v.06Z" transform="translate(0 -1.63)" fill="url(#fox-rocket-lg_3)"/><path class="cls-20" d="M134.33,280.73a.66.66,0,0,0-.21-.24.7.7,0,0,0-.3-.14l-.79-.17a.68.68,0,0,0-.35,0,1.3,1.3,0,0,0-.33.14,1,1,0,0,0-.27.24,1.17,1.17,0,0,0-.18.34l-.27.84a.76.76,0,0,0,0,.37.57.57,0,0,0,.09.32.77.77,0,0,0,.2.24.69.69,0,0,0,.3.14l.8.18a.67.67,0,0,0,.35,0,.91.91,0,0,0,.33-.14,1.07,1.07,0,0,0,.27-.24,1.18,1.18,0,0,0,.18-.34l.27-.86a.77.77,0,0,0,0-.37A1,1,0,0,0,134.33,280.73Z" transform="translate(0 -1.63)"/><path d="M134.3,280.67a.65.65,0,0,0-.21-.24.69.69,0,0,0-.3-.14l-.79-.17a.68.68,0,0,0-.35,0,1.3,1.3,0,0,0-.33.14,1.06,1.06,0,0,0-.27.24,1.2,1.2,0,0,0-.18.34l-.27.84a.77.77,0,0,0,0,.37.57.57,0,0,0,.09.32.78.78,0,0,0,.2.24.7.7,0,0,0,.3.14l.8.18a.68.68,0,0,0,.35,0,.91.91,0,0,0,.33-.14,1,1,0,0,0,.27-.24,1.2,1.2,0,0,0,.18-.34l.27-.86a.77.77,0,0,0,0-.37A.72.72,0,0,0,134.3,280.67Z" transform="translate(0 -1.63)" fill="#2a2b30"/><path d="M132.79,282.46a.71.71,0,0,1-.59-.27.8.8,0,0,1-.15-.7,1.19,1.19,0,0,1,1.11-1,.71.71,0,0,1,.59.27.8.8,0,0,1,.15.7A1.21,1.21,0,0,1,132.79,282.46Zm.35-1.82a1.06,1.06,0,0,0-1,.86.72.72,0,0,0,.14.61.63.63,0,0,0,.51.23,1.06,1.06,0,0,0,1-.86.72.72,0,0,0-.14-.61.7.7,0,0,0-.51-.23Z" transform="translate(0 -1.63)" fill="#19191c"/><path d="M150.77,273.29l7.23-24.8a1.48,1.48,0,0,0,0-.67,1.32,1.32,0,0,0-.24-.58,1.66,1.66,0,0,0-.48-.43,1.61,1.61,0,0,0-.68-.2l-22.81-2.37a1.64,1.64,0,0,0-.67.06,2.26,2.26,0,0,0-.62.28,1.86,1.86,0,0,0-.51.46,2,2,0,0,0-.35.6l-2,5.56Z" transform="translate(0 -1.63)" style="isolation:isolate" opacity=".2" fill="#fff"/><path class="cls-28" d="M138.3,254a.88.88,0,0,1,1.21.17l1.77,3a1,1,0,0,1-1.64,1l-1.77-3a.88.88,0,0,1,.43-1.17Z" transform="translate(0 -1.63)"/><path class="cls-28" d="M139.6,258a1,1,0,0,1,.25-1.33l5.29-3.62a1,1,0,0,1,1.08,1.57l-5.29,3.62A1,1,0,0,1,139.6,258Z" transform="translate(0 -1.63)"/></g><path class="cls-29" d="M146,267.81v-.34a3.34,3.34,0,0,0-.89-1.89h0v-.06a6.12,6.12,0,0,0-2.09-1.41,10.74,10.74,0,0,0-2.95-.77l-.07.13v-.14a14.86,14.86,0,0,0-6.66.77v.13l-.1-.1a10.7,10.7,0,0,0-2.64,1.39,6,6,0,0,0-1.73,1.88v.06h0a3.34,3.34,0,0,0-.43,2l.14,1.24a3.34,3.34,0,0,0,.89,1.89h0v.06a6.13,6.13,0,0,0,2.09,1.41,10.73,10.73,0,0,0,2.95.77h0l.07-.13v.14a14.9,14.9,0,0,0,6.66-.77v-.13l.09.1-.09-.84.1.83a10.71,10.71,0,0,0,2.64-1.39,6,6,0,0,0,1.73-1.88v0h0a3.33,3.33,0,0,0,.43-2l-.1-.88Z" transform="translate(0 -1.63)"/><path class="cls-8" d="M140,263.69l-2.76,5-3.89-4.27a14.9,14.9,0,0,1,6.66-.77Z" transform="translate(0 -1.63)"/><path class="cls-30" d="M140,263.69l.1.91-2.83,5-.1-.91Z" transform="translate(0 -1.63)"/><path class="cls-30" d="M137.21,268.73l.1.91-3.9-4.27-.1-.91Z" transform="translate(0 -1.63)"/><path class="cls-30" d="M145.1,265.88l.1.91-7.83,2.86-.1-.91Z" transform="translate(0 -1.63)"/><path class="cls-8" d="M143,264.46a6.11,6.11,0,0,1,2.09,1.41l-7.8,2.86,2.76-5A10.71,10.71,0,0,1,143,264.46Z" transform="translate(0 -1.63)"/><path class="cls-30" d="M137.12,268.76l.1.91-8.27-1-.1-.91Z" transform="translate(0 -1.63)"/><path class="cls-8" d="M133.24,264.49l3.88,4.27-8.29-1a6.1,6.1,0,0,1,1.75-1.88A10.85,10.85,0,0,1,133.24,264.49Z" transform="translate(0 -1.63)"/><path class="cls-8" d="M145.15,265.92a3.18,3.18,0,0,1,.45,3.85l-8.28-1Z" transform="translate(0 -1.63)"/><path class="cls-30" d="M145.6,269.78l.1.91-8.27-1-.1-.91Z" transform="translate(0 -1.63)"/><path class="cls-8" d="M137.09,268.81l-7.8,2.86a3.18,3.18,0,0,1-.47-3.86Z" transform="translate(0 -1.63)"/><path class="cls-30" d="M137.09,268.81l.1.91-7.8,2.86-.1-.91Z" transform="translate(0 -1.63)"/><path class="cls-8" d="M145.57,269.83a6,6,0,0,1-1.73,1.88,10.74,10.74,0,0,1-2.64,1.39l-3.9-4.27Z" transform="translate(0 -1.63)"/><path class="cls-30" d="M141.2,273.1l.1.91-3.9-4.27-.1-.91Z" transform="translate(0 -1.63)"/><path class="cls-30" d="M137.17,268.85l.1.91-2.83,5-.1-.91Z" transform="translate(0 -1.63)"/><path class="cls-8" d="M137.16,268.85l-2.8,5a10.78,10.78,0,0,1-3-.77,6.1,6.1,0,0,1-2.09-1.41Z" transform="translate(0 -1.63)"/><path class="cls-8" d="M137.23,268.86l3.88,4.27a15,15,0,0,1-6.69.77Z" transform="translate(0 -1.63)"/><path class="cls-30" d="M139.93,263.35v.36l-.35.63V264Z" transform="translate(0 -1.63)"/><path class="cls-29" d="M139.58,264v.36a13.13,13.13,0,0,0-5.83.68v-.36A13.12,13.12,0,0,1,139.58,264Z" transform="translate(0 -1.63)"/><path class="cls-30" d="M133.75,264.66V265l-.49-.53v-.36Z" transform="translate(0 -1.63)"/><path class="cls-31" d="M139.93,263.35l-.35.63a13.13,13.13,0,0,0-5.83.68l-.49-.53a14.86,14.86,0,0,1,6.66-.77Z" transform="translate(0 -1.63)"/><path class="cls-29" d="M144.07,265.9v.36a5.37,5.37,0,0,0-1.83-1.23,9.45,9.45,0,0,0-2.58-.67V264a9.46,9.46,0,0,1,2.58.67A5.37,5.37,0,0,1,144.07,265.9Z" transform="translate(0 -1.63)"/><path class="cls-30" d="M145,265.54v.36l-1,.36v-.36Z" transform="translate(0 -1.63)"/><path class="cls-31" d="M143,264.13a6.09,6.09,0,0,1,2.09,1.41l-1,.36a5.35,5.35,0,0,0-1.83-1.23,9.42,9.42,0,0,0-2.58-.67l.35-.63A10.75,10.75,0,0,1,143,264.13Z" transform="translate(0 -1.63)"/><path class="cls-31" d="M133.2,264.16l.48.53a9.4,9.4,0,0,0-2.36,1.24,5.33,5.33,0,0,0-1.5,1.62l-1-.12a6.09,6.09,0,0,1,1.75-1.88A10.79,10.79,0,0,1,133.2,264.16Z" transform="translate(0 -1.63)"/><path class="cls-29" d="M133.67,264.69v.36a9.33,9.33,0,0,0-2.35,1.25,5.27,5.27,0,0,0-1.48,1.62v-.36a5.27,5.27,0,0,1,1.48-1.62A9.33,9.33,0,0,1,133.67,264.69Z" transform="translate(0 -1.63)"/><path class="cls-30" d="M129.84,267.55v.36l-1-.12v-.36Z" transform="translate(0 -1.63)"/><path class="cls-29" d="M129.47,269.7v-.36a2.89,2.89,0,0,1,.4-1.73V268A2.88,2.88,0,0,0,129.47,269.7Z" transform="translate(0 -1.63)"/><path class="cls-29" d="M144.89,267.59V268a2.88,2.88,0,0,0-.78-1.64V266A2.88,2.88,0,0,1,144.89,267.59Z" transform="translate(0 -1.63)"/><path class="cls-31" d="M145.09,265.59a3.18,3.18,0,0,1,.47,3.85l-1-.12a2.81,2.81,0,0,0-.41-3.37Z" transform="translate(0 -1.63)"/><path class="cls-30" d="M145.56,269.44v.36l-1-.12v-.36Z" transform="translate(0 -1.63)"/><path class="cls-9" d="M146,267.47l.14,1.24a3.33,3.33,0,0,1-.43,2l-.14-1.24A3.34,3.34,0,0,0,146,267.47Z" transform="translate(0 -1.63)"/><path class="cls-30" d="M130.23,271v.36l-1,.36v-.36Z" transform="translate(0 -1.63)"/><path class="cls-9" d="M129.25,271.33l.14,1.24a3.34,3.34,0,0,1-.89-1.89l-.14-1.24A3.34,3.34,0,0,0,129.25,271.33Z" transform="translate(0 -1.63)"/><path class="cls-31" d="M129.82,267.6a2.8,2.8,0,0,0,.41,3.37l-1,.36a3.18,3.18,0,0,1-.47-3.85Z" transform="translate(0 -1.63)"/><path class="cls-30" d="M141.15,272.76v.36l-.49-.53v-.36Z" transform="translate(0 -1.63)"/><path class="cls-9" d="M145.53,269.49l.14,1.24a6,6,0,0,1-1.73,1.88A10.66,10.66,0,0,1,141.3,274l-.14-1.24a10.71,10.71,0,0,0,2.64-1.39A6,6,0,0,0,145.53,269.49Z" transform="translate(0 -1.63)"/><path class="cls-31" d="M145.53,269.49a6,6,0,0,1-1.73,1.88,10.7,10.7,0,0,1-2.64,1.39l-.49-.53A9.34,9.34,0,0,0,143,271a5.28,5.28,0,0,0,1.48-1.62Z" transform="translate(0 -1.63)"/><path class="cls-30" d="M134.68,272.93v.36l-.35.63v-.36Z" transform="translate(0 -1.63)"/><path class="cls-31" d="M134.68,272.93l-.35.63a10.74,10.74,0,0,1-2.95-.77,6.12,6.12,0,0,1-2.09-1.41l1-.36a5.37,5.37,0,0,0,1.83,1.23A9.46,9.46,0,0,0,134.68,272.93Z" transform="translate(0 -1.63)"/><path class="cls-9" d="M134.33,273.56l.14,1.24a10.74,10.74,0,0,1-2.95-.77,6.13,6.13,0,0,1-2.09-1.41l-.14-1.24a6.12,6.12,0,0,0,2.09,1.41A10.74,10.74,0,0,0,134.33,273.56Z" transform="translate(0 -1.63)"/><path class="cls-31" d="M140.59,272.26l.49.53a14.86,14.86,0,0,1-6.66.77l.35-.63A13.13,13.13,0,0,0,140.59,272.26Z" transform="translate(0 -1.63)"/><path class="cls-9" d="M141.07,272.79l.14,1.24a14.88,14.88,0,0,1-6.66.77l-.14-1.24A14.86,14.86,0,0,0,141.07,272.79Z" transform="translate(0 -1.63)"/><path class="cls-32" d="M136.21,266.08a1.48,1.48,0,0,0,1.33-.15.47.47,0,0,0,.23-.41v-.18h0a.46.46,0,0,0-.32-.37,1.48,1.48,0,0,0-1.33.15.47.47,0,0,0-.23.41h0v.18A.47.47,0,0,0,136.21,266.08Zm3.28-.19a1.48,1.48,0,0,0,1.33-.15.47.47,0,0,0,.23-.41v-.18h0a.46.46,0,0,0-.32-.37,1.48,1.48,0,0,0-1.33.15.47.47,0,0,0-.23.42h0v.18a.47.47,0,0,0,.32.36Zm4.68,1.77a.46.46,0,0,0-.32-.37,1.48,1.48,0,0,0-1.33.15.47.47,0,0,0-.23.42h0V268a.47.47,0,0,0,.32.35,1.48,1.48,0,0,0,1.33-.15.47.47,0,0,0,.23-.41v-.18Zm-4,1.23v-.18h0a.46.46,0,0,0-.32-.37,1.48,1.48,0,0,0-1.33.15.47.47,0,0,0-.23.42h0v.18a.47.47,0,0,0,.32.36,1.48,1.48,0,0,0,1.33-.15.47.47,0,0,0,.21-.4Zm2,.09a1.49,1.49,0,0,0-1.33.15.47.47,0,0,0-.23.41h0v.18a.47.47,0,0,0,.32.35,1.48,1.48,0,0,0,1.33-.15.47.47,0,0,0,.23-.41v-.18h0a.46.46,0,0,0-.3-.33Zm-.85,1.61a1.48,1.48,0,0,0-1.33.15.47.47,0,0,0-.23.42h0v.18a.47.47,0,0,0,.32.35,1.48,1.48,0,0,0,1.33-.15.47.47,0,0,0,.23-.41V271h0a.46.46,0,0,0-.29-.35Zm-2.95-2.8a1.48,1.48,0,0,0,1.33-.15.47.47,0,0,0,.23-.41v-.18h0a.46.46,0,0,0-.32-.37,1.49,1.49,0,0,0-1.33.15.47.47,0,0,0-.23.42h0v.18a.47.47,0,0,0,.35.37Zm-5,.29v-.18h0a.46.46,0,0,0-.32-.37,1.49,1.49,0,0,0-1.33.15.47.47,0,0,0-.23.42h0v.18a.47.47,0,0,0,.32.35,1.48,1.48,0,0,0,1.33-.15.47.47,0,0,0,.25-.39ZM132,269.37a1.48,1.48,0,0,0-1.33.15.47.47,0,0,0-.23.42h0v.18a.47.47,0,0,0,.32.36,1.49,1.49,0,0,0,1.33-.15.47.47,0,0,0,.23-.41v-.18h0A.46.46,0,0,0,132,269.37Zm4.1.25v-.18h0a.46.46,0,0,0-.32-.37,1.48,1.48,0,0,0-1.33.15.47.47,0,0,0-.23.42h0v.18a.47.47,0,0,0,.32.36,1.48,1.48,0,0,0,1.33-.15.47.47,0,0,0,.18-.41Zm1.45,1.36v-.18h0a.46.46,0,0,0-.32-.37,1.49,1.49,0,0,0-1.33.15.47.47,0,0,0-.23.42h0v.18a.47.47,0,0,0,.32.35,1.48,1.48,0,0,0,1.33-.15.47.47,0,0,0,.19-.38Zm1.47.54a1.49,1.49,0,0,0-1.33.15.47.47,0,0,0-.23.41h0v.18a.47.47,0,0,0,.32.35,1.48,1.48,0,0,0,1.33-.15.47.47,0,0,0,.23-.41v-.18h0a.46.46,0,0,0-.34-.35Zm-4.51-.34a1.48,1.48,0,0,0-1.33.15.47.47,0,0,0-.23.42h0v.18a.47.47,0,0,0,.32.36,1.49,1.49,0,0,0,1.33-.15.47.47,0,0,0,.23-.41v-.18h0a.46.46,0,0,0-.36-.37Zm-1.87-4.63a1.49,1.49,0,0,0,1.33-.15.48.48,0,0,0,.23-.41v-.18h0a.46.46,0,0,0-.32-.37,1.48,1.48,0,0,0-1.33.15.47.47,0,0,0-.23.42h0v.18a.47.47,0,0,0,.28.36Zm2.49,1.52a1.48,1.48,0,0,0,1.33-.15.47.47,0,0,0,.23-.41v-.18h0a.46.46,0,0,0-.32-.37,1.48,1.48,0,0,0-1.33.15.47.47,0,0,0-.23.42h0v.18a.47.47,0,0,0,.28.36Z" transform="translate(0 -1.63)"/><path class="cls-32" d="M137.74,265.33v.18a.47.47,0,0,1-.23.41,1.48,1.48,0,0,1-1.33.15.47.47,0,0,1-.32-.36v-.18a.47.47,0,0,0,.32.36,1.48,1.48,0,0,0,1.33-.15A.47.47,0,0,0,137.74,265.33Z" transform="translate(0 -1.63)"/><path class="cls-33" d="M137.41,265a.41.41,0,0,1,.09.77,1.47,1.47,0,0,1-1.33.15.41.41,0,0,1-.09-.77A1.47,1.47,0,0,1,137.41,265Z" transform="translate(0 -1.63)"/><path class="cls-32" d="M141,265.14v.18a.47.47,0,0,1-.23.41,1.47,1.47,0,0,1-1.33.15.47.47,0,0,1-.32-.36v-.18a.47.47,0,0,0,.32.36,1.47,1.47,0,0,0,1.33-.15A.47.47,0,0,0,141,265.14Z" transform="translate(0 -1.63)"/><path class="cls-33" d="M140.68,264.79a.41.41,0,0,1,.09.77,1.47,1.47,0,0,1-1.33.15.41.41,0,0,1-.09-.77A1.47,1.47,0,0,1,140.68,264.79Z" transform="translate(0 -1.63)"/><path class="cls-32" d="M141.75,266.61a1.49,1.49,0,0,0,1.33-.15.47.47,0,0,0,.23-.41v-.18h0a.46.46,0,0,0-.32-.37,1.49,1.49,0,0,0-1.33.15.47.47,0,0,0-.23.41h0v.18A.47.47,0,0,0,141.75,266.61Z" transform="translate(0 -1.63)"/><path class="cls-32" d="M143.3,265.86V266a.47.47,0,0,1-.23.41,1.48,1.48,0,0,1-1.33.15.47.47,0,0,1-.32-.36v-.18a.47.47,0,0,0,.32.36,1.48,1.48,0,0,0,1.33-.15A.47.47,0,0,0,143.3,265.86Z" transform="translate(0 -1.63)"/><path class="cls-33" d="M143,265.51a.41.41,0,0,1,.09.77,1.47,1.47,0,0,1-1.33.15.41.41,0,0,1-.09-.77A1.47,1.47,0,0,1,143,265.51Z" transform="translate(0 -1.63)"/><path class="cls-32" d="M144.15,267.65v.18a.47.47,0,0,1-.23.41,1.47,1.47,0,0,1-1.33.15.47.47,0,0,1-.32-.35v-.18a.47.47,0,0,0,.32.36,1.47,1.47,0,0,0,1.33-.15A.47.47,0,0,0,144.15,267.65Z" transform="translate(0 -1.63)"/><path class="cls-33" d="M143.83,267.3a.41.41,0,0,1,.09.77,1.47,1.47,0,0,1-1.33.15.41.41,0,0,1-.09-.77A1.47,1.47,0,0,1,143.83,267.3Z" transform="translate(0 -1.63)"/><path class="cls-32" d="M140.12,268.71v.18a.47.47,0,0,1-.23.41,1.47,1.47,0,0,1-1.33.15.47.47,0,0,1-.32-.36v-.18a.47.47,0,0,0,.32.36,1.47,1.47,0,0,0,1.33-.15A.47.47,0,0,0,140.12,268.71Z" transform="translate(0 -1.63)"/><path class="cls-33" d="M139.8,268.36a.41.41,0,0,1,.09.77,1.47,1.47,0,0,1-1.33.15.41.41,0,0,1-.09-.77A1.47,1.47,0,0,1,139.8,268.36Z" transform="translate(0 -1.63)"/><path class="cls-32" d="M142.5,269.35v.18a.47.47,0,0,1-.23.41,1.47,1.47,0,0,1-1.33.15.47.47,0,0,1-.32-.35v-.18a.47.47,0,0,0,.32.36,1.47,1.47,0,0,0,1.33-.15A.47.47,0,0,0,142.5,269.35Z" transform="translate(0 -1.63)"/><path class="cls-33" d="M142.18,269a.41.41,0,0,1,.09.77,1.47,1.47,0,0,1-1.33.15.41.41,0,0,1-.09-.77A1.47,1.47,0,0,1,142.18,269Z" transform="translate(0 -1.63)"/><path class="cls-32" d="M141.67,271v.18a.47.47,0,0,1-.23.41,1.47,1.47,0,0,1-1.33.15.47.47,0,0,1-.32-.36v-.18a.47.47,0,0,0,.32.36,1.47,1.47,0,0,0,1.33-.15A.47.47,0,0,0,141.67,271Z" transform="translate(0 -1.63)"/><path class="cls-33" d="M141.35,270.6a.41.41,0,0,1,.09.77,1.47,1.47,0,0,1-1.33.15.41.41,0,0,1-.09-.77A1.47,1.47,0,0,1,141.35,270.6Z" transform="translate(0 -1.63)"/><path class="cls-32" d="M139.93,267.05v.18a.47.47,0,0,1-.23.41,1.47,1.47,0,0,1-1.33.15.47.47,0,0,1-.32-.36v-.18a.47.47,0,0,0,.32.36,1.48,1.48,0,0,0,1.33-.15A.47.47,0,0,0,139.93,267.05Z" transform="translate(0 -1.63)"/><path class="cls-33" d="M139.61,266.7a.41.41,0,0,1,.09.77,1.48,1.48,0,0,1-1.33.15.41.41,0,0,1-.09-.77A1.48,1.48,0,0,1,139.61,266.7Z" transform="translate(0 -1.63)"/><path class="cls-32" d="M133.37,267.91v.18a.47.47,0,0,1-.23.41,1.48,1.48,0,0,1-1.33.15.47.47,0,0,1-.32-.36v-.18a.47.47,0,0,0,.32.36,1.47,1.47,0,0,0,1.33-.15A.47.47,0,0,0,133.37,267.91Z" transform="translate(0 -1.63)"/><path class="cls-33" d="M133.05,267.55a.41.41,0,0,1,.09.77,1.48,1.48,0,0,1-1.33.15.41.41,0,0,1-.09-.77A1.47,1.47,0,0,1,133.05,267.55Z" transform="translate(0 -1.63)"/><path class="cls-32" d="M132.29,269.72v.18a.47.47,0,0,1-.23.41,1.48,1.48,0,0,1-1.33.15.47.47,0,0,1-.32-.36v-.18a.47.47,0,0,0,.32.36,1.47,1.47,0,0,0,1.33-.15A.47.47,0,0,0,132.29,269.72Z" transform="translate(0 -1.63)"/><path class="cls-33" d="M132,269.37a.41.41,0,0,1,.09.77,1.47,1.47,0,0,1-1.33.15.41.41,0,0,1-.09-.77A1.47,1.47,0,0,1,132,269.37Z" transform="translate(0 -1.63)"/><path class="cls-32" d="M136,269.44v.18a.47.47,0,0,1-.23.41,1.47,1.47,0,0,1-1.33.15.47.47,0,0,1-.32-.36v-.18a.47.47,0,0,0,.32.36,1.47,1.47,0,0,0,1.33-.15A.47.47,0,0,0,136,269.44Z" transform="translate(0 -1.63)"/><path class="cls-33" d="M135.72,269.08a.41.41,0,0,1,.09.77,1.47,1.47,0,0,1-1.33.15.41.41,0,0,1-.09-.77A1.47,1.47,0,0,1,135.72,269.08Z" transform="translate(0 -1.63)"/><path class="cls-32" d="M137.5,270.8V271a.47.47,0,0,1-.23.41,1.47,1.47,0,0,1-1.33.15.47.47,0,0,1-.32-.35V271a.47.47,0,0,0,.32.36,1.47,1.47,0,0,0,1.33-.15A.47.47,0,0,0,137.5,270.8Z" transform="translate(0 -1.63)"/><path class="cls-33" d="M137.18,270.44a.41.41,0,0,1,.09.77,1.47,1.47,0,0,1-1.33.15.41.41,0,0,1-.09-.77A1.47,1.47,0,0,1,137.18,270.44Z" transform="translate(0 -1.63)"/><path class="cls-32" d="M139.31,271.88v.18a.47.47,0,0,1-.23.41,1.47,1.47,0,0,1-1.33.15.47.47,0,0,1-.32-.35v-.18a.47.47,0,0,0,.32.36,1.48,1.48,0,0,0,1.33-.15A.47.47,0,0,0,139.31,271.88Z" transform="translate(0 -1.63)"/><path class="cls-33" d="M139,271.52a.41.41,0,0,1,.09.77,1.48,1.48,0,0,1-1.33.15.41.41,0,0,1-.09-.77A1.47,1.47,0,0,1,139,271.52Z" transform="translate(0 -1.63)"/><path class="cls-32" d="M134.81,271.54v.18a.47.47,0,0,1-.23.41,1.48,1.48,0,0,1-1.33.15.48.48,0,0,1-.32-.36v-.18a.47.47,0,0,0,.32.36,1.47,1.47,0,0,0,1.33-.15A.47.47,0,0,0,134.81,271.54Z" transform="translate(0 -1.63)"/><path class="cls-33" d="M134.49,271.18a.41.41,0,0,1,.09.77,1.47,1.47,0,0,1-1.33.15.41.41,0,0,1-.09-.77A1.47,1.47,0,0,1,134.49,271.18Z" transform="translate(0 -1.63)"/><path class="cls-32" d="M134.14,265.8V266a.47.47,0,0,1-.23.41,1.47,1.47,0,0,1-1.33.15.47.47,0,0,1-.32-.36V266a.47.47,0,0,0,.32.36,1.47,1.47,0,0,0,1.33-.15A.47.47,0,0,0,134.14,265.8Z" transform="translate(0 -1.63)"/><path class="cls-33" d="M133.81,265.45a.41.41,0,0,1,.09.77,1.47,1.47,0,0,1-1.33.15.41.41,0,0,1-.09-.77A1.47,1.47,0,0,1,133.81,265.45Z" transform="translate(0 -1.63)"/><path class="cls-32" d="M136.63,267.32v.18a.47.47,0,0,1-.23.41,1.48,1.48,0,0,1-1.33.15.48.48,0,0,1-.32-.36v-.18a.47.47,0,0,0,.32.36,1.47,1.47,0,0,0,1.33-.15A.47.47,0,0,0,136.63,267.32Z" transform="translate(0 -1.63)"/><path class="cls-33" d="M136.31,267a.41.41,0,0,1,.09.77,1.47,1.47,0,0,1-1.33.15.41.41,0,0,1-.09-.77A1.47,1.47,0,0,1,136.31,267Z" transform="translate(0 -1.63)"/></g></g></g></g></svg>