<svg xmlns="http://www.w3.org/2000/svg" viewBox="0 0 14 14"><defs><linearGradient id="gradient-gift" x1=".51" y1="7.35" x2="13.68" y2="10.16" gradientTransform="matrix(1 0 0 -1 0 16)" gradientUnits="userSpaceOnUse"><stop offset="0" stop-color="#d43701"/><stop offset=".52" stop-color="#ff5e00"/><stop offset="1" stop-color="#ff9a3d"/></linearGradient></defs><path d="M10.81,4.12h2.08A1.1,1.1,0,0,1,14,5.21v.93a1.1,1.1,0,0,1-1.11,1.09H7.83V4.16H6.17V7.22H1.11A1.1,1.1,0,0,1,0,6.13V5.21A1.1,1.1,0,0,1,1.11,4.12H3.23a2.64,2.64,0,0,1-.72-.44,2.13,2.13,0,0,1,0-3,2.22,2.22,0,0,1,3.1,0,6,6,0,0,1,1,2.12,1.41,1.41,0,0,1,.81,0,6,6,0,0,1,1-2.1,2.22,2.22,0,0,1,3.1,0,2.13,2.13,0,0,1,0,3A2.57,2.57,0,0,1,10.81,4.12Zm-.88-3a1.09,1.09,0,0,0-.77.31,7.17,7.17,0,0,0-.83,2.06,1.44,1.44,0,0,1,.13.3,8,8,0,0,0,2.23-.85,1.05,1.05,0,0,0,0-1.51A1.09,1.09,0,0,0,9.94,1.11Zm-5.87,0a1.09,1.09,0,0,0-.77.31,1.05,1.05,0,0,0,0,1.51,8,8,0,0,0,2.25.85,1.48,1.48,0,0,1,.12-.28A7.25,7.25,0,0,0,4.83,1.4,1.09,1.09,0,0,0,4.06,1.09ZM.36,8.38H6.17V14H1.47A1.1,1.1,0,0,1,.36,12.91Zm7.47,0V14h4.7a1.1,1.1,0,0,0,1.11-1.09V8.38Z"/></svg>