<svg xmlns="http://www.w3.org/2000/svg" viewBox="0 0 130.46 12"><path d="M7.91,1.7a.16.16,0,0,1,0,.13v10a.14.14,0,0,1-.13.13H5.9a.14.14,0,0,1-.13-.13v-10a.16.16,0,0,1,0-.13L6.75.07C6.84,0,6.93,0,7,0ZM3.19,12a.14.14,0,0,1-.13-.13V6.55a.16.16,0,0,1,0-.13L5.08,3a.09.09,0,0,1,.17,0v8.8a.14.14,0,0,1-.13.13H3.19ZM.1,12C0,12,0,11.87,0,11.79L2.38,7.71a.09.09,0,0,1,.17,0v4.08a.14.14,0,0,1-.13.13ZM10.66,6.42a.16.16,0,0,1,0,.13v5.32a.14.14,0,0,1-.13.13H8.64a.14.14,0,0,1-.13-.13V3.07a.09.09,0,0,1,.17,0Zm.77,1.33,2.36,4.08c0,.09,0,.17-.09.17H11.39a.14.14,0,0,1-.13-.13V7.79A.09.09,0,0,1,11.43,7.75Z"/><path d="M68.29,1.7a.38.38,0,0,0-.39-.39H59.32a.38.38,0,0,0-.39.39V3.85a.38.38,0,0,0,.39.39H62v7a.38.38,0,0,0,.39.39h2.45a.38.38,0,0,0,.39-.39v-7h2.7a.38.38,0,0,0,.39-.39V1.7Z"/><path d="M52.8,11.78A5,5,0,0,0,57.3,9.42a.37.37,0,0,0-.17-.51l-2-1.16a.4.4,0,0,0-.51.13,2.21,2.21,0,0,1-4-1.46,2.09,2.09,0,0,1,2.15-2.36,2.14,2.14,0,0,1,1.8.9.41.41,0,0,0,.52.13l2-1.16a.43.43,0,0,0,.17-.51A4.92,4.92,0,0,0,52.8,1.06a5.17,5.17,0,0,0-5.41,5.36A5.14,5.14,0,0,0,52.8,11.78Z"/><path d="M42.07,6.42v4.72a.38.38,0,0,0,.39.39H44.9a.38.38,0,0,0,.39-.39V1.7a.38.38,0,0,0-.39-.39H42.46a.38.38,0,0,0-.39.39Z"/><path d="M34.65,8.61H33.23V4.23h1.42a2.08,2.08,0,0,1,2.15,2.19A2.08,2.08,0,0,1,34.65,8.61Zm0-7.34H30.4A.42.42,0,0,0,30,1.7v9.48a.38.38,0,0,0,.39.39h4.25a5.15,5.15,0,1,0,0-10.3Z"/><path d="M21.43,7.58l1-2.87,1,2.87Zm1-6.31H21a.56.56,0,0,0-.51.3l-3,7.25-.9,2.32a.31.31,0,0,0,.26.43h2.75a.5.5,0,0,0,.47-.34l.34-1h3.9l.34,1a.5.5,0,0,0,.47.34H28a.3.3,0,0,0,.26-.43L24.35,1.57a.53.53,0,0,0-.47-.3Z"/><path d="M126.82,6.38H123.3V3h3.52a1.68,1.68,0,1,1,0,3.35ZM127,1.27h-5.24a.38.38,0,0,0-.39.39v9.48a.38.38,0,0,0,.39.39h1.12a.38.38,0,0,0,.39-.39v-3H127a3.37,3.37,0,0,0,3.48-3.43A3.36,3.36,0,0,0,127,1.27Z"/><path d="M113.94,11.74c2.53,0,4.63-1.33,4.63-4.33V1.7a.38.38,0,0,0-.39-.39h-1.12a.38.38,0,0,0-.39.39V7.45c0,1.72-1.12,2.49-2.7,2.49s-2.75-.77-2.75-2.49V1.7a.38.38,0,0,0-.39-.39h-1.12a.38.38,0,0,0-.39.39V7.45C109.31,10.41,111.41,11.74,113.94,11.74Z"/><path d="M101.54,9.94A3.34,3.34,0,0,1,98,6.46a3.54,3.54,0,0,1,7.08,0A3.38,3.38,0,0,1,101.54,9.94Zm0,1.8A5.28,5.28,0,0,0,107,6.42a5.47,5.47,0,0,0-10.94,0A5.24,5.24,0,0,0,101.54,11.74Z"/><path d="M87.08,3h3.39a1.55,1.55,0,1,1,0,3.09H87.08Zm5,4.55a3.18,3.18,0,0,0,2.06-3,3.29,3.29,0,0,0-3.48-3.26H85.58a.38.38,0,0,0-.39.39v9.48a.38.38,0,0,0,.39.39h1.12a.38.38,0,0,0,.39-.39V7.84h3.09l2.27,3.39a.76.76,0,0,0,.64.34h1.24a.27.27,0,0,0,.21-.39Z"/><path d="M77.73,6.72v.39a.38.38,0,0,0,.39.39h2.4V9a4.15,4.15,0,0,1-2.83,1,3.42,3.42,0,0,1-3.73-3.52,3.34,3.34,0,0,1,3.56-3.52A3.07,3.07,0,0,1,80.3,4.36a.41.41,0,0,0,.51.13L81.76,4a.41.41,0,0,0,.17-.56,5,5,0,0,0-4.42-2.27,5.2,5.2,0,0,0-5.45,5.36c0,2.87,2.06,5.28,5.66,5.28a6,6,0,0,0,4.33-1.67.78.78,0,0,0,.26-.6V6.29a.38.38,0,0,0-.39-.39H78.16a.38.38,0,0,0-.39.39v.43Z"/></svg>