<svg width="20" height="20" viewBox="0 0 20 20" xmlns="http://www.w3.org/2000/svg"><path d="M20 3.07746L18.6008 3.01946L19.5246 1.49563L18.3729 1.48923L18.7253 0C18.7253 0 17.2096 2.02324 15.4819 2.73625C15.0016 2.93446 14.3716 3.00086 13.6622 3.00086C12.2376 3.00086 10.4925 2.73385 8.98975 2.73385C8.82762 2.73385 8.66792 2.73705 8.51228 2.74385C6.52541 2.83186 4.7025 3.69227 3.29929 5.0765C0.533804 7.80596 0.0743759 11.9474 1.91634 15.1487C1.56534 15.0433 1.12962 14.8727 0.607369 14.5937L0.21725 15.3049C0.928988 15.6851 1.51143 15.8921 1.96518 16.0025C1.44435 16.1597 0.770306 16.3121 0 16.3649L0.0567444 17.1713C0.74619 17.1241 1.36085 17.0053 1.87419 16.8697C1.45023 17.2807 0.979653 17.8682 0.55792 18.701L1.29073 19.0628C1.75584 18.1446 2.28012 17.5724 2.69293 17.2269C2.41954 17.8174 2.21405 18.7228 2.47061 20L3.27436 19.8426C3.08244 18.8876 3.19005 18.2056 3.36049 17.7456C3.82174 18.7768 4.56003 19.4896 4.60826 19.5354L5.17692 18.953C5.16821 18.9448 4.68568 18.4764 4.29698 17.786C5.78571 18.8614 7.54823 19.3994 9.31096 19.3994C11.4867 19.3994 13.6627 18.5802 15.3226 16.9419C15.3587 16.9061 15.3921 16.8677 15.4266 16.8307C15.8453 16.3845 16.2391 15.9233 16.5546 15.3993C17.6222 13.6271 17.8324 11.5414 17.6761 9.51999C17.4737 6.89014 17.2094 5.47971 20 3.07746ZM4.42587 15.3837C4.25746 15.3911 4.11823 15.3905 4.0092 15.3869C4.00778 15.3763 4.00657 15.3689 4.00495 15.3549C3.99765 15.3133 3.99137 15.2331 3.98286 15.1309C3.9786 15.0277 3.96847 14.9017 3.97029 14.7545C3.96766 14.6077 3.97211 14.4409 3.98346 14.2577C3.99015 14.0745 4.0167 13.8763 4.03838 13.6655C4.07365 13.4567 4.09716 13.2325 4.15228 13.0059C4.17721 12.8919 4.20233 12.7759 4.22787 12.6583C4.26029 12.5421 4.29333 12.4246 4.32656 12.3064C4.38574 12.066 4.482 11.8342 4.56246 11.5946C4.64818 11.357 4.75884 11.1298 4.8551 10.8982C4.96393 10.6736 5.08289 10.4574 5.19212 10.2436C5.31128 10.0358 5.43876 9.8416 5.55407 9.65239C5.66472 9.45979 5.80253 9.30139 5.91278 9.14158C6.0293 8.98678 6.12719 8.83598 6.2346 8.72037C6.33795 8.59977 6.42773 8.49517 6.5017 8.40877C6.65066 8.23536 6.73557 8.13616 6.73557 8.13616C6.73557 8.13616 6.63708 8.22196 6.46441 8.37217C6.37747 8.44757 6.27229 8.53917 6.15151 8.64397C6.02566 8.74518 5.90649 8.88038 5.76605 9.01918C5.63169 9.16318 5.46693 9.30559 5.32648 9.48319C5.18138 9.65739 5.02087 9.8374 4.86685 10.0332C4.72256 10.235 4.56631 10.4412 4.41837 10.6582C4.28279 10.8822 4.1314 11.1048 4.00434 11.3406C3.88193 11.5786 3.74392 11.8116 3.64279 12.0568C3.58828 12.178 3.53457 12.2984 3.48107 12.4176C3.43487 12.5394 3.38927 12.6603 3.34407 12.7789C3.24862 13.0153 3.1858 13.2535 3.11345 13.4765C3.07008 13.6453 3.02833 13.8047 2.99226 13.9595C1.7682 11.3996 2.22601 8.24496 4.3675 6.13152C5.53826 4.9763 7.03429 4.30229 8.57977 4.23368C8.70704 4.22828 8.84525 4.22528 8.98975 4.22528C9.6873 4.22528 10.487 4.29169 11.2599 4.35609C12.0641 4.42289 12.8954 4.49229 13.6618 4.49229C13.7711 4.49229 13.8759 4.49029 13.9792 4.48749C13.9545 4.50309 13.9302 4.51769 13.9052 4.53349C13.7399 4.63069 13.5696 4.72889 13.3978 4.8231C13.2233 4.9101 13.0512 5.0087 12.8747 5.0857C12.6982 5.1633 12.5261 5.2505 12.3527 5.31231C12.18 5.37711 12.0142 5.44931 11.8507 5.49491C11.6879 5.54251 11.5349 5.60151 11.3896 5.63151C11.2437 5.66551 11.1098 5.69631 10.9914 5.72411C10.8718 5.74831 10.7663 5.75851 10.6793 5.77252C10.5042 5.79752 10.4043 5.81172 10.4043 5.81172C10.4043 5.81172 10.505 5.81672 10.6817 5.82572C10.7705 5.82872 10.8787 5.83872 11.0028 5.83812C11.127 5.83392 11.2676 5.82872 11.4206 5.82332C11.5753 5.82132 11.7384 5.79272 11.9149 5.77632C12.0923 5.76172 12.2736 5.72211 12.4647 5.68971C12.6573 5.66051 12.8486 5.60671 13.0478 5.56171C13.2472 5.51671 13.4422 5.45091 13.6432 5.39571C13.8404 5.33291 14.0364 5.26591 14.2297 5.1981C14.4188 5.1237 14.6105 5.0579 14.7884 4.9795C15.0578 4.8695 15.3093 4.7545 15.5364 4.64549C15.3593 4.9391 15.1635 5.26271 14.9516 5.61471C14.7151 6.00232 14.4561 6.41773 14.1788 6.85354C13.8971 7.28615 13.6002 7.74215 13.293 8.21416C12.9904 8.68797 12.6777 9.17738 12.36 9.67499C12.0462 10.1784 11.7212 10.664 11.3712 11.1358C11.0137 11.6014 10.6398 12.053 10.2381 12.465C9.8324 12.8727 9.40763 13.2455 8.97657 13.5763C8.54734 13.9097 8.09987 14.1853 7.66638 14.4207C7.23249 14.6559 6.80589 14.8419 6.4022 14.9785C5.99951 15.1161 5.6252 15.2185 5.2898 15.2779C4.95501 15.3389 4.66338 15.3717 4.42587 15.3837ZM6.23885 16.5245C6.07166 16.5109 5.91582 16.4947 5.76909 16.4773C6.10753 16.3555 6.47353 16.2111 6.85372 16.0231C7.28376 15.8105 7.73468 15.5575 8.18539 15.2569C8.63712 14.9573 9.08135 14.6023 9.52092 14.2193C9.95805 13.8333 10.3804 13.4067 10.7772 12.9485C11.1724 12.4896 11.5507 12.0074 11.8997 11.5062C12.2451 11.0032 12.5557 10.4754 12.8593 9.9762C13.1621 9.47019 13.4661 8.97958 13.767 8.50957C14.068 8.03956 14.359 7.58375 14.6579 7.16794C14.9532 6.74954 15.2523 6.36893 15.5385 6.02632C15.5431 6.02112 15.5476 6.01612 15.552 6.01072C15.4499 6.24433 15.35 6.49293 15.2572 6.76013C15.093 7.23814 14.9503 7.76456 14.8395 8.32197C14.7307 8.87938 14.6342 9.46219 14.5315 10.0516C14.422 10.6398 14.2822 11.2308 14.0692 11.8006C13.963 12.0868 13.8378 12.3612 13.6916 12.6373C13.6169 12.7851 13.5427 12.9083 13.4651 13.0429C13.383 13.1743 13.3017 13.3065 13.2128 13.4333C12.8638 13.9455 12.4552 14.4135 12.0019 14.8139C11.5497 15.2153 11.0496 15.5437 10.5354 15.7969C10.0231 16.0549 9.49376 16.2333 8.97941 16.3493C8.46547 16.4665 7.96753 16.5315 7.50486 16.5487C7.04179 16.5675 6.616 16.5551 6.23885 16.5245ZM15.2558 14.6375C14.9878 15.0825 14.6314 15.4837 14.3144 15.8215L14.2729 15.8665C14.2643 15.8759 14.256 15.8851 14.2473 15.8943C12.9278 17.1931 11.1752 17.9084 9.31096 17.9084C8.6965 17.9084 8.0944 17.8292 7.5156 17.6782C7.5456 17.6748 7.57458 17.6726 7.60457 17.6688C8.11892 17.6018 8.67562 17.5026 9.24733 17.3303C9.81882 17.1593 10.4069 16.9229 10.9742 16.6039C11.5435 16.2895 12.0837 15.8835 12.5728 15.4177C13.0624 14.9515 13.4942 14.4169 13.8542 13.8439C14.2119 13.2703 14.5205 12.6687 14.7388 12.0364C14.9587 11.4074 15.0865 10.7708 15.1905 10.1672C15.2999 9.56419 15.3784 8.98898 15.5026 8.46037C15.6234 7.93136 15.7683 7.44495 15.9511 7.01614C15.9971 6.90314 16.0449 6.79474 16.0942 6.68913C16.0021 7.51975 16.0678 8.35857 16.1404 9.26558C16.1501 9.38559 16.16 9.50819 16.1697 9.63359C16.3298 11.7134 16.0311 13.3503 15.2558 14.6375Z"/></svg>