<svg xmlns="http://www.w3.org/2000/svg" viewBox="0 0 100.02 120.25"><defs><style>.icon-label-new{fill:#fff}</style><linearGradient id="lg-icon-label-new" y1="61.92" x2="100.02" y2="61.92" gradientTransform="matrix(1 0 0 -1 0 122.05)" gradientUnits="userSpaceOnUse"><stop offset="0" stop-color="#d43701"/><stop offset="1" stop-color="#ff9a3d"/></linearGradient></defs><path d="M85.37,14.66A50,50,0,1,0,37.08,98.3a49.78,49.78,0,0,0,12.14,21.61,1.14,1.14,0,0,0,1.61,0L85.37,85.37A50,50,0,0,0,85.37,14.66Z" fill="url(#lg-icon-label-new)"/><path class="icon-label-new" fill="#fff" d="M30.81,39.25v27.3H26.72L15,49.86V66.55H9.64V39.25h4.09L25.43,55.9V39.25Z"/><path class="icon-label-new" fill="#fff" d="M53.82,61.4v5.15H36.94V39.25H53.63v5.14H42.32v5.82H52.65v5.07H42.32V61.4Z"/><path class="icon-label-new" fill="#fff" d="M56.56,39.25h5.66l5.23,20.24,5.69-20.24h4.6l5.74,20.24L88.7,39.25h5.66l-7.65,27.3H80.59l-5.15-18-5.11,18H64.21Z"/></svg>