<svg width="34" height="38" viewBox="0 0 34 38" fill="none" xmlns="http://www.w3.org/2000/svg"><path d="M17.0045 9.29018C15.2931 9.29018 13.71 9.7251 12.2553 10.5949C10.8006 11.4648 9.6487 12.6448 8.79958 14.135C7.95046 15.6252 7.5259 17.2468 7.5259 19C7.5259 20.7532 7.95046 22.3748 8.79958 23.865C9.6487 25.3552 10.8006 26.5352 12.2553 27.4051C13.71 28.2749 15.2931 28.7098 17.0045 28.7098C18.7159 28.7098 20.2989 28.2749 21.7536 27.4051C23.2083 26.5352 24.3602 25.3552 25.2094 23.865C26.0585 22.3748 26.483 20.7532 26.483 19C26.483 17.2468 26.0585 15.6252 25.2094 14.135C24.3602 12.6448 23.2083 11.4648 21.7536 10.5949C20.2989 9.7251 18.7159 9.29018 17.0045 9.29018ZM33.8487 24.6034C33.8487 24.6843 33.8026 24.7652 33.7104 24.8461C33.6183 24.927 33.5327 24.981 33.4537 25.008L27.6679 26.9701V33.1602C27.6679 33.3759 27.5823 33.5512 27.4111 33.6861C27.2268 33.8075 27.036 33.8344 26.8385 33.767L21.0724 31.8655L17.5179 36.8823C17.3994 37.0441 17.2283 37.125 17.0045 37.125C16.7807 37.125 16.6095 37.0441 16.491 36.8823L12.9366 31.8655L7.17045 33.767C6.97298 33.8344 6.78209 33.8075 6.59779 33.6861C6.43981 33.5782 6.34766 33.4029 6.32133 33.1602V26.9701L0.555203 25.008C0.344568 24.9405 0.212921 24.8057 0.160263 24.6034C0.0944391 24.3876 0.120768 24.1921 0.239251 24.0167L3.79371 19L0.239251 13.9833C0.120768 13.8079 0.0944391 13.6124 0.160263 13.3966C0.212921 13.1943 0.344568 13.0595 0.555203 12.992L6.32133 11.0299V4.83984C6.34766 4.5971 6.43981 4.42178 6.59779 4.31389C6.78209 4.19252 6.97298 4.16555 7.17045 4.23298L12.9366 6.13449L16.491 1.11775C16.6095 0.955915 16.7807 0.875 17.0045 0.875C17.2283 0.875 17.3994 0.955915 17.5179 1.11775L21.0724 6.13449L26.8385 4.23298C27.036 4.16555 27.2268 4.19252 27.4111 4.31389C27.5823 4.44875 27.6679 4.62407 27.6679 4.83984V11.0299L33.4537 12.992C33.5327 13.019 33.6183 13.073 33.7104 13.1539C33.8026 13.2348 33.8487 13.3157 33.8487 13.3966C33.9013 13.5989 33.875 13.7945 33.7697 13.9833L30.1955 19L33.7697 24.0167C33.875 24.2055 33.9013 24.4011 33.8487 24.6034ZM28.3787 19C28.3787 16.8827 27.8719 14.9306 26.8582 13.1438C25.8445 11.3569 24.4655 9.94424 22.7212 8.90583C20.9769 7.86742 19.0713 7.34821 17.0045 7.34821C14.9376 7.34821 13.032 7.86742 11.2877 8.90583C9.54339 9.94424 8.16439 11.3569 7.15071 13.1438C6.13703 14.9306 5.63019 16.8827 5.63019 19C5.63019 20.5913 5.93297 22.1085 6.53855 23.5515C7.14412 24.9945 7.95375 26.2352 8.96743 27.2736C9.98111 28.312 11.189 29.138 12.591 29.7516C13.993 30.3652 15.4642 30.672 17.0045 30.672C19.0845 30.672 20.9967 30.1494 22.741 29.1043C24.4853 28.0591 25.861 26.6431 26.8681 24.8562C27.8752 23.0694 28.3787 21.1173 28.3787 19Z" fill="#fff"/></svg>