<svg width="17" height="16" viewBox="0 0 17 16" xmlns="http://www.w3.org/2000/svg"><path d="M15.7924 5.75795C16.359 5.15358 16.3283 4.20433 15.724 3.63773C15.1196 3.07114 14.1703 3.10177 13.6038 3.70614L15.7924 5.75795ZM7.19811 12.7321L6.20162 13.8533C6.80923 14.3933 7.73644 14.3511 8.29243 13.758L7.19811 12.7321ZM3.69449 7.61126C3.07529 7.06091 2.12718 7.11673 1.57684 7.73593C1.02649 8.35514 1.08231 9.30324 1.70151 9.85359L3.69449 7.61126ZM13.6038 3.70614L6.1038 11.7062L8.29243 13.758L15.7924 5.75795L13.6038 3.70614ZM8.1946 11.611L3.69449 7.61126L1.70151 9.85359L6.20162 13.8533L8.1946 11.611Z"/></svg>