<svg width="22" height="19" viewBox="0 0 22 19" xmlns="http://www.w3.org/2000/svg"><path d="M20.9914 1.19508C20.5507 0.758614 19.846 0.767453 19.4168 1.21574C18.9876 1.66397 18.9963 2.38064 19.4371 2.81711C19.4407 2.82081 19.8054 3.25137 19.7706 4.07492C19.7552 4.43864 19.6488 4.9746 19.3075 5.66673C19.6642 5.86805 19.9947 6.10992 20.2847 6.39887C20.5471 6.66049 20.7732 6.95809 20.9673 7.28109C21.598 6.21423 21.9534 5.17466 21.9956 4.17152C22.0738 2.32314 21.1024 1.30494 20.9914 1.19508Z"/><path d="M16.7823 6.53247C15.3012 6.53247 13.7279 7.2845 12.8695 8.50099C8.4716 14.7392 4.02171 15.0592 1.68148 15.0592C1.41389 15.0592 1.17393 15.0548 0.965149 15.0548C0.150986 15.0548 -0.197003 15.1181 0.111118 15.7368C0.841111 17.2039 4.17107 18.9999 8.2614 18.9999C11.5558 18.9999 15.3431 17.8343 18.66 14.3927C20.3332 12.6571 20.951 9.17784 19.245 7.47689C18.5896 6.82372 17.7037 6.53247 16.7823 6.53247Z"/><path d="M2.85464 12.0664C2.77105 10.9647 2.97314 8.4655 6.20212 7.05819C6.20212 7.05819 5.00338 10.0066 6.62701 11.4984C7.80499 10.5634 8.63361 9.03636 8.71862 7.55951C8.96293 3.29946 6.03826 1.05737 4.13946 0.0583807C3.94522 -0.0441292 3.7081 -0.00949321 3.55085 0.145377C3.39279 0.29948 3.35 0.539045 3.44282 0.740367C4.17645 2.32411 4.67016 5.15745 1.53173 8.45526C0.573532 9.46151 1.3543 11.3126 2.85464 12.0664Z"/></svg>