<svg xmlns="http://www.w3.org/2000/svg" viewBox="0 0 100.02 120.25"><defs><style>.icon-label-veg{fill:#fff}</style><linearGradient id="lg-icon-label-veg" y1="61.92" x2="100.02" y2="61.92" gradientTransform="matrix(1 0 0 -1 0 122.05)" gradientUnits="userSpaceOnUse"><stop offset="0" stop-color="#7da204"/><stop offset="1" stop-color="#badd1d"/></linearGradient></defs><path d="M85.37,14.66A50,50,0,1,0,37.08,98.3a49.78,49.78,0,0,0,12.14,21.61,1.14,1.14,0,0,0,1.61,0L85.37,85.37A50,50,0,0,0,85.37,14.66Z" fill="url(#lg-icon-label-veg)"/><path class="icon-label-veg" fill="#fff" d="M11.77,39.25h5.85l6.67,21,6.63-21h5.89L27.6,66.55H20.94Z"/><path class="icon-label-veg" fill="#fff" d="M56.93,61.4v5.15H40V39.25h16.7V44.4H45.43v5.81H55.76v5.07H45.43V61.4Z"/><path class="icon-label-veg" fill="#fff" d="M88.27,54c0,7.88-5.58,13.1-13.42,13.1-8.54,0-14.62-6.35-14.62-14.15A14.09,14.09,0,0,1,74.14,38.7h.4A13.85,13.85,0,0,1,86.44,45l-4.61,2.65a8.34,8.34,0,0,0-7.33-3.78,8.68,8.68,0,0,0-8.93,8.42q0,.29,0,.58c0,5.07,3.63,8.89,9.32,8.89,4.29,0,7-2.07,8-5.19H74.58V51.88H88.27Z"/></svg>