<svg width="22" height="21" viewBox="0 0 22 21" fill="none" xmlns="http://www.w3.org/2000/svg"><path d="M13.0918 17.1641C13.2843 17.1641 13.4404 17.008 13.4404 16.8155C13.4404 16.6229 13.2843 16.4669 13.0918 16.4669C12.8992 16.4669 12.7432 16.6229 12.7432 16.8155C12.7432 17.008 12.8992 17.1641 13.0918 17.1641Z" fill="#FF5E00"/><path d="M13.4404 18.5586C13.633 18.5586 13.789 18.4025 13.789 18.21C13.789 18.0174 13.633 17.8614 13.4404 17.8614C13.2479 17.8614 13.0918 18.0174 13.0918 18.21C13.0918 18.4025 13.2479 18.5586 13.4404 18.5586Z" fill="#FF5E00"/><path d="M12.046 18.21C12.2385 18.21 12.3946 18.0539 12.3946 17.8614C12.3946 17.6688 12.2385 17.5127 12.046 17.5127C11.8534 17.5127 11.6973 17.6688 11.6973 17.8614C11.6973 18.0539 11.8534 18.21 12.046 18.21Z" fill="#FF5E00"/><mask id="path-4-inside-1" fill="#fff"><path d="M16.2236 2.68037C14.3046 1.88324 12.2467 1.47391 10.1687 1.47596C9.37696 1.47565 8.58628 1.53334 7.80299 1.64857C7.65641 1.18272 7.36155 0.777568 6.96334 0.494852C6.56513 0.212136 6.08541 0.0673597 5.59728 0.0825864L0.878984 0.231014C0.809336 0.233192 0.741939 0.256193 0.68549 0.297047C0.62904 0.3379 0.586129 0.394733 0.562292 0.460211C0.538455 0.52569 0.534787 0.596809 0.551761 0.664392C0.568736 0.731975 0.605573 0.792921 0.65752 0.839365L3.3303 3.22919V3.56771H2.28442C2.19196 3.56771 2.10329 3.60444 2.03791 3.66982C1.97253 3.7352 1.9358 3.82387 1.9358 3.91633V4.26496H0.889923C0.797461 4.26496 0.708787 4.30169 0.643407 4.36707C0.578027 4.43245 0.541297 4.52112 0.541297 4.61358V8.09984C0.541297 8.1923 0.578027 8.28097 0.643407 8.34635C0.708787 8.41173 0.797461 8.44846 0.889923 8.44846H1.9358V8.79709C1.9358 8.88955 1.97253 8.97822 2.03791 9.0436C2.10329 9.10898 2.19196 9.14571 2.28442 9.14571H3.3303V9.48423L0.65752 11.8741C0.605573 11.9205 0.568736 11.9814 0.551761 12.049C0.534787 12.1166 0.538455 12.1877 0.562292 12.2532C0.586129 12.3187 0.62904 12.3755 0.68549 12.4164C0.741939 12.4572 0.809336 12.4802 0.878984 12.4824L5.59728 12.6308C5.62103 12.6316 5.64461 12.6319 5.66823 12.6319C6.14432 12.6312 6.60781 12.4789 6.99159 12.1972C7.37538 11.9154 7.65953 11.5188 7.8029 11.0649C8.28363 11.1357 8.7683 11.1847 9.25693 11.2119V12.632H8.21106C8.1186 12.632 8.02992 12.6687 7.96454 12.7341C7.89916 12.7995 7.86243 12.8881 7.86243 12.9806V20.6504C7.86243 20.7428 7.89916 20.8315 7.96454 20.8969C8.02992 20.9622 8.1186 20.999 8.21106 20.999H15.8808C15.9733 20.999 16.062 20.9622 16.1273 20.8969C16.1927 20.8315 16.2294 20.7428 16.2294 20.6504V12.9806C16.2294 12.8881 16.1927 12.7995 16.1273 12.7341C16.062 12.6687 15.9733 12.632 15.8808 12.632H14.8349V10.5338C15.3033 10.3888 15.7662 10.2219 16.2236 10.0331C18.1442 9.2398 19.8888 8.0742 21.3567 6.60345C21.3891 6.57108 21.4148 6.53264 21.4323 6.49035C21.4498 6.44805 21.4588 6.40271 21.4588 6.35693C21.4588 6.31114 21.4498 6.26581 21.4323 6.22351C21.4148 6.18121 21.3891 6.14278 21.3567 6.11041C19.8888 4.6395 18.1442 3.47375 16.2236 2.68037ZM15.8808 3.29412V9.4193C14.0679 10.1611 12.1275 10.5419 10.1687 10.5402C8.05582 10.5431 5.96514 10.1096 4.02755 9.26708V3.44634C5.96514 2.60378 8.05582 2.17035 10.1687 2.17321C12.1275 2.17151 14.0679 2.55227 15.8808 3.29412ZM5.61916 0.779663C5.9389 0.769585 6.25385 0.859238 6.52035 1.03619C6.78685 1.21315 6.9917 1.46863 7.10648 1.76723C5.99025 1.98295 4.90005 2.3165 3.8542 2.76225L1.77203 0.900723L5.61916 0.779663ZM1.23855 7.75121V4.96221H1.9358V7.75121H1.23855ZM2.63305 8.44846V4.26496H3.3303V8.44846H2.63305ZM5.61916 11.9339L1.77203 11.8129L3.8542 9.95117C4.89997 10.3969 5.99007 10.7305 7.10622 10.9463C6.9913 11.2447 6.78646 11.5001 6.52005 11.677C6.25364 11.854 5.93882 11.9437 5.61916 11.9339ZM15.5322 20.3017H8.55968V13.3292H15.5322V20.3017ZM14.1377 12.632H9.95418V11.2361C10.0256 11.237 10.0971 11.2374 10.1687 11.2375C11.5078 11.2383 12.8415 11.0684 14.1377 10.732V12.632ZM16.5781 9.11521V3.59821C18.064 4.29149 19.4265 5.22331 20.6114 6.35671C19.4265 7.49011 18.064 8.42193 16.5781 9.11521Z"/></mask><path d="M16.2236 2.68037C14.3046 1.88324 12.2467 1.47391 10.1687 1.47596C9.37696 1.47565 8.58628 1.53334 7.80299 1.64857C7.65641 1.18272 7.36155 0.777568 6.96334 0.494852C6.56513 0.212136 6.08541 0.0673597 5.59728 0.0825864L0.878984 0.231014C0.809336 0.233192 0.741939 0.256193 0.68549 0.297047C0.62904 0.3379 0.586129 0.394733 0.562292 0.460211C0.538455 0.52569 0.534787 0.596809 0.551761 0.664392C0.568736 0.731975 0.605573 0.792921 0.65752 0.839365L3.3303 3.22919V3.56771H2.28442C2.19196 3.56771 2.10329 3.60444 2.03791 3.66982C1.97253 3.7352 1.9358 3.82387 1.9358 3.91633V4.26496H0.889923C0.797461 4.26496 0.708787 4.30169 0.643407 4.36707C0.578027 4.43245 0.541297 4.52112 0.541297 4.61358V8.09984C0.541297 8.1923 0.578027 8.28097 0.643407 8.34635C0.708787 8.41173 0.797461 8.44846 0.889923 8.44846H1.9358V8.79709C1.9358 8.88955 1.97253 8.97822 2.03791 9.0436C2.10329 9.10898 2.19196 9.14571 2.28442 9.14571H3.3303V9.48423L0.65752 11.8741C0.605573 11.9205 0.568736 11.9814 0.551761 12.049C0.534787 12.1166 0.538455 12.1877 0.562292 12.2532C0.586129 12.3187 0.62904 12.3755 0.68549 12.4164C0.741939 12.4572 0.809336 12.4802 0.878984 12.4824L5.59728 12.6308C5.62103 12.6316 5.64461 12.6319 5.66823 12.6319C6.14432 12.6312 6.60781 12.4789 6.99159 12.1972C7.37538 11.9154 7.65953 11.5188 7.8029 11.0649C8.28363 11.1357 8.7683 11.1847 9.25693 11.2119V12.632H8.21106C8.1186 12.632 8.02992 12.6687 7.96454 12.7341C7.89916 12.7995 7.86243 12.8881 7.86243 12.9806V20.6504C7.86243 20.7428 7.89916 20.8315 7.96454 20.8969C8.02992 20.9622 8.1186 20.999 8.21106 20.999H15.8808C15.9733 20.999 16.062 20.9622 16.1273 20.8969C16.1927 20.8315 16.2294 20.7428 16.2294 20.6504V12.9806C16.2294 12.8881 16.1927 12.7995 16.1273 12.7341C16.062 12.6687 15.9733 12.632 15.8808 12.632H14.8349V10.5338C15.3033 10.3888 15.7662 10.2219 16.2236 10.0331C18.1442 9.2398 19.8888 8.0742 21.3567 6.60345C21.3891 6.57108 21.4148 6.53264 21.4323 6.49035C21.4498 6.44805 21.4588 6.40271 21.4588 6.35693C21.4588 6.31114 21.4498 6.26581 21.4323 6.22351C21.4148 6.18121 21.3891 6.14278 21.3567 6.11041C19.8888 4.6395 18.1442 3.47375 16.2236 2.68037ZM15.8808 3.29412V9.4193C14.0679 10.1611 12.1275 10.5419 10.1687 10.5402C8.05582 10.5431 5.96514 10.1096 4.02755 9.26708V3.44634C5.96514 2.60378 8.05582 2.17035 10.1687 2.17321C12.1275 2.17151 14.0679 2.55227 15.8808 3.29412ZM5.61916 0.779663C5.9389 0.769585 6.25385 0.859238 6.52035 1.03619C6.78685 1.21315 6.9917 1.46863 7.10648 1.76723C5.99025 1.98295 4.90005 2.3165 3.8542 2.76225L1.77203 0.900723L5.61916 0.779663ZM1.23855 7.75121V4.96221H1.9358V7.75121H1.23855ZM2.63305 8.44846V4.26496H3.3303V8.44846H2.63305ZM5.61916 11.9339L1.77203 11.8129L3.8542 9.95117C4.89997 10.3969 5.99007 10.7305 7.10622 10.9463C6.9913 11.2447 6.78646 11.5001 6.52005 11.677C6.25364 11.854 5.93882 11.9437 5.61916 11.9339ZM15.5322 20.3017H8.55968V13.3292H15.5322V20.3017ZM14.1377 12.632H9.95418V11.2361C10.0256 11.237 10.0971 11.2374 10.1687 11.2375C11.5078 11.2383 12.8415 11.0684 14.1377 10.732V12.632ZM16.5781 9.11521V3.59821C18.064 4.29149 19.4265 5.22331 20.6114 6.35671C19.4265 7.49011 18.064 8.42193 16.5781 9.11521Z" fill="#FF5E00"/><path d="M10.1687 1.47596L10.1668 6.47596L10.1736 6.47595L10.1687 1.47596ZM7.80299 1.64857L3.03352 3.14929L4.31305 7.21577L8.53068 6.59533L7.80299 1.64857ZM5.59728 0.0825864L5.44139 -4.91498L5.44007 -4.91494L5.59728 0.0825864ZM0.878984 0.231014L1.03532 5.22857L1.0362 5.22854L0.878984 0.231014ZM0.65752 0.839365L3.99025 -2.88796L3.99011 -2.88808L0.65752 0.839365ZM3.3303 3.22919H8.3303V0.992638L6.66303 -0.498128L3.3303 3.22919ZM3.3303 3.56771V8.56771H8.3303V3.56771H3.3303ZM1.9358 4.26496V9.26496H6.9358V4.26496H1.9358ZM0.541297 4.61358H-4.4587H0.541297ZM0.541297 8.09984H-4.4587H0.541297ZM1.9358 8.44846H6.9358V3.44846H1.9358V8.44846ZM3.3303 9.14571H8.3303V4.14571H3.3303V9.14571ZM3.3303 9.48423L6.66303 13.2115L8.3303 11.7208V9.48423H3.3303ZM0.65752 11.8741L3.99011 15.6015L3.99025 15.6014L0.65752 11.8741ZM0.878984 12.4824L1.0362 7.48488L1.03532 7.48485L0.878984 12.4824ZM5.59728 12.6308L5.44007 17.6284L5.44139 17.6284L5.59728 12.6308ZM5.66823 12.6319V17.6319L5.67622 17.6319L5.66823 12.6319ZM7.8029 11.0649L8.53172 6.11826L4.31775 5.49738L3.03502 9.55911L7.8029 11.0649ZM9.25693 11.2119H14.2569V6.48241L9.53476 6.21961L9.25693 11.2119ZM9.25693 12.632V17.632H14.2569V12.632H9.25693ZM14.8349 12.632H9.83494V17.632H14.8349V12.632ZM14.8349 10.5338L13.3566 5.75732L9.83494 6.84732V10.5338H14.8349ZM16.2236 10.0331L18.1317 14.6547L18.1323 14.6544L16.2236 10.0331ZM21.3567 6.60345L17.8213 3.06782L17.8178 3.07129L21.3567 6.60345ZM21.3567 6.11041L17.8176 9.64234L17.8213 9.64603L21.3567 6.11041ZM15.8808 9.4193L17.7744 14.0469L20.8808 12.7757V9.4193H15.8808ZM10.1687 10.5402L10.173 5.5402L10.1619 5.54022L10.1687 10.5402ZM4.02755 9.26708H-0.972449V12.5451L2.03365 13.8523L4.02755 9.26708ZM4.02755 3.44634L2.03366 -1.13889L-0.972449 0.168314V3.44634H4.02755ZM10.1687 2.17321L10.1619 7.17321L10.173 7.1732L10.1687 2.17321ZM5.61916 0.779663L5.77642 5.77719L5.77668 5.77718L5.61916 0.779663ZM7.10648 1.76723L8.05523 6.67639L13.915 5.54394L11.7735 -0.0268152L7.10648 1.76723ZM3.8542 2.76225L0.521676 6.48976L2.89097 8.60799L5.81462 7.3619L3.8542 2.76225ZM1.77203 0.900723L1.61477 -4.0968L-10.8799 -3.70363L-1.56049 4.62823L1.77203 0.900723ZM1.23855 7.75121H-3.76145V12.7512H1.23855V7.75121ZM1.23855 4.96221V-0.0377912H-3.76145V4.96221H1.23855ZM1.9358 4.96221H6.9358V-0.0377912H1.9358V4.96221ZM1.9358 7.75121V12.7512H6.9358V7.75121H1.9358ZM2.63305 8.44846H-2.36695V13.4485H2.63305V8.44846ZM2.63305 4.26496V-0.735042H-2.36695V4.26496H2.63305ZM3.3303 4.26496H8.3303V-0.735042H3.3303V4.26496ZM3.3303 8.44846V13.4485H8.3303V8.44846H3.3303ZM1.77203 11.8129L-1.56071 8.0856L-10.8791 16.4176L1.61488 16.8104L1.77203 11.8129ZM3.8542 9.95117L5.8148 5.3516L2.89089 4.10526L0.52146 6.22386L3.8542 9.95117ZM7.10622 10.9463L11.7723 12.7429L13.9179 7.17053L8.05524 6.03717L7.10622 10.9463ZM15.5322 20.3017V25.3017H20.5322V20.3017H15.5322ZM8.55968 20.3017H3.55968V25.3017H8.55968V20.3017ZM8.55968 13.3292V8.32922H3.55968V13.3292H8.55968ZM15.5322 13.3292H20.5322V8.32922H15.5322V13.3292ZM14.1377 12.632V17.632H19.1377V12.632H14.1377ZM9.95418 12.632H4.95418V17.632H9.95418V12.632ZM9.95418 11.2361L10.0172 6.23647L4.95418 6.17264V11.2361H9.95418ZM10.1687 11.2375L10.1719 6.23747L10.1707 6.23747L10.1687 11.2375ZM14.1377 10.732H19.1377V4.26818L12.8813 5.89238L14.1377 10.732ZM16.5781 3.59821L18.6921 -0.932898L11.5781 -4.25197V3.59821H16.5781ZM20.6114 6.35671L24.0675 9.96997L27.8451 6.35671L24.0675 2.74345L20.6114 6.35671ZM18.1416 -1.93713C15.6131 -2.98741 12.9017 -3.52674 10.1637 -3.52404L10.1736 6.47595C11.5917 6.47455 12.996 6.7539 14.3056 7.29787L18.1416 -1.93713ZM10.1706 -3.52404C9.1347 -3.52444 8.10017 -3.44896 7.0753 -3.2982L8.53068 6.59533C9.07239 6.51564 9.61921 6.47574 10.1668 6.47595L10.1706 -3.52404ZM12.5725 0.147846C12.0986 -1.35824 11.1453 -2.6681 9.85786 -3.58213L4.06882 4.57183C3.57782 4.22324 3.21426 3.72368 3.03352 3.14929L12.5725 0.147846ZM9.85786 -3.58213C8.57044 -4.49615 7.0195 -4.96421 5.44139 -4.91498L5.75317 5.08016C5.15131 5.09893 4.55981 4.92042 4.06882 4.57183L9.85786 -3.58213ZM5.44007 -4.91494L0.721773 -4.76651L1.0362 5.22854L5.75449 5.08011L5.44007 -4.91494ZM0.722645 -4.76654C-0.345899 -4.73311 -1.37991 -4.38024 -2.24596 -3.75346L3.61694 4.34755C2.86379 4.89263 1.96457 5.1995 1.03532 5.22857L0.722645 -4.76654ZM-2.24596 -3.75346C-3.11201 -3.12668 -3.77036 -2.25475 -4.13607 -1.25018L5.26065 2.1706C4.94262 3.04422 4.37009 3.80248 3.61694 4.34755L-2.24596 -3.75346ZM-4.13607 -1.25018C-4.50177 -0.24561 -4.55804 0.845501 -4.29762 1.88236L5.40115 -0.553581C5.62762 0.348116 5.57868 1.29699 5.26065 2.1706L-4.13607 -1.25018ZM-4.29762 1.88236C-4.03721 2.91923 -3.47204 3.85426 -2.67507 4.56681L3.99011 -2.88808C4.68319 -2.26842 5.17468 -1.45528 5.40115 -0.553581L-4.29762 1.88236ZM-2.67521 4.56669L-0.00242847 6.95651L6.66303 -0.498128L3.99025 -2.88796L-2.67521 4.56669ZM-1.6697 3.22919V3.56771H8.3303V3.22919H-1.6697ZM3.3303 -1.43229H2.28442V8.56771H3.3303V-1.43229ZM2.28442 -1.43229C0.865877 -1.43229 -0.494565 -0.868776 -1.49762 0.134283L5.57344 7.20535C4.70114 8.07765 3.51805 8.56771 2.28442 8.56771V-1.43229ZM-1.49762 0.134283C-2.50068 1.13734 -3.0642 2.49779 -3.0642 3.91633H6.9358C6.9358 5.14996 6.44574 6.33305 5.57344 7.20535L-1.49762 0.134283ZM-3.0642 3.91633V4.26496H6.9358V3.91633H-3.0642ZM1.9358 -0.735042H0.889923V9.26496H1.9358V-0.735042ZM0.889923 -0.735042C-0.528623 -0.735042 -1.88907 -0.171526 -2.89213 0.831534L4.17894 7.9026C3.30664 8.7749 2.12355 9.26496 0.889923 9.26496V-0.735042ZM-2.89213 0.831534C-3.89519 1.8346 -4.4587 3.19504 -4.4587 4.61358H5.5413C5.5413 5.84721 5.05124 7.0303 4.17894 7.9026L-2.89213 0.831534ZM-4.4587 4.61358V8.09984H5.5413V4.61358H-4.4587ZM-4.4587 8.09984C-4.4587 9.51838 -3.89519 10.8788 -2.89213 11.8819L4.17894 4.81082C5.05125 5.68312 5.5413 6.86622 5.5413 8.09984H-4.4587ZM-2.89213 11.8819C-1.88906 12.885 -0.528611 13.4485 0.889923 13.4485V3.44846C2.12353 3.44846 3.30663 3.93851 4.17894 4.81082L-2.89213 11.8819ZM0.889923 13.4485H1.9358V3.44846H0.889923V13.4485ZM-3.0642 8.44846V8.79709H6.9358V8.44846H-3.0642ZM-3.0642 8.79709C-3.0642 10.2156 -2.50069 11.5761 -1.49762 12.5791L5.57344 5.50807C6.44575 6.38037 6.9358 7.56347 6.9358 8.79709H-3.0642ZM-1.49762 12.5791C-0.494557 13.5822 0.865889 14.1457 2.28442 14.1457V4.14571C3.51804 4.14571 4.70113 4.63576 5.57344 5.50807L-1.49762 12.5791ZM2.28442 14.1457H3.3303V4.14571H2.28442V14.1457ZM-1.6697 9.14571V9.48423H8.3303V9.14571H-1.6697ZM-0.00242829 5.75691L-2.67521 8.14674L3.99025 15.6014L6.66303 13.2115L-0.00242829 5.75691ZM-2.67507 8.14661C-3.47205 8.85917 -4.03721 9.79421 -4.29762 10.8311L5.40115 13.267C5.17468 14.1687 4.6832 14.9818 3.99011 15.6015L-2.67507 8.14661ZM-4.29762 10.8311C-4.55804 11.8679 -4.50177 12.959 -4.13607 13.9636L5.26065 10.5428C5.57868 11.4164 5.62762 12.3653 5.40115 13.267L-4.29762 10.8311ZM-4.13607 13.9636C-3.77037 14.9682 -3.11202 15.8401 -2.24596 16.4669L3.61694 8.36587C4.3701 8.91095 4.94262 9.66922 5.26065 10.5428L-4.13607 13.9636ZM-2.24596 16.4669C-1.37988 17.0937 -0.345863 17.4465 0.722645 17.48L1.03532 7.48485C1.96454 7.51392 2.86376 7.82077 3.61694 8.36587L-2.24596 16.4669ZM0.721773 17.4799L5.44007 17.6284L5.75449 7.63331L1.0362 7.48488L0.721773 17.4799ZM5.44139 17.6284C5.51962 17.6308 5.59522 17.6319 5.66823 17.6319V7.63192C5.69399 7.63192 5.72245 7.63231 5.75317 7.63327L5.44139 17.6284ZM5.67622 17.6319C7.2139 17.6295 8.71089 17.1376 9.95043 16.2277L4.03276 8.16661C4.50474 7.82013 5.07474 7.63287 5.66023 7.63193L5.67622 17.6319ZM9.95043 16.2277C11.19 15.3178 12.1077 14.0369 12.5708 12.5706L3.03502 9.55911C3.21134 9.00079 3.56079 8.51308 4.03276 8.16661L9.95043 16.2277ZM7.07408 16.0114C7.70544 16.1045 8.34061 16.1686 8.97911 16.2042L9.53476 6.21961C9.196 6.20076 8.86182 6.16689 8.53172 6.11826L7.07408 16.0114ZM4.25693 11.2119V12.632H14.2569V11.2119H4.25693ZM9.25693 7.63197H8.21106V17.632H9.25693V7.63197ZM8.21106 7.63197C6.79253 7.63197 5.43208 8.19547 4.42901 9.19854L11.5001 16.2696C10.6278 17.1419 9.44466 17.632 8.21106 17.632V7.63197ZM4.42901 9.19854C3.42594 10.2016 2.86243 11.5621 2.86243 12.9806H12.8624C12.8624 14.2142 12.3724 15.3973 11.5001 16.2696L4.42901 9.19854ZM2.86243 12.9806V20.6504H12.8624V12.9806H2.86243ZM2.86243 20.6504C2.86243 22.0689 3.42594 23.4293 4.42901 24.4324L11.5001 17.3613C12.3724 18.2336 12.8624 19.4167 12.8624 20.6504H2.86243ZM4.42901 24.4324C5.43208 25.4355 6.79253 25.999 8.21106 25.999V15.999C9.44466 15.999 10.6278 16.489 11.5001 17.3613L4.42901 24.4324ZM8.21106 25.999H15.8808V15.999H8.21106V25.999ZM15.8808 25.999C17.2993 25.999 18.6598 25.4355 19.6629 24.4324L12.5918 17.3613C13.4641 16.489 14.6472 15.999 15.8808 15.999V25.999ZM19.6629 24.4324C20.6659 23.4293 21.2294 22.0689 21.2294 20.6504H11.2294C11.2294 19.4167 11.7195 18.2336 12.5918 17.3613L19.6629 24.4324ZM21.2294 20.6504V12.9806H11.2294V20.6504H21.2294ZM21.2294 12.9806C21.2294 11.5621 20.6659 10.2016 19.6629 9.19854L12.5918 16.2696C11.7195 15.3973 11.2294 14.2142 11.2294 12.9806H21.2294ZM19.6629 9.19854C18.6598 8.19547 17.2993 7.63197 15.8808 7.63197V17.632C14.6472 17.632 13.4641 17.1419 12.5918 16.2696L19.6629 9.19854ZM15.8808 7.63197H14.8349V17.632H15.8808V7.63197ZM19.8349 12.632V10.5338H9.83494V12.632H19.8349ZM16.3133 15.3102C16.9286 15.1198 17.5348 14.9011 18.1317 14.6547L14.3155 5.41144C13.9976 5.54269 13.6781 5.65781 13.3566 5.75732L16.3133 15.3102ZM18.1323 14.6544C20.6629 13.6092 22.9615 12.0734 24.8956 10.1356L17.8178 3.07129C16.8161 4.07495 15.6255 4.87038 14.3149 5.41171L18.1323 14.6544ZM24.8922 10.1391C25.3889 9.64239 25.7829 9.05274 26.0517 8.40382L16.8129 4.57687C17.0467 4.01254 17.3893 3.49977 17.8213 3.06783L24.8922 10.1391ZM26.0517 8.40382C26.3205 7.7549 26.4588 7.05937 26.4588 6.35693H16.4588C16.4588 5.74606 16.5792 5.14119 16.8129 4.57687L26.0517 8.40382ZM26.4588 6.35693C26.4588 5.6545 26.3205 4.95896 26.0517 4.31003L16.8129 8.13699C16.5792 7.57265 16.4588 6.96779 16.4588 6.35693H26.4588ZM26.0517 4.31003C25.7829 3.66109 25.3889 3.07145 24.8922 2.57478L17.8213 9.64603C17.3893 9.21411 17.0467 8.70134 16.8129 8.13699L26.0517 4.31003ZM24.8959 2.57848C22.9618 0.640446 20.6632 -0.89553 18.1326 -1.94087L14.3146 7.30161C15.6253 7.84303 16.8159 8.63856 17.8176 9.64233L24.8959 2.57848ZM10.8808 3.29412V9.4193H20.8808V3.29412H10.8808ZM13.9872 4.79174C12.7767 5.2871 11.481 5.54135 10.173 5.54022L10.1643 15.5402C12.774 15.5425 15.3591 15.0352 17.7744 14.0469L13.9872 4.79174ZM10.1619 5.54022C8.73739 5.54214 7.32781 5.24992 6.02145 4.68185L2.03365 13.8523C4.60246 14.9694 7.37425 15.544 10.1754 15.5402L10.1619 5.54022ZM9.02755 9.26708V3.44634H-0.972449V9.26708H9.02755ZM6.02144 8.03158C7.32781 7.4635 8.7374 7.17128 10.1619 7.1732L10.1754 -2.82679C7.37425 -2.83057 4.60247 -2.25594 2.03366 -1.13889L6.02144 8.03158ZM10.173 7.1732C11.481 7.17207 12.7767 7.42632 13.9872 7.92168L17.7744 -1.33344C15.3591 -2.32178 12.774 -2.82905 10.1643 -2.82679L10.173 7.1732ZM5.77668 5.77718C5.05924 5.79979 4.35255 5.59863 3.75457 5.20158L9.28613 -3.1292C8.15516 -3.88015 6.81855 -4.26062 5.46164 -4.21786L5.77668 5.77718ZM3.75457 5.20158C3.1566 4.80453 2.69698 4.23127 2.43943 3.56128L11.7735 -0.0268152C11.2864 -1.294 10.4171 -2.37824 9.28613 -3.1292L3.75457 5.20158ZM6.15773 -3.14193C4.69428 -2.8591 3.26496 -2.42181 1.89377 -1.83739L5.81462 7.3619C6.53515 7.0548 7.28622 6.82501 8.05523 6.67639L6.15773 -3.14193ZM7.18672 -0.965254L5.10455 -2.82678L-1.56049 4.62823L0.521676 6.48976L7.18672 -0.965254ZM1.92929 5.89825L5.77642 5.77719L5.4619 -4.21786L1.61477 -4.0968L1.92929 5.89825ZM6.23855 7.75121V4.96221H-3.76145V7.75121H6.23855ZM1.23855 9.96221H1.9358V-0.0377912H1.23855V9.96221ZM-3.0642 4.96221V7.75121H6.9358V4.96221H-3.0642ZM1.9358 2.75121H1.23855V12.7512H1.9358V2.75121ZM7.63305 8.44846V4.26496H-2.36695V8.44846H7.63305ZM2.63305 9.26496H3.3303V-0.735042H2.63305V9.26496ZM-1.6697 4.26496V8.44846H8.3303V4.26496H-1.6697ZM3.3303 3.44846H2.63305V13.4485H3.3303V3.44846ZM5.7763 6.93636L1.92918 6.81539L1.61488 16.8104L5.46201 16.9314L5.7763 6.93636ZM5.10477 15.5402L7.18693 13.6785L0.52146 6.22386L-1.56071 8.0856L5.10477 15.5402ZM1.8936 14.5507C3.26466 15.1352 4.69386 15.5725 6.1572 15.8554L8.05524 6.03717C7.28628 5.88851 6.53527 5.6587 5.8148 5.3516L1.8936 14.5507ZM2.44017 9.14963C2.69771 8.48075 3.15678 7.90845 3.75385 7.51192L9.28625 15.8421C10.4161 15.0917 11.2849 14.0087 11.7723 12.7429L2.44017 9.14963ZM3.75385 7.51192C4.35092 7.11538 5.05647 6.91422 5.77288 6.93625L5.46544 16.9315C6.82117 16.9732 8.15635 16.5925 9.28625 15.8421L3.75385 7.51192ZM15.5322 15.3017H8.55968V25.3017H15.5322V15.3017ZM13.5597 20.3017V13.3292H3.55968V20.3017H13.5597ZM8.55968 18.3292H15.5322V8.32922H8.55968V18.3292ZM10.5322 13.3292V20.3017H20.5322V13.3292H10.5322ZM14.1377 7.63197H9.95418V17.632H14.1377V7.63197ZM14.9542 12.632V11.2361H4.95418V12.632H14.9542ZM9.89115 16.2357C9.98293 16.2368 10.0748 16.2374 10.1666 16.2375L10.1707 6.23747C10.1195 6.23745 10.0683 6.23711 10.0172 6.23647L9.89115 16.2357ZM10.1655 16.2375C11.9296 16.2386 13.6866 16.0148 15.3941 15.5715L12.8813 5.89238C11.9965 6.12209 11.086 6.23805 10.1719 6.23747L10.1655 16.2375ZM9.13769 10.732V12.632H19.1377V10.732H9.13769ZM21.5781 9.11521V3.59821H11.5781V9.11521H21.5781ZM14.4641 8.12932C15.4556 8.59192 16.3647 9.21369 17.1554 9.96997L24.0675 2.74345C22.4883 1.23293 20.6725 -0.00893737 18.6921 -0.932898L14.4641 8.12932ZM17.1554 2.74345C16.3647 3.49973 15.4556 4.1215 14.4641 4.5841L18.6921 13.6463C20.6725 12.7224 22.4883 11.4805 24.0675 9.96997L17.1554 2.74345Z" fill="#FF5E00" mask="url(#path-4-inside-1)"/><path d="M11.3487 9.49434C11.9693 9.49434 12.5759 9.31032 13.0919 8.96555C13.6078 8.62078 14.01 8.13075 14.2475 7.55743C14.485 6.9841 14.5471 6.35323 14.426 5.74459C14.305 5.13595 14.0061 4.57687 13.5673 4.13807C13.1285 3.69926 12.5694 3.40043 11.9608 3.27937C11.3522 3.1583 10.7213 3.22044 10.148 3.45792C9.57464 3.6954 9.08461 4.09755 8.73985 4.61353C8.39508 5.12952 8.21106 5.73614 8.21106 6.35671C8.21199 7.18857 8.54286 7.9861 9.13108 8.57431C9.7193 9.16253 10.5168 9.4934 11.3487 9.49434ZM11.3487 3.91633C11.8313 3.91633 12.3032 4.05946 12.7045 4.32761C13.1058 4.59576 13.4186 4.9769 13.6033 5.42282C13.788 5.86874 13.8363 6.35942 13.7422 6.8328C13.648 7.30619 13.4156 7.74102 13.0743 8.08232C12.733 8.42361 12.2982 8.65603 11.8248 8.75019C11.3514 8.84436 10.8607 8.79603 10.4148 8.61132C9.96888 8.42662 9.58774 8.11383 9.31959 7.71251C9.05144 7.31119 8.90831 6.83937 8.90831 6.35671C8.90905 5.70971 9.1664 5.08942 9.6239 4.63192C10.0814 4.17442 10.7017 3.91707 11.3487 3.91633Z" fill="#FF5E00"/><path d="M9.94521 18.5563C10.0147 18.5813 10.0865 18.5988 10.1597 18.6086L14.4074 19.5953C14.4651 19.6087 14.5252 19.6072 14.5821 19.5909C14.639 19.5746 14.6908 19.5441 14.7327 19.5022C14.7745 19.4604 14.8051 19.4085 14.8213 19.3516C14.8376 19.2947 14.8392 19.2346 14.8258 19.177L13.8407 14.9358C13.8202 14.7806 13.7651 14.632 13.6796 14.5009C13.594 14.3698 13.4801 14.2596 13.3463 14.1784C13.2124 14.0972 13.0621 14.0471 12.9063 14.0318C12.7505 14.0164 12.5933 14.0363 12.4462 14.0898C11.7281 14.3503 11.076 14.7653 10.5359 15.3054C9.99574 15.8456 9.58076 16.4977 9.32022 17.2157C9.22565 17.4764 9.23835 17.7639 9.35552 18.0153C9.47268 18.2666 9.68476 18.4612 9.94521 18.5563ZM11.1868 18.1315C11.2269 18.0685 11.2601 18.0014 11.2858 17.9313C11.4421 17.5004 11.6912 17.109 12.0153 16.7849C12.3395 16.4607 12.7309 16.2117 13.1618 16.0553C13.2319 16.0297 13.2991 15.9968 13.3623 15.9569L14.0203 18.7895L11.1868 18.1315ZM9.97528 17.4543C10.2011 16.8319 10.5608 16.2667 11.0289 15.7986C11.4971 15.3304 12.0623 14.9708 12.6846 14.7449C12.769 14.7142 12.862 14.7172 12.9442 14.7534C13.0264 14.7897 13.0914 14.8563 13.1256 14.9393L13.1518 15.0518C13.1562 15.1267 13.1363 15.2011 13.0951 15.2638C13.054 15.3266 12.9937 15.3744 12.9232 15.4001C12.3965 15.5912 11.9183 15.8956 11.5221 16.2917C11.126 16.6879 10.8216 17.1662 10.6305 17.6928C10.6059 17.76 10.5613 17.818 10.5027 17.859C10.4441 17.9001 10.3744 17.9222 10.3028 17.9224C10.296 17.9224 10.2891 17.9218 10.2823 17.9214L10.1699 17.8953C10.0869 17.861 10.0204 17.796 9.98415 17.7138C9.94793 17.6316 9.9448 17.5387 9.97541 17.4543H9.97528Z" fill="#FF5E00"/><path d="M11.3487 8.09984C11.6934 8.09984 12.0304 7.99761 12.3171 7.80607C12.6037 7.61453 12.8272 7.3423 12.9591 7.02378C13.091 6.70527 13.1255 6.35478 13.0583 6.01665C12.991 5.67851 12.825 5.36792 12.5812 5.12414C12.3375 4.88036 12.0269 4.71434 11.6887 4.64708C11.3506 4.57982 11.0001 4.61434 10.6816 4.74627C10.3631 4.87821 10.0908 5.10163 9.8993 5.38828C9.70776 5.67494 9.60553 6.01196 9.60553 6.35671C9.60605 6.81886 9.78987 7.26193 10.1167 7.58872C10.4434 7.91551 10.8865 8.09932 11.3487 8.09984ZM11.3487 5.31084C11.5555 5.31084 11.7577 5.37218 11.9297 5.4871C12.1017 5.60202 12.2358 5.76537 12.3149 5.95647C12.3941 6.14758 12.4148 6.35787 12.3744 6.56076C12.3341 6.76364 12.2345 6.94999 12.0882 7.09626C11.9419 7.24253 11.7556 7.34214 11.5527 7.38249C11.3498 7.42285 11.1395 7.40214 10.9484 7.32298C10.7573 7.24382 10.594 7.10977 10.479 6.93777C10.3641 6.76578 10.3028 6.56357 10.3028 6.35671C10.3031 6.07943 10.4134 5.8136 10.6095 5.61753C10.8055 5.42146 11.0714 5.31116 11.3487 5.31084Z" fill="#FF5E00"/></svg>