<svg width="19" height="19" viewBox="0 0 19 19" fill="none" xmlns="http://www.w3.org/2000/svg"><g clip-path="url(#clip0)"><path d="M3.41116 17.4923C3.00238 17.4923 2.66985 17.1599 2.66985 16.7511V3.70601C2.66985 3.29737 3.00238 2.96484 3.41116 2.96484H4.63403V5.89256H12.0461V2.96484H13.232C13.6407 2.96484 13.9733 3.29737 13.9733 3.70601V11.9402L15.4556 10.2897V3.70601C15.4556 2.47995 14.4582 1.48235 13.232 1.48235H10.4367C10.1309 0.619553 9.30648 0 8.34004 0C7.37375 0 6.54937 0.619553 6.24351 1.48235H3.41116C2.18496 1.48235 1.1875 2.47995 1.1875 3.70601V16.7511C1.1875 17.9773 2.18496 18.9748 3.41116 18.9748H9.441L7.88371 17.4923H3.41116ZM7.59887 2.96484V2.22366C7.59887 1.81488 7.9314 1.48235 8.34004 1.48235C8.74883 1.48235 9.08136 1.81488 9.08136 2.22366V2.96484H10.5637V4.41022H6.11652V2.96484H7.59887ZM12.4908 8.8574H7.11717V7.37491H12.4908V8.8574ZM5.63468 7.37491V8.8574H4.15234V7.37491H5.63468ZM7.15414 11.8222V10.3397H12.4908V11.8222H7.15414ZM5.67179 11.8222H4.15234V10.3397H5.67179V11.8222ZM4.15234 13.3046H5.63468V14.7869H4.15234V13.3046ZM17.786 12.1322L11.6176 19L7.6067 15.1821L8.6288 14.1084L11.5343 16.8742L16.6831 11.1415L17.786 12.1322Z" fill="#FF5E00"/></g><defs><clipPath id="clip0"><path fill="#fff" d="M0 0H19V19H0z"/></clipPath></defs></svg>