<svg width="18" height="20" viewBox="0 0 18 20" xmlns="http://www.w3.org/2000/svg"><path d="M16.9579 9.95305C15.48 7.37512 12.9211 6.07495 11.1343 6.9492C11.1122 6.85953 10.9799 6.47845 11.0902 6.20945C11.1343 6.11978 11.2005 6.05253 11.3108 5.98528C11.6858 5.91803 12.0608 5.8732 12.4358 5.80595C14.2667 5.53694 16.1638 5.24553 17.0682 4.41611C17.1565 4.32644 17.1565 4.19194 17.0903 4.10227C17.0241 4.0126 16.8697 4.0126 16.7815 4.07985C16.1638 4.64027 14.9726 4.93169 13.6711 5.15586C13.3402 3.65394 12.2814 0.560419 8.86219 0C8.79601 0 8.72983 0.0448336 8.75189 0.112084C9.47985 3.27285 12.2593 4.86444 13.0534 5.24553C12.8329 5.29036 12.5902 5.31278 12.3696 5.35761C12.1049 5.40244 11.8181 5.44728 11.5755 5.49211C8.44306 2.86935 2.04587 2.75726 0.0825972 4.1471C-0.00563985 4.21435 -0.0276991 4.32644 0.0384787 4.41611C1.53851 6.5457 7.03127 6.65778 8.15629 6.65778C6.98715 7.59929 6.47979 8.92188 6.45773 8.98913V9.01155C6.41361 8.98913 6.36949 8.98913 6.32537 8.96671C4.29592 8.56321 2.17823 10.6928 1.58263 13.7191C0.987027 16.7678 2.15617 19.5474 4.18562 19.9509C6.21507 20.3544 8.33276 18.2248 8.92836 15.1986C9.45779 12.4413 8.55336 9.90822 6.87685 9.14605C6.87685 9.12363 7.7151 6.92678 9.70044 6.32153C9.98721 6.23186 10.3181 6.16461 10.671 6.09736C10.5387 6.5457 10.7372 7.0837 10.7593 7.12854C10.7593 7.15095 10.7813 7.15095 10.7813 7.17337C9.17102 8.33904 9.03866 11.2308 10.5166 13.8087C12.0608 16.4763 14.752 17.7765 16.5388 16.7229C18.3036 15.6469 18.5021 12.6206 16.9579 9.95305ZM3.72238 17.5523C3.70032 17.6196 3.67826 17.6644 3.6562 17.7317C3.63414 17.7765 3.61208 17.7989 3.61208 17.7989L3.59002 17.8438C3.52384 17.9783 3.39149 18.0455 3.25913 18.0679C3.25913 18.0679 3.21501 18.0679 3.1709 18.0679C3.10472 18.0679 3.0606 18.0455 2.97236 18.0007C2.90618 17.9558 2.81795 17.911 2.77383 17.8213C2.72971 17.7317 2.68559 17.642 2.64147 17.5299C2.61941 17.4178 2.57529 17.3058 2.53118 17.1937C2.50912 17.0592 2.465 16.9471 2.44294 16.8126C2.42088 16.6781 2.39882 16.5436 2.39882 16.4091C2.39882 16.2746 2.37676 16.1401 2.37676 16.0056C2.37676 15.7366 2.39882 15.4452 2.42088 15.1986C2.44294 14.952 2.48706 14.7054 2.53118 14.5261C2.57529 14.3243 2.61941 14.1674 2.66353 14.0553C2.70765 13.9432 2.72971 13.876 2.72971 13.876C2.77383 13.7639 2.90618 13.6967 3.01648 13.7415C3.10472 13.7639 3.14884 13.8536 3.14884 13.9432C3.14884 13.9432 3.14884 14.0105 3.1709 14.1226C3.1709 14.2347 3.19295 14.3916 3.21501 14.5933C3.21501 14.683 3.23707 14.7951 3.23707 14.9072C3.23707 15.0192 3.25913 15.1313 3.25913 15.2434C3.28119 15.4676 3.30325 15.7366 3.34737 15.9607C3.36943 16.0728 3.39149 16.2073 3.41355 16.3194C3.43561 16.4315 3.45767 16.5436 3.47972 16.6557C3.50178 16.7678 3.52384 16.8574 3.5459 16.9471C3.56796 17.0368 3.61208 17.1264 3.63414 17.1937C3.6562 17.2609 3.70032 17.3282 3.72238 17.3954C3.74444 17.4403 3.74444 17.4851 3.72238 17.5523ZM9.56808 5.89561C9.47985 5.91803 9.39161 5.96286 9.30337 5.98528C8.17835 5.62661 5.72977 4.93169 3.81061 4.72994C6.12684 4.72994 8.59748 5.42486 9.83279 5.82836C9.74456 5.85078 9.65632 5.8732 9.56808 5.89561ZM13.1417 14.5485C13.1417 14.5485 13.0314 14.6157 12.899 14.6157C12.8329 14.6157 12.7446 14.6157 12.6564 14.5485C12.5902 14.5037 12.502 14.4364 12.4137 14.3692C12.3255 14.3019 12.2593 14.2122 12.1711 14.1226C12.0828 14.0329 11.9946 13.9432 11.9284 13.8536C11.8622 13.7415 11.774 13.6518 11.7078 13.5397C11.6417 13.4277 11.5534 13.3156 11.4872 13.2035C11.3549 12.9793 11.2225 12.7327 11.1343 12.5086C11.024 12.2844 10.9578 12.0826 10.8916 11.8809C10.7593 11.5222 10.7152 11.2532 10.7152 11.2532C10.6931 11.1411 10.7593 11.0515 10.8696 11.0291C10.9358 11.0066 11.024 11.0515 11.0461 11.1187C11.0461 11.1187 11.1784 11.3205 11.3769 11.6343C11.4872 11.7912 11.5975 11.9706 11.7299 12.1499C11.8622 12.3292 11.9946 12.531 12.149 12.7327C12.2152 12.8224 12.3034 12.9121 12.3696 13.0017C12.4358 13.0914 12.524 13.1811 12.5902 13.2483C12.6564 13.338 12.7226 13.4052 12.7887 13.4725C12.8549 13.5397 12.9211 13.5846 12.9873 13.6518C13.0534 13.6967 13.1196 13.7415 13.1637 13.7863C13.2079 13.8312 13.2299 13.876 13.252 13.9432C13.2961 14.0553 13.2961 14.1674 13.2961 14.1674V14.1898C13.2961 14.3692 13.252 14.4812 13.1417 14.5485Z"/></svg>