<svg xmlns="http://www.w3.org/2000/svg" viewBox="0 0 100.02 120.25"><defs><style>.icon-label-hit{fill:#fff}</style><linearGradient id="lg-icon-label-hit" y1="61.92" x2="100.02" y2="61.92" gradientTransform="matrix(1 0 0 -1 0 122.05)" gradientUnits="userSpaceOnUse"><stop offset="0" stop-color="#525557"/><stop offset="1" stop-color="#adb3b8"/></linearGradient></defs><path d="M85.37,14.66A50,50,0,1,0,37.08,98.3a49.78,49.78,0,0,0,12.14,21.61,1.14,1.14,0,0,0,1.61,0L85.37,85.37A50,50,0,0,0,85.37,14.66Z" fill="url(#lg-icon-label-hit)"/><path class="icon-label-hit" fill="#fff" d="M45,39.25v27.3H39.63V55.24H29.49V66.55H24.11V39.25h5.38V50.09H39.63V39.25Z"/><path class="icon-label-hit" fill="#fff" d="M56.47,39.25v27.3H51.09V39.25Z"/><path class="icon-label-hit" fill="#fff" d="M79.93,44.4H72.56V66.55H67.18V44.4H59.84V39.25H79.93Z"/></svg>