<svg xmlns="http://www.w3.org/2000/svg" viewBox="0 0 100.02 120.25"><defs><style>.icon-label-hot{fill:#fff}</style><linearGradient id="lg-icon-label-hot" y1="61.92" x2="100.02" y2="61.92" gradientTransform="matrix(1 0 0 -1 0 122.05)" gradientUnits="userSpaceOnUse"><stop offset="0" stop-color="#d43701"/><stop offset="1" stop-color="#ff5e00"/></linearGradient></defs><path d="M85.37,14.66A50,50,0,1,0,37.08,98.3a49.78,49.78,0,0,0,12.14,21.61,1.14,1.14,0,0,0,1.61,0L85.37,85.37A50,50,0,0,0,85.37,14.66Z" fill="url(#lg-icon-label-hot)"/><path class="icon-label-hot" fill="#fff" d="M34.22,39.25v27.3H28.88V55.24H18.74V66.55H13.36V39.25h5.38V50.09H28.88V39.25Z"/><path class="icon-label-hot" fill="#fff" d="M38.93,52.9A14.18,14.18,0,1,1,53.1,67.09h0A14,14,0,0,1,38.93,53.26Q38.93,53.08,38.93,52.9Zm23,0a8.82,8.82,0,1,0-17.63-.59q0,.3,0,.59a8.82,8.82,0,1,0,17.63.59Q61.94,53.2,61.93,52.9Z"/><path class="icon-label-hot" fill="#fff" d="M88.93,44.4H81.56V66.55H76.18V44.4H68.85V39.25H88.93Z"/></svg>