<svg width="20" height="21" viewBox="0 0 20 21" fill="none" xmlns="http://www.w3.org/2000/svg"><path d="M20 8.02955C20 5.45609 17.9071 3.36245 15.3346 3.36245C15.2228 3.36245 15.11 3.36666 14.9966 3.37513C13.8896 1.71075 12.0141 0.694237 10 0.694237C7.98594 0.694237 6.1105 1.71096 5.00349 3.37513C4.89009 3.36666 4.77724 3.36245 4.66546 3.36245C2.09289 3.36245 0 5.45609 0 8.02955C0 10.3773 1.74225 12.3247 4.00121 12.6483V19.0982C4.00121 20.0506 4.77595 20.8253 5.72828 20.8253H14.2717C15.2241 20.8253 15.9988 20.0505 15.9988 19.0982V12.6483C18.2578 12.3247 20 10.3772 20 8.02955ZM14.2717 19.4967H5.72835C5.51239 19.4967 5.32979 19.3142 5.32979 19.0981V12.6489C5.98063 12.5567 6.59852 12.3289 7.15589 11.9745C8.01082 12.4369 8.98314 12.6964 10 12.6964C11.0169 12.6964 11.9891 12.4369 12.844 11.9746C13.4015 12.3289 14.0195 12.5567 14.6703 12.6489V19.0981C14.6703 19.3142 14.4877 19.4967 14.2717 19.4967ZM15.3346 11.3678C14.8875 11.3678 14.4552 11.2805 14.0535 11.1126C14.862 10.3715 15.4731 9.40815 15.7799 8.30108C15.8779 7.94753 15.6707 7.58144 15.3172 7.48343C14.9636 7.38549 14.5976 7.59269 14.4995 7.94617C13.9413 9.96084 12.091 11.3678 10 11.3678C7.90901 11.3678 6.05878 9.96084 5.50046 7.94617C5.40252 7.59263 5.03664 7.38549 4.68282 7.48343C4.32927 7.58137 4.12213 7.94753 4.22007 8.30108C4.52685 9.40815 5.13804 10.3715 5.94647 11.1126C5.54479 11.2805 5.11255 11.3678 4.66546 11.3678C2.82547 11.3678 1.32858 9.87029 1.32858 8.02955C1.32858 6.18874 2.82554 4.69104 4.66546 4.69104C4.85146 4.69104 5.04294 4.70771 5.23463 4.74052C5.51131 4.78769 5.7884 4.65599 5.926 4.41103C6.75327 2.93794 8.31434 2.02282 9.99993 2.02282C11.6855 2.02282 13.2466 2.93801 14.074 4.4111C14.2115 4.65606 14.4885 4.78776 14.7654 4.74052C14.9571 4.70771 15.1485 4.69104 15.3345 4.69104C17.1744 4.69104 18.6713 6.18874 18.6713 8.02955C18.6715 9.87029 17.1745 11.3678 15.3346 11.3678Z" fill="#FF5E00"/></svg>