<svg xmlns="http://www.w3.org/2000/svg" viewBox="0 0 26.67 22.67"><defs><linearGradient id="Безымянный_градиент" x1="-.55" y1="3.86" x2="25.55" y2="11" gradientTransform="matrix(1 0 0 -1 0 23.33)" gradientUnits="userSpaceOnUse"><stop offset="0" stop-color="#779d01"/><stop offset="1" stop-color="#bde01e"/></linearGradient></defs><g id="Слой_2" data-name="Слой 2"><g id="Слой_1-2" data-name="Слой 1"><path d="M12.72,15.11c-5,.23-10.32-2-12.1-2.88,0,3.36,4.22,9.49,12.66,9.78s12.66-7.48,12.1-10.35C24,14,18.91,14.82,12.72,15.11Z" fill="url(#Безымянный_градиент)"/><path d="M23.46,8.73c2.48.23,2.73,2,2.54,2.91,0,.87-2.54,2.74-12.69,3.2S.62,12.13.62,10.48l2.28-2,.83.29L5.13,7V5.24c1.6,0,4.74-.47,4.51-2.33A2.74,2.74,0,0,1,11.9,0a3.19,3.19,0,0,0,2.54,2.91,21.54,21.54,0,0,1,5.92,2.33A3.41,3.41,0,0,0,23.46,8.73Z" fill="#ffd78a"/><path d="M26.42,10.17a4.16,4.16,0,0,0-2.53-1.38.55.55,0,0,0-.17,0,5.52,5.52,0,0,0-2.07-1.51,1.7,1.7,0,0,0,.09-.45s0-.08,0-.1,0,0,0,0v0c0-2.12-3.81-3.25-7.38-3.42C11.92,2.36,12.12,1.41,12.22,1A.75.75,0,0,0,12,.13c-.37-.27-.64-.1-1.52.46A2.56,2.56,0,0,0,9.18,3.27a1.6,1.6,0,0,0,.05.39c-2.71.58-4.3,1.69-4.3,3a1.7,1.7,0,0,0,.1.58A5.18,5.18,0,0,0,2.8,9h0a5,5,0,0,0-2.4,1.1,1.52,1.52,0,0,0-.37,1c.2,6.48,6.06,11.55,13.33,11.55S26.53,17.44,26.67,11A1.37,1.37,0,0,0,26.42,10.17Zm-24,.1A2.4,2.4,0,0,0,3,11.8a.56.56,0,0,0,.8.06A.6.6,0,0,0,3.89,11a1.25,1.25,0,0,1-.35-.79c0-.72.94-1.52,2.51-2.14a.58.58,0,0,0,.35-.41.6.6,0,0,0-.13-.53.75.75,0,0,1-.22-.47c0-.61,1.29-1.48,3.7-1.95a6.19,6.19,0,0,0,.45.57.56.56,0,0,0,.8,0,.6.6,0,0,0,0-.83,4.37,4.37,0,0,1-.5-.67v0A1.53,1.53,0,0,1,11,1.61c.09.82.67,1.94,3,2.8l.17,0c4.06.17,6.33,1.42,6.37,2.23-.06.23-.63,1.68-5,1.74a.59.59,0,0,0,0,1.17h0c2.91,0,4.43-.7,5.22-1.37,1.41.6,2.24,1.35,2.24,2a1.25,1.25,0,0,1-.35.79.6.6,0,0,0,.05.83.56.56,0,0,0,.8-.06,2.39,2.39,0,0,0,.63-1.56s0-.08,0-.13a2.58,2.58,0,0,1,1.27.77.19.19,0,0,1,0,.1s0,.08,0,.12a.57.57,0,0,0-.16.19c-.91,1.67-5.43,3.44-12,3.44-6.81,0-11.52-1.87-12.13-3.68l0-.09a.37.37,0,0,1,.06-.11A3.86,3.86,0,0,1,2.42,10.27ZM13.33,21.5c-5.87,0-10.73-3.57-11.92-8.42C3.6,14.78,8.1,15.9,13.33,15.9S23,14.8,25.24,13.1C24,17.88,19.11,21.5,13.33,21.5Z" fill="#525557"/></g></g></svg>