<svg xmlns="http://www.w3.org/2000/svg" viewBox="0 0 64 64"><path class="svg-icon__layer svg-icon__layer--info-1" d="M32,64A32,32,0,1,0,0,32,32,32,0,0,0,32,64Z"/><path class="svg-icon__layer svg-icon__layer--info-2" d="M32.48,15.44a1.59,1.59,0,0,1-1.61-1.61V9.33a1.61,1.61,0,1,1,3.22,0v4.5A1.61,1.61,0,0,1,32.48,15.44Z"/><path class="svg-icon__layer svg-icon__layer--info-2" d="M23.64,16.6A1.59,1.59,0,0,1,21.45,16L20.17,13.8a1.6,1.6,0,0,1,2.77-1.61l1.29,2.22A1.59,1.59,0,0,1,23.64,16.6Z"/><path class="svg-icon__layer svg-icon__layer--info-2" d="M17,22.84a1.59,1.59,0,0,1-2.19.58l-2.22-1.29a1.6,1.6,0,1,1,1.61-2.77l2.22,1.29A1.58,1.58,0,0,1,17,22.84Z"/><path class="svg-icon__layer svg-icon__layer--info-2" d="M15.44,31.52a1.59,1.59,0,0,1-1.61,1.61H9.33a1.61,1.61,0,0,1,0-3.22h4.5A1.61,1.61,0,0,1,15.44,31.52Z"/><path class="svg-icon__layer svg-icon__layer--info-2" d="M16.57,40.36A1.59,1.59,0,0,1,16,42.55l-2.22,1.29a1.6,1.6,0,1,1-1.61-2.77l2.22-1.29A1.56,1.56,0,0,1,16.57,40.36Z"/><path class="svg-icon__layer svg-icon__layer--info-2" d="M22.8,46.92a1.59,1.59,0,0,1,.58,2.19L22.1,51.32a1.6,1.6,0,1,1-2.77-1.61l1.29-2.22A1.64,1.64,0,0,1,22.8,46.92Z"/><path class="svg-icon__layer svg-icon__layer--info-2" d="M31.52,48.56a1.59,1.59,0,0,1,1.61,1.61v4.5a1.61,1.61,0,0,1-3.22,0v-4.5A1.59,1.59,0,0,1,31.52,48.56Z"/><path class="svg-icon__layer svg-icon__layer--info-2" d="M40.33,47.4a1.59,1.59,0,0,1,2.19.58L43.8,50.2A1.6,1.6,0,1,1,41,51.81l-1.29-2.22A1.59,1.59,0,0,1,40.33,47.4Z"/><path class="svg-icon__layer svg-icon__layer--info-2" d="M46.92,41.16a1.59,1.59,0,0,1,2.19-.58l2.22,1.29a1.6,1.6,0,1,1-1.61,2.77L47.5,43.35A1.61,1.61,0,0,1,46.92,41.16Z"/><path class="svg-icon__layer svg-icon__layer--info-2" d="M48.56,32.48a1.59,1.59,0,0,1,1.61-1.61h4.5a1.61,1.61,0,0,1,0,3.22h-4.5A1.59,1.59,0,0,1,48.56,32.48Z"/><path class="svg-icon__layer svg-icon__layer--info-2" d="M47.4,23.64A1.59,1.59,0,0,1,48,21.45l2.22-1.29a1.6,1.6,0,1,1,1.61,2.77l-2.22,1.29A1.57,1.57,0,0,1,47.4,23.64Z"/><path class="svg-icon__layer svg-icon__layer--info-2" d="M41.16,17.08a1.59,1.59,0,0,1-.58-2.19l1.29-2.22a1.6,1.6,0,1,1,2.77,1.61L43.35,16.5A1.64,1.64,0,0,1,41.16,17.08Z"/><path class="svg-icon__layer svg-icon__layer--info-2" d="M35.86,36.5a1.59,1.59,0,0,1-2.28,0L21.39,24.32A1.61,1.61,0,1,1,23.67,22L35.86,34.22A1.65,1.65,0,0,1,35.86,36.5Z"/><path class="svg-icon__layer svg-icon__layer--info-2" d="M28.3,36.66a1.59,1.59,0,0,1,0-2.28L45,17.69A1.61,1.61,0,0,1,47.27,20L30.59,36.66A1.59,1.59,0,0,1,28.3,36.66Z"/></svg>