<svg xmlns="http://www.w3.org/2000/svg" viewBox="0 0 64 64"><path class="svg-icon__layer svg-icon__layer--info-1" d="M32,64A32,32,0,1,0,0,32,32,32,0,0,0,32,64Z"/><path class="svg-icon__layer svg-icon__layer--info-2" d="M44.08,51.43a1,1,0,0,0,.72-.3,1,1,0,0,0,.3-.72,1,1,0,0,0-.3-.72L42.14,47a1,1,0,0,0-.72-.3l-.15,0a6.37,6.37,0,0,1-1,.07A6.15,6.15,0,0,1,35.91,45L31.29,40.3a.77.77,0,1,1,1.09-1.1,1,1,0,0,0,.72.3,1,1,0,0,0,.72-.3,1,1,0,0,0,.3-.72,1,1,0,0,0-.3-.72.77.77,0,1,1,1.09-1.1,1,1,0,0,0,.72.3,1,1,0,0,0,.72-.3,1,1,0,0,0,.3-.72,1,1,0,0,0-.3-.72.77.77,0,1,1,1.09-1.1,1,1,0,0,0,.72.3,1,1,0,0,0,.72-.3,1,1,0,0,0,.3-.72,1,1,0,0,0-.3-.72l-7.49-7.53a.78.78,0,0,1,0-1.1.76.76,0,0,1,1.09,0L44.61,36.21a6.19,6.19,0,0,1,1.77,5.37,1,1,0,0,0,.29.88l5.89,5a1,1,0,0,0,.72.3,1,1,0,0,0,.72-.3A1,1,0,0,0,54,46l-5.53-4.67a8.25,8.25,0,0,0-2.4-6.61L33.93,22.59a2.8,2.8,0,0,0-4,0,2.83,2.83,0,0,0,0,4l5.59,5.61a3,3,0,0,0-.63.47,2.8,2.8,0,0,0-.81,1.73,2.77,2.77,0,0,0-1.73.82A2.8,2.8,0,0,0,31.58,37a2.82,2.82,0,0,0-1.73,4.8l4.62,4.64a8.18,8.18,0,0,0,5.82,2.45c.25,0,.5,0,.77,0l2.31,2.32A1,1,0,0,0,44.08,51.43Zm-4.74,0a1,1,0,0,0,0-2h-15A2.34,2.34,0,0,1,22.25,48H33.07a1,1,0,0,0,0-2H22V18H41.66V29.34a1,1,0,1,0,2,0V16.94a4.37,4.37,0,0,0-4.35-4.37h-15A4.37,4.37,0,0,0,20,16.94V47.06a4.36,4.36,0,0,0,4.35,4.37ZM22.25,16a2.32,2.32,0,0,1,2.1-1.35h15A2.34,2.34,0,0,1,41.44,16Zm7.31,13.26a1,1,0,0,0,.86-.48,1,1,0,0,0,.12-.77,1.07,1.07,0,0,0-.46-.64,3.36,3.36,0,1,1,4.64-4.58,1,1,0,0,0,.88.5,1,1,0,0,0,.52-.15,1,1,0,0,0,.36-1.4A5.39,5.39,0,1,0,29,29.07,1,1,0,0,0,29.56,29.23Z"/></svg>