<svg version="1.1" id="Layer_1" xmlns="http://www.w3.org/2000/svg" xmlns:xlink="http://www.w3.org/1999/xlink" x="0" y="0" viewBox="0 0 42.5 20.7" xml:space="preserve"><style>.st15{fill:none}</style><defs><path id="SVGID_1_" d="M8.6,8.6L4.9,11l-2.4,3.7c1.6,1.6,3.8,2.5,6.1,2.5V8.6z"/></defs><clipPath id="SVGID_2_"><use xlink:href="#SVGID_1_" overflow="visible"/></clipPath><g clip-path="url(#SVGID_2_)"><linearGradient id="SVGID_3_" gradientUnits="userSpaceOnUse" x1="3.959" y1="490.031" x2="8.269" y2="492.371" gradientTransform="translate(0 -478)"><stop offset="0" stop-color="#c02118"/><stop offset="1" stop-color="#a91d17"/></linearGradient><path fill="url(#SVGID_3_)" d="M2.5 8.6H8.6V17.2H2.5z"/></g><defs><path id="SVGID_4_" d="M8.6,8.6l-4.3-1L0,8.6c0,2.3,0.9,4.5,2.5,6.1L8.6,8.6z"/></defs><clipPath id="SVGID_5_"><use xlink:href="#SVGID_4_" overflow="visible"/></clipPath><g clip-path="url(#SVGID_5_)"><linearGradient id="SVGID_6_" gradientUnits="userSpaceOnUse" x1="2.764" y1="485.459" x2="5.284" y2="491.538" gradientTransform="translate(0 -478)"><stop offset="0" stop-color="#d22f16"/><stop offset="1" stop-color="#c72218"/></linearGradient><path fill="url(#SVGID_6_)" d="M0 7.7H8.6V14.7H0z"/></g><defs><path id="SVGID_7_" d="M8.6,8.6L6.2,4.9L2.5,2.5C0.9,4.1,0,6.3,0,8.6H8.6z"/></defs><clipPath id="SVGID_8_"><use xlink:href="#SVGID_7_" overflow="visible"/></clipPath><g clip-path="url(#SVGID_8_)"><linearGradient id="SVGID_9_" gradientUnits="userSpaceOnUse" x1="5.116" y1="481.598" x2="2.586" y2="487.678" gradientTransform="translate(0 -478)"><stop offset="0" stop-color="#dc461f"/><stop offset="1" stop-color="#d73315"/></linearGradient><path fill="url(#SVGID_9_)" d="M0 2.5H8.6V8.6H0z"/></g><defs><path id="SVGID_10_" d="M8.6,8.6l1-4.3L8.6,0C6.3,0,4.1,0.9,2.5,2.5L8.6,8.6z"/></defs><clipPath id="SVGID_11_"><use xlink:href="#SVGID_10_" overflow="visible"/></clipPath><g clip-path="url(#SVGID_11_)"><linearGradient id="SVGID_12_" gradientUnits="userSpaceOnUse" x1="9.75" y1="480.76" x2="3.67" y2="483.28" gradientTransform="translate(0 -478)"><stop offset="0" stop-color="#e55827"/><stop offset="1" stop-color="#dc461f"/></linearGradient><path fill="url(#SVGID_12_)" d="M2.5 0H9.5V8.6H2.5z"/></g><defs><path id="SVGID_13_" d="M8.6,8.6l3.7-2.4l2.4-3.7C13.1,0.9,10.9,0,8.6,0V8.6z"/></defs><clipPath id="SVGID_14_"><use xlink:href="#SVGID_13_" overflow="visible"/></clipPath><g clip-path="url(#SVGID_14_)"><linearGradient id="SVGID_15_" gradientUnits="userSpaceOnUse" x1="13.61" y1="483.12" x2="7.53" y2="480.59" gradientTransform="translate(0 -478)"><stop offset="0" stop-color="#ef7f3d"/><stop offset="1" stop-color="#e55827"/></linearGradient><path fill="url(#SVGID_15_)" d="M8.6 0H14.7V8.6H8.6z"/></g><defs><path id="SVGID_16_" d="M8.6,8.6l4.3,1l4.3-1c0-2.3-0.9-4.5-2.5-6.1L8.6,8.6z"/></defs><clipPath id="SVGID_17_"><use xlink:href="#SVGID_16_" overflow="visible"/></clipPath><g clip-path="url(#SVGID_17_)"><linearGradient id="SVGID_18_" gradientUnits="userSpaceOnUse" x1="14.44" y1="487.75" x2="11.92" y2="481.67" gradientTransform="translate(0 -478)"><stop offset="0" stop-color="#f29451"/><stop offset="1" stop-color="#ef7f3d"/></linearGradient><path fill="url(#SVGID_18_)" d="M8.6 2.5H17.2V9.5H8.6z"/></g><defs><path id="SVGID_19_" d="M8.6,8.6l2.4,3.7l3.7,2.4c1.6-1.6,2.5-3.8,2.5-6.1H8.6z"/></defs><clipPath id="SVGID_20_"><use xlink:href="#SVGID_19_" overflow="visible"/></clipPath><linearGradient id="SVGID_21_" gradientUnits="userSpaceOnUse" x1="12.072" y1="491.643" x2="14.592" y2="485.563" gradientTransform="translate(0 -478)"><stop offset="0" stop-color="#f6ab67"/><stop offset="1" stop-color="#f29451"/></linearGradient><path clip-path="url(#SVGID_20_)" fill="url(#SVGID_21_)" d="M8.6 8.6H17.2V14.7H8.6z"/><defs><path id="SVGID_22_" d="M8.5,20.6c-3.2-3.4-3.1-8.7,0.1-12l6.1,6.1l-6,5.9C8.6,20.7,8.5,20.7,8.5,20.6C8.4,20.6,8.4,20.6,8.5,20.6 L8.5,20.6"/></defs><clipPath id="SVGID_23_"><use xlink:href="#SVGID_22_" overflow="visible"/></clipPath><g clip-path="url(#SVGID_23_)"><linearGradient id="SVGID_24_" gradientUnits="userSpaceOnUse" x1="6.26" y1="488.95" x2="12.34" y2="495.03" gradientTransform="translate(0 -478)"><stop offset="0" stop-color="#fff"/><stop offset=".45" stop-color="#f4f7f7"/><stop offset="1" stop-color="#c8cfdb"/></linearGradient><path fill="url(#SVGID_24_)" d="M5.2 8.6H14.600000000000001V20.7H5.2z"/></g><path d="M35.6 7.8L37.1 7.8 34.9 5.1 36.9 2.5 35.4 2.5 33.9 4.6 33.5 4.6 33.5 2.6 32.2 2.6 32.2 7.8 33.5 7.8 33.5 5.7 33.9 5.7z"/><path d="M22.4,12.7c1.3,0,2-0.7,2-1.7s-0.7-1.8-2-1.8h-2.3v5.3h1.3v-1.8H22.4z M40.5,9.2H39l-2,5.3h1.3l0.4-1.1h2.1l0.4,1.1h1.3	L40.5,9.2z M39.8,10.4l0.6,1.8h-1.3L39.8,10.4z M36.5,9.2h-4.2v1.1h2.6l-2.6,3.1v1h4.2v-1.1H34l2.6-3.1L36.5,9.2z M31.4,9.2h-4.2	v1.1h2.6l-2.6,3.1v1h4.2v-1.1h-2.6l2.6-3.1V9.2z M26.3,9.2h-1.3v5.3h1.3V9.2z M22.3,10.3c0.5,0,0.7,0.2,0.7,0.6s-0.3,0.6-0.7,0.6h-1	v-1.2H22.3z"/><path class="st15" d="M20.4,5.2c0,0.6,0.5,1.2,1.2,1.2h0.2V4h-0.2C21,4,20.4,4.5,20.4,5.2z"/><path class="st15" d="M23.2,4h-0.2v2.3h0.2c0.6,0,1.2-0.5,1.2-1.2C24.4,4.5,23.9,4,23.2,4z"/><path d="M23.3,2.9H23V2.5h-0.6h-0.6v0.4h-0.3c-1.3,0.1-2.3,1.2-2.2,2.5c0.1,1.3,1.2,2.3,2.5,2.2v0.4h0.6H23V7.5 c1.3,0.1,2.4-0.9,2.5-2.2C25.6,4.1,24.6,2.9,23.3,2.9z M21.8,6.3h-0.2c-0.6,0-1.2-0.5-1.2-1.2C20.4,4.5,21,4,21.6,4h0.2V6.3z M23.2,6.3h-0.2V4h0.2c0.6,0,1.2,0.5,1.2,1.2C24.4,5.8,23.9,6.3,23.2,6.3z"/><path d="M28.8,2.4c-1.5,0-2.8,1.2-2.8,2.7s1.2,2.7,2.8,2.7s2.8-1.2,2.8-2.7S30.3,2.4,28.8,2.4z M28.8,6.6c-0.8,0-1.4-0.7-1.4-1.5	s0.6-1.5,1.4-1.5s1.4,0.7,1.4,1.5S29.5,6.6,28.8,6.6z"/><path d="M41.7,6.6l-0.9-0.6c-0.3,0.4-0.7,0.7-1.2,0.7c-0.8,0-1.4-0.7-1.4-1.5s0.6-1.5,1.4-1.5c0.5,0,1,0.3,1.2,0.7l0.9-0.4L42,3.8	c-0.5-0.8-1.4-1.3-2.4-1.3c-1.5,0-2.8,1.2-2.8,2.7s1.2,2.7,2.8,2.7c0.9,0,1.7-0.4,2.2-1.1L41.7,6.6z"/></svg>