<svg xmlns="http://www.w3.org/2000/svg" viewBox="0 0 94 60"><path d="M58,16.06a16.14,16.14,0,0,1-4,10.51c-3.78,4.51-7.49,9.09-11.23,13.64a5.22,5.22,0,0,0-.36.45c-.3.47-.5.46-.88,0-4-5-8.25-9.85-12.19-14.92a16,16,0,1,1,28-14.35A14.56,14.56,0,0,1,58,16.06Zm-8.15,0a7.84,7.84,0,1,0-.59,3,7.85,7.85,0,0,0,.59-3Z" class="svg-icon__layer svg-icon__layer--logo-fixed"/><path d="M75,10.18l3.13-5.37c.87-1.5,1.75-3,2.6-4.49A.56.56,0,0,1,81,.07.56.56,0,0,1,81.29,0H92.51c.43,0,.45.11.26.44q-3.44,5.84-6.85,11.69c-1.41,2.4-2.81,4.81-4.24,7.2a.61.61,0,0,0,0,.72l10.67,18.1L94,41c-.22,0-.39,0-.55,0H81.81a.76.76,0,0,1-.46-.1.75.75,0,0,1-.31-.36q-2.86-5.19-5.74-10.36c-.11-.2-.23-.5-.41-.53s-.26.31-.36.49q-3,5.26-6.05,10.52a.58.58,0,0,1-.24.27.59.59,0,0,1-.35.08H56.34c-.37,0-.43,0-.23-.4q6-10.08,12.07-20.16a.75.75,0,0,0,0-.89q-5.5-9.51-11-19L57,.23C56.94.07,57,0,57.17,0H68.86a.7.7,0,0,1,.42.1.69.69,0,0,1,.27.33Q72.2,5.21,74.86,10Z"/><path d="M0,21V.54C0,.13.08,0,.52,0Q13,0,25.46,0c.46,0,.55.14.54.56,0,2.57,0,5.14,0,7.71,0,.9.12.78-.8.78H10.62c-.45,0-.56.13-.55.56q0,3.13,0,6.26c0,.45.09.59.57.59,3.57,0,7.14,0,10.72,0,.46,0,.59.12.59.59q0,4,0,8c0,.39-.11.48-.49.48-3.62,0-7.24,0-10.86,0-.44,0-.54.13-.54.54,0,5.14,0,10.28,0,15.42,0,.4-.06.55-.51.55Q5,42,.51,42c-.41,0-.5-.12-.5-.51Q0,31.23,0,21Z"/><path d="M69.94,46.69c-.16-.12-.34-.06-.5-.06H61.5c-.4,0-.51-.12-.5-.52,0-.87,0-1.73,0-2.6,0-.39.1-.51.5-.51,3.39,0,6.77,0,10.16,0,1,0,1.92,0,2.89,0,.34,0,.47.06.45.44,0,.91,0,1.83,0,2.74a1,1,0,0,1-.07.41,1,1,0,0,1-.23.35q-4.2,4.49-8.38,9l-.26.3c.15.17.33.09.49.09,2.65,0,5.29,0,7.94,0,.43,0,.53.13.51.53,0,.9,0,1.8,0,2.7,0,.32-.06.44-.41.44Q68,60,61.4,60c-.33,0-.4-.12-.39-.42q0-1.44,0-2.89a.79.79,0,0,1,.07-.32.78.78,0,0,1,.19-.26l8.3-8.93C69.7,47,69.89,46.92,69.94,46.69Z" class="svg-icon__layer svg-icon__layer--logo-fixed"/><path d="M54.08,46.63H45.51c-.39,0-.53-.11-.51-.51,0-.87,0-1.73,0-2.6,0-.39.09-.52.5-.51,3.1,0,6.21,0,9.31,0h3.73c.34,0,.46.08.45.45,0,.91,0,1.83,0,2.74a1,1,0,0,1-.07.41,1,1,0,0,1-.23.35q-4.18,4.47-8.34,9l-.29.32c.15.17.34.09.49.1,2.63,0,5.25,0,7.89,0,.48,0,.58.14.56.59,0,.88,0,1.76,0,2.65,0,.32-.07.44-.41.44Q52,60,45.46,60c-.32,0-.45-.07-.44-.42,0-1,0-1.92,0-2.89a.84.84,0,0,1,.08-.34.83.83,0,0,1,.21-.27L53.78,47Z" class="svg-icon__layer svg-icon__layer--logo-fixed"/><path d="M25,51.54V43.48c0-.4.12-.48.48-.48,2.55,0,5.09,0,7.64,0a5.57,5.57,0,0,1,5.53,3.85,5.71,5.71,0,0,1-4,7.54,15.53,15.53,0,0,1-3,.17c-.73,0-1.46,0-2.2,0-.33,0-.44.09-.43.43,0,1.52,0,3,0,4.57,0,.33-.08.45-.42.44-1,0-2.07,0-3.1,0-.39,0-.51-.09-.51-.5C25,56.86,25,54.19,25,51.54Zm6.28-.62h1.19a10.9,10.9,0,0,0,1.19-.06,1.9,1.9,0,0,0,1.72-2,2,2,0,0,0-1.56-2.12,36.35,36.35,0,0,0-4.57-.1c-.23,0-.24.15-.24.32v3.59c0,.3.12.35.37.34Z" class="svg-icon__layer svg-icon__layer--logo-fixed"/><path d="M85.48,43,94,60H89.79c-.22,0-.28-.16-.35-.32-.27-.56-.54-1.12-.8-1.69a.56.56,0,0,0-.21-.29.5.5,0,0,0-.34-.08q-2.64,0-5.27,0a.48.48,0,0,0-.34.08.54.54,0,0,0-.21.29c-.25.57-.56,1.11-.8,1.68a.51.51,0,0,1-.21.26.45.45,0,0,1-.32.06H77.4c-.48,0-.48,0-.25-.45l3-6.06,5-10A4.17,4.17,0,0,1,85.48,43Zm0,8.45-1.32,2.67c-.08.16-.12.31.14.31h2.36c.14,0,.25,0,.16-.22-.43-.9-.88-1.8-1.35-2.75Z" class="svg-icon__layer svg-icon__layer--logo-fixed"/><path d="M40,51.54V43.49c0-.39.11-.5.48-.49,1.05,0,2.08,0,3.12,0,.32,0,.4.11.4.42V59.57c0,.34-.09.44-.42.43-1,0-2,0-3.07,0-.39,0-.51-.09-.5-.51C40,56.84,40,54.19,40,51.54Z" class="svg-icon__layer svg-icon__layer--logo-fixed"/></svg>