<svg xmlns="http://www.w3.org/2000/svg" viewBox="0 0 75 97"><path class="cls-1" d="M68.76,56a4.31,4.31,0,0,1,.16-.77,33.41,33.41,0,0,0-1.59-24.64A3.27,3.27,0,0,1,67.07,29c.16-1.65.49-3.29.66-5,.66-6.47.55-12.89-1.31-19.15-.49-1.59-1.2-3.18-1.81-4.83a6.68,6.68,0,0,0-.93.49A41.3,41.3,0,0,0,51.42,13.44c-.49.88-.93.88-1.75.55a32.43,32.43,0,0,0-19.86-1.54c-2,.49-3.88,1.15-5.85,1.76a5.78,5.78,0,0,1-.38-.6A43.42,43.42,0,0,0,11.6.71c-1.15-.82-1.2-.82-1.81.49a.2.2,0,0,0-.05.16,37.69,37.69,0,0,0-2.9,14.7,60.89,60.89,0,0,0,.88,11.8,4.2,4.2,0,0,1-.33,2.69A32.76,32.76,0,0,0,5,52.18c.27,1.21.6,2.41.93,3.79-2-.88-3.94-1.65-5.8-2.47-.05.05-.05.11-.11.22a10.9,10.9,0,0,1,.6,1.1,74.4,74.4,0,0,0,9.74,15.8C18,80.43,27.08,88.77,36.65,96.67a1,1,0,0,0,1.48-.05A201.26,201.26,0,0,0,58.15,78,94.62,94.62,0,0,0,70.57,61.62C72.1,59,73.47,56.29,75,53.44,72.87,54.32,70.9,55.09,68.76,56ZM37.2,61.12A16.21,16.21,0,1,1,53.45,44.94,16.11,16.11,0,0,1,37.2,61.12Z"/></svg>