<svg xmlns="http://www.w3.org/2000/svg" viewBox="0 0 207.1 32.81"><defs><style>.cls-1{fill:#fff}</style></defs><g id="Слой_2" data-name="Слой 2"><g id="Слой_1-2" data-name="Слой 1"><path class="cls-1" d="M36.19,24.1c.63-.87,2-1.26,1.86-2.56s-1.56-1.42-2.41-2.17c-.68-.58-1.69-2.54-2.7-1.83-1.88,1.35,0,2,.2,4.44s-1.42,3.47.68,4.4C35.07,26.92,35.62,24.87,36.19,24.1Z"/><path class="cls-1" d="M38.19,19.88a1.36,1.36,0,0,0,1.48,1.21c.75-.06,3.52-.11,3.23-1.63s-2.69-1.48-3.49-1C38.77,18.78,38.13,19.14,38.19,19.88Z"/><path class="cls-1" d="M35.3,18.17a1.39,1.39,0,0,0,1.86.51c.65-.36,2.89-1.84,2.28-2.77s-3,.08-3.62.42A1.38,1.38,0,0,0,35.3,18.17Z"/><path class="cls-1" d="M40.5,26.7c.17-.67-1-.86-1.71-1.32s-.68-1.07-1-1.15a1.81,1.81,0,0,0-1.87,1.26,1.33,1.33,0,0,0,1,1.63C37.62,27.34,40.19,27.87,40.5,26.7Z"/><path class="cls-1" d="M38.53,23.19c.07.74,1.05,1.24,1.81,1.29s3.08-.29,2.91-1.71-2.74-1.11-3.49-1A1.33,1.33,0,0,0,38.53,23.19Z"/><path class="cls-1" d="M4.93,14.42c.53-1,1.84-1.56,1.46-2.87S4.62,10.4,3.69,9.8,1.58,7.54.63,8.49c-1.62,1.61.31,2,1,4.37s-.82,3.63,1.46,4.24C4.27,17.4,4.51,15.23,4.93,14.42Z"/><path class="cls-1" d="M7.15,13.08c.2.72.93.83,1.68.93.91.13,3.19-.67,2.9-2.19s-2.9-.61-3.64-.39A1.34,1.34,0,0,0,7.15,13.08Z"/><path class="cls-1" d="M9.78,16.36c.22-1.09-2.42-1.69-3.17-1.8a1.37,1.37,0,0,0-1.55,1.13A1.35,1.35,0,0,0,6.22,17.2C7,17.31,9.54,17.44,9.78,16.36Z"/><path class="cls-1" d="M2.91,8.58a1.84,1.84,0,0,0,2.22.54c.27-.2.11-.89.53-1.43C6.17,7,7.21,6.41,6.79,5.86c-.73-1-2.95.41-3.55.85A1.3,1.3,0,0,0,2.91,8.58Z"/><path class="cls-1" d="M6.24,9.84a1.37,1.37,0,0,0,1.68.93c.73-.2,3.26-.8,2.9-2.19S8.19,7.65,7.46,8,6,9.14,6.24,9.84Z"/><path class="cls-1" d="M141.66,24.15c.82-.73,2.22-.81,2.41-2.12s-1.17-1.76-1.81-2.69c-.52-.73-1-2.9-2.17-2.42-2.14.92-.52,2-.88,4.46s-2.21,3.13-.4,4.52C139.9,26.7,140.92,24.79,141.66,24.15Z"/><path class="cls-1" d="M144.61,20.41a1.35,1.35,0,0,0,1.14,1.54c.74.11,3.43.68,3.52-.89S147,19,146.14,19.25C145.44,19.44,144.72,19.66,144.61,20.41Z"/><path class="cls-1" d="M142.22,18.06a1.35,1.35,0,0,0,1.67.93c.72-.22,3.24-1.18,2.87-2.24s-2.87-.58-3.6-.4A1.44,1.44,0,0,0,142.22,18.06Z"/><path class="cls-1" d="M145.2,27.7c.32-.63-.75-1.07-1.34-1.69s-.4-1.21-.69-1.36a1.82,1.82,0,0,0-2.11.84,1.34,1.34,0,0,0,.56,1.83C142.26,27.69,144.62,28.8,145.2,27.7Z"/><path class="cls-1" d="M144.14,23.77c-.11.75.72,1.47,1.44,1.69s3.05.4,3.23-1-2.38-1.72-3.13-1.8A1.36,1.36,0,0,0,144.14,23.77Z"/><path class="cls-1" d="M200,9.09c.68-.86,2-1.18,2-2.51S200.56,5,199.77,4.23c-.63-.63-1.51-2.68-2.55-2-2,1.27-.18,2-.09,4.54s-1.63,3.46.39,4.52C198.71,11.91,199.4,9.84,200,9.09Z"/><path class="cls-1" d="M202.27,4.89a1.35,1.35,0,0,0,1.39,1.32c.75,0,3.5.08,3.31-1.49s-2.57-1.65-3.39-1.23C202.92,3.8,202.25,4.13,202.27,4.89Z"/><path class="cls-1" d="M199.51,3a1.35,1.35,0,0,0,1.81.62c.67-.34,3-1.73,2.44-2.7s-2.93-.08-3.62.23A1.44,1.44,0,0,0,199.51,3Z"/><path class="cls-1" d="M204.11,12c.21-.68-.92-.93-1.61-1.44s-.6-1.12-.92-1.22a1.82,1.82,0,0,0-1.93,1.19,1.34,1.34,0,0,0,.87,1.71C201.21,12.47,203.73,13.15,204.11,12Z"/><path class="cls-1" d="M202.39,8.28c0,.75,1,1.32,1.71,1.41s3.07-.14,3-1.59-2.64-1.28-3.39-1.23A1.36,1.36,0,0,0,202.39,8.28Z"/><path class="cls-1" d="M183.73,28.08c.68-.86,2-1.18,2-2.51s-1.45-1.53-2.25-2.34c-.63-.63-1.51-2.68-2.55-2-2,1.27-.18,2-.09,4.54s-1.63,3.46.39,4.52C182.43,30.9,183.11,28.84,183.73,28.08Z"/><path class="cls-1" d="M186,23.88a1.35,1.35,0,0,0,1.39,1.32c.75,0,3.5.08,3.31-1.49s-2.57-1.65-3.39-1.23C186.63,22.79,186,23.13,186,23.88Z"/><path class="cls-1" d="M183.22,22a1.35,1.35,0,0,0,1.81.62c.67-.34,3-1.73,2.44-2.7s-2.93-.08-3.62.23A1.44,1.44,0,0,0,183.22,22Z"/><path class="cls-1" d="M187.82,31c.21-.68-.92-.93-1.61-1.44s-.6-1.12-.92-1.22a1.82,1.82,0,0,0-1.93,1.19,1.34,1.34,0,0,0,.87,1.71C184.93,31.46,187.45,32.14,187.82,31Z"/><path class="cls-1" d="M186.11,27.27c0,.75,1,1.32,1.71,1.41s3.08-.14,3-1.59-2.64-1.28-3.4-1.23A1.36,1.36,0,0,0,186.11,27.27Z"/><path class="cls-1" d="M130.15,10.68c.7-.9,2.07-1.24,1.94-2.61s-1.51-1.46-2.31-2.24S128.15,3.21,127,4c-1.87,1.32-.06,2,.17,4.54s-1.46,3.48.65,4.49C129,13.54,129.59,11.41,130.15,10.68Z"/><path class="cls-1" d="M132.55,9.73c.06.75.75,1,1.47,1.23s3.22-.11,3.22-1.68-2.71-1.12-3.46-1A1.36,1.36,0,0,0,132.55,9.73Z"/><path class="cls-1" d="M134.51,13.47c.41-1-2-2.12-2.75-2.36a1.36,1.36,0,0,0-.87,2.58C131.6,13.93,134.08,14.52,134.51,13.47Z"/><path class="cls-1" d="M129.25,4.48a1.79,1.79,0,0,0,2.06.94c.29-.15.27-.87.78-1.34s1.74-1,1.43-1.62c-.53-1.13-2.94-.11-3.6.22A1.34,1.34,0,0,0,129.25,4.48Z"/><path class="cls-1" d="M132.25,6.33a1.35,1.35,0,0,0,1.47,1.23c.75-.07,3.31-.23,3.22-1.68s-2.39-1.4-3.17-1.18S132.16,5.6,132.25,6.33Z"/><path class="cls-1" d="M98.59,29.5c.62-.88,2-1.28,1.84-2.57S98.86,25.51,98,24.77c-.68-.58-1.71-2.53-2.71-1.81-1.87,1.36,0,2,.24,4.44s-1.39,3.48.72,4.39C97.5,32.33,98,30.28,98.59,29.5Z"/><path class="cls-1" d="M100.56,25.26a1.36,1.36,0,0,0,1.49,1.2c.75-.07,3.52-.13,3.22-1.65s-2.7-1.45-3.5-1C101.13,24.16,100.49,24.53,100.56,25.26Z"/><path class="cls-1" d="M97.65,23.57a1.39,1.39,0,0,0,1.86.5c.65-.37,2.88-1.87,2.25-2.78s-3,.1-3.62.44A1.38,1.38,0,0,0,97.65,23.57Z"/><path class="cls-1" d="M102.92,32.07c.16-.67-1-.85-1.72-1.31s-.69-1.06-1-1.14a1.81,1.81,0,0,0-1.86,1.28,1.33,1.33,0,0,0,1,1.62C100,32.73,102.63,33.24,102.92,32.07Z"/><path class="cls-1" d="M100.93,28.57c.07.74,1.06,1.24,1.82,1.28s3.08-.32,2.9-1.73-2.74-1.09-3.5-1A1.33,1.33,0,0,0,100.93,28.57Z"/><path class="cls-1" d="M75.49,8.91C76,7.91,77.33,7.35,77,6s-1.77-1.15-2.7-1.76S72.14,2,71.19,3c-1.62,1.61.31,2,1,4.37s-.82,3.63,1.46,4.24C74.83,11.89,75.07,9.71,75.49,8.91Z"/><path class="cls-1" d="M77.71,7.56c.2.72.93.83,1.68.93.91.13,3.19-.67,2.9-2.19s-2.9-.61-3.64-.39A1.34,1.34,0,0,0,77.71,7.56Z"/><path class="cls-1" d="M80.35,10.84c.22-1.09-2.42-1.69-3.17-1.8a1.37,1.37,0,0,0-1.55,1.13,1.35,1.35,0,0,0,1.15,1.52C77.53,11.8,80.1,11.93,80.35,10.84Z"/><path class="cls-1" d="M73.47,3.07a1.84,1.84,0,0,0,2.22.54c.27-.2.11-.89.53-1.43.51-.7,1.55-1.28,1.13-1.82-.73-1-2.95.41-3.55.85A1.3,1.3,0,0,0,73.47,3.07Z"/><path class="cls-1" d="M76.8,4.33a1.37,1.37,0,0,0,1.68.93c.73-.2,3.26-.8,2.9-2.19S78.75,2.13,78,2.48,76.58,3.63,76.8,4.33Z"/></g></g></svg>