<svg xmlns="http://www.w3.org/2000/svg" viewBox="0 0 16 27"><g id="Слой_2" data-name="Слой 2"><path d="M15.76,14.5c-.38-.78-1.43-1.42-2.83-.3A9.08,9.08,0,0,1,8,15.71,9.08,9.08,0,0,1,3.07,14.2c-1.4-1.12-2.45-.47-2.83.3-.66,1.35.09,2,1.78,3.1A11.14,11.14,0,0,0,6.72,19L5.65,20.12l-4,4a1.57,1.57,0,0,0-.33.51,1.59,1.59,0,0,0,0,1.2,1.57,1.57,0,0,0,.33.51l.18.18a1.54,1.54,0,0,0,.5.34A1.52,1.52,0,0,0,3,27H3A1.53,1.53,0,0,0,4,26.54l4-4,4,4a1.54,1.54,0,0,0,.5.34,1.52,1.52,0,0,0,1.18,0,1.54,1.54,0,0,0,.5-.34l.18-.18a1.57,1.57,0,0,0,.33-.51,1.59,1.59,0,0,0,0-1.2,1.57,1.57,0,0,0-.33-.51l-4-4L9.31,19A11.16,11.16,0,0,0,14,17.61c1.69-1.1,2.44-1.75,1.78-3.1ZM8,3.47A3.28,3.28,0,0,1,9.84,4a3.35,3.35,0,0,1,1.22,1.51,3.4,3.4,0,0,1-.72,3.66A3.28,3.28,0,0,1,5.25,8.7a3.4,3.4,0,0,1,.41-4.25,3.31,3.31,0,0,1,1.07-.73A3.27,3.27,0,0,1,8,3.47Zm0,10.2a6.66,6.66,0,0,0,3.74-1.15,6.81,6.81,0,0,0,2.48-3.07A6.91,6.91,0,0,0,12.76,2,6.68,6.68,0,0,0,2.4,3a6.92,6.92,0,0,0,.84,8.63,6.68,6.68,0,0,0,4.76,2Z" id="Слой_1-2" data-name="Слой 1"/></g></svg>