<svg xmlns="http://www.w3.org/2000/svg" viewBox="0 0 13.87 19"><defs><style>.cls-1{fill:#ff5e00}</style></defs><g id="Слой_2" data-name="Слой 2"><g id="Слой_1-2" data-name="Слой 1"><path class="cls-1" d="M9,19c0-3.18-1.22-6-1.22-8L2.17,10C1.45,10.91,0,17,0,19Z"/><path class="cls-1" d="M8.47.73c-.84.89-2.15,1.8-2.75,2.38.2.86,2.1.87,2.2.67A5.05,5.05,0,0,0,8.47.73Z"/><path class="cls-1" d="M10.72,11.54c2.32-.12,3.07-.95,3.16-1.35L10.19,8.78c-.55-1.27-.07-6.43-6-5.45C-1.14,4.2,1.9,9.65,2.29,10.1,3.87,11.93,7.81,11.68,10.72,11.54Z"/><path class="cls-1" d="M6.33,0c-5,2.31-5.2,4.88-5.26,6.7C2,6.85,3.86,5.89,5,5.13,6.53,4.3,6.38,1.07,6.33,0Z"/></g></g></svg>