<svg xmlns="http://www.w3.org/2000/svg" viewBox="0 0 36.94 50.83"><path class="cls-1" d="M24,50.83c0-8.5-3.24-15.94-3.24-21.4L5.78,26.75C3.85,29.2,0,45.52,0,50.83Z"/><path class="cls-1" d="M22.56,2c-2.25,2.38-5.73,4.82-7.32,6.37.54,2.3,5.6,2.33,5.85,1.78C23,6,22.84,3,22.56,2Z"/><path class="cls-1" d="M28.53,30.86c6.19-.31,8.18-2.53,8.4-3.6l-9.82-3.78c-1.47-3.4-.19-17.21-16-14.59C-3,11.23,5.06,25.82,6.1,27,10.31,31.93,20.8,31.25,28.53,30.86Z"/><path class="cls-1" d="M16.85,0C3.64,6.19,3,13.07,2.83,17.93c2.36.4,7.43-2.17,10.39-4.21C17.39,11.51,17,2.86,16.85,0Z"/></svg>