<svg xmlns="http://www.w3.org/2000/svg" viewBox="0 0 42.5 20.7"><defs><style>.cls-1{fill:none}.cls-18{fill:#fff}</style><clipPath id="clip-path"><path class="cls-1" d="M8.6,8.6,4.9,11,2.5,14.7a8.62,8.62,0,0,0,6.1,2.5Z"/></clipPath><linearGradient id="Безымянный_градиент" x1="3.96" y1="-468.04" x2="8.27" y2="-470.38" gradientTransform="matrix(1 0 0 -1 0 -456)" gradientUnits="userSpaceOnUse"><stop offset="0" stop-color="#c02118"/><stop offset="1" stop-color="#a91d17"/></linearGradient><clipPath id="clip-path-2"><path class="cls-1" d="M8.6,8.6l-4.3-1L0,8.6a8.62,8.62,0,0,0,2.5,6.1Z"/></clipPath><linearGradient id="Безымянный_градиент_2" x1="2.75" y1="-463.46" x2="5.27" y2="-469.54" gradientTransform="matrix(1 0 0 -1 0 -456)" gradientUnits="userSpaceOnUse"><stop offset="0" stop-color="#d22f16"/><stop offset="1" stop-color="#c72218"/></linearGradient><clipPath id="clip-path-3"><path class="cls-1" d="M8.6,8.6,6.2,4.9,2.5,2.5A8.62,8.62,0,0,0,0,8.6Z"/></clipPath><linearGradient id="Безымянный_градиент_3" x1="5.11" y1="-459.6" x2="2.58" y2="-465.68" gradientTransform="matrix(1 0 0 -1 0 -456)" gradientUnits="userSpaceOnUse"><stop offset="0" stop-color="#dc461f"/><stop offset="1" stop-color="#d73315"/></linearGradient><clipPath id="clip-path-4"><path class="cls-1" d="M8.6,8.6l1-4.3L8.6,0A8.62,8.62,0,0,0,2.5,2.5Z"/></clipPath><linearGradient id="Безымянный_градиент_4" x1="9.74" y1="-458.75" x2="3.66" y2="-461.27" gradientTransform="matrix(1 0 0 -1 0 -456)" gradientUnits="userSpaceOnUse"><stop offset="0" stop-color="#e55827"/><stop offset="1" stop-color="#dc461f"/></linearGradient><clipPath id="clip-path-5"><path class="cls-1" d="M8.6,8.6l3.7-2.4,2.4-3.7A8.62,8.62,0,0,0,8.6,0Z"/></clipPath><linearGradient id="Безымянный_градиент_5" x1="13.61" y1="-461.12" x2="7.53" y2="-458.59" gradientTransform="matrix(1 0 0 -1 0 -456)" gradientUnits="userSpaceOnUse"><stop offset="0" stop-color="#ef7f3d"/><stop offset="1" stop-color="#e55827"/></linearGradient><clipPath id="clip-path-6"><path class="cls-1" d="M8.6,8.6l4.3,1,4.3-1a8.62,8.62,0,0,0-2.5-6.1Z"/></clipPath><linearGradient id="Безымянный_градиент_6" x1="14.45" y1="-465.74" x2="11.93" y2="-459.66" gradientTransform="matrix(1 0 0 -1 0 -456)" gradientUnits="userSpaceOnUse"><stop offset="0" stop-color="#f29451"/><stop offset="1" stop-color="#ef7f3d"/></linearGradient><clipPath id="clip-path-7"><path class="cls-1" d="M8.6,8.6,11,12.3l3.7,2.4a8.62,8.62,0,0,0,2.5-6.1Z"/></clipPath><linearGradient id="Безымянный_градиент_7" x1="12.07" y1="-469.64" x2="14.59" y2="-463.56" gradientTransform="matrix(1 0 0 -1 0 -456)" gradientUnits="userSpaceOnUse"><stop offset="0" stop-color="#f6ab67"/><stop offset="1" stop-color="#f29451"/></linearGradient><clipPath id="clip-path-8"><path class="cls-1" d="M8.5,20.6a8.7,8.7,0,0,1,.1-12l6.1,6.1-6,5.9c-.1.1-.2.1-.2,0h0"/></clipPath><linearGradient id="Безымянный_градиент_8" x1="6.23" y1="-466.98" x2="12.31" y2="-473.06" gradientTransform="matrix(1 0 0 -1 0 -456)" gradientUnits="userSpaceOnUse"><stop offset="0" stop-color="#fff"/><stop offset=".45" stop-color="#f4f7f7"/><stop offset="1" stop-color="#c8cfdb"/></linearGradient></defs><g id="Слой_2" data-name="Слой 2"><g id="Layer_1" data-name="Layer 1"><g clip-path="url(#clip-path)"><path fill="url(#Безымянный_градиент)" d="M2.5 8.6H8.6V17.2H2.5z"/></g><g clip-path="url(#clip-path-2)"><path fill="url(#Безымянный_градиент_2)" d="M0 7.7H8.6V14.7H0z"/></g><g clip-path="url(#clip-path-3)"><path fill="url(#Безымянный_градиент_3)" d="M0 2.5H8.6V8.6H0z"/></g><g clip-path="url(#clip-path-4)"><path fill="url(#Безымянный_градиент_4)" d="M2.5 0H9.5V8.6H2.5z"/></g><g clip-path="url(#clip-path-5)"><path fill="url(#Безымянный_градиент_5)" d="M8.6 0H14.7V8.6H8.6z"/></g><g clip-path="url(#clip-path-6)"><path fill="url(#Безымянный_градиент_6)" d="M8.6 2.5H17.2V9.5H8.6z"/></g><g clip-path="url(#clip-path-7)"><path fill="url(#Безымянный_градиент_7)" d="M8.6 8.6H17.2V14.7H8.6z"/></g><g clip-path="url(#clip-path-8)"><path fill="url(#Безымянный_градиент_8)" d="M5.2 8.6H14.600000000000001V20.7H5.2z"/></g><path class="cls-18" d="M35.6 7.8L37.1 7.8 34.9 5.1 36.9 2.5 35.4 2.5 33.9 4.6 33.5 4.6 33.5 2.6 32.2 2.6 32.2 7.8 33.5 7.8 33.5 5.7 33.9 5.7 35.6 7.8z"/><path class="cls-18" d="M22.4,12.7c1.3,0,2-.7,2-1.7a1.79,1.79,0,0,0-2-1.8H20.1v5.3h1.3V12.7ZM40.5,9.2H39l-2,5.3h1.3l.4-1.1h2.1l.4,1.1h1.3Zm-.7,1.2.6,1.8H39.1ZM36.5,9.2H32.3v1.1h2.6l-2.6,3.1v1h4.2V13.3H34l2.6-3.1Zm-5.1,0H27.2v1.1h2.6l-2.6,3.1v1h4.2V13.3H28.8l2.6-3.1Zm-5.1,0H25v5.3h1.3Zm-4,1.1c.5,0,.7.2.7.6s-.3.6-.7.6h-1V10.3Z"/><path class="cls-1" d="M20.4,5.2a1.22,1.22,0,0,0,1.2,1.2h.2V4h-.2A1.22,1.22,0,0,0,20.4,5.2Z"/><path class="cls-1" d="M23.2,4H23V6.3h.2a1.22,1.22,0,0,0,1.2-1.2A1.13,1.13,0,0,0,23.2,4Z"/><path class="cls-18" d="M23.3,2.9H23V2.5H21.8v.4h-.3a2.35,2.35,0,1,0,.3,4.7V8H23V7.5a2.35,2.35,0,0,0,2.5-2.2A2.26,2.26,0,0,0,23.3,2.9ZM21.8,6.3h-.2a1.22,1.22,0,0,1-1.2-1.2A1.2,1.2,0,0,1,21.6,4h.2Zm1.4,0H23V4h.2a1.22,1.22,0,0,1,1.2,1.2A1.13,1.13,0,0,1,23.2,6.3Z"/><path class="cls-18" d="M28.8,2.4A2.78,2.78,0,0,0,26,5.1a2.8,2.8,0,0,0,5.6,0A2.78,2.78,0,0,0,28.8,2.4Zm0,4.2a1.45,1.45,0,0,1-1.4-1.5,1.4,1.4,0,1,1,2.8,0A1.52,1.52,0,0,1,28.8,6.6Z"/><path class="cls-18" d="M41.7,6.6,40.8,6a1.52,1.52,0,0,1-1.2.7,1.45,1.45,0,0,1-1.4-1.5,1.45,1.45,0,0,1,1.4-1.5,1.39,1.39,0,0,1,1.2.7l.9-.4.3-.2a2.81,2.81,0,0,0-2.4-1.3,2.78,2.78,0,0,0-2.8,2.7,2.71,2.71,0,0,0,2.8,2.7,2.66,2.66,0,0,0,2.2-1.1Z"/></g></g></svg>